<svg version="1.2" xmlns="http://www.w3.org/2000/svg" viewBox="0 0 500 442" width="500" height="442">
	<title>analytics-svg</title>
	<style>
		.s0 { fill: #f5f5f5 } 
		.s1 { fill: #e0e0e0 } 
		.s2 { fill: #263238 } 
		.s3 { fill: #455a64 } 
		.s4 { fill: #37474f } 
		.s5 { fill: #0e27ef } 
		.s6 { fill: #ffffff } 
		.s7 { fill: #f0f0f0 } 
		.s8 { opacity: .5;fill: #ffffff } 
		.s9 { fill: #fafafa } 
		.s10 { opacity: .2;fill: #000000 } 
		.s11 { opacity: .7;fill: #ffffff } 
		.s12 { opacity: .6;fill: #000000 } 
		.s13 { opacity: .3;fill: #000000 } 
		.s14 { fill: #ffa8a7 } 
		.s15 { fill: #f28f8f } 
		.s16 { opacity: .1;fill: #000000 } 
		.s17 { opacity: .6;fill: #ffffff } 
		.s18 { fill: #000000 } 
	</style>
	<g id="freepik--Floor--inject-2">
		<path id="freepik--floor--inject-2" class="s0" d="m250 463.7c-122.5 0-221.5-51.5-221.5-115.3 0-63.7 99-115.3 221.5-115.3 122.5 0 221.5 51.6 221.5 115.3 0 63.8-99 115.3-221.5 115.3z"/>
	</g>
	<g id="freepik--Shadows--inject-2">
		<path id="freepik--Shadow--inject-2" class="s1" d="m295.5 350.3c-20.8-12-54.4-12-75.1 0-17.6 10.1-20.2 25.6-8 37.4q-0.3 0-0.5 0.1-0.3 0.1-0.5 0.2-0.3 0.1-0.5 0.2-0.3 0.1-0.5 0.3l-65.5 37.8c-2.8 1.6-2.8 4.2 0 5.8l4.1 2.4q1.2 0.6 2.4 0.8 1.3 0.3 2.6 0.3 1.3 0 2.5-0.4 1.3-0.3 2.4-1l61-39.9q0.1-0.1 0.2-0.2 0.1 0 0.2-0.1 0-0.1 0.1-0.1 0.1-0.1 0.2-0.2c20.7 11.9 54.2 11.8 74.9-0.1 20.7-11.9 20.7-31.4 0-43.3z"/>
		<path id="freepik--shadow--inject-2" class="s1" d="m404.1 379.1c-30 0-54.2-14-54.2-31.3 0-17.3 24.2-31.3 54.2-31.3 30 0 54.2 14 54.2 31.3 0 17.3-24.2 31.3-54.2 31.3z"/>
		<path id="freepik--shadow--inject-2" class="s1" d="m77.5 402.6l227.2-131.1q0.4-0.1 0.6-0.5 0.3-0.3 0.3-0.7 0-0.5-0.3-0.8-0.2-0.4-0.6-0.5l-11.9-6.9q-0.5-0.3-1.1-0.4-0.5-0.1-1.1-0.1-0.6 0-1.1 0.1-0.6 0.1-1.1 0.4l-227.2 131.1q-0.4 0.2-0.6 0.5-0.3 0.4-0.3 0.8 0 0.4 0.3 0.8 0.2 0.3 0.6 0.4l12 6.9q0.5 0.3 1 0.4 0.6 0.1 1.1 0.1 0.6 0 1.1-0.1 0.6-0.1 1.1-0.4z"/>
	</g>
	<g id="freepik--chart-3--inject-2">
		<g id="freepik--window-chart--inject-2">
			<g id="freepik--Window--inject-2">
				<path class="s2" d="m296.1 182.1q-0.4-0.2-0.8-0.3-0.5-0.1-0.9 0-0.5 0-0.9 0.2-0.5 0.1-0.8 0.4l-61 35.2q-1.1 0.7-1.9 1.6-0.8 0.8-1.5 1.9-0.6 1.1-0.9 2.3-0.4 1.1-0.5 2.4v6.8 65.4q0 0.1 0 0.2 0 0.1 0 0.1 0 0.1 0 0.2 0 0.1 0 0.2 0.1 0.6 0.3 1.1 0.2 0.5 0.6 1 0.3 0.5 0.7 0.9 0.4 0.4 0.9 0.7l5 2.9 0.3 0.1q-0.4-0.2-0.7-0.5-0.3-0.3-0.6-0.7-0.2-0.4-0.3-0.8-0.1-0.4-0.1-0.9v-63.7-9.6q0-1.2 0.4-2.4 0.4-1.2 1-2.3 0.6-1 1.5-1.9 0.9-0.9 1.9-1.6l60.9-35.2q0.4-0.2 0.8-0.4 0.4-0.1 0.8-0.2 0.4 0 0.8 0 0.4 0.1 0.8 0.2c-1-0.5-4.9-2.8-5.8-3.3z"/>
				<path class="s3" d="m303.4 188q0-0.1 0-0.1 0-0.1 0-0.1 0-0.1 0-0.1 0-0.1 0-0.1 0-0.1 0-0.1 0-0.1-0.1-0.1 0-0.1 0-0.1 0-0.1 0-0.1 0-0.1 0-0.1-0.1-0.1-0.1-0.2 0-0.1-0.1-0.2 0 0 0-0.1-0.1-0.1-0.1-0.1 0-0.1-0.1-0.1 0-0.1 0-0.1 0 0 0 0-0.1-0.1-0.1-0.1 0 0 0 0 0-0.1 0-0.1-0.1 0-0.1 0 0-0.1 0-0.1-0.1 0-0.1-0.1 0 0-0.1 0 0-0.1 0-0.1-0.1-0.1-0.1-0.1-0.1 0-0.1-0.1-0.1 0-0.1 0-0.1 0-0.1-0.1-0.1 0-0.1 0-0.4-0.2-0.8-0.2-0.5-0.1-0.9 0-0.4 0-0.8 0.2-0.4 0.1-0.7 0.4l-61 35.1q-1 0.7-1.9 1.6-0.8 0.9-1.4 1.9-0.7 1.1-1 2.3-0.4 1.2-0.4 2.4v73.4q0 0.8 0.4 1.6 0.4 0.8 1.2 1.2 0.7 0.4 1.6 0.4 0.9 0 1.6-0.4l60.8-35.2q1.1-0.7 1.9-1.6 0.9-0.9 1.5-1.9 0.6-1.1 1-2.3 0.3-1.2 0.4-2.4v-73.4q0-0.1 0-0.2 0-0.1 0-0.1 0-0.1 0-0.2 0 0 0-0.1z"/>
				<path class="s4" d="m298.7 185.8l-60.9 35.2q-0.5 0.3-1 0.7-0.5 0.4-0.9 0.8-0.4 0.5-0.8 1-0.3 0.5-0.6 1l-6-3.5q0.3-0.5 0.6-1 0.4-0.5 0.8-0.9 0.4-0.4 0.9-0.8 0.4-0.4 1-0.7l60.9-35.2q0.4-0.3 0.8-0.4 0.4-0.2 0.9-0.2 0.4-0.1 0.9 0 0.4 0.1 0.8 0.3c0.9 0.5 4.8 2.8 5.8 3.3q-0.4-0.1-0.8-0.2-0.4 0-0.8 0-0.4 0.1-0.8 0.2-0.4 0.2-0.8 0.4z"/>
			</g>
			<g id="freepik--Chart--inject-2">
				<path class="s5" d="m268.9 245.6v-22.8c6-3.4 11.6 0 13.5 8.1 2.3 9.9-1.6 25.4-8.9 33.7z"/>
				<path class="s5" d="m268.2 268.1q-0.4 0.2-0.9 0.4-0.4 0.2-0.9 0.4-0.4 0.2-0.9 0.3-0.5 0.1-1 0.2l3.7-19.6 3.7 15.3q-0.4 0.5-0.9 0.9-0.4 0.3-0.9 0.7-0.4 0.4-0.9 0.7-0.5 0.3-1 0.6z"/>
				<g style="opacity: .4">
					<path class="s6" d="m268.2 268.1q-0.4 0.2-0.9 0.4-0.4 0.2-0.9 0.4-0.4 0.2-0.9 0.3-0.5 0.1-1 0.2l3.7-19.6 3.7 15.3q-0.4 0.5-0.9 0.9-0.4 0.3-0.9 0.7-0.4 0.4-0.9 0.7-0.5 0.3-1 0.6z"/>
				</g>
				<path class="s5" d="m262.9 270.7c-4 0.1-7.2-3-8.6-8.3l12.8-13.8z"/>
				<g style="opacity: .6">
					<path class="s6" d="m262.9 270.7c-4 0.1-7.2-3-8.6-8.3l12.8-13.8z"/>
				</g>
				<path class="s5" d="m254.5 259.7q-0.1-0.6-0.2-1.3-0.1-0.7-0.2-1.3 0-0.7-0.1-1.4 0-0.7 0-1.3c0-11.7 6-24.7 13.5-29.6v21z"/>
				<g style="opacity: .7">
					<path class="s6" d="m254.5 259.7q-0.1-0.6-0.2-1.3-0.1-0.7-0.2-1.3 0-0.7-0.1-1.4 0-0.7 0-1.3c0-11.7 6-24.7 13.5-29.6v21z"/>
				</g>
				<path class="s7" d="m278.5 232.8c0 0 0-0.1 0-0.2q0-0.1 0-0.1 0.1-0.1 0.1-0.2 0 0 0 0 0.1-0.1 0.1-0.1l0.9-0.5c0.1 0 0.1 0 0.1 0.2q-0.1 0-0.1 0.1 0 0.1 0 0.1-0.1 0.1-0.1 0.1 0 0-0.1 0.1l-0.8 0.5c0 0-0.1 0-0.1 0zm1.7-1c0 0 0-0.1 0-0.2q0.1-0.1 0.1-0.1 0-0.1 0-0.1 0.1-0.1 0.1-0.1 0-0.1 0.1-0.1l0.8-0.5c0.1 0 0.2 0 0.1 0.2q0 0 0 0.1 0 0.1-0.1 0.1 0 0.1 0 0.1-0.1 0-0.1 0.1l-0.9 0.5q0 0-0.1 0zm1.8-1c0 0 0-0.1 0-0.2q0-0.1 0-0.1 0-0.1 0.1-0.1 0-0.1 0-0.1 0.1-0.1 0.1-0.1l0.9-0.5q0.1 0 0.1 0.2-0.1 0.1-0.1 0.1 0 0.1 0 0.1-0.1 0.1-0.1 0.1 0 0.1-0.1 0.1l-0.8 0.5c0 0-0.1 0-0.1 0zm1.7-1c0 0 0-0.1 0-0.3q0.1 0 0.1-0.1 0 0 0-0.1 0.1 0 0.1-0.1 0 0 0.1 0l0.8-0.5c0.1-0.1 0.2 0 0.1 0.2q0 0 0 0.1 0 0-0.1 0.1 0 0 0 0.1-0.1 0-0.1 0.1l-0.9 0.5h-0.1zm1.8-1c0 0 0-0.2 0-0.3q0 0 0-0.1 0 0 0.1-0.1 0 0 0-0.1 0.1 0 0.1-0.1l0.9-0.5c0.1 0 0.1 0.1 0.1 0.3q-0.1 0-0.1 0.1 0 0 0 0.1-0.1 0-0.1 0.1 0 0-0.1 0l-0.8 0.6c0 0-0.1-0.1-0.1-0.1zm1.7-1c0 0 0-0.1 0-0.2q0-0.1 0.1-0.1 0-0.1 0-0.1 0-0.1 0.1-0.1 0-0.1 0.1-0.1l0.6-0.4c0.1 0 0.1 0.1 0.1 0.3q0 0-0.1 0.1 0 0 0 0.1 0 0-0.1 0.1 0 0-0.1 0.1l-0.6 0.3c0 0 0 0-0.1 0z"/>
				<path class="s7" d="m248.8 248.4c0 0 0-0.2 0-0.3q0 0 0-0.1 0.1 0 0.1-0.1 0 0 0.1-0.1 0 0 0-0.1l0.9-0.5c0.1 0 0.1 0.1 0.1 0.3q0 0-0.1 0.1 0 0 0 0.1 0 0-0.1 0.1 0 0-0.1 0.1l-0.8 0.5zm1.7-1c0 0 0-0.2 0-0.3q0 0 0.1-0.1 0 0 0-0.1 0 0 0.1-0.1 0 0 0.1-0.1l0.8-0.5c0.1 0 0.1 0 0.1 0.3q0 0-0.1 0.1 0 0 0 0.1 0 0-0.1 0.1 0 0 0 0l-0.9 0.6zm1.7-1c0 0 0-0.2 0-0.3q0 0 0.1-0.1 0 0 0-0.1 0 0 0.1-0.1 0 0 0.1-0.1l0.8-0.5c0.1 0 0.1 0 0.1 0.3q0 0 0 0.1-0.1 0-0.1 0.1 0 0-0.1 0.1 0 0 0 0.1l-0.9 0.5-0.1-0.1zm1.8-1c0 0 0-0.1 0-0.2q0 0 0-0.1 0 0 0.1-0.1 0 0 0-0.1 0.1 0 0.1-0.1l0.9-0.5c0.1 0 0.1 0 0 0.2q0 0.1 0 0.2 0 0-0.1 0.1 0 0 0 0.1-0.1 0-0.1 0l-0.9 0.5c0 0 0 0 0 0zm1.7-1q0 0 0 0 0-0.1 0-0.1 0 0 0-0.1 0 0 0 0 0-0.1 0-0.1 0.1-0.1 0.1-0.1 0-0.1 0.1-0.1 0-0.1 0-0.1l0.9-0.5c0.1 0 0.1 0 0.1 0.2q0 0.1-0.1 0.1 0 0.1 0 0.1 0 0.1-0.1 0.1 0 0.1 0 0.1l-0.9 0.5zm1.7-1c0 0 0-0.1 0-0.2q0-0.1 0.1-0.1 0-0.1 0-0.1 0-0.1 0.1-0.1 0-0.1 0.1-0.1l0.6-0.4q0.1 0 0 0.3 0 0 0 0.1 0 0 0 0.1-0.1 0-0.1 0.1 0 0-0.1 0l-0.6 0.4z"/>
				<path class="s3" d="m277.1 233.3q0-0.1 0.1-0.3 0-0.1 0.1-0.3 0-0.1 0.1-0.3 0.1-0.1 0.3-0.2c0.3-0.2 0.5 0.1 0.5 0.5q0 0.2 0 0.4-0.1 0.1-0.1 0.3-0.1 0.1-0.2 0.2-0.1 0.2-0.2 0.3c-0.3 0.1-0.6-0.1-0.6-0.6z"/>
				<path class="s3" d="m258 242.9q0-0.2 0-0.4 0.1-0.1 0.1-0.3 0.1-0.1 0.2-0.3 0.1-0.1 0.2-0.2c0.3-0.2 0.6 0.1 0.6 0.5q0 0.2-0.1 0.3 0 0.2-0.1 0.4 0 0.1-0.1 0.2-0.1 0.2-0.3 0.3c-0.3 0.1-0.5-0.1-0.5-0.5z"/>
				<path class="s3" d="m267.7 266.1q0-0.2 0-0.3 0-0.2 0.1-0.3 0.1-0.2 0.2-0.3 0.1-0.1 0.2-0.2c0.3-0.2 0.5 0 0.5 0.5q0 0.2 0 0.3 0 0.2-0.1 0.3-0.1 0.2-0.2 0.3-0.1 0.1-0.2 0.2c-0.3 0.2-0.5 0-0.5-0.5z"/>
				<path fill-rule="evenodd" class="s5" d="m291.5 226.7q0 0 0 0 0 0 0 0 0 0-0.1 0 0 0 0 0 0 0 0 0 0 0 0 0 0-0.1 0-0.1 0 0 0 0v-0.7l-1.1 0.7q0 0 0 0 0 0 0 0 0 0-0.1 0 0 0 0 0 0 0 0 0 0 0 0-0.1 0 0 0 0 0 0 0 0v-0.4q0 0 0 0 0-0.1 0-0.1 0 0 0 0 0 0 0 0l0.1-0.2 1.1-2.8q0 0 0-0.1 0 0 0.1 0 0-0.1 0-0.1 0 0 0.1 0l0.2-0.2q0 0 0 0.1v2.2l0.3-0.1q0.1 0 0.1 0 0-0.1 0-0.1 0 0 0 0.1 0 0 0 0 0 0 0 0 0 0 0 0 0 0 0 0 0 0 0 0v0.4q0 0.1 0 0.1 0 0 0 0 0 0 0 0 0 0.1 0 0.1c0 0 0 0-0.1 0.1l-0.3 0.1v0.7q0 0 0 0.1 0 0 0 0 0 0 0 0 0 0 0 0 0 0.1 0 0.1 0 0 0 0 0 0 0 0 0 0 0 0zm0.3-4.1h0.1q-0.1 0-0.1 0zm0 0v0.1q0-0.1 0-0.1zm-0.4 2.7v-1.3l-0.7 1.6z"/>
				<path class="s5" d="m292.8 222.2q0-0.1 0-0.1 0 0 0 0 0 0 0 0 0 0 0-0.1 0 0 0 0 0 0 0 0 0 0 0 0 0 0 0.1 0l1.3-0.8c0 0 0.1 0 0.1 0q0 0 0 0 0 0 0 0 0 0 0 0 0 0 0 0v0.5q0 0 0 0 0 0 0 0 0 0 0 0 0 0.1 0 0.1 0 0 0 0 0 0 0 0 0 0 0 0 0 0.1-0.1 0.1l-1 0.6v0.7q0.1 0 0.1-0.1 0 0 0 0 0.1 0 0.1 0 0-0.1 0-0.1l0.2-0.1q0 0 0.1 0 0-0.1 0.1-0.1 0 0 0.1 0 0 0 0.1 0 0 0 0.1 0 0 0 0 0 0.1 0 0.1 0 0 0 0.1 0.1 0 0 0 0 0.1 0 0.1 0.1 0 0 0 0.1 0.1 0 0.1 0 0 0.1 0 0.2 0 0 0 0.1 0 0.1 0 0.1 0.1 0.1 0 0.2 0.1 0 0 0.1 0 0.1 0 0.2 0 0.1 0 0.2 0 0 0 0.1 0 0.1-0.1 0.2 0 0 0 0.1 0 0.1-0.1 0.1 0 0.1 0 0.2-0.1 0-0.1 0.1 0 0-0.1 0.1 0 0-0.1 0.1 0 0 0 0.1-0.1 0-0.1 0.1-0.1 0-0.1 0-0.1 0.1-0.1 0.1-0.1 0-0.1 0.1-0.1 0-0.1 0-0.1 0.1-0.1 0.1-0.1 0-0.1 0-0.1 0-0.1 0-0.1 0-0.1 0-0.1 0-0.1 0 0 0-0.1 0 0 0 0 0-0.1-0.1-0.1-0.1 0 0 0-0.1-0.1 0-0.1 0 0-0.1 0-0.1 0 0 0-0.1-0.1 0-0.1-0.1 0 0 0-0.1 0 0 0-0.1 0 0 0 0 0 0 0 0 0-0.1 0-0.1 0 0 0 0c0 0 0-0.1 0.1-0.1l0.3-0.1c-0.1 0 0 0 0 0q0 0 0 0.1 0 0 0 0 0 0 0 0.1 0 0 0 0 0.1 0 0.1 0 0 0 0 0 0 0 0 0.1 0 0 0.1 0 0 0 0 0 0 0 0 0 0 0 0.1 0 0 0 0 0l0.2-0.1q0 0 0.1-0.1 0 0 0.1-0.1 0 0 0-0.1 0.1 0 0.1-0.1 0 0 0.1-0.1 0-0.1 0-0.2 0 0 0-0.1 0-0.1 0-0.1 0-0.1 0-0.1 0-0.1 0-0.1 0-0.1 0-0.1-0.1-0.1-0.1-0.1 0 0-0.1 0 0 0-0.1 0 0 0-0.1 0 0 0 0 0l-0.2 0.1q0 0.1 0 0.1-0.1 0-0.1 0 0 0 0 0 0 0 0 0.1 0 0 0 0 0 0-0.1 0 0 0 0 0 0 0 0 0.1 0 0 0 0 0 0 0 0 0 0 0 0-0.1 0-0.1 0l-0.3 0.2q0 0 0 0 0 0 0 0-0.1 0-0.1 0 0 0 0 0c0 0 0 0 0-0.1z"/>
				<path fill-rule="evenodd" class="s5" d="m295.4 220.5q0 0 0 0 0-0.1 0.1-0.1 0 0 0 0 0.1 0 0.1 0 0 0 0.1 0 0 0.1 0.1 0.1 0 0 0 0.1 0 0 0.1 0.1 0 0 0 0 0 0 0 0.1 0 0 0 0 0 0.1 0 0.1v0.6q0 0 0 0.1 0 0 0 0.1 0 0 0 0 0 0.1 0 0.1 0 0-0.1 0.1 0 0 0 0 0 0.1 0 0.1 0 0 0 0.1-0.1 0-0.1 0 0 0.1 0 0.1 0 0-0.1 0.1 0 0 0 0 0 0.1-0.1 0.1 0 0 0 0 0 0.1-0.1 0.1 0 0 0 0-0.1 0-0.1 0.1 0 0 0 0-0.1 0-0.1 0 0 0-0.1 0 0 0 0 0 0 0-0.1 0 0 0 0 0 0 0 0-0.1-0.1 0-0.1 0 0 0 0 0 0-0.1 0-0.1 0 0 0 0-0.1-0.1-0.1-0.1 0 0 0 0 0-0.1 0-0.1 0 0 0-0.1v-0.6q0 0 0-0.1 0 0 0 0 0-0.1 0-0.1 0.1 0 0.1-0.1 0 0 0-0.1 0-0.1 0.1-0.2 0 0 0-0.1 0.1-0.1 0.1-0.1 0.1 0 0.1-0.1 0 0 0 0 0.1 0 0.1-0.1 0 0 0.1 0zm0.2 1.2q0-0.1 0-0.1 0 0 0 0 0 0 0 0 0 0 0-0.1v-0.3q0 0 0 0 0 0 0 0 0 0 0 0 0 0 0-0.1 0 0 0 0 0 0 0 0 0-0.1 0-0.1 0 0 0 0c-0.1 0-0.1 0-0.2 0q0 0 0 0-0.1 0-0.1 0 0 0.1 0 0.1 0 0 0 0-0.1 0.1-0.1 0.1 0 0 0 0 0 0.1 0 0.1 0 0 0.1 0-0.1 0.1-0.1 0.1 0 0 0 0 0 0 0 0 0 0 0.1 0.1v0.3q-0.1 0-0.1 0 0 0 0 0 0 0 0 0 0 0.1 0.1 0.1-0.1 0-0.1 0 0 0 0 0.1 0 0 0 0 0 0 0.1 0c0 0.1 0 0 0.1 0q0 0 0 0 0.1 0 0.1 0 0 0 0-0.1 0 0 0.1 0 0 0 0-0.1 0 0 0 0 0-0.1 0-0.1 0 0 0 0zm-295.6-241.7l295.4 244.3q0 0 0 0 0 0 0 0 0 0 0 0 0 0 0 0.1 0 0 0 0 0 0-0.1 0 0 0 0 0 0 0 0 0l-0.2 0.2q0-0.1 0-0.1c-295.1-244.5-295.1-244.5-295.1-244.5zm297.2 239.5l-0.2 0.1q-0.1 0-0.1 0 0 0 0 0 0 0 0 0 0 0.1 0 0.1 0 0 0 0 0 0 0 0-0.1 0-0.1 0.1 0 0 0 0l-296.8-239.8c0 0 0 0 297.2 239.5zm0 0c0 0 0 0 0 0q0 0 0 0zm-2.1 5.1h-0.1q0.1 0 0.1 0zm0 0q0 0 0 0zm1.8-3q0.1 0 0.1-0.1 0 0 0 0 0.1 0 0.1 0 0 0 0.1 0 0 0 0 0 0 0 0.1 0 0 0 0 0 0 0 0 0.1 0.1 0 0.1 0 0 0 0 0 0 0.1 0 0.1 0 0 0 0 0 0.1 0 0.1 0 0 0 0 0 0.1 0 0.1 0 0 0 0.1 0 0 0 0 0 0.1 0 0.1 0 0.1 0 0.1 0 0 0 0.1 0 0.1 0 0.3 0 0 0 0.1 0 0 0 0 0 0.1 0 0.1 0 0 0 0.1 0 0 0 0 0 0.1 0 0.1 0 0 0 0.1 0 0-0.1 0 0 0.1 0 0.2-0.1 0-0.1 0.1-0.1 0.1-0.1 0.1-0.1 0.1-0.2 0.1 0 0 0 0 0 0-0.1 0.1 0 0 0 0-0.1 0-0.1 0 0 0 0 0-0.1 0-0.1 0 0-0.1 0-0.1-0.1 0-0.1 0 0 0 0 0 0 0 0-0.1 0 0-0.1 0 0 0 0-0.1 0 0 0 0 0 0 0-0.1 0 0 0 0 0-0.1 0-0.1 0 0 0-0.1 0 0 0 0 0-0.1 0-0.1 0-0.1 0-0.1 0-0.2 0-0.3 0 0 0-0.1 0 0 0-0.1 0 0 0 0 0-0.1 0-0.1 0 0 0-0.1 0.1 0 0.1 0 0-0.1 0-0.1 0 0 0-0.1 0 0 0.1 0 0-0.1 0-0.1 0 0 0-0.1 0.1 0 0.1 0 0-0.1 0.1-0.1 0 0 0 0 0.1-0.1 0.1-0.1 0 0 0.1 0zm0.2 1.1v-0.5q0 0 0 0 0-0.1 0-0.1 0 0-0.1 0 0 0 0-0.1 0 0-0.1 0 0 0.1-0.1 0.1 0 0 0 0 0 0 0 0.1-0.1 0-0.1 0 0 0 0 0.1 0 0 0 0 0 0.1 0 0.1 0 0 0 0v0.1q0 0.1 0 0.1 0 0 0 0 0 0 0 0.1 0 0 0 0 0 0.1 0 0.1v0.2q0 0 0 0 0 0.1 0 0.1 0 0 0 0 0 0 0 0.1 0.1 0 0.2 0 0 0 0-0.1 0.1 0 0.1 0 0 0 0 0 0-0.1 0-0.1 0 0 0-0.1 0.1 0 0.1 0 0-0.1 0-0.1 0 0 0-0.1z"/>
				<path class="s5" d="m240.9 249.6c0 0 0 0 0 0q0.1 0 0.1 0.1 0 0 0 0 0 0 0 0 0 0-0.1 0v0.4q0.1 0 0.1 0.1 0 0 0 0 0 0 0 0 0 0-0.1 0 0 0.1 0 0.2l-0.5 1.1q0.1 0 0.1 0 0 0 0.1 0 0 0 0 0 0.1 0 0.1 0 0 0 0.1 0 0 0 0 0 0.1 0 0.1 0.1 0 0 0 0 0.1 0 0.1 0.1 0 0 0 0 0.1 0.1 0.1 0.1 0 0 0 0.1 0 0 0 0.1 0 0 0 0.1 0 0 0 0.1 0 0 0 0.1 0 0 0 0.1 0 0.1 0 0.2 0 0 0 0.1 0 0.1 0 0.1 0 0.1-0.1 0.2 0 0 0 0.1 0 0.1-0.1 0.1 0 0.1 0 0.1-0.1 0.1-0.1 0.2 0 0-0.1 0.1 0 0-0.1 0.1 0 0-0.1 0.1 0 0 0 0.1-0.1 0-0.1 0-0.1 0.1-0.1 0.1-0.1 0-0.1 0.1-0.1 0-0.2 0 0 0.1-0.1 0.1 0 0-0.1 0 0 0-0.1 0 0 0.1-0.1 0.1 0 0-0.1-0.1 0 0 0 0-0.1 0-0.1 0 0 0-0.1-0.1 0 0 0 0 0 0-0.1-0.1 0 0 0 0 0-0.1 0-0.1 0-0.1-0.1-0.1 0 0 0-0.1 0 0 0-0.1 0 0 0 0 0 0 0 0 0 0 0-0.1 0 0 0 0 0 0 0 0 0 0 0 0 0.1 0 0.1-0.1 0 0 0 0l0.3-0.1q0 0.1 0 0.1 0 0 0 0 0 0 0 0 0 0 0 0 0 0 0.1 0.1 0 0 0 0 0 0 0 0 0 0 0 0 0 0 0.1 0 0 0 0 0 0 0 0.1 0 0 0 0 0l0.2-0.1q0.1 0 0.1-0.1 0.1 0 0.1-0.1 0.1 0 0.1-0.1 0 0 0.1-0.1 0 0 0-0.1 0.1 0 0.1-0.1 0 0 0-0.1 0-0.1 0-0.1c0-0.2 0-0.3-0.1-0.3q-0.1 0-0.1 0-0.1 0-0.1 0-0.1 0-0.1 0-0.1 0.1-0.1 0.1l-0.3 0.2q0 0 0 0 0 0 0 0 0 0-0.1 0 0 0 0 0 0-0.1 0-0.1 0 0 0 0 0 0 0 0 0 0 0 0v-0.4q0 0 0-0.1 0 0 0 0 0 0 0 0 0 0 0-0.1 0 0 0 0 0.1 0 0.1 0 0 0 0-0.1 0 0 0 0l0.5-1.1-1 0.6q0 0 0 0 0 0 0 0 0 0-0.1 0 0 0 0 0 0 0 0 0 0-0.1 0-0.1 0 0 0 0 0 0 0 0v-0.4q0 0 0 0 0-0.1 0-0.1 0 0 0 0 0 0 0 0 0 0 0-0.1 0.1 0 0.1 0 0 0 0 0 0 0 0 0z"/>
				<path fill-rule="evenodd" class="s5" d="m243.4 249.6q0 0 0 0.1 0 0 0 0 0 0.1 0 0.1 0 0 0 0.1v0.5q0 0 0 0 0 0.1 0 0.1 0 0 0 0.1 0 0 0 0 0 0.1 0 0.2 0 0.1 0 0.2 0 0 0 0.1 0 0.1 0 0.2 0 0-0.1 0.1 0 0.1 0 0.2 0 0 0 0.1-0.1 0.1-0.1 0.1 0 0.1-0.1 0.2 0 0 0 0.1-0.1 0.1-0.1 0.1-0.1 0.1-0.1 0.1 0 0.1-0.1 0.2-0.1 0-0.1 0.1-0.1 0-0.1 0-0.1 0.1-0.1 0.1-0.1 0.1-0.2 0.1 0 0-0.1 0 0 0-0.1 0.1 0 0-0.1 0-0.1 0-0.1 0 0-0.1-0.1-0.1 0 0 0 0-0.1 0-0.1-0.1 0 0-0.1-0.1 0 0 0-0.1 0 0 0-0.1-0.1 0-0.1-0.1 0 0 0-0.1 0-0.1 0-0.2 0 0 0-0.1 0-0.1 0-0.1v-1q0-0.1 0-0.2 0-0.1 0-0.2 0 0 0-0.1 0-0.1 0-0.2 0-0.1 0.1-0.1 0-0.1 0-0.2 0-0.1 0-0.1 0.1-0.1 0.1-0.2 0 0 0.1-0.1 0-0.1 0-0.1 0.1-0.1 0.1-0.2 0 0 0.1-0.1 0 0 0.1-0.1 0 0 0.1-0.1 0.1 0 0.1-0.1 0.1 0 0.2-0.1 0 0 0.1 0 0-0.1 0.1-0.1 0 0 0.1 0 0 0 0.1 0 0 0 0.1 0 0 0 0.1 0 0 0 0 0.1 0.1 0 0.1 0 0 0.1 0.1 0.1 0 0.1 0 0.1 0 0.1 0 0.1 0.1 0.1 0.1 0.1 0 0.1 0 0.2 0 0 0 0.1 0 0.1 0 0.2 0 0 0 0.1zm-1.4 1.8q0 0.1 0 0.2 0 0.1 0 0.1 0 0.1 0.1 0.2 0 0 0 0.1 0.1 0.2 0.4 0 0.1 0 0.1-0.1 0.1 0 0.1-0.1 0.1 0 0.1-0.1 0-0.1 0.1-0.1 0-0.1 0-0.2 0-0.1 0-0.2 0.1-0.1 0.1-0.1 0-0.1 0-0.2 0-0.2 0-0.5 0-0.3 0-0.5 0 0 0-0.1 0-0.1 0-0.2-0.1 0-0.1-0.1 0-0.1 0-0.1-0.2-0.2-0.4 0-0.1 0-0.1 0.1-0.1 0-0.1 0.1-0.1 0-0.1 0.1 0 0-0.1 0.1 0 0.1 0 0.2-0.1 0.1-0.1 0.1 0 0.1 0 0.2 0 0.1 0 0.2 0 0.2 0 0.5 0 0.2 0 0.4z"/>
				<path fill-rule="evenodd" class="s5" d="m244.3 247.6q0.1 0 0.1 0 0 0 0.1-0.1 0 0 0 0 0 0 0.1 0 0 0 0 0 0 0 0.1 0 0 0.1 0 0.1 0 0 0 0 0.1 0 0.1 0 0 0 0 0.1 0 0 0 0 0 0 0.1 0.1 0 0 0 0 0 0 0 0.1 0 0 0 0 0 0.1 0 0.1 0 0.1 0 0.3 0 0.2 0 0.3 0 0.2 0 0.3-0.1 0-0.1 0.1 0 0 0 0 0 0.1 0 0.1 0 0-0.1 0.1 0 0 0 0 0 0.1 0 0.1-0.1 0-0.1 0.1 0 0 0 0 0 0.1-0.1 0.1 0 0 0 0-0.1 0.1-0.1 0.1 0 0-0.1 0 0 0 0 0.1 0 0-0.1 0 0 0 0 0-0.1 0-0.1 0 0 0 0 0-0.1 0-0.1 0 0 0 0 0 0 0-0.1-0.1 0 0 0 0 0 0 0 0 0-0.1 0-0.1-0.1 0-0.1 0 0 0 0-0.1 0 0 0 0 0-0.1 0-0.1 0 0 0-0.1 0 0 0 0 0-0.1 0-0.1 0 0 0-0.1 0 0 0-0.1 0-0.1 0-0.3 0 0 0 0 0-0.1 0-0.1 0-0.1 0-0.1 0 0 0-0.1 0 0 0.1 0 0-0.1 0-0.1 0 0 0-0.1 0 0 0-0.1 0.1 0 0.1 0 0 0 0-0.1 0 0 0.1 0 0-0.1 0-0.1 0 0 0.1-0.1 0 0 0 0 0 0 0.1-0.1 0 0 0 0zm1.5-0.7l0.1-0.1q0 0 0 0 0-0.1 0-0.1 0 0 0 0 0 0 0 0l0.3-0.1q0 0 0 0 0 0 0 0 0 0 0 0 0 0 0 0 0 0 0 0 0 0 0 0 0 0 0 0 0 0 0 0l-1.8 4.8v0.1q0 0 0 0-0.1 0-0.1 0 0 0 0 0 0 0 0 0l-0.2 0.2q0 0-0.1 0c-0.1 0 0 0 0-0.1zm-1.3 1.9v-0.5q0-0.1 0-0.1 0 0 0 0 0 0 0-0.1 0 0 0 0c0 0 0 0-0.1 0q0 0-0.1 0 0 0.1 0 0.1 0 0 0 0 0 0-0.1 0.1 0 0 0 0 0 0.1 0 0.1 0 0 0 0 0 0.1 0 0.1 0.1 0 0 0.1c0 0.1 0 0.4 0 0.4q0 0 0 0 0 0.1 0 0.1 0 0 0 0 0 0.1 0 0.1c0.1 0 0.1 0 0.2 0q0 0 0-0.1 0.1 0 0.1 0 0 0 0 0 0-0.1 0-0.1 0 0 0-0.1 0 0 0 0 0 0 0-0.1 0 0 0 0zm1.4-0.1q0.1 0 0.1 0 0-0.1 0-0.1 0.1 0 0.1 0 0 0 0.1 0 0 0 0 0 0 0 0 0 0.1 0 0.1 0 0 0.1 0 0.1 0 0 0.1 0 0 0 0 0 0 0.1 0 0.1 0 0 0 0 0 0.1 0 0.1 0 0 0 0.1 0 0 0 0 0 0 0 0.1 0 0.1 0 0.3 0 0.1 0 0.3 0 0 0 0.1 0 0 0 0 0 0.1 0 0.1 0 0 0 0.1 0 0 0 0.1 0 0 0 0 0 0.1 0 0.1-0.1 0-0.1 0.1 0 0 0 0 0 0.1 0 0.1-0.1 0-0.1 0.1 0 0 0 0-0.1 0-0.1 0.1 0 0 0 0-0.1 0.1-0.1 0.1 0 0-0.1 0 0 0 0 0-0.1 0.1-0.1 0.1 0 0 0 0-0.1 0-0.1 0 0 0-0.1 0 0 0 0 0 0 0 0 0-0.1-0.1-0.1-0.1 0 0 0 0 0 0 0 0 0-0.1-0.1-0.1 0 0 0 0 0-0.1 0-0.1 0 0 0-0.1 0 0 0 0 0 0 0-0.1 0-0.1 0-0.3 0-0.1 0-0.3 0-0.1 0-0.3 0 0 0-0.1 0.1 0 0.1 0 0-0.1 0-0.1 0 0 0-0.1 0 0 0.1 0 0-0.1 0-0.1 0 0 0-0.1 0.1 0 0.1 0 0 0 0-0.1 0.1 0 0.1 0 0-0.1 0.1-0.1 0 0 0 0zm0.2 1.2q0-0.1 0-0.1 0 0 0 0 0 0 0 0 0 0 0-0.1 0 0 0-0.1v-0.2q0 0 0 0 0 0 0 0 0 0 0 0 0-0.1 0-0.1 0 0 0 0 0 0 0-0.1 0 0 0 0 0 0 0 0-0.1 0-0.2 0 0 0 0 0 0 0-0.1 0 0 0 0 0.1 0 0 0 0 0 0 0 0.1 0 0-0.1 0 0 0.1 0 0.1 0 0 0 0v0.6q0 0 0 0 0 0 0 0 0 0.1 0.1 0.1 0 0 0 0c0 0 0.1 0 0.1 0q0.1 0 0.1 0 0 0 0-0.1 0 0 0 0 0.1 0 0.1 0 0-0.1 0-0.1 0 0 0 0 0-0.1 0-0.1 0 0 0 0z"/>
				<g style="opacity: .7">
					<path class="s6" d="m240.9 249.6c0 0 0 0 0 0q0.1 0 0.1 0.1 0 0 0 0 0 0 0 0 0 0-0.1 0v0.4q0.1 0 0.1 0.1 0 0 0 0 0 0 0 0 0 0-0.1 0 0 0.1 0 0.2l-0.5 1.1q0.1 0 0.1 0 0 0 0.1 0 0 0 0 0 0.1 0 0.1 0 0 0 0.1 0 0 0 0 0 0.1 0 0.1 0.1 0 0 0 0 0.1 0 0.1 0.1 0 0 0 0 0.1 0.1 0.1 0.1 0 0 0 0.1 0 0 0 0.1 0 0 0 0.1 0 0 0 0.1 0 0 0 0.1 0 0 0 0.1 0 0.1 0 0.2 0 0 0 0.1 0 0.1 0 0.1 0 0.1-0.1 0.2 0 0 0 0.1 0 0.1-0.1 0.1 0 0.1 0 0.1-0.1 0.1-0.1 0.2 0 0-0.1 0.1 0 0-0.1 0.1 0 0-0.1 0.1 0 0 0 0.1-0.1 0-0.1 0-0.1 0.1-0.1 0.1-0.1 0-0.1 0.1-0.1 0-0.2 0 0 0.1-0.1 0.1 0 0-0.1 0 0 0-0.1 0 0 0.1-0.1 0.1 0 0-0.1-0.1 0 0 0 0-0.1 0-0.1 0 0 0-0.1-0.1 0 0 0 0 0 0-0.1-0.1 0 0 0 0 0-0.1 0-0.1 0-0.1-0.1-0.1 0 0 0-0.1 0 0 0-0.1 0 0 0 0 0 0 0 0 0 0 0-0.1 0 0 0 0 0 0 0 0 0 0 0 0 0.1 0 0.1-0.1 0 0 0 0l0.3-0.1q0 0.1 0 0.1 0 0 0 0 0 0 0 0 0 0 0 0 0 0 0.1 0.1 0 0 0 0 0 0 0 0 0 0 0 0 0 0 0.1 0 0 0 0 0 0 0 0.1 0 0 0 0 0l0.2-0.1q0.1 0 0.1-0.1 0.1 0 0.1-0.1 0.1 0 0.1-0.1 0 0 0.1-0.1 0 0 0-0.1 0.1 0 0.1-0.1 0 0 0-0.1 0-0.1 0-0.1c0-0.2 0-0.3-0.1-0.3q-0.1 0-0.1 0-0.1 0-0.1 0-0.1 0-0.1 0-0.1 0.1-0.1 0.1l-0.3 0.2q0 0 0 0 0 0 0 0 0 0-0.1 0 0 0 0 0 0-0.1 0-0.1 0 0 0 0 0 0 0 0 0 0 0 0v-0.4q0 0 0-0.1 0 0 0 0 0 0 0 0 0 0 0-0.1 0 0 0 0 0.1 0 0.1 0 0 0 0-0.1 0 0 0 0l0.5-1.1-1 0.6q0 0 0 0 0 0 0 0 0 0-0.1 0 0 0 0 0 0 0 0 0 0-0.1 0-0.1 0 0 0 0 0 0 0 0v-0.4q0 0 0 0 0-0.1 0-0.1 0 0 0 0 0 0 0 0 0 0 0-0.1 0.1 0 0.1 0 0 0 0 0 0 0 0 0z"/>
					<path fill-rule="evenodd" class="s6" d="m243.4 249.6q0 0 0 0.1 0 0 0 0 0 0.1 0 0.1 0 0 0 0.1v0.5q0 0 0 0 0 0.1 0 0.1 0 0 0 0.1 0 0 0 0 0 0.1 0 0.2 0 0.1 0 0.2 0 0 0 0.1 0 0.1 0 0.2 0 0-0.1 0.1 0 0.1 0 0.2 0 0 0 0.1-0.1 0.1-0.1 0.1 0 0.1-0.1 0.2 0 0 0 0.1-0.1 0.1-0.1 0.1-0.1 0.1-0.1 0.1 0 0.1-0.1 0.2-0.1 0-0.1 0.1-0.1 0-0.1 0-0.1 0.1-0.1 0.1-0.1 0.1-0.2 0.1 0 0-0.1 0 0 0-0.1 0.1 0 0-0.1 0-0.1 0-0.1 0 0-0.1-0.1-0.1 0 0 0 0-0.1 0-0.1-0.1 0 0-0.1-0.1 0 0 0-0.1 0 0 0-0.1-0.1 0-0.1-0.1 0 0 0-0.1 0-0.1 0-0.2 0 0 0-0.1 0-0.1 0-0.1v-1q0-0.1 0-0.2 0-0.1 0-0.2 0 0 0-0.1 0-0.1 0-0.2 0-0.1 0.1-0.1 0-0.1 0-0.2 0-0.1 0-0.1 0.1-0.1 0.1-0.2 0 0 0.1-0.1 0-0.1 0-0.1 0.1-0.1 0.1-0.2 0 0 0.1-0.1 0 0 0.1-0.1 0 0 0.1-0.1 0.1 0 0.1-0.1 0.1 0 0.2-0.1 0 0 0.1 0 0-0.1 0.1-0.1 0 0 0.1 0 0 0 0.1 0 0 0 0.1 0 0 0 0.1 0 0 0 0 0.1 0.1 0 0.1 0 0 0.1 0.1 0.1 0 0.1 0 0.1 0 0.1 0 0.1 0.1 0.1 0.1 0.1 0 0.1 0 0.2 0 0 0 0.1 0 0.1 0 0.2 0 0 0 0.1zm-1.4 1.8q0 0.1 0 0.2 0 0.1 0 0.1 0 0.1 0.1 0.2 0 0 0 0.1 0.1 0.2 0.4 0 0.1 0 0.1-0.1 0.1 0 0.1-0.1 0.1 0 0.1-0.1 0-0.1 0.1-0.1 0-0.1 0-0.2 0-0.1 0-0.2 0.1-0.1 0.1-0.1 0-0.1 0-0.2 0-0.2 0-0.5 0-0.3 0-0.5 0 0 0-0.1 0-0.1 0-0.2-0.1 0-0.1-0.1 0-0.1 0-0.1-0.2-0.2-0.4 0-0.1 0-0.1 0.1-0.1 0-0.1 0.1-0.1 0-0.1 0.1 0 0-0.1 0.1 0 0.1 0 0.2-0.1 0.1-0.1 0.1 0 0.1 0 0.2 0 0.1 0 0.2 0 0.2 0 0.5 0 0.2 0 0.4z"/>
					<path fill-rule="evenodd" class="s6" d="m244.3 247.6q0.1 0 0.1 0 0 0 0.1-0.1 0 0 0 0 0 0 0.1 0 0 0 0 0 0 0 0.1 0 0 0.1 0 0.1 0 0 0 0 0.1 0 0.1 0 0 0 0 0.1 0 0 0 0 0 0 0.1 0.1 0 0 0 0 0 0 0 0.1 0 0 0 0 0 0.1 0 0.1 0 0.1 0 0.3 0 0.2 0 0.3 0 0.2 0 0.3-0.1 0-0.1 0.1 0 0 0 0 0 0.1 0 0.1 0 0-0.1 0.1 0 0 0 0 0 0.1 0 0.1-0.1 0-0.1 0.1 0 0 0 0 0 0.1-0.1 0.1 0 0 0 0-0.1 0.1-0.1 0.1 0 0-0.1 0 0 0 0 0.1 0 0-0.1 0 0 0 0 0-0.1 0-0.1 0 0 0 0 0-0.1 0-0.1 0 0 0 0 0 0 0-0.1-0.1 0 0 0 0 0 0 0 0 0-0.1 0-0.1-0.1 0-0.1 0 0 0 0-0.1 0 0 0 0 0-0.1 0-0.1 0 0 0-0.1 0 0 0 0 0-0.1 0-0.1 0 0 0-0.1 0 0 0-0.1 0-0.1 0-0.3 0 0 0 0 0-0.1 0-0.1 0-0.1 0-0.1 0 0 0-0.1 0 0 0.1 0 0-0.1 0-0.1 0 0 0-0.1 0 0 0-0.1 0.1 0 0.1 0 0 0 0-0.1 0 0 0.1 0 0-0.1 0-0.1 0 0 0.1-0.1 0 0 0 0 0 0 0.1-0.1 0 0 0 0zm1.5-0.7l0.1-0.1q0 0 0 0 0-0.1 0-0.1 0 0 0 0 0 0 0 0l0.3-0.1q0 0 0 0 0 0 0 0 0 0 0 0 0 0 0 0 0 0 0 0 0 0 0 0 0 0 0 0 0 0 0 0l-1.8 4.8v0.1q0 0 0 0-0.1 0-0.1 0 0 0 0 0 0 0 0 0l-0.2 0.2q0 0-0.1 0c-0.1 0 0 0 0-0.1zm-1.3 1.9v-0.5q0-0.1 0-0.1 0 0 0 0 0 0 0-0.1 0 0 0 0c0 0 0 0-0.1 0q0 0-0.1 0 0 0.1 0 0.1 0 0 0 0 0 0-0.1 0.1 0 0 0 0 0 0.1 0 0.1 0 0 0 0 0 0.1 0 0.1 0.1 0 0 0.1c0 0.1 0 0.4 0 0.4q0 0 0 0 0 0.1 0 0.1 0 0 0 0 0 0.1 0 0.1c0.1 0 0.1 0 0.2 0q0 0 0-0.1 0.1 0 0.1 0 0 0 0 0 0-0.1 0-0.1 0 0 0-0.1 0 0 0 0 0 0 0-0.1 0 0 0 0zm1.4-0.1q0.1 0 0.1 0 0-0.1 0-0.1 0.1 0 0.1 0 0 0 0.1 0 0 0 0 0 0 0 0 0 0.1 0 0.1 0 0 0.1 0 0.1 0 0 0.1 0 0 0 0 0 0 0.1 0 0.1 0 0 0 0 0 0.1 0 0.1 0 0 0 0.1 0 0 0 0 0 0 0 0.1 0 0.1 0 0.3 0 0.1 0 0.3 0 0 0 0.1 0 0 0 0 0 0.1 0 0.1 0 0 0 0.1 0 0 0 0.1 0 0 0 0 0 0.1 0 0.1-0.1 0-0.1 0.1 0 0 0 0 0 0.1 0 0.1-0.1 0-0.1 0.1 0 0 0 0-0.1 0-0.1 0.1 0 0 0 0-0.1 0.1-0.1 0.1 0 0-0.1 0 0 0 0 0-0.1 0.1-0.1 0.1 0 0 0 0-0.1 0-0.1 0 0 0-0.1 0 0 0 0 0 0 0 0 0-0.1-0.1-0.1-0.1 0 0 0 0 0 0 0 0 0-0.1-0.1-0.1 0 0 0 0 0-0.1 0-0.1 0 0 0-0.1 0 0 0 0 0 0 0-0.1 0-0.1 0-0.3 0-0.1 0-0.3 0-0.1 0-0.3 0 0 0-0.1 0.1 0 0.1 0 0-0.1 0-0.1 0 0 0-0.1 0 0 0.1 0 0-0.1 0-0.1 0 0 0-0.1 0.1 0 0.1 0 0 0 0-0.1 0.1 0 0.1 0 0-0.1 0.1-0.1 0 0 0 0zm0.2 1.2q0-0.1 0-0.1 0 0 0 0 0 0 0 0 0 0 0-0.1 0 0 0-0.1v-0.2q0 0 0 0 0 0 0 0 0 0 0 0 0-0.1 0-0.1 0 0 0 0 0 0 0-0.1 0 0 0 0 0 0 0 0-0.1 0-0.2 0 0 0 0 0 0 0-0.1 0 0 0 0 0.1 0 0 0 0 0 0 0 0.1 0 0-0.1 0 0 0.1 0 0.1 0 0 0 0v0.6q0 0 0 0 0 0 0 0 0 0.1 0.1 0.1 0 0 0 0c0 0 0.1 0 0.1 0q0.1 0 0.1 0 0 0 0-0.1 0 0 0 0 0.1 0 0.1 0 0-0.1 0-0.1 0 0 0 0 0-0.1 0-0.1 0 0 0 0z"/>
				</g>
				<path class="s7" d="m250.7 278.4c0 0 0-0.1 0-0.2q0-0.1 0-0.1 0-0.1 0.1-0.1 0-0.1 0-0.1 0.1-0.1 0.1-0.1l0.9-0.5c0.1 0 0.1 0 0 0.2q0 0 0 0.1 0 0.1 0 0.1-0.1 0.1-0.1 0.1 0 0-0.1 0.1l-0.9 0.5zm1.8-1c0 0 0-0.1 0-0.2q0-0.1 0-0.1 0-0.1 0.1-0.1 0-0.1 0-0.1 0.1-0.1 0.1-0.1l0.9-0.5c0.1-0.1 0.1 0 0 0.2q0 0.1 0 0.1 0 0.1 0 0.1-0.1 0.1-0.1 0.1 0 0.1-0.1 0.1l-0.9 0.5c0 0 0 0 0 0zm1.7-1c0 0 0-0.1 0-0.2q0-0.1 0.1-0.1 0-0.1 0-0.1 0-0.1 0.1-0.1 0-0.1 0-0.1l0.9-0.5c0.1-0.1 0.1 0 0.1 0.2q0 0.1 0 0.1-0.1 0.1-0.1 0.1 0 0.1-0.1 0.1 0 0.1 0 0.1l-0.9 0.5h-0.1zm1.8-1c0 0 0-0.1 0-0.3q0 0 0-0.1 0 0 0.1-0.1 0 0 0-0.1 0.1 0 0.1 0l0.9-0.5c0-0.1 0.1 0 0 0.2q0 0 0 0.1 0 0-0.1 0.1 0 0 0 0.1-0.1 0-0.1 0.1l-0.9 0.5c0 0 0 0 0 0zm1.7-1q0-0.1 0-0.1 0 0 0-0.1 0 0 0 0 0-0.1 0-0.1 0 0 0-0.1 0.1 0 0.1-0.1 0 0 0.1-0.1 0 0 0-0.1l0.9-0.5c0.1 0 0.1 0.1 0.1 0.3q0 0-0.1 0.1 0 0 0 0.1 0 0-0.1 0.1 0 0-0.1 0l-0.8 0.6zm1.2-1.5q0 0 0-0.1 0 0 0 0 0 0 0 0 0 0 0 0v-1.4q0 0 0-0.1 0.1 0 0.1-0.1 0-0.1 0-0.1 0.1-0.1 0.1-0.1c0.1-0.1 0.2-0.1 0.2 0v1.3q0 0.1-0.1 0.1 0 0.1 0 0.2 0 0 0 0.1-0.1 0-0.1 0.1-0.1 0.1-0.2 0zm0-2.6q0-0.1 0-0.1 0 0 0 0 0 0 0 0 0 0 0 0v-1.4q0 0 0-0.1 0.1-0.1 0.1-0.1 0-0.1 0-0.1 0.1-0.1 0.1-0.1c0.1-0.2 0.2-0.2 0.2 0v1.3q0 0.1 0 0.1-0.1 0.1-0.1 0.1 0 0.1 0 0.2-0.1 0-0.1 0.1-0.1 0.1-0.2 0zm0-2.7q0 0 0 0 0 0 0 0 0 0 0 0 0 0 0 0v-1.4q0-0.1 0.1-0.1 0-0.1 0-0.1 0-0.1 0-0.1 0.1-0.1 0.1-0.1c0.1-0.2 0.2-0.2 0.2 0v1.3q0 0.1 0 0.1-0.1 0.1-0.1 0.1 0 0.1 0 0.1-0.1 0.1-0.1 0.2-0.1 0-0.2 0z"/>
				<path class="s3" d="m259.8 263.2c-0.2 0.5-0.5 0.8-0.8 0.7-0.2-0.1-0.3-0.5-0.2-1 0.2-0.5 0.5-0.8 0.8-0.7 0.2 0 0.3 0.5 0.2 1z"/>
				<path class="s5" d="m241.6 278.6c0 0 0 0 0.1 0q0 0.1 0 0.1 0 0 0 0 0 0 0 0 0 0 0 0v0.4q0 0 0 0.1 0 0 0 0 0 0 0 0 0 0 0 0.1-0.1 0-0.1 0 0 0 0 0 0 0 0 0.1 0 0 0 0l-0.5 1.2q0 0 0-0.1 0.1 0 0.1 0 0.1 0 0.1 0 0 0.1 0.1 0.1 0 0 0 0 0.1 0 0.1 0 0 0 0 0 0.1 0 0.1 0.1 0 0 0 0 0.1 0 0.1 0.1 0 0 0 0 0 0.1 0 0.1 0 0.1 0 0.1 0.1 0.1 0.1 0.1 0 0.1-0.1 0.1 0 0.1 0 0.1 0 0.1 0 0.2 0 0 0 0.1 0 0.1 0 0.1 0 0.1 0 0.2 0 0.1-0.1 0.1 0 0.1 0 0.2 0 0-0.1 0.1 0 0 0 0.1-0.1 0.1-0.1 0.1 0 0.1-0.1 0.1 0 0.1-0.1 0.1 0 0.1-0.1 0.1 0 0.1 0 0.1-0.1 0.1-0.1 0.1-0.1 0-0.1 0.1-0.1 0-0.1 0-0.1 0.1-0.2 0.1 0 0-0.1 0 0 0.1-0.1 0.1 0 0-0.1 0 0 0-0.1 0 0 0-0.1 0 0 0 0 0-0.1 0-0.1-0.1 0 0-0.1 0 0 0 0-0.1 0 0-0.1 0 0 0 0-0.1 0 0 0-0.1 0 0-0.1 0 0-0.1 0-0.1 0-0.1 0-0.1 0 0 0 0 0-0.1 0-0.1 0 0 0 0 0 0 0 0c0 0 0-0.1 0.1-0.1l0.3-0.2v0.1q0 0 0 0 0 0 0.1 0 0 0.1 0 0.1 0 0 0 0 0 0 0 0 0 0 0 0 0 0 0.1 0 0 0 0 0 0 0 0 0 0 0 0.1 0 0 0 0 0 0 0 0 0l0.3-0.1q0 0 0.1 0 0-0.1 0.1-0.1 0-0.1 0-0.1 0.1-0.1 0.1-0.1 0.1-0.1 0.1-0.1 0-0.1 0-0.1 0-0.1 0.1-0.2 0 0 0-0.1 0-0.2-0.2-0.3 0 0-0.1 0 0 0-0.1 0.1 0 0-0.1 0 0 0 0 0l-0.3 0.2c0 0-0.1 0-0.1 0q0 0 0 0 0 0 0 0 0 0 0-0.1 0 0 0 0v-0.4q0 0 0 0 0 0 0 0 0-0.1 0-0.1 0 0 0 0l0.1-0.1 0.5-1.2-1 0.6q0 0-0.1 0 0 0 0 0 0 0 0 0 0 0 0 0 0 0 0 0 0 0 0 0 0 0 0 0 0 0 0-0.1v-0.4q0 0 0 0 0 0 0 0 0 0 0-0.1 0 0 0 0 0 0 0 0 0 0 0 0 0 0 0-0.1 0 0 0.1 0z"/>
				<path fill-rule="evenodd" class="s5" d="m244.1 278.6q0 0.1 0 0.1 0 0 0 0.1 0 0 0 0 0 0 0 0.1v0.5q0 0 0 0.1 0 0 0 0 0 0.1 0 0.1 0 0 0 0 0 0.1 0 0.2 0 0.1 0 0.2 0 0 0 0.1 0 0.1 0 0.2 0 0.1-0.1 0.1 0 0.1 0 0.2 0 0 0 0.1-0.1 0.1-0.1 0.2 0 0-0.1 0.1 0 0.1 0 0.1-0.1 0.1-0.1 0.1-0.1 0.1-0.1 0.2 0 0-0.1 0.1-0.1 0-0.1 0.1-0.1 0-0.1 0.1-0.1 0-0.1 0-0.1 0.1-0.2 0.1 0 0-0.1 0 0 0.1-0.1 0.1 0 0-0.1 0 0 0-0.1 0 0 0-0.1-0.1 0 0 0 0-0.1 0-0.1-0.1 0 0-0.1-0.1 0 0 0-0.1 0 0 0-0.1-0.1 0-0.1-0.1 0 0 0-0.1 0-0.1 0-0.1 0-0.1 0-0.2 0 0 0-0.1c0-0.2 0-0.9 0-1q0-0.1 0-0.2 0 0 0-0.1 0-0.1 0-0.2 0-0.1 0-0.2 0 0 0-0.1 0.1-0.1 0.1-0.2 0 0 0-0.1 0.1-0.1 0.1-0.1 0-0.2 0.1-0.3 0.1-0.1 0.2-0.2 0.1-0.2 0.2-0.3 0.1-0.1 0.2-0.1 0.1-0.1 0.1-0.1 0.1 0 0.2 0 0 0 0.1-0.1 0 0 0.1 0 0 0 0.1 0 0 0.1 0.1 0.1 0 0 0 0 0.1 0 0.1 0.1 0 0 0.1 0.1 0 0 0 0.1 0 0 0 0.1 0.1 0 0.1 0.1 0 0 0 0.1 0 0.1 0 0.2 0 0 0 0.1 0 0.1 0 0.1zm-1.4 1.9q0 0 0 0.1 0 0.1 0 0.1 0 0.1 0 0.2 0.1 0.1 0.1 0.1 0.1 0.2 0.4 0 0 0 0.1-0.1 0 0 0.1-0.1 0 0 0.1-0.1 0 0 0-0.1 0-0.1 0.1-0.2 0-0.1 0-0.2 0 0 0-0.1 0-0.1 0-0.2 0-0.2 0-0.5 0-0.2 0-0.5 0 0 0-0.1 0-0.1 0-0.1 0-0.1 0-0.2-0.1-0.1-0.1-0.1-0.1-0.2-0.3 0-0.1 0-0.2 0.1 0 0-0.1 0.1 0 0-0.1 0.1 0 0 0 0.1 0 0.1-0.1 0.2 0 0.1 0 0.2 0 0 0 0.1 0 0.1 0 0.2 0 0.2 0 0.5 0 0.2 0 0.5z"/>
				<path fill-rule="evenodd" class="s5" d="m244.9 276.7q0 0 0 0-0.1 0-0.1 0.1 0 0 0 0-0.1 0-0.1 0.1 0 0 0 0 0 0.1-0.1 0.1 0 0 0 0.1 0 0 0 0 0 0.1-0.1 0.1 0 0 0 0.1 0 0 0 0 0 0.1 0 0.1 0 0.1 0 0.1 0 0 0 0.1 0 0 0 0 0 0.2 0 0.3 0 0.2 0 0.4 0 0 0 0 0 0 0 0.1 0 0 0 0 0 0.1 0 0.1 0 0 0 0 0 0.1 0 0.1 0.1 0 0.1 0 0 0 0 0.1 0 0 0 0 0.1 0 0.1 0 0 0 0 0 0 0 0.1 0 0 0 0 0 0.1 0 0.1 0 0 0 0 0 0.1 0 0.1-0.1 0 0 0.1 0 0 0 0 0 0.1-0.1 0.1-0.1 0 0 0-0.1 0.1 0 0.1 0 0 0 0-0.1 0 0 0.1 0 0-0.1 0-0.1 0 0 0-0.1 0 0 0.1 0 0-0.1 0-0.1 0-0.1 0-0.1 0-0.1 0-0.3 0-0.1 0-0.3 0-0.2 0-0.3 0 0 0-0.1 0 0 0 0 0 0 0-0.1 0 0 0 0 0-0.1 0-0.1 0 0 0 0 0 0-0.1-0.1 0 0 0 0 0 0 0 0-0.1 0-0.1 0 0-0.1 0-0.1 0 0-0.1 0 0 0 0 0-0.1 0-0.1 0.1 0 0 0 0-0.1 0-0.1 0 0 0-0.1 0.1zm0.3 1.1q0 0 0 0 0 0.1 0 0.1 0 0 0 0 0 0.1-0.1 0.1 0 0 0 0 0 0.1 0 0.1 0 0-0.1 0 0 0 0 0.1-0.1 0-0.1 0-0.1-0.1-0.1-0.1 0 0 0 0 0 0 0-0.1 0 0 0 0c0 0 0-0.4 0-0.4q0-0.1 0-0.1 0 0 0-0.1 0 0 0 0 0-0.1 0-0.1 0 0 0.1 0 0-0.1 0-0.1 0 0 0 0 0-0.1 0.1-0.1 0 0 0 0c0.1 0 0.1 0 0.1 0q0.1 0 0.1 0 0 0 0 0.1 0 0 0 0 0 0 0 0.1v0.5zm-0.4 2.3l-244.8-300.1c0 0 0 0 246.8 295.6q0 0 0 0l-0.2 0.1q-0.1 0-0.1 0 0 0 0 0.1 0 0 0 0 0 0 0 0l-0.1 0.1zm2-4.5q0 0 0 0 0 0 0 0 0.1 0 0.1 0 0 0 0 0 0 0 0 0 0 0 0 0 0 0.1 0 0.1-0.1-0.1-0.1-0.1 0 0 0 0zm-1.7 4.8l-0.1 0.1q0 0 0 0 0 0 0 0 0 0-0.1 0 0 0 0 0.1l-0.2 0.1q0 0 0 0 0 0 0 0 0 0-0.1 0 0 0 0 0 0 0 0 0 0 0 0-0.1 0 0 0 0 0 0 0 0l0.2-0.5zm1.5-2.7q0.1 0 0.1 0 0 0 0.1 0 0-0.1 0-0.1 0 0 0.1 0 0 0 0 0 0 0 0.1 0 0 0.1 0 0.1 0 0 0 0 0.1 0 0.1 0 0 0 0 0.1 0 0 0 0 0 0 0 0.1 0 0 0 0 0.1 0 0.1 0.1 0 0-0.1 0 0 0.1 0 0.1 0 0 0 0.1 0 0 0 0.1 0 0 0 0 0 0.1 0 0.1 0 0.2 0 0.3 0 0.1 0 0.1 0 0 0 0.1 0 0 0 0 0 0.1 0 0.1 0 0 0 0.1 0 0 0 0 0 0.1 0 0.1 0 0.1-0.1 0.1 0 0 0 0.1 0 0 0 0-0.1 0.1-0.1 0.1 0 0 0 0-0.1 0.1-0.1 0.1 0 0 0 0-0.1 0.1-0.1 0.1 0 0-0.1 0 0 0 0 0.1 0 0-0.1 0 0 0 0 0-0.1 0-0.1 0 0 0 0 0-0.1 0-0.1 0 0 0 0 0 0 0-0.1-0.1 0 0 0 0 0 0 0 0 0 0-0.1-0.1 0 0 0 0 0 0 0-0.1 0 0 0 0 0-0.1 0-0.1 0 0 0-0.1c0 0 0-0.8 0-0.9q0 0 0.1 0 0-0.1 0-0.1 0 0 0-0.1 0 0 0 0 0.1-0.1 0.1-0.1 0 0 0-0.1 0 0 0.1 0 0-0.1 0-0.1 0 0 0.1-0.1 0 0 0 0 0.1 0 0.1-0.1 0 0 0.1 0zm0.2 1.2c0 0 0-0.1 0-0.1 0-0.1 0-0.4 0-0.5q0 0 0 0 0 0 0 0 0-0.1 0-0.1 0 0 0 0c0 0-0.1 0-0.2 0q0 0 0 0 0 0-0.1 0 0 0.1 0 0.1 0 0 0 0 0 0.1 0 0.1 0 0 0 0.1 0 0 0 0 0 0 0 0.1v0.5q0 0 0 0 0 0 0 0.1 0 0 0 0 0 0 0 0c0 0.1 0.1 0 0.1 0q0.1 0 0.1 0 0 0 0 0 0 0 0-0.1 0.1 0 0.1 0 0 0 0-0.1 0 0 0 0 0 0 0-0.1 0 0 0 0z"/>
				<g style="opacity: .6">
					<path class="s6" d="m241.6 278.6c0 0 0 0 0.1 0q0 0.1 0 0.1 0 0 0 0 0 0 0 0 0 0 0 0v0.4q0 0 0 0.1 0 0 0 0 0 0 0 0 0 0 0 0.1-0.1 0-0.1 0 0 0 0 0 0 0 0 0.1 0 0 0 0l-0.5 1.2q0 0 0-0.1 0.1 0 0.1 0 0.1 0 0.1 0 0 0.1 0.1 0.1 0 0 0 0 0.1 0 0.1 0 0 0 0 0 0.1 0 0.1 0.1 0 0 0 0 0.1 0 0.1 0.1 0 0 0 0 0 0.1 0 0.1 0 0.1 0 0.1 0.1 0.1 0.1 0.1 0 0.1-0.1 0.1 0 0.1 0 0.1 0 0.1 0 0.2 0 0 0 0.1 0 0.1 0 0.1 0 0.1 0 0.2 0 0.1-0.1 0.1 0 0.1 0 0.2 0 0-0.1 0.1 0 0 0 0.1-0.1 0.1-0.1 0.1 0 0.1-0.1 0.1 0 0.1-0.1 0.1 0 0.1-0.1 0.1 0 0.1 0 0.1-0.1 0.1-0.1 0.1-0.1 0-0.1 0.1-0.1 0-0.1 0-0.1 0.1-0.2 0.1 0 0-0.1 0 0 0.1-0.1 0.1 0 0-0.1 0 0 0-0.1 0 0 0-0.1 0 0 0 0 0-0.1 0-0.1-0.1 0 0-0.1 0 0 0 0-0.1 0 0-0.1 0 0 0 0-0.1 0 0 0-0.1 0 0-0.1 0 0-0.1 0-0.1 0-0.1 0-0.1 0 0 0 0 0-0.1 0-0.1 0 0 0 0 0 0 0 0c0 0 0-0.1 0.1-0.1l0.3-0.2v0.1q0 0 0 0 0 0 0.1 0 0 0.1 0 0.1 0 0 0 0 0 0 0 0 0 0 0 0 0 0 0.1 0 0 0 0 0 0 0 0 0 0 0 0.1 0 0 0 0 0 0 0 0 0l0.3-0.1q0 0 0.1 0 0-0.1 0.1-0.1 0-0.1 0-0.1 0.1-0.1 0.1-0.1 0.1-0.1 0.1-0.1 0-0.1 0-0.1 0-0.1 0.1-0.2 0 0 0-0.1 0-0.2-0.2-0.3 0 0-0.1 0 0 0-0.1 0.1 0 0-0.1 0 0 0 0 0l-0.3 0.2c0 0-0.1 0-0.1 0q0 0 0 0 0 0 0 0 0 0 0-0.1 0 0 0 0v-0.4q0 0 0 0 0 0 0 0 0-0.1 0-0.1 0 0 0 0l0.1-0.1 0.5-1.2-1 0.6q0 0-0.1 0 0 0 0 0 0 0 0 0 0 0 0 0 0 0 0 0 0 0 0 0 0 0 0 0 0 0 0-0.1v-0.4q0 0 0 0 0 0 0 0 0 0 0-0.1 0 0 0 0 0 0 0 0 0 0 0 0 0 0 0-0.1 0 0 0.1 0z"/>
					<path fill-rule="evenodd" class="s6" d="m244.1 278.6q0 0.1 0 0.1 0 0 0 0.1 0 0 0 0 0 0 0 0.1v0.5q0 0 0 0.1 0 0 0 0 0 0.1 0 0.1 0 0 0 0 0 0.1 0 0.2 0 0.1 0 0.2 0 0 0 0.1 0 0.1 0 0.2 0 0.1-0.1 0.1 0 0.1 0 0.2 0 0 0 0.1-0.1 0.1-0.1 0.2 0 0-0.1 0.1 0 0.1 0 0.1-0.1 0.1-0.1 0.1-0.1 0.1-0.1 0.2 0 0-0.1 0.1-0.1 0-0.1 0.1-0.1 0-0.1 0.1-0.1 0-0.1 0-0.1 0.1-0.2 0.1 0 0-0.1 0 0 0.1-0.1 0.1 0 0-0.1 0 0 0-0.1 0 0 0-0.1-0.1 0 0 0 0-0.1 0-0.1-0.1 0 0-0.1-0.1 0 0 0-0.1 0 0 0-0.1-0.1 0-0.1-0.1 0 0 0-0.1 0-0.1 0-0.1 0-0.1 0-0.2 0 0 0-0.1c0-0.2 0-0.9 0-1q0-0.1 0-0.2 0 0 0-0.1 0-0.1 0-0.2 0-0.1 0-0.2 0 0 0-0.1 0.1-0.1 0.1-0.2 0 0 0-0.1 0.1-0.1 0.1-0.1 0-0.2 0.1-0.3 0.1-0.1 0.2-0.2 0.1-0.2 0.2-0.3 0.1-0.1 0.2-0.1 0.1-0.1 0.1-0.1 0.1 0 0.2 0 0 0 0.1-0.1 0 0 0.1 0 0 0 0.1 0 0 0.1 0.1 0.1 0 0 0 0 0.1 0 0.1 0.1 0 0 0.1 0.1 0 0 0 0.1 0 0 0 0.1 0.1 0 0.1 0.1 0 0 0 0.1 0 0.1 0 0.2 0 0 0 0.1 0 0.1 0 0.1zm-1.4 1.9q0 0 0 0.1 0 0.1 0 0.1 0 0.1 0 0.2 0.1 0.1 0.1 0.1 0.1 0.2 0.4 0 0 0 0.1-0.1 0 0 0.1-0.1 0 0 0.1-0.1 0 0 0-0.1 0-0.1 0.1-0.2 0-0.1 0-0.2 0 0 0-0.1 0-0.1 0-0.2 0-0.2 0-0.5 0-0.2 0-0.5 0 0 0-0.1 0-0.1 0-0.1 0-0.1 0-0.2-0.1-0.1-0.1-0.1-0.1-0.2-0.3 0-0.1 0-0.2 0.1 0 0-0.1 0.1 0 0-0.1 0.1 0 0 0 0.1 0 0.1-0.1 0.2 0 0.1 0 0.2 0 0 0 0.1 0 0.1 0 0.2 0 0.2 0 0.5 0 0.2 0 0.5z"/>
					<path fill-rule="evenodd" class="s6" d="m244.9 276.7q0 0 0 0-0.1 0-0.1 0.1 0 0 0 0-0.1 0-0.1 0.1 0 0 0 0 0 0.1-0.1 0.1 0 0 0 0.1 0 0 0 0 0 0.1-0.1 0.1 0 0 0 0.1 0 0 0 0 0 0.1 0 0.1 0 0.1 0 0.1 0 0 0 0.1 0 0 0 0 0 0.2 0 0.3 0 0.2 0 0.4 0 0 0 0 0 0 0 0.1 0 0 0 0 0 0.1 0 0.1 0 0 0 0 0 0.1 0 0.1 0.1 0 0.1 0 0 0 0 0.1 0 0 0 0 0.1 0 0.1 0 0 0 0 0 0 0 0.1 0 0 0 0 0 0.1 0 0.1 0 0 0 0 0 0.1 0 0.1-0.1 0 0 0.1 0 0 0 0 0 0.1-0.1 0.1-0.1 0 0 0-0.1 0.1 0 0.1 0 0 0 0-0.1 0 0 0.1 0 0-0.1 0-0.1 0 0 0-0.1 0 0 0.1 0 0-0.1 0-0.1 0-0.1 0-0.1 0-0.1 0-0.3 0-0.1 0-0.3 0-0.2 0-0.3 0 0 0-0.1 0 0 0 0 0 0 0-0.1 0 0 0 0 0-0.1 0-0.1 0 0 0 0 0 0-0.1-0.1 0 0 0 0 0 0 0 0-0.1 0-0.1 0 0-0.1 0-0.1 0 0-0.1 0 0 0 0 0-0.1 0-0.1 0.1 0 0 0 0-0.1 0-0.1 0 0 0-0.1 0.1zm0.3 1.1q0 0 0 0 0 0.1 0 0.1 0 0 0 0 0 0.1-0.1 0.1 0 0 0 0 0 0.1 0 0.1 0 0-0.1 0 0 0 0 0.1-0.1 0-0.1 0-0.1-0.1-0.1-0.1 0 0 0 0 0 0 0-0.1 0 0 0 0c0 0 0-0.4 0-0.4q0-0.1 0-0.1 0 0 0-0.1 0 0 0 0 0-0.1 0-0.1 0 0 0.1 0 0-0.1 0-0.1 0 0 0 0 0-0.1 0.1-0.1 0 0 0 0c0.1 0 0.1 0 0.1 0q0.1 0 0.1 0 0 0 0 0.1 0 0 0 0 0 0 0 0.1v0.5zm-0.4 2.3l-244.8-300.1c0 0 0 0 246.8 295.6q0 0 0 0l-0.2 0.1q-0.1 0-0.1 0 0 0 0 0.1 0 0 0 0 0 0 0 0l-0.1 0.1zm2-4.5q0 0 0 0 0 0 0 0 0.1 0 0.1 0 0 0 0 0 0 0 0 0 0 0 0 0 0 0.1 0 0.1-0.1-0.1-0.1-0.1 0 0 0 0zm-1.7 4.8l-0.1 0.1q0 0 0 0 0 0 0 0 0 0-0.1 0 0 0 0 0.1l-0.2 0.1q0 0 0 0 0 0 0 0 0 0-0.1 0 0 0 0 0 0 0 0 0 0 0 0-0.1 0 0 0 0 0 0 0 0l0.2-0.5zm1.5-2.7q0.1 0 0.1 0 0 0 0.1 0 0-0.1 0-0.1 0 0 0.1 0 0 0 0 0 0 0 0.1 0 0 0.1 0 0.1 0 0 0 0 0.1 0 0.1 0 0 0 0 0.1 0 0 0 0 0 0 0 0.1 0 0 0 0 0.1 0 0.1 0.1 0 0-0.1 0 0 0.1 0 0.1 0 0 0 0.1 0 0 0 0.1 0 0 0 0 0 0.1 0 0.1 0 0.2 0 0.3 0 0.1 0 0.1 0 0 0 0.1 0 0 0 0 0 0.1 0 0.1 0 0 0 0.1 0 0 0 0 0 0.1 0 0.1 0 0.1-0.1 0.1 0 0 0 0.1 0 0 0 0-0.1 0.1-0.1 0.1 0 0 0 0-0.1 0.1-0.1 0.1 0 0 0 0-0.1 0.1-0.1 0.1 0 0-0.1 0 0 0 0 0.1 0 0-0.1 0 0 0 0 0-0.1 0-0.1 0 0 0 0 0-0.1 0-0.1 0 0 0 0 0 0 0-0.1-0.1 0 0 0 0 0 0 0 0 0 0-0.1-0.1 0 0 0 0 0 0 0-0.1 0 0 0 0 0-0.1 0-0.1 0 0 0-0.1c0 0 0-0.8 0-0.9q0 0 0.1 0 0-0.1 0-0.1 0 0 0-0.1 0 0 0 0 0.1-0.1 0.1-0.1 0 0 0-0.1 0 0 0.1 0 0-0.1 0-0.1 0 0 0.1-0.1 0 0 0 0 0.1 0 0.1-0.1 0 0 0.1 0zm0.2 1.2c0 0 0-0.1 0-0.1 0-0.1 0-0.4 0-0.5q0 0 0 0 0 0 0 0 0-0.1 0-0.1 0 0 0 0c0 0-0.1 0-0.2 0q0 0 0 0 0 0-0.1 0 0 0.1 0 0.1 0 0 0 0 0 0.1 0 0.1 0 0 0 0.1 0 0 0 0 0 0 0 0.1v0.5q0 0 0 0 0 0 0 0.1 0 0 0 0 0 0 0 0c0 0.1 0.1 0 0.1 0q0.1 0 0.1 0 0 0 0 0 0 0 0-0.1 0.1 0 0.1 0 0 0 0-0.1 0 0 0 0 0 0 0-0.1 0 0 0 0z"/>
				</g>
				<path class="s5" d="m287.3 259.2q0 0 0 0 0 0 0 0 0-0.1 0-0.1 0 0 0 0 0 0 0 0 0 0 0-0.1 0 0 0 0 0 0 0 0l0.8-1.4 0.1-0.1 0.1-0.1 0.2-0.2h0.1q-0.1 0 0 0.1 0 0 0 0 0 0 0 0 0 0-0.1 0v3.7q0.1 0 0.1 0 0 0 0 0.1 0 0 0 0 0 0-0.1 0 0 0 0 0 0 0.1 0 0.1 0 0 0 0 0 0 0 0l-0.3 0.2q0 0 0 0 0 0-0.1 0 0 0 0 0 0 0 0 0 0 0 0 0 0-0.1 0-0.1 0 0 0 0 0 0 0 0v-2.8l-0.5 0.9q0 0 0 0.1 0 0 0 0 0 0-0.1 0 0 0 0 0 0 0 0 0z"/>
				<path fill-rule="evenodd" class="s5" d="m291.1 257.2v1q0 0.1 0 0.2 0 0.1 0 0.2 0 0 0 0.1-0.1 0.1-0.1 0.2 0 0.1 0 0.1 0 0.1 0 0.2-0.1 0.1-0.1 0.1 0 0.1 0 0.2-0.1 0-0.1 0.1 0 0.1-0.1 0.1 0 0.1 0 0.1-0.1 0.1-0.1 0.2-0.1 0-0.1 0.1-0.1 0-0.1 0.1-0.1 0-0.2 0.1 0 0-0.1 0 0 0.1-0.1 0.1 0 0-0.1 0-0.1 0.1-0.1 0.1-0.1 0-0.1 0-0.1 0-0.1 0-0.1 0-0.1-0.1 0 0-0.1 0 0 0 0-0.1-0.1 0-0.1 0 0-0.1 0-0.1-0.1-0.1-0.1-0.1 0-0.1 0-0.2 0 0 0-0.1 0-0.1-0.1-0.1 0-0.1 0-0.2 0 0 0-0.1 0-0.2 0-0.5 0-0.3 0-0.5 0-0.1 0-0.2 0 0 0-0.1 0.1-0.1 0.1-0.2 0-0.1 0-0.1 0-0.1 0-0.2 0-0.1 0.1-0.1 0-0.1 0-0.2 0-0.1 0.1-0.1 0-0.1 0-0.2 0 0 0.1-0.1 0-0.1 0.1-0.1 0-0.1 0.1-0.1 0-0.1 0.1-0.2 0 0 0.1-0.1 0 0 0.1 0 0-0.1 0.1-0.1 0.1-0.1 0.1-0.1 0.1 0 0.1 0 0.1 0 0.1 0 0.1-0.1 0.2-0.1 0 0 0 0 0.1 0.1 0.1 0.1 0.1 0 0.1 0 0 0 0.1 0.1 0 0 0 0.1 0 0 0.1 0.1 0 0 0 0.1 0 0 0 0.1 0 0 0.1 0.1 0 0.1 0 0.2 0 0 0 0.1 0 0.1 0 0.1zm-1.5 1.9q0 0 0 0.1 0 0.1 0 0.2 0.1 0 0.1 0.1 0 0.1 0 0.1 0.2 0.2 0.4 0 0.1 0 0.1-0.1 0.1 0 0.1-0.1 0.1 0 0.1-0.1 0.1 0 0.1-0.1 0-0.1 0-0.2 0.1-0.1 0.1-0.2 0 0 0-0.1 0-0.1 0-0.2 0-0.2 0-0.5 0-0.3 0-0.5 0 0 0-0.1 0-0.1 0-0.1 0-0.1-0.1-0.2 0 0 0-0.1-0.1-0.2-0.4 0-0.1 0-0.1 0.1-0.1 0-0.1 0.1-0.1 0-0.1 0.1 0 0.1-0.1 0.1 0 0.1 0 0.2 0 0.1 0 0.2-0.1 0.1-0.1 0.1 0 0.1 0 0.2 0 0.2 0 0.5 0 0.3 0 0.5z"/>
				<path fill-rule="evenodd" class="s5" d="m292 255.2q0 0 0.1 0 0 0 0 0 0 0 0.1-0.1 0 0 0 0 0.1 0 0.1 0 0 0.1 0 0.1 0 0 0.1 0 0 0 0 0 0 0 0 0 0.1 0.1 0.1 0.1 0 0 0 0 0 0 0 0.1 0 0 0 0 0 0.1 0 0.1 0 0 0 0.1 0 0 0 0 0 0.1 0 0.3 0 0.2 0 0.3 0 0.2 0 0.3 0 0 0 0.1 0 0 0 0.1-0.1 0-0.1 0 0 0.1 0 0.1 0 0 0 0.1-0.1 0-0.1 0 0 0.1 0 0.1 0 0-0.1 0.1 0 0 0 0 0 0-0.1 0.1 0 0 0 0-0.1 0-0.1 0.1 0 0-0.1 0 0 0 0 0 0 0-0.1 0 0 0 0 0-0.1 0-0.1 0 0 0 0 0 0 0-0.1 0 0 0 0 0 0-0.1 0-0.1 0 0-0.1 0 0 0 0-0.1 0 0 0 0 0 0 0-0.1 0 0 0 0 0-0.1 0-0.1 0 0 0 0 0-0.1 0-0.1 0-0.1 0-0.1 0 0 0-0.1 0 0 0 0 0-0.2 0-0.4 0 0 0-0.1 0-0.1 0-0.2 0.1 0 0.1-0.1 0-0.1 0-0.1 0.1-0.1 0.1-0.1 0 0 0-0.1 0 0 0.1 0 0-0.1 0-0.1 0 0 0.1 0 0-0.1 0-0.1 0 0 0 0 0.1-0.1 0.1-0.1zm1.5-0.7v-0.1q0 0 0 0 0.1 0 0.1-0.1 0 0 0 0 0 0 0 0l0.2-0.1h0.1q0 0 0 0 0 0 0 0 0 0 0 0 0 0.1 0 0.1l-1.8 4.7v0.1l-0.1 0.1-0.2 0.1q0 0 0 0 0 0 0 0-0.1 0-0.1 0 0 0 0 0 0 0 0 0 0 0 0 0 0 0 0-0.1 0 0 0 0zm-1.3 1.9v-0.5q0 0 0-0.1 0 0 0 0 0 0 0 0 0-0.1 0-0.1c0 0-0.1 0-0.1 0q-0.1 0-0.1 0.1 0 0 0 0-0.1 0-0.1 0 0 0.1 0 0.1 0 0 0 0 0 0.1 0 0.1 0 0 0 0 0 0.1 0 0.1 0 0 0 0 0 0 0 0.1 0 0 0 0 0 0 0 0v0.3q0 0 0 0 0 0.1 0 0.1 0 0 0 0 0 0 0 0 0 0 0 0.1 0 0 0 0 0 0 0 0.1 0 0 0 0 0 0 0.2 0 0 0 0 0 0-0.1 0-0.1 0.1 0 0.1 0 0 0 0-0.1 0 0 0 0 0-0.1 0-0.1 0 0 0 0 0-0.1 0-0.1zm1.4-0.1q0.1 0 0.1 0 0 0 0 0 0.1-0.1 0.1-0.1 0 0 0.1 0 0 0 0 0 0 0 0.1 0.1 0 0 0 0 0 0 0 0 0.1 0 0.1 0 0 0.1 0 0.1 0 0 0 0 0 0 0 0.1 0.1 0 0.1 0 0 0.1 0 0.1 0 0 0 0 0 0.1 0 0.1v0.6q0 0.1 0 0.1 0 0 0 0.1 0 0 0 0-0.1 0.1-0.1 0.1 0 0 0 0.1 0 0 0 0.1 0 0 0 0 0 0.1-0.1 0.1 0 0 0 0.1 0 0 0 0-0.1 0.1-0.1 0.1 0 0 0 0-0.1 0.1-0.1 0.1 0 0 0 0.1-0.1 0-0.1 0 0 0-0.1 0 0 0.1 0 0.1 0 0-0.1 0 0 0 0 0-0.1 0-0.1 0 0 0 0 0-0.1 0-0.1 0 0 0 0 0 0 0-0.1-0.1 0 0 0 0 0 0 0 0 0 0 0-0.1-0.1 0-0.1 0 0 0 0-0.1 0 0 0 0 0-0.1 0-0.1 0 0 0 0v-0.7q0 0 0 0 0-0.1 0-0.1 0 0 0-0.1 0 0 0 0 0-0.1 0.1-0.1 0-0.1 0-0.1 0 0 0-0.1 0 0 0 0 0.1-0.1 0.1-0.1 0 0 0-0.1 0 0 0.1 0 0-0.1 0-0.1 0 0 0.1 0 0-0.1 0-0.1 0 0 0.1 0 0-0.1 0-0.1zm0.2 1.2q0 0 0-0.1 0 0 0 0 0 0 0 0 0 0 0 0v-0.4q0 0 0 0 0-0.1 0-0.1 0 0 0-0.1 0 0 0 0c0-0.1-0.1 0-0.2 0q0 0 0 0 0 0-0.1 0 0 0.1 0 0.1 0 0 0 0 0 0.1 0 0.1 0 0 0 0 0 0.1 0 0.1 0 0 0 0.1 0 0 0 0 0 0 0 0 0 0 0 0 0 0 0 0.1v0.3q0 0 0 0 0 0.1 0 0.1 0 0 0 0.1 0 0 0 0c0 0.1 0.1 0 0.2 0q0 0 0 0 0 0 0.1 0 0-0.1 0-0.1 0 0 0 0 0-0.1 0-0.1 0 0 0 0 0-0.1 0-0.1 0 0 0 0z"/>
				<g style="opacity: .4">
					<path class="s6" d="m287.3 259.2q0 0 0 0 0 0 0 0 0-0.1 0-0.1 0 0 0 0 0 0 0 0 0 0 0-0.1 0 0 0 0 0 0 0 0l0.8-1.4 0.1-0.1 0.1-0.1 0.2-0.2h0.1q-0.1 0 0 0.1 0 0 0 0 0 0 0 0 0 0-0.1 0v3.7q0.1 0 0.1 0 0 0 0 0.1 0 0 0 0 0 0-0.1 0 0 0 0 0 0 0.1 0 0.1 0 0 0 0 0 0 0 0l-0.3 0.2q0 0 0 0 0 0-0.1 0 0 0 0 0 0 0 0 0 0 0 0 0 0-0.1 0-0.1 0 0 0 0 0 0 0 0v-2.8l-0.5 0.9q0 0 0 0.1 0 0 0 0 0 0-0.1 0 0 0 0 0 0 0 0 0z"/>
					<path fill-rule="evenodd" class="s6" d="m291.1 257.2v1q0 0.1 0 0.2 0 0.1 0 0.2 0 0 0 0.1-0.1 0.1-0.1 0.2 0 0.1 0 0.1 0 0.1 0 0.2-0.1 0.1-0.1 0.1 0 0.1 0 0.2-0.1 0-0.1 0.1 0 0.1-0.1 0.1 0 0.1 0 0.1-0.1 0.1-0.1 0.2-0.1 0-0.1 0.1-0.1 0-0.1 0.1-0.1 0-0.2 0.1 0 0-0.1 0 0 0.1-0.1 0.1 0 0-0.1 0-0.1 0.1-0.1 0.1-0.1 0-0.1 0-0.1 0-0.1 0-0.1 0-0.1-0.1 0 0-0.1 0 0 0 0-0.1-0.1 0-0.1 0 0-0.1 0-0.1-0.1-0.1-0.1-0.1 0-0.1 0-0.2 0 0 0-0.1 0-0.1-0.1-0.1 0-0.1 0-0.2 0 0 0-0.1 0-0.2 0-0.5 0-0.3 0-0.5 0-0.1 0-0.2 0 0 0-0.1 0.1-0.1 0.1-0.2 0-0.1 0-0.1 0-0.1 0-0.2 0-0.1 0.1-0.1 0-0.1 0-0.2 0-0.1 0.1-0.1 0-0.1 0-0.2 0 0 0.1-0.1 0-0.1 0.1-0.1 0-0.1 0.1-0.1 0-0.1 0.1-0.2 0 0 0.1-0.1 0 0 0.1 0 0-0.1 0.1-0.1 0.1-0.1 0.1-0.1 0.1 0 0.1 0 0.1 0 0.1 0 0.1-0.1 0.2-0.1 0 0 0 0 0.1 0.1 0.1 0.1 0.1 0 0.1 0 0 0 0.1 0.1 0 0 0 0.1 0 0 0.1 0.1 0 0 0 0.1 0 0 0 0.1 0 0 0.1 0.1 0 0.1 0 0.2 0 0 0 0.1 0 0.1 0 0.1zm-1.5 1.9q0 0 0 0.1 0 0.1 0 0.2 0.1 0 0.1 0.1 0 0.1 0 0.1 0.2 0.2 0.4 0 0.1 0 0.1-0.1 0.1 0 0.1-0.1 0.1 0 0.1-0.1 0.1 0 0.1-0.1 0-0.1 0-0.2 0.1-0.1 0.1-0.2 0 0 0-0.1 0-0.1 0-0.2 0-0.2 0-0.5 0-0.3 0-0.5 0 0 0-0.1 0-0.1 0-0.1 0-0.1-0.1-0.2 0 0 0-0.1-0.1-0.2-0.4 0-0.1 0-0.1 0.1-0.1 0-0.1 0.1-0.1 0-0.1 0.1 0 0.1-0.1 0.1 0 0.1 0 0.2 0 0.1 0 0.2-0.1 0.1-0.1 0.1 0 0.1 0 0.2 0 0.2 0 0.5 0 0.3 0 0.5z"/>
					<path fill-rule="evenodd" class="s6" d="m292 255.2q0 0 0.1 0 0 0 0 0 0 0 0.1-0.1 0 0 0 0 0.1 0 0.1 0 0 0.1 0 0.1 0 0 0.1 0 0 0 0 0 0 0 0 0 0.1 0.1 0.1 0.1 0 0 0 0 0 0 0 0.1 0 0 0 0 0 0.1 0 0.1 0 0 0 0.1 0 0 0 0 0 0.1 0 0.3 0 0.2 0 0.3 0 0.2 0 0.3 0 0 0 0.1 0 0 0 0.1-0.1 0-0.1 0 0 0.1 0 0.1 0 0 0 0.1-0.1 0-0.1 0 0 0.1 0 0.1 0 0-0.1 0.1 0 0 0 0 0 0-0.1 0.1 0 0 0 0-0.1 0-0.1 0.1 0 0-0.1 0 0 0 0 0 0 0-0.1 0 0 0 0 0-0.1 0-0.1 0 0 0 0 0 0 0-0.1 0 0 0 0 0 0-0.1 0-0.1 0 0-0.1 0 0 0 0-0.1 0 0 0 0 0 0 0-0.1 0 0 0 0 0-0.1 0-0.1 0 0 0 0 0-0.1 0-0.1 0-0.1 0-0.1 0 0 0-0.1 0 0 0 0 0-0.2 0-0.4 0 0 0-0.1 0-0.1 0-0.2 0.1 0 0.1-0.1 0-0.1 0-0.1 0.1-0.1 0.1-0.1 0 0 0-0.1 0 0 0.1 0 0-0.1 0-0.1 0 0 0.1 0 0-0.1 0-0.1 0 0 0 0 0.1-0.1 0.1-0.1zm1.5-0.7v-0.1q0 0 0 0 0.1 0 0.1-0.1 0 0 0 0 0 0 0 0l0.2-0.1h0.1q0 0 0 0 0 0 0 0 0 0 0 0 0 0.1 0 0.1l-1.8 4.7v0.1l-0.1 0.1-0.2 0.1q0 0 0 0 0 0 0 0-0.1 0-0.1 0 0 0 0 0 0 0 0 0 0 0 0 0 0 0 0-0.1 0 0 0 0zm-1.3 1.9v-0.5q0 0 0-0.1 0 0 0 0 0 0 0 0 0-0.1 0-0.1c0 0-0.1 0-0.1 0q-0.1 0-0.1 0.1 0 0 0 0-0.1 0-0.1 0 0 0.1 0 0.1 0 0 0 0 0 0.1 0 0.1 0 0 0 0 0 0.1 0 0.1 0 0 0 0 0 0 0 0.1 0 0 0 0 0 0 0 0v0.3q0 0 0 0 0 0.1 0 0.1 0 0 0 0 0 0 0 0 0 0 0 0.1 0 0 0 0 0 0 0 0.1 0 0 0 0 0 0 0.2 0 0 0 0 0 0-0.1 0-0.1 0.1 0 0.1 0 0 0 0-0.1 0 0 0 0 0-0.1 0-0.1 0 0 0 0 0-0.1 0-0.1zm1.4-0.1q0.1 0 0.1 0 0 0 0 0 0.1-0.1 0.1-0.1 0 0 0.1 0 0 0 0 0 0 0 0.1 0.1 0 0 0 0 0 0 0 0 0.1 0 0.1 0 0 0.1 0 0.1 0 0 0 0 0 0 0 0.1 0.1 0 0.1 0 0 0.1 0 0.1 0 0 0 0 0 0.1 0 0.1v0.6q0 0.1 0 0.1 0 0 0 0.1 0 0 0 0-0.1 0.1-0.1 0.1 0 0 0 0.1 0 0 0 0.1 0 0 0 0 0 0.1-0.1 0.1 0 0 0 0.1 0 0 0 0-0.1 0.1-0.1 0.1 0 0 0 0-0.1 0.1-0.1 0.1 0 0 0 0.1-0.1 0-0.1 0 0 0-0.1 0 0 0.1 0 0.1 0 0-0.1 0 0 0 0 0-0.1 0-0.1 0 0 0 0 0-0.1 0-0.1 0 0 0 0 0 0 0-0.1-0.1 0 0 0 0 0 0 0 0 0 0 0-0.1-0.1 0-0.1 0 0 0 0-0.1 0 0 0 0 0-0.1 0-0.1 0 0 0 0v-0.7q0 0 0 0 0-0.1 0-0.1 0 0 0-0.1 0 0 0 0 0-0.1 0.1-0.1 0-0.1 0-0.1 0 0 0-0.1 0 0 0 0 0.1-0.1 0.1-0.1 0 0 0-0.1 0 0 0.1 0 0-0.1 0-0.1 0 0 0.1 0 0-0.1 0-0.1 0 0 0.1 0 0-0.1 0-0.1zm0.2 1.2q0 0 0-0.1 0 0 0 0 0 0 0 0 0 0 0 0v-0.4q0 0 0 0 0-0.1 0-0.1 0 0 0-0.1 0 0 0 0c0-0.1-0.1 0-0.2 0q0 0 0 0 0 0-0.1 0 0 0.1 0 0.1 0 0 0 0 0 0.1 0 0.1 0 0 0 0 0 0.1 0 0.1 0 0 0 0.1 0 0 0 0 0 0 0 0 0 0 0 0 0 0 0 0.1v0.3q0 0 0 0 0 0.1 0 0.1 0 0 0 0.1 0 0 0 0c0 0.1 0.1 0 0.2 0q0 0 0 0 0 0 0.1 0 0-0.1 0-0.1 0 0 0 0 0-0.1 0-0.1 0 0 0 0 0-0.1 0-0.1 0 0 0 0z"/>
				</g>
				<path class="s7" d="m268.1 273.1c-0.1 0-0.1 0-0.1-0.1v-0.8q0.1 0 0.1-0.1 0 0 0-0.1 0-0.1 0-0.1 0.1-0.1 0.1-0.1 0.2-0.2 0.2 0v0.7l0.3-0.2q0.1 0 0 0.2 0 0.1 0 0.1 0 0.1-0.1 0.1 0 0.1 0 0.1-0.1 0.1-0.1 0.1l-0.4 0.2c0 0 0 0-0.1 0zm1.3-0.7c0 0 0-0.1 0-0.2q0-0.1 0-0.1 0-0.1 0.1-0.1 0-0.1 0-0.1 0.1-0.1 0.1-0.1l0.9-0.5c0.1-0.1 0.1 0 0 0.2q0 0.1 0 0.1 0 0.1 0 0.1-0.1 0.1-0.1 0.1 0 0.1-0.1 0.1l-0.9 0.5c0 0 0 0 0 0zm-1.3-1.4c0 0 0 0 0-0.1v-1.3q0.1-0.1 0.1-0.1 0-0.1 0-0.2 0 0 0-0.1 0.1 0 0.1-0.1 0.2-0.2 0.2 0v1.4q0 0 0 0.1-0.1 0-0.1 0.1 0 0.1 0 0.1-0.1 0.1-0.1 0.1c-0.1 0.1-0.1 0.1-0.2 0.1zm3 0.4c0 0 0-0.1 0-0.2q0.1-0.1 0.1-0.1 0-0.1 0-0.1 0.1-0.1 0.1-0.1 0-0.1 0.1-0.1l0.9-0.5c0 0 0.1 0.1 0 0.2q0 0.1 0 0.1 0 0.1-0.1 0.1 0 0.1 0 0.1-0.1 0.1-0.1 0.1l-0.9 0.5h-0.1zm-3-3.1q0 0 0-0.1v-1.3q0-0.1 0-0.2 0 0 0-0.1 0.1 0 0.1-0.1 0 0 0.1-0.1 0.1-0.2 0.1 0v1.3q0 0.1 0 0.2 0 0 0 0.1 0 0-0.1 0.1 0 0.1 0 0.1-0.2 0.1-0.2 0.1zm4.7 2.1c0 0 0-0.2 0-0.3q0 0 0.1-0.1 0 0 0-0.1 0 0 0.1-0.1 0 0 0.1-0.1l0.8-0.5c0.1 0 0.1 0.1 0.1 0.3q0 0-0.1 0.1 0 0 0 0.1 0 0-0.1 0.1 0 0 0 0.1l-0.9 0.5zm1.7-1c0 0 0-0.2 0-0.3q0 0 0.1-0.1 0 0 0-0.1 0 0 0.1-0.1 0 0 0.1-0.1l0.8-0.5c0.1 0 0.1 0.1 0.1 0.3q0 0 0 0.1-0.1 0-0.1 0.1 0 0-0.1 0.1 0 0 0 0.1l-0.9 0.5c0 0-0.1-0.1-0.1-0.1zm1.8-1c0 0 0-0.1 0-0.2q0-0.1 0-0.1 0-0.1 0.1-0.1 0-0.1 0-0.1 0.1-0.1 0.1-0.1l0.9-0.5c0-0.1 0.1 0 0 0.2q0 0.1 0 0.1 0 0.1-0.1 0.1 0 0.1 0 0.1-0.1 0.1-0.1 0.1l-0.9 0.5c0 0 0 0 0 0z"/>
				<path class="s7" d="m278 267.4q0-0.1 0-0.1 0 0 0 0 0-0.1 0-0.1 0 0 0-0.1 0 0 0-0.1 0.1 0 0.1-0.1 0 0 0.1-0.1 0 0 0 0l0.9-0.5c0.1-0.1 0.1 0 0.1 0.2q0 0-0.1 0.1 0 0 0 0.1 0 0-0.1 0.1 0 0-0.1 0.1l-0.8 0.5c0 0-0.1 0-0.1 0z"/>
				<path class="s7" d="m279.8 266.4c-0.1 0-0.1-0.1-0.1-0.3q0.1 0 0.1-0.1 0 0 0-0.1 0.1 0 0.1-0.1 0 0 0.1-0.1l0.9-0.5c0 0 0.1 0.1 0 0.3q0 0 0 0.1 0 0-0.1 0.1 0 0 0 0.1-0.1 0-0.1 0.1l-0.9 0.5c0 0 0 0-0.1 0z"/>
				<path class="s7" d="m281.5 265.4c0 0 0-0.2 0-0.3q0 0 0-0.1 0.1 0 0.1-0.1 0 0 0-0.1 0.1 0 0.1-0.1l0.9-0.5c0.1 0 0.1 0 0.1 0.3q-0.1 0-0.1 0.1 0 0 0 0.1-0.1 0-0.1 0.1 0 0-0.1 0l-0.8 0.6z"/>
				<path class="s7" d="m283.2 264.3c0 0 0-0.1 0-0.2q0.1 0 0.1-0.1 0-0.1 0-0.1 0.1-0.1 0.1-0.1 0 0 0.1-0.1l0.8-0.5c0.1 0 0.2 0 0.1 0.2q0 0.1 0 0.2 0 0-0.1 0.1 0 0 0 0-0.1 0.1-0.1 0.1l-0.9 0.5q0 0 0 0 0 0 0 0 0 0 0 0-0.1 0-0.1 0z"/>
				<path class="s7" d="m237.7 260l10-5.9q0.2-0.1 0.3-0.2 0.2-0.2 0.2-0.3 0.1-0.2 0.2-0.4 0-0.2 0-0.4c0-0.5-0.3-0.7-0.6-0.5l-10.2 5.8q-0.1 0.1-0.3 0.3-0.1 0.1-0.2 0.3 0 0.2-0.1 0.4 0 0.2 0 0.4c0 0.5 0.4 0.7 0.7 0.5z"/>
				<path class="s7" d="m238.4 289.2l10-5.9q0.2-0.1 0.3-0.2 0.1-0.2 0.2-0.3 0.1-0.2 0.2-0.4 0-0.2 0-0.4c0-0.4-0.3-0.7-0.7-0.4l-10.1 5.7q-0.1 0.1-0.3 0.3-0.1 0.1-0.2 0.3-0.1 0.2-0.1 0.4 0 0.2 0 0.4c0 0.5 0.3 0.7 0.7 0.5z"/>
				<path class="s7" d="m285.8 267.5l10-5.9q0.1-0.1 0.3-0.2 0.1-0.2 0.2-0.4 0.1-0.1 0.1-0.3 0.1-0.2 0.1-0.4c0-0.5-0.3-0.7-0.7-0.5l-10.1 5.8q-0.2 0.1-0.3 0.3-0.2 0.1-0.3 0.3 0 0.2-0.1 0.4 0 0.2 0 0.4c0 0.5 0.4 0.7 0.8 0.5z"/>
				<path class="s7" d="m288.8 233l10-5.9q0.2-0.1 0.3-0.2 0.1-0.2 0.2-0.3 0.1-0.2 0.2-0.4 0-0.2 0-0.4c0-0.5-0.3-0.7-0.7-0.5l-10.1 5.8q-0.1 0.1-0.3 0.3-0.1 0.1-0.2 0.3-0.1 0.2-0.1 0.4 0 0.2 0 0.4c0 0.5 0.3 0.7 0.7 0.5z"/>
				<path class="s5" d="m253 221.7q0-0.6 0.2-1.1 0.2-0.5 0.5-1 0.2-0.5 0.6-0.9 0.4-0.4 0.9-0.6l24.1-14c1.2-0.6 2.1-0.2 2.1 1.1q0 0.6-0.2 1.1-0.1 0.5-0.4 1-0.3 0.5-0.7 0.9-0.4 0.3-0.8 0.6l-24.1 14c-1.2 0.6-2.2 0.2-2.2-1.1z"/>
			</g>
		</g>
	</g>
	<g id="freepik--chart-2--inject-2">
		<g id="freepik--window-chart--inject-2">
			<g id="freepik--window--inject-2">
				<path class="s2" d="m207.4 233.4q-0.4-0.2-0.9-0.3-0.4-0.1-0.9 0-0.4 0-0.9 0.2-0.4 0.1-0.8 0.4l-130.7 75.3q-1 0.7-1.9 1.6-0.8 0.9-1.5 1.9-0.6 1.1-0.9 2.3-0.4 1.2-0.4 2.4v6.8 65.5q0 0.1 0 0.2-0.1 0.1-0.1 0.1 0 0.1 0.1 0.2 0 0.1 0 0.2 0 0.6 0.3 1.1 0.2 0.5 0.5 1 0.3 0.5 0.8 0.9 0.4 0.4 0.9 0.7l5 2.8 0.2 0.2q-0.3-0.2-0.7-0.5-0.3-0.3-0.5-0.7-0.2-0.4-0.3-0.8-0.2-0.4-0.2-0.9v-63.8-9.5q0.1-1.3 0.5-2.4 0.3-1.2 0.9-2.3 0.6-1.1 1.5-2 0.8-0.9 1.9-1.5l130.7-75.4q0.3-0.2 0.7-0.4 0.4-0.1 0.8-0.2 0.5 0 0.9 0 0.4 0.1 0.8 0.2c-1-0.5-4.9-2.8-5.8-3.3z"/>
				<path class="s3" d="m214.7 239.3q0-0.1 0-0.2 0 0 0-0.1 0 0 0-0.1 0 0-0.1-0.1 0 0 0-0.1 0 0 0-0.1 0 0 0-0.1 0 0 0-0.1-0.1 0-0.1-0.1 0-0.1 0-0.1-0.1-0.1-0.1-0.2 0-0.1-0.1-0.2 0 0-0.1-0.1 0 0 0-0.1 0 0 0 0 0-0.1-0.1-0.1 0 0 0-0.1 0 0 0 0-0.1 0-0.1 0 0-0.1 0-0.1 0 0 0 0-0.1-0.1-0.1-0.1-0.1 0-0.1-0.1 0 0-0.1-0.1 0 0-0.1 0 0-0.1-0.1-0.1 0 0-0.1-0.1 0 0-0.1 0 0 0-0.1-0.1-0.4-0.1-0.8-0.2-0.4 0-0.8 0-0.4 0.1-0.8 0.2-0.4 0.2-0.8 0.4l-130.7 75.4q-1.1 0.6-1.9 1.5-0.9 0.9-1.5 2-0.6 1.1-1 2.3-0.3 1.1-0.4 2.4v73.3q0 0.9 0.5 1.6 0.4 0.8 1.1 1.2 0.8 0.4 1.7 0.4 0.8 0 1.6-0.4l130.6-75.3q1-0.7 1.9-1.6 0.8-0.9 1.5-2 0.6-1 0.9-2.2 0.4-1.2 0.4-2.4v-73.4q0.1-0.1 0-0.2 0-0.1 0-0.2 0 0 0-0.1 0-0.1 0-0.2z"/>
				<path class="s4" d="m210 237.1l-130.7 75.4q-0.6 0.3-1 0.7-0.5 0.4-0.9 0.8-0.4 0.5-0.8 1-0.4 0.5-0.7 1l-6-3.5q0.3-0.5 0.7-1 0.3-0.5 0.7-1 0.5-0.4 0.9-0.8 0.5-0.4 1-0.7l130.8-75.3q0.4-0.3 0.8-0.4 0.4-0.2 0.9-0.2 0.4-0.1 0.9 0 0.4 0.1 0.8 0.3c0.9 0.5 4.8 2.8 5.8 3.3q-0.4-0.2-0.8-0.2-0.4-0.1-0.8 0-0.5 0-0.9 0.2-0.4 0.2-0.7 0.4z"/>
			</g>
			<g id="freepik--chart--inject-2">
				<path class="s8" d="m95.1 316.7q-0.1 0-0.1 0 0 0-0.1 0 0-0.1 0-0.1-0.1 0-0.1-0.1 0 0 0-0.1 0 0 0-0.1 0-0.1 0-0.1 0.1-0.1 0.1-0.1l109.9-63.4q0.1-0.1 0.1-0.1 0.1 0 0.2 0 0 0 0.1 0.1 0 0 0.1 0.1 0 0 0 0.1 0 0.1 0 0.1 0 0.1-0.1 0.1 0 0.1-0.1 0.1l-109.8 63.5q-0.1 0-0.1 0 0 0 0 0-0.1 0-0.1 0 0 0 0 0z"/>
				<path class="s8" d="m95.1 328.8q-0.1 0-0.2-0.1-0.1 0-0.1-0.1-0.1-0.1 0-0.2 0-0.1 0.1-0.2l109.9-63.5q0.1 0 0.1 0 0.1 0 0.2 0 0 0 0.1 0.1 0 0 0.1 0.1 0 0 0 0.1 0 0 0 0.1 0 0.1-0.1 0.1 0 0.1-0.1 0.1l-109.8 63.5q-0.1 0-0.1 0 0 0 0 0-0.1 0-0.1 0 0 0 0 0z"/>
				<path class="s8" d="m95.1 340.9q-0.1 0-0.1 0 0 0-0.1-0.1 0 0 0 0-0.1 0-0.1-0.1 0 0 0-0.1 0-0.1 0-0.1 0-0.1 0-0.1 0.1-0.1 0.1-0.1l109.9-63.5q0.1-0.1 0.3 0 0.1 0 0.2 0.1 0.1 0.1 0 0.3 0 0.1-0.1 0.2l-110 63.4q0 0.1 0 0.1 0 0 0 0-0.1 0-0.1 0 0 0 0 0z"/>
				<path class="s8" d="m95.1 353q-0.1 0-0.2-0.1-0.1 0-0.1-0.1-0.1-0.1 0-0.2 0-0.1 0.1-0.2l109.9-63.5q0.1 0 0.1 0 0.1 0 0.2 0 0 0 0.1 0.1 0 0 0.1 0.1 0 0 0 0.1 0 0 0 0.1 0 0.1-0.1 0.1 0 0.1-0.1 0.1l-109.8 63.4q-0.1 0-0.1 0.1 0 0 0 0-0.1 0-0.1 0 0 0 0 0z"/>
				<path class="s9" d="m95.1 365.1q-0.1 0-0.1-0.1 0 0-0.1 0 0 0-0.1 0 0-0.1 0-0.1 0-0.1 0-0.1 0-0.1 0-0.2 0 0 0-0.1 0.1 0 0.1-0.1l109.9-63.4q0.1 0 0.1 0 0.1 0 0.2 0 0 0 0.1 0 0 0.1 0.1 0.1 0 0.1 0 0.1 0 0.1 0 0.2 0 0-0.1 0.1 0 0-0.1 0.1l-109.8 63.4q-0.1 0-0.1 0 0 0 0 0-0.1 0-0.1 0.1 0 0 0 0z"/>
				<path class="s5" d="m99.1 348.2q0-0.4 0.1-0.8 0.1-0.3 0.3-0.6 0.2-0.3 0.4-0.6 0.3-0.3 0.6-0.5l2.4-1.4c0.8-0.4 1.4-0.1 1.4 0.8v14l-5.2 3z"/>
				<path class="s5" d="m106.6 330.9q0-0.4 0.2-0.7 0.1-0.4 0.2-0.7 0.2-0.3 0.5-0.6 0.2-0.2 0.5-0.4l2.5-1.5c0.7-0.4 1.4 0 1.4 0.9v26.8l-5.3 3z"/>
				<path class="s5" d="m114.2 336.8q0-0.3 0.1-0.7 0.1-0.3 0.3-0.6 0.2-0.4 0.4-0.6 0.3-0.3 0.6-0.5l2.4-1.4c0.8-0.4 1.4-0.1 1.4 0.8v16.5l-5.2 3z"/>
				<path class="s10" d="m114.2 336.8q0-0.3 0.1-0.7 0.1-0.3 0.3-0.6 0.2-0.4 0.4-0.6 0.3-0.3 0.6-0.5l2.4-1.4c0.8-0.4 1.4-0.1 1.4 0.8v16.5l-5.2 3z"/>
				<path class="s11" d="m106.6 330.9q0-0.4 0.2-0.7 0.1-0.4 0.2-0.7 0.2-0.3 0.5-0.6 0.2-0.2 0.5-0.4l2.5-1.5c0.7-0.4 1.4 0 1.4 0.9v26.8l-5.3 3z"/>
				<path class="s5" d="m126.1 324.5q0-0.3 0.1-0.7 0.1-0.3 0.3-0.6 0.2-0.4 0.4-0.6 0.3-0.3 0.6-0.5l2.4-1.4c0.8-0.4 1.4-0.1 1.4 0.8v22l-5.2 3z"/>
				<path class="s5" d="m133.6 317.2q0.1-0.4 0.2-0.8 0.1-0.3 0.2-0.6 0.2-0.3 0.5-0.6 0.2-0.3 0.5-0.5l2.5-1.4c0.7-0.4 1.4 0 1.4 0.8v25l-5.3 3z"/>
				<path class="s5" d="m141.2 296.3q0-0.4 0.1-0.7 0.1-0.4 0.3-0.7 0.2-0.3 0.4-0.6 0.3-0.2 0.6-0.4l2.4-1.4c0.8-0.5 1.4-0.1 1.4 0.8v41.4l-5.2 3z"/>
				<path class="s10" d="m141.2 296.3q0-0.4 0.1-0.7 0.1-0.4 0.3-0.7 0.2-0.3 0.4-0.6 0.3-0.2 0.6-0.4l2.4-1.4c0.8-0.5 1.4-0.1 1.4 0.8v41.4l-5.2 3z"/>
				<path class="s11" d="m133.6 317.2q0.1-0.4 0.2-0.8 0.1-0.3 0.2-0.6 0.2-0.3 0.5-0.6 0.2-0.3 0.5-0.5l2.5-1.4c0.7-0.4 1.4 0 1.4 0.8v25l-5.3 3z"/>
				<path class="s5" d="m153.1 327.6q0-0.3 0.1-0.7 0.1-0.3 0.3-0.7 0.2-0.3 0.4-0.5 0.3-0.3 0.6-0.5l2.4-1.4c0.8-0.5 1.4-0.1 1.4 0.8v3.3l-5.2 3z"/>
				<path class="s5" d="m160.7 297.3q0-0.3 0.1-0.7 0.1-0.3 0.3-0.7 0.1-0.3 0.4-0.5 0.2-0.3 0.5-0.5l2.5-1.4c0.8-0.5 1.4-0.1 1.4 0.8v29.2l-5.3 3z"/>
				<path class="s5" d="m168.2 300.2q0-0.4 0.1-0.7 0.1-0.4 0.3-0.7 0.2-0.3 0.4-0.6 0.3-0.2 0.6-0.4l2.4-1.4c0.8-0.5 1.4-0.1 1.4 0.8v22l-5.2 3z"/>
				<path class="s10" d="m168.2 300.2q0-0.4 0.1-0.7 0.1-0.4 0.3-0.7 0.2-0.3 0.4-0.6 0.3-0.2 0.6-0.4l2.4-1.4c0.8-0.5 1.4-0.1 1.4 0.8v22l-5.2 3z"/>
				<path class="s11" d="m160.7 297.3q0-0.3 0.1-0.7 0.1-0.3 0.3-0.7 0.1-0.3 0.4-0.5 0.2-0.3 0.5-0.5l2.5-1.4c0.8-0.5 1.4-0.1 1.4 0.8v29.2l-5.3 3z"/>
				<path class="s5" d="m180.1 301.4q0-0.4 0.1-0.7 0.1-0.4 0.3-0.7 0.2-0.3 0.5-0.5 0.2-0.3 0.5-0.5l2.4-1.4c0.8-0.5 1.4-0.1 1.4 0.8v13.9l-5.2 3z"/>
				<path class="s5" d="m187.7 276.5q0-0.3 0.1-0.7 0.1-0.3 0.3-0.7 0.1-0.3 0.4-0.5 0.2-0.3 0.5-0.5l2.5-1.4c0.8-0.5 1.4-0.1 1.4 0.8v34.4l-5.2 3z"/>
				<path class="s5" d="m195.2 290.1q0-0.4 0.1-0.8 0.1-0.3 0.3-0.6 0.2-0.3 0.5-0.6 0.2-0.3 0.5-0.5l2.5-1.4c0.7-0.4 1.3-0.1 1.3 0.8v16.5l-5.2 3z"/>
				<path class="s10" d="m195.2 290.1q0-0.4 0.1-0.8 0.1-0.3 0.3-0.6 0.2-0.3 0.5-0.6 0.2-0.3 0.5-0.5l2.5-1.4c0.7-0.4 1.3-0.1 1.3 0.8v16.5l-5.2 3z"/>
				<path class="s11" d="m187.7 276.5q0-0.3 0.1-0.7 0.1-0.3 0.3-0.7 0.1-0.3 0.4-0.5 0.2-0.3 0.5-0.5l2.5-1.4c0.8-0.5 1.4-0.1 1.4 0.8v34.4l-5.2 3z"/>
				<path class="s9" d="m81.1 371.5q0-0.3 0.2-0.6 0.1-0.3 0.3-0.6 0.1-0.2 0.4-0.4 0.2-0.3 0.5-0.4l7.7-4.4c0.8-0.5 1.4-0.3 1.4 0.3q-0.1 0.3-0.2 0.6-0.1 0.3-0.3 0.6-0.2 0.2-0.4 0.5-0.2 0.2-0.5 0.3l-7.7 4.5c-0.8 0.4-1.4 0.2-1.4-0.4z"/>
				<path class="s9" d="m81.1 348.5q0-0.3 0.2-0.6 0.1-0.3 0.3-0.6 0.1-0.2 0.4-0.4 0.2-0.3 0.5-0.4l7.7-4.4c0.8-0.5 1.4-0.3 1.4 0.3q-0.1 0.3-0.2 0.6-0.1 0.3-0.3 0.6-0.2 0.2-0.4 0.5-0.2 0.2-0.5 0.3l-7.7 4.5c-0.8 0.4-1.4 0.2-1.4-0.4z"/>
				<path class="s9" d="m81.1 325.6q0-0.4 0.2-0.7 0.1-0.3 0.3-0.5 0.1-0.3 0.4-0.5 0.2-0.2 0.5-0.4l7.7-4.4c0.8-0.4 1.4-0.3 1.4 0.4q-0.1 0.3-0.2 0.6-0.1 0.3-0.3 0.6-0.2 0.2-0.4 0.4-0.2 0.2-0.5 0.4l-7.7 4.4c-0.8 0.5-1.4 0.3-1.4-0.4z"/>
				<path class="s9" d="m103.8 371.2q0-0.3 0.1-0.6 0.1-0.3 0.3-0.6 0.2-0.2 0.4-0.4 0.3-0.3 0.6-0.4l16.2-9.4c0.8-0.4 1.4-0.3 1.4 0.4q0 0.3-0.2 0.6-0.1 0.3-0.3 0.5-0.1 0.3-0.4 0.5-0.2 0.2-0.5 0.4l-16.2 9.4c-0.8 0.4-1.4 0.2-1.4-0.4z"/>
				<path class="s5" d="m99.7 374.8v-2.7c0-0.5-0.4-0.8-0.9-0.5l-2.3 1.4q-0.2 0.1-0.3 0.3-0.2 0.1-0.3 0.3-0.1 0.2-0.2 0.5-0.1 0.2-0.1 0.4v2.7c0 0.5 0.4 0.8 0.9 0.5l2.3-1.4q0.2-0.1 0.4-0.3 0.1-0.1 0.3-0.3 0.1-0.2 0.1-0.5 0.1-0.2 0.1-0.4z"/>
				<path class="s9" d="m144.3 347.8q0.1-0.3 0.2-0.6 0.1-0.3 0.3-0.6 0.2-0.2 0.4-0.4 0.2-0.3 0.5-0.4l16.3-9.4c0.8-0.4 1.4-0.2 1.4 0.4q-0.1 0.3-0.2 0.6-0.1 0.3-0.3 0.6-0.1 0.2-0.4 0.4-0.2 0.2-0.5 0.4l-16.3 9.4c-0.8 0.4-1.4 0.2-1.4-0.4z"/>
				<path class="s5" d="m140.3 351.4l-0.1-2.7c0-0.6-0.3-0.8-0.8-0.5l-2.3 1.3q-0.2 0.2-0.4 0.3-0.1 0.2-0.3 0.4-0.1 0.2-0.1 0.4-0.1 0.2-0.1 0.4v2.7c0 0.6 0.4 0.8 0.9 0.5l2.3-1.3q0.2-0.1 0.3-0.3 0.2-0.2 0.3-0.4 0.1-0.2 0.2-0.4 0-0.2 0-0.4z"/>
				<path class="s11" d="m140.3 351.4l-0.1-2.7c0-0.6-0.3-0.8-0.8-0.5l-2.3 1.3q-0.2 0.2-0.4 0.3-0.1 0.2-0.3 0.4-0.1 0.2-0.1 0.4-0.1 0.2-0.1 0.4v2.7c0 0.6 0.4 0.8 0.9 0.5l2.3-1.3q0.2-0.1 0.3-0.3 0.2-0.2 0.3-0.4 0.1-0.2 0.2-0.4 0-0.2 0-0.4z"/>
				<path class="s9" d="m184.9 324.4q0-0.3 0.1-0.6 0.2-0.3 0.3-0.6 0.2-0.2 0.5-0.5 0.2-0.2 0.5-0.3l16.2-9.4c0.8-0.4 1.4-0.3 1.4 0.4q0 0.3-0.2 0.6-0.1 0.3-0.2 0.5-0.2 0.3-0.5 0.5-0.2 0.2-0.5 0.4l-16.2 9.3c-0.8 0.5-1.4 0.3-1.4-0.3z"/>
				<path class="s5" d="m180.8 328v-2.7c0-0.5-0.4-0.8-0.9-0.5l-2.3 1.4q-0.2 0.1-0.3 0.2-0.2 0.2-0.3 0.4-0.1 0.2-0.2 0.4 0 0.2-0.1 0.5v2.7c0 0.5 0.4 0.7 0.9 0.5l2.3-1.4q0.2-0.1 0.4-0.3 0.1-0.2 0.3-0.3 0.1-0.2 0.1-0.5 0.1-0.2 0.1-0.4z"/>
				<path class="s10" d="m180.8 328v-2.7c0-0.5-0.4-0.8-0.9-0.5l-2.3 1.4q-0.2 0.1-0.3 0.2-0.2 0.2-0.3 0.4-0.1 0.2-0.2 0.4 0 0.2-0.1 0.5v2.7c0 0.5 0.4 0.7 0.9 0.5l2.3-1.4q0.2-0.1 0.4-0.3 0.1-0.2 0.3-0.3 0.1-0.2 0.1-0.5 0.1-0.2 0.1-0.4z"/>
			</g>
		</g>
	</g>
	<g id="freepik--chart-1--inject-2">
		<g id="freepik--window-chart--inject-2">
			<g id="freepik--window--inject-2">
				<path class="s2" d="m296.1 3.9q-0.4-0.2-0.8-0.3-0.5-0.1-0.9-0.1-0.5 0.1-0.9 0.2-0.5 0.2-0.8 0.5l-219.5 126.6q-1 0.7-1.9 1.6-0.8 0.9-1.5 1.9-0.6 1.1-0.9 2.3-0.4 1.2-0.4 2.4v6.8 140.5q0 0.1 0 0.2-0.1 0.1-0.1 0.2 0 0 0.1 0.1 0 0.1 0 0.2 0 0.6 0.3 1.1 0.2 0.6 0.5 1 0.3 0.5 0.8 0.9 0.4 0.4 0.9 0.7l5 2.9 0.2 0.1q-0.3-0.2-0.7-0.5-0.3-0.3-0.5-0.7-0.2-0.4-0.3-0.8-0.2-0.4-0.2-0.9v-138.8-9.6q0.1-1.2 0.5-2.4 0.3-1.2 0.9-2.2 0.6-1.1 1.5-2 0.8-0.9 1.9-1.6l219.4-126.6q0.4-0.3 0.8-0.4 0.4-0.2 0.8-0.2 0.4-0.1 0.8 0 0.4 0 0.8 0.2c-1-0.5-4.9-2.8-5.8-3.3z"/>
				<path class="s3" d="m303.4 9.7q0 0 0-0.1 0 0 0-0.1 0 0 0-0.1 0 0 0-0.1 0 0 0-0.1 0 0 0-0.1-0.1-0.1-0.1-0.1 0-0.1 0-0.1 0-0.1 0-0.1-0.1-0.1-0.1-0.2 0 0-0.1-0.1 0-0.1 0-0.2-0.1 0-0.1-0.1 0-0.1-0.1-0.1 0 0 0-0.1 0 0 0 0-0.1 0-0.1-0.1 0 0 0 0 0 0 0-0.1-0.1 0-0.1 0 0 0 0 0-0.1-0.1-0.1-0.1 0-0.1-0.1-0.1 0 0 0-0.1-0.1 0-0.1 0-0.1-0.1-0.1-0.1-0.1-0.1-0.1-0.1-0.1 0-0.1 0-0.1-0.1-0.1-0.1-0.4-0.1-0.8-0.2-0.5 0-0.9 0-0.4 0.1-0.8 0.2-0.4 0.2-0.7 0.4l-219.5 126.6q-1.1 0.7-1.9 1.6-0.9 0.9-1.5 2-0.6 1-1 2.2-0.3 1.2-0.4 2.4v148.5q0 0.8 0.5 1.6 0.4 0.7 1.1 1.2 0.8 0.4 1.7 0.4 0.8 0 1.6-0.4l219.3-126.7q1.1-0.7 1.9-1.6 0.9-0.9 1.5-1.9 0.6-1.1 1-2.3 0.3-1.2 0.4-2.4v-148.5q0 0 0-0.1 0-0.1 0-0.2 0 0 0-0.1 0-0.1-0.1-0.2z"/>
				<path class="s4" d="m298.7 7.6l-219.4 126.6q-0.5 0.4-1 0.7-0.5 0.4-0.9 0.9-0.4 0.4-0.8 0.9-0.4 0.5-0.7 1l-6-3.5q0.3-0.5 0.7-1 0.3-0.5 0.8-0.9 0.4-0.4 0.8-0.8 0.5-0.4 1-0.7l219.5-126.6q0.3-0.3 0.8-0.5 0.4-0.1 0.9-0.2 0.4 0 0.9 0.1 0.4 0.1 0.8 0.3c0.9 0.5 4.8 2.7 5.8 3.3q-0.4-0.2-0.8-0.2-0.4-0.1-0.8 0-0.4 0-0.8 0.2-0.4 0.1-0.8 0.4z"/>
			</g>
			<g id="freepik--chart--inject-2">
				<path class="s9" d="m91.6 268.4q-0.2 0-0.3-0.1-0.2-0.1-0.2-0.3 0-0.2 0-0.3 0.1-0.2 0.2-0.3l195-112.5q0.2-0.1 0.4-0.1 0.2 0.1 0.3 0.2 0.1 0.2 0.1 0.4-0.1 0.2-0.3 0.3l-195 112.6q0 0 0 0-0.1 0-0.1 0 0 0.1-0.1 0.1 0 0 0 0z"/>
				<path class="s9" d="m91.6 270.8q-0.1 0-0.2 0-0.1-0.1-0.2-0.1-0.1-0.1-0.1-0.2 0-0.1 0-0.2v-4.7q0-0.2 0.1-0.4 0.2-0.1 0.4-0.1 0.2 0 0.3 0.1 0.2 0.2 0.2 0.4v4.7q0 0.1-0.1 0.2 0 0.1-0.1 0.2 0 0-0.1 0.1-0.1 0-0.2 0z"/>
				<path class="s9" d="m124.1 251.9q-0.1 0-0.2 0-0.1 0-0.2-0.1-0.1-0.1-0.1-0.2 0-0.1 0-0.2v-4.7q0 0 0-0.1 0-0.1 0.1-0.2 0.1-0.1 0.2-0.1 0.1 0 0.2-0.1 0.1 0.1 0.2 0.1 0.1 0 0.1 0.1 0.1 0.1 0.1 0.2 0.1 0.1 0.1 0.1v4.7q0 0.1-0.1 0.2 0 0.1-0.1 0.2 0 0.1-0.1 0.1-0.1 0-0.2 0z"/>
				<path class="s9" d="m156.6 233.1q-0.1 0-0.2-0.1-0.1 0-0.2-0.1-0.1 0-0.1-0.1 0-0.1 0-0.2v-4.7q0-0.1 0-0.2 0-0.1 0.1-0.2 0.1 0 0.2-0.1 0.1 0 0.2 0 0.1 0 0.2 0 0 0.1 0.1 0.1 0.1 0.1 0.1 0.2 0.1 0.1 0.1 0.2v4.7q0 0.1-0.1 0.2 0 0.1-0.1 0.1-0.1 0.1-0.1 0.2-0.1 0-0.2 0z"/>
				<path class="s9" d="m189.1 214.2q-0.1 0-0.2 0-0.1 0-0.2-0.1-0.1-0.1-0.1-0.2 0-0.1 0-0.2v-4.7q0-0.2 0.1-0.4 0.2-0.1 0.4-0.1 0.2 0 0.3 0.1 0.2 0.2 0.2 0.4v4.7q0 0.1-0.1 0.2 0 0.1-0.1 0.2 0 0-0.1 0.1-0.1 0-0.2 0z"/>
				<path class="s9" d="m221.6 195.4q-0.1 0-0.2-0.1-0.1 0-0.2-0.1-0.1 0-0.1-0.1 0-0.1 0-0.2v-4.7q0-0.1 0-0.2 0-0.1 0.1-0.2 0.1 0 0.2-0.1 0.1 0 0.2 0 0.1 0 0.2 0 0 0.1 0.1 0.1 0.1 0.1 0.1 0.2 0.1 0.1 0.1 0.2v4.7q0 0.1-0.1 0.2 0 0.1-0.1 0.1-0.1 0.1-0.2 0.1 0 0.1-0.1 0.1z"/>
				<path class="s9" d="m254.1 176.5q-0.1 0-0.2 0-0.1-0.1-0.2-0.1-0.1-0.1-0.1-0.2 0-0.1 0-0.2v-4.7q0-0.1 0-0.2 0-0.1 0.1-0.1 0.1-0.1 0.2-0.1 0.1-0.1 0.1-0.1 0.1 0 0.2 0.1 0.1 0 0.2 0.1 0.1 0 0.1 0.1 0 0.1 0.1 0.2v4.7q0 0.1-0.1 0.2 0 0.1-0.1 0.2-0.1 0-0.2 0.1 0 0-0.1 0z"/>
				<path class="s9" d="m286.6 157.7q-0.1 0-0.2-0.1-0.1 0-0.2-0.1-0.1 0-0.1-0.1 0-0.1-0.1-0.2v-4.7q0.1-0.2 0.2-0.4 0.1-0.1 0.3-0.1 0.3 0 0.4 0.1 0.1 0.2 0.1 0.4v4.7q0 0.1 0 0.2 0 0.1-0.1 0.1-0.1 0.1-0.2 0.1-0.1 0.1-0.2 0.1z"/>
				<path class="s5" d="m91.6 221c16.2-9.4 20.3 11.7 32.5 4.7 12.2-7 4-49.3 24.3-61 20.4-11.8 16.3 28.1 36.6 16.4 20.3-11.7 12.2-86.8 32.5-98.5 20.3-11.7 16.3 47.5 36.6 35.5 20.3-12 8.1-70.7 32.5-84.7v112.5l-195 112.6z"/>
				<path class="s12" d="m91.6 221c16.2-9.4 20.3 11.7 32.5 4.7 12.2-7 4-49.3 24.3-61 20.4-11.8 16.3 28.1 36.6 16.4 20.3-11.7 12.2-86.8 32.5-98.5 20.3-11.7 16.3 47.5 36.6 35.5 20.3-12 8.1-70.7 32.5-84.7v112.5l-195 112.6z"/>
				<path class="s5" d="m286.6 54.6l-0.1 91.3-195 112.6v-14.1l14.4-14.5c0.3 0.7 1 0.9 1.9 0.4q0.4-0.3 0.8-0.6 0.4-0.4 0.6-0.9 0.3-0.4 0.4-0.9 0.2-0.6 0.2-1.1 0-0.2 0-0.3 0-0.2-0.1-0.4-0.1-0.1-0.2-0.3-0.1-0.1-0.2-0.2l13.2-21q0.2 0.1 0.4 0.2 0.2 0 0.4 0 0.2 0 0.4-0.1 0.1 0 0.3-0.2 0.3-0.1 0.5-0.3 0.3-0.2 0.5-0.5 0.2-0.2 0.3-0.5 0.2-0.2 0.3-0.5l13 3.7q-0.1 0.2-0.1 0.4-0.1 0.2-0.2 0.4 0 0.2 0 0.4-0.1 0.2-0.1 0.5c0 1.2 0.9 1.8 2 1.1q0.5-0.3 0.8-0.6 0.4-0.4 0.6-0.9 0.3-0.5 0.4-1 0.2-0.5 0.2-1 0-0.1 0-0.2 0-0.1 0-0.3-0.1-0.1-0.1-0.2 0-0.1-0.1-0.2l12.6-14.6c0.3 0.6 1 0.7 1.8 0.3q0.5-0.3 0.8-0.7 0.4-0.4 0.7-0.8 0.2-0.5 0.4-1 0.1-0.5 0.1-1 0.1-0.2 0-0.3 0-0.2 0-0.4-0.1-0.1-0.2-0.2-0.1-0.2-0.2-0.3l13-18.8q0.2 0.1 0.4 0.2 0.2 0.1 0.4 0.1 0.3 0 0.5-0.1 0.2-0.1 0.3-0.2 0.5-0.3 0.8-0.7 0.4-0.4 0.7-0.8 0.2-0.5 0.4-1 0.1-0.5 0.1-1 0-0.1 0-0.1 0-0.1 0-0.2 0 0 0-0.1 0-0.1 0-0.1l12.3-10.7c0.2 0.9 1 1.2 2 0.6q0.4-0.3 0.8-0.6 0.3-0.4 0.6-0.9 0.3-0.4 0.4-0.9 0.2-0.6 0.2-1.1 0-0.1 0-0.2 0-0.1-0.1-0.3 0-0.1 0-0.2-0.1-0.1-0.1-0.2l12.6-14.6c0.3 0.6 1 0.7 1.8 0.3q0.2-0.2 0.4-0.3 0.2-0.2 0.4-0.4 0.2-0.2 0.4-0.4 0.1-0.2 0.2-0.4l13.4 7.7q-0.1 0.2-0.2 0.4-0.1 0.3-0.2 0.5-0.1 0.3-0.1 0.6-0.1 0.2-0.1 0.5c0 1.3 0.9 1.8 2 1.2q0.5-0.3 0.8-0.7 0.4-0.4 0.6-0.9 0.3-0.4 0.4-0.9 0.2-0.5 0.2-1.1 0 0 0-0.1 0-0.1 0-0.1 0-0.1 0-0.2 0 0 0-0.1l12.3-10.7c0.2 0.9 1 1.2 2 0.7q0.4-0.3 0.8-0.7 0.3-0.4 0.6-0.8 0.2-0.5 0.4-1 0.1-0.5 0.2-1 0-0.2 0-0.5-0.1-0.2-0.2-0.3-0.1-0.2-0.2-0.4-0.2-0.1-0.4-0.2l13.7-27.7q0.2 0 0.3 0 0.2 0 0.4 0 0.1 0 0.3-0.1 0.2 0 0.3-0.1 0.4-0.3 0.8-0.7 0.3-0.4 0.6-0.9 0.3-0.4 0.4-0.9 0.2-0.5 0.2-1v-0.1l12.2-7c0 1.3 0.9 1.9 2 1.2q0.4-0.3 0.8-0.7 0.3-0.3 0.6-0.8 0.2-0.5 0.4-1 0.1-0.5 0.2-1 0-0.2 0-0.4-0.1-0.2-0.2-0.4-0.1-0.2-0.2-0.4-0.2-0.1-0.4-0.2l13.7-27.6q0.2 0.1 0.4 0.1 0.2 0.1 0.4 0 0.3 0 0.5-0.1 0.2-0.1 0.3-0.2z"/>
				<path class="s13" d="m286.6 54.6l-0.1 91.3-195 112.6v-14.1l14.4-14.5c0.3 0.7 1 0.9 1.9 0.4q0.4-0.3 0.8-0.6 0.4-0.4 0.6-0.9 0.3-0.4 0.4-0.9 0.2-0.6 0.2-1.1 0-0.2 0-0.3 0-0.2-0.1-0.4-0.1-0.1-0.2-0.3-0.1-0.1-0.2-0.2l13.2-21q0.2 0.1 0.4 0.2 0.2 0 0.4 0 0.2 0 0.4-0.1 0.1 0 0.3-0.2 0.3-0.1 0.5-0.3 0.3-0.2 0.5-0.5 0.2-0.2 0.3-0.5 0.2-0.2 0.3-0.5l13 3.7q-0.1 0.2-0.1 0.4-0.1 0.2-0.2 0.4 0 0.2 0 0.4-0.1 0.2-0.1 0.5c0 1.2 0.9 1.8 2 1.1q0.5-0.3 0.8-0.6 0.4-0.4 0.6-0.9 0.3-0.5 0.4-1 0.2-0.5 0.2-1 0-0.1 0-0.2 0-0.1 0-0.3-0.1-0.1-0.1-0.2 0-0.1-0.1-0.2l12.6-14.6c0.3 0.6 1 0.7 1.8 0.3q0.5-0.3 0.8-0.7 0.4-0.4 0.7-0.8 0.2-0.5 0.4-1 0.1-0.5 0.1-1 0.1-0.2 0-0.3 0-0.2 0-0.4-0.1-0.1-0.2-0.2-0.1-0.2-0.2-0.3l13-18.8q0.2 0.1 0.4 0.2 0.2 0.1 0.4 0.1 0.3 0 0.5-0.1 0.2-0.1 0.3-0.2 0.5-0.3 0.8-0.7 0.4-0.4 0.7-0.8 0.2-0.5 0.4-1 0.1-0.5 0.1-1 0-0.1 0-0.1 0-0.1 0-0.2 0 0 0-0.1 0-0.1 0-0.1l12.3-10.7c0.2 0.9 1 1.2 2 0.6q0.4-0.3 0.8-0.6 0.3-0.4 0.6-0.9 0.3-0.4 0.4-0.9 0.2-0.6 0.2-1.1 0-0.1 0-0.2 0-0.1-0.1-0.3 0-0.1 0-0.2-0.1-0.1-0.1-0.2l12.6-14.6c0.3 0.6 1 0.7 1.8 0.3q0.2-0.2 0.4-0.3 0.2-0.2 0.4-0.4 0.2-0.2 0.4-0.4 0.1-0.2 0.2-0.4l13.4 7.7q-0.1 0.2-0.2 0.4-0.1 0.3-0.2 0.5-0.1 0.3-0.1 0.6-0.1 0.2-0.1 0.5c0 1.3 0.9 1.8 2 1.2q0.5-0.3 0.8-0.7 0.4-0.4 0.6-0.9 0.3-0.4 0.4-0.9 0.2-0.5 0.2-1.1 0 0 0-0.1 0-0.1 0-0.1 0-0.1 0-0.2 0 0 0-0.1l12.3-10.7c0.2 0.9 1 1.2 2 0.7q0.4-0.3 0.8-0.7 0.3-0.4 0.6-0.8 0.2-0.5 0.4-1 0.1-0.5 0.2-1 0-0.2 0-0.5-0.1-0.2-0.2-0.3-0.1-0.2-0.2-0.4-0.2-0.1-0.4-0.2l13.7-27.7q0.2 0 0.3 0 0.2 0 0.4 0 0.1 0 0.3-0.1 0.2 0 0.3-0.1 0.4-0.3 0.8-0.7 0.3-0.4 0.6-0.9 0.3-0.4 0.4-0.9 0.2-0.5 0.2-1v-0.1l12.2-7c0 1.3 0.9 1.9 2 1.2q0.4-0.3 0.8-0.7 0.3-0.3 0.6-0.8 0.2-0.5 0.4-1 0.1-0.5 0.2-1 0-0.2 0-0.4-0.1-0.2-0.2-0.4-0.1-0.2-0.2-0.4-0.2-0.1-0.4-0.2l13.7-27.6q0.2 0.1 0.4 0.1 0.2 0.1 0.4 0 0.3 0 0.5-0.1 0.2-0.1 0.3-0.2z"/>
				<path class="s9" d="m91.6 244.9q-0.1 0-0.1 0-0.1 0-0.1 0-0.1 0-0.1-0.1 0 0-0.1 0-0.1-0.1-0.1-0.2 0-0.1 0-0.2 0-0.1 0-0.2 0-0.1 0.1-0.1l14.4-14.5q0-0.1 0.1-0.1 0.1-0.1 0.2-0.1 0.1 0 0.2 0.1 0.1 0 0.2 0.1 0 0 0.1 0.1 0 0.1 0 0.2 0 0.1 0 0.2-0.1 0.1-0.1 0.2l-14.4 14.5q0 0 0 0-0.1 0.1-0.1 0.1-0.1 0-0.1 0-0.1 0-0.1 0z"/>
				<path class="s9" d="m109.3 226.1q0 0 0 0-0.1 0-0.1 0 0-0.1-0.1-0.1 0 0 0 0-0.1-0.1-0.2-0.1 0-0.1 0-0.2-0.1-0.1-0.1-0.2 0.1-0.1 0.1-0.2l13.2-21q0.1-0.1 0.2-0.1 0-0.1 0.1-0.1 0.1 0 0.2 0 0.1 0 0.2 0 0.1 0.1 0.2 0.2 0 0.1 0 0.2 0.1 0 0 0.1 0 0.1 0 0.2l-13.2 21q-0.1 0.1-0.1 0.1-0.1 0.1-0.1 0.1-0.1 0-0.1 0.1-0.1 0-0.2 0z"/>
				<path class="s9" d="m138.7 206.9q0 0 0 0-0.1 0-0.1 0 0 0 0 0 0 0 0 0l-13-3.7q-0.2-0.1-0.3-0.3-0.1-0.2-0.1-0.4 0.1-0.2 0.2-0.3 0.2-0.1 0.4 0l13 3.7q0.1 0 0.2 0.1 0.1 0.1 0.1 0.1 0.1 0.1 0.1 0.2 0 0.1 0 0.2 0 0.1-0.1 0.2 0 0.1-0.1 0.1-0.1 0.1-0.1 0.1-0.1 0-0.2 0z"/>
				<path class="s9" d="m142.1 205.3q0 0-0.1 0 0 0-0.1 0 0 0 0-0.1-0.1 0-0.1 0-0.1-0.1-0.1-0.2-0.1-0.1-0.1-0.2 0-0.1 0-0.2 0.1-0.1 0.1-0.1l12.7-14.6q0-0.1 0.1-0.1 0.1-0.1 0.2-0.1 0.1 0 0.2 0.1 0.1 0 0.2 0.1 0 0.1 0.1 0.1 0 0.1 0 0.2 0 0.1 0 0.2 0 0.1-0.1 0.2l-12.6 14.5q0 0.1-0.1 0.1 0 0-0.1 0.1 0 0-0.1 0 0 0-0.1 0z"/>
				<path class="s9" d="m158.2 186.3q0 0-0.1 0 0 0-0.1 0 0-0.1 0-0.1-0.1 0-0.1 0-0.1-0.1-0.1-0.2-0.1 0-0.1-0.1 0-0.1 0-0.2 0-0.1 0.1-0.2l13-18.8q0-0.1 0.1-0.1 0.1-0.1 0.2-0.1 0.1 0 0.2 0 0.1 0 0.2 0.1 0.1 0.1 0.1 0.1 0.1 0.1 0.1 0.2 0 0.1 0 0.2 0 0.1-0.1 0.2l-13 18.8q0 0-0.1 0.1 0 0-0.1 0 0 0-0.1 0.1 0 0-0.1 0z"/>
				<path class="s9" d="m174.8 163.5q-0.1 0-0.1-0.1-0.1 0-0.1 0-0.1 0-0.1 0-0.1-0.1-0.1-0.1-0.1-0.1-0.1-0.2 0-0.1 0-0.2 0-0.1 0-0.2 0 0 0.1-0.1l12.3-10.7q0.1 0 0.2-0.1 0.1 0 0.2 0 0.1 0 0.2 0 0.1 0.1 0.1 0.2 0.1 0 0.1 0.1 0 0.1 0 0.2 0 0.1 0 0.2-0.1 0.1-0.1 0.2l-12.3 10.6q-0.1 0.1-0.1 0.1 0 0-0.1 0 0 0 0 0-0.1 0.1-0.1 0.1z"/>
				<path class="s9" d="m190.9 149q-0.2 0-0.3-0.1-0.1-0.1-0.2-0.2 0-0.1 0-0.3 0-0.1 0.1-0.2l12.6-14.6q0.2-0.2 0.4-0.2 0.2 0 0.3 0.1 0.2 0.2 0.2 0.4 0 0.2-0.1 0.3l-12.7 14.6q0 0.1 0 0.1-0.1 0-0.1 0.1-0.1 0-0.1 0-0.1 0-0.1 0z"/>
				<path class="s9" d="m220.1 140.9q0 0 0 0-0.1 0-0.1 0 0 0-0.1-0.1 0 0 0 0l-13.4-7.7q-0.1-0.1-0.2-0.1 0-0.1 0-0.2-0.1-0.1-0.1-0.2 0.1-0.1 0.1-0.2 0.1-0.1 0.1-0.1 0.1-0.1 0.2-0.1 0.1 0 0.2 0 0.1 0 0.2 0l13.4 7.8q0.1 0.1 0.1 0.1 0.1 0.1 0.1 0.2 0 0.1 0 0.2 0 0.1 0 0.2-0.1 0-0.1 0.1-0.1 0-0.1 0-0.1 0.1-0.2 0.1 0 0-0.1 0z"/>
				<path class="s9" d="m223.5 140q0 0-0.1 0 0 0-0.1 0 0-0.1-0.1-0.1 0 0 0-0.1-0.1 0-0.2-0.1 0-0.1 0-0.2 0-0.1 0-0.2 0.1-0.1 0.2-0.2l12.3-10.6q0.1-0.2 0.3-0.2 0.2 0 0.4 0.2 0.1 0.2 0.1 0.4 0 0.2-0.2 0.3l-12.3 10.7q0 0-0.1 0 0 0 0 0.1-0.1 0-0.1 0 0 0-0.1 0z"/>
				<path class="s9" d="m239.1 125.1q-0.1 0-0.1 0 0 0 0 0-0.1 0-0.1 0 0-0.1 0-0.1-0.1 0-0.2-0.1-0.1-0.1-0.1-0.2 0-0.1 0-0.2 0-0.1 0-0.1l13.7-27.7q0.1-0.1 0.1-0.1 0.1-0.1 0.2-0.1 0.1-0.1 0.2-0.1 0.1 0 0.2 0.1 0.1 0 0.1 0.1 0.1 0.1 0.1 0.2 0.1 0.1 0.1 0.2-0.1 0.1-0.1 0.2l-13.7 27.6q0 0.1-0.1 0.1 0 0.1-0.1 0.1 0 0-0.1 0.1-0.1 0-0.1 0z"/>
				<path class="s9" d="m256.1 93.6q-0.2 0-0.3-0.1-0.2-0.1-0.2-0.2 0-0.2 0-0.3 0.1-0.2 0.2-0.3l12.2-7q0.1 0 0.2-0.1 0.1 0 0.2 0.1 0.1 0 0.2 0 0.1 0.1 0.1 0.2 0 0.1 0.1 0.2 0 0.1 0 0.2-0.1 0.1-0.1 0.1-0.1 0.1-0.2 0.2l-12.2 7q0 0 0 0-0.1 0-0.1 0 0 0-0.1 0 0 0 0 0z"/>
				<path class="s9" d="m271.6 82.9q-0.1 0-0.1 0 0 0 0 0-0.1 0-0.1-0.1 0 0-0.1 0 0 0-0.1-0.1-0.1-0.1-0.1-0.2 0-0.1 0-0.2 0-0.1 0-0.1l13.7-27.7q0.1-0.2 0.3-0.3 0.2 0 0.4 0 0.2 0.2 0.2 0.4 0.1 0.2 0 0.4l-13.7 27.6q0 0.1-0.1 0.1 0 0.1-0.1 0.1 0 0-0.1 0-0.1 0.1-0.1 0.1z"/>
				<path fill-rule="evenodd" class="s9" d="m106.9 231.1q-0.1 0-0.2 0-0.1 0-0.2 0-0.1-0.1-0.2-0.1-0.1 0-0.2-0.1-0.2-0.1-0.3-0.3-0.2-0.2-0.3-0.5-0.1-0.2-0.2-0.4 0-0.3 0-0.5 0-0.6 0.2-1.2 0.2-0.6 0.5-1.1 0.3-0.5 0.7-0.9 0.4-0.5 0.9-0.8 0.4-0.3 0.9-0.4 0.5 0 1 0.3 0.5 0.2 0.7 0.7 0.2 0.5 0.1 1 0 0.6-0.1 1.2-0.2 0.6-0.5 1.1-0.3 0.5-0.7 1-0.4 0.4-0.9 0.7-0.2 0.1-0.3 0.1-0.1 0.1-0.3 0.1-0.1 0.1-0.3 0.1-0.1 0-0.3 0zm1.2-5q-0.4 0.3-0.7 0.6-0.3 0.3-0.6 0.7-0.2 0.4-0.3 0.9-0.2 0.4-0.2 0.9c0 0.4 0.1 0.8 0.3 0.9q0.1 0 0.3 0 0.1 0 0.2 0 0.1 0 0.3 0 0.1-0.1 0.2-0.2 0.4-0.2 0.7-0.6 0.3-0.3 0.5-0.7 0.3-0.4 0.4-0.8 0.1-0.5 0.1-0.9 0.1-0.3 0-0.5-0.1-0.3-0.3-0.4-0.2-0.2-0.5-0.1-0.2 0-0.4 0.2z"/>
				<path fill-rule="evenodd" class="s9" d="m123.2 205.3q-0.1 0-0.2 0-0.1 0-0.2 0-0.1-0.1-0.2-0.1-0.1 0-0.2-0.1-0.2-0.1-0.4-0.3-0.2-0.2-0.3-0.4-0.1-0.3-0.1-0.5-0.1-0.3-0.1-0.5 0.1-0.6 0.2-1.2 0.2-0.6 0.5-1.1 0.3-0.5 0.7-1 0.4-0.4 0.9-0.7 0.4-0.4 1-0.4 0.5 0 1 0.2 0.4 0.3 0.7 0.8 0.2 0.5 0.1 1 0 0.6-0.2 1.2-0.2 0.5-0.5 1.1-0.3 0.5-0.7 0.9-0.4 0.4-0.9 0.7-0.1 0.1-0.2 0.2-0.2 0.1-0.3 0.1-0.2 0.1-0.3 0.1-0.2 0-0.3 0zm1.1-5q-0.4 0.3-0.7 0.6-0.3 0.4-0.5 0.8-0.3 0.4-0.4 0.8-0.1 0.4-0.2 0.9 0 0.1 0 0.2 0.1 0.2 0.1 0.3 0 0.1 0.1 0.2 0.1 0.1 0.2 0.2 0.1 0 0.2 0 0.1 0.1 0.3 0 0.1 0 0.2 0 0.1-0.1 0.2-0.2 0.4-0.2 0.7-0.6 0.4-0.3 0.6-0.7 0.2-0.4 0.3-0.9 0.2-0.4 0.2-0.9 0-0.1 0-0.2 0-0.2-0.1-0.3 0-0.1-0.1-0.2-0.1-0.1-0.2-0.2-0.1 0-0.2 0-0.1 0-0.2 0-0.2 0-0.3 0-0.1 0.1-0.2 0.2z"/>
				<path fill-rule="evenodd" class="s9" d="m139.4 210q-0.1 0-0.2 0-0.1 0-0.2-0.1-0.1 0-0.2 0-0.1-0.1-0.2-0.1-0.2-0.1-0.4-0.3-0.1-0.2-0.2-0.5-0.2-0.2-0.2-0.5 0-0.2 0-0.5 0-0.6 0.2-1.1 0.1-0.6 0.4-1.1 0.3-0.6 0.7-1 0.5-0.4 1-0.8 0.4-0.3 0.9-0.3 0.5-0.1 1 0.2 0.5 0.3 0.7 0.7 0.2 0.5 0.1 1.1 0 0.5-0.1 1.1-0.2 0.6-0.5 1.1-0.3 0.5-0.7 0.9-0.4 0.5-0.9 0.8-0.2 0.1-0.3 0.2-0.1 0-0.3 0.1-0.1 0-0.3 0.1-0.1 0-0.3 0zm1.8-5.3q-0.1 0.1-0.2 0.1 0 0-0.1 0-0.1 0-0.2 0.1-0.1 0-0.1 0.1-0.4 0.2-0.7 0.6-0.4 0.3-0.6 0.7-0.2 0.4-0.4 0.8-0.1 0.5-0.1 0.9 0 0.2 0 0.3 0 0.1 0 0.2 0.1 0.1 0.2 0.2 0 0.1 0.1 0.2 0.1 0.1 0.3 0.1 0.1 0 0.2 0 0.1 0 0.3-0.1 0.1 0 0.2-0.1 0.4-0.3 0.7-0.6 0.3-0.3 0.5-0.7 0.3-0.4 0.4-0.9 0.1-0.4 0.1-0.9 0.1-0.1 0-0.2 0-0.2 0-0.3-0.1-0.1-0.1-0.2-0.1-0.1-0.2-0.2 0 0-0.1 0 0 0 0 0-0.1 0-0.1 0 0 0-0.1-0.1z"/>
				<path fill-rule="evenodd" class="s9" d="m155.7 191.3q-0.1 0-0.2-0.1-0.1 0-0.2 0-0.1 0-0.2-0.1-0.1 0-0.2 0-0.2-0.2-0.4-0.4-0.2-0.2-0.3-0.4-0.1-0.2-0.1-0.5-0.1-0.2-0.1-0.5 0.1-0.6 0.2-1.2 0.2-0.5 0.5-1 0.3-0.6 0.7-1 0.4-0.4 0.9-0.7 0.4-0.4 1-0.4 0.5 0 0.9 0.2 0.5 0.3 0.7 0.8 0.3 0.4 0.2 1 0 0.6-0.2 1.1-0.2 0.6-0.5 1.1-0.3 0.5-0.7 1-0.4 0.4-0.9 0.7-0.1 0.1-0.3 0.2-0.1 0-0.2 0.1-0.2 0-0.3 0-0.2 0.1-0.3 0.1zm1.1-5q-0.4 0.2-0.7 0.6-0.3 0.3-0.5 0.7-0.3 0.4-0.4 0.8-0.1 0.5-0.2 1 0 0.2 0.1 0.4 0.1 0.3 0.3 0.4 0.2 0.2 0.5 0.1 0.2 0 0.4-0.2 0.4-0.3 0.7-0.6 0.3-0.3 0.6-0.7 0.2-0.4 0.3-0.9 0.2-0.4 0.2-0.9 0-0.1 0-0.2 0-0.2-0.1-0.3 0-0.1-0.1-0.2-0.1-0.1-0.1-0.2-0.2 0-0.3 0-0.1 0-0.2 0-0.2 0-0.3 0-0.1 0.1-0.2 0.2z"/>
				<path fill-rule="evenodd" class="s9" d="m171.9 167.8q-0.1 0-0.2 0-0.1 0-0.2-0.1-0.1 0-0.2 0-0.1-0.1-0.2-0.1-0.2-0.2-0.4-0.3-0.1-0.2-0.2-0.5-0.1-0.2-0.2-0.5 0-0.2 0-0.5 0-0.6 0.2-1.1 0.1-0.6 0.4-1.1 0.3-0.6 0.7-1 0.5-0.4 1-0.8 0.4-0.3 0.9-0.3 0.5-0.1 1 0.2 0.5 0.3 0.7 0.7 0.2 0.5 0.1 1.1 0 0.5-0.2 1.1-0.1 0.6-0.4 1.1-0.3 0.5-0.7 0.9-0.4 0.5-0.9 0.8-0.2 0.1-0.3 0.2-0.1 0-0.3 0.1-0.1 0-0.3 0.1-0.1 0-0.3 0zm1.2-5q-0.4 0.2-0.7 0.6-0.4 0.3-0.6 0.7-0.2 0.4-0.4 0.9-0.1 0.4-0.1 0.9 0 0.1 0 0.2 0 0.1 0 0.3 0.1 0.1 0.2 0.2 0 0.1 0.1 0.1 0.1 0.1 0.3 0.1 0.1 0 0.2 0 0.1 0 0.2-0.1 0.2 0 0.3-0.1 0.3-0.2 0.7-0.6 0.3-0.3 0.5-0.7 0.2-0.4 0.4-0.9 0.1-0.4 0.1-0.9 0.1-0.1 0-0.2 0-0.1 0-0.3-0.1-0.1-0.1-0.2-0.1-0.1-0.2-0.2-0.1 0-0.2 0-0.2 0-0.3 0-0.1 0-0.2 0.1-0.1 0-0.2 0.1z"/>
				<path fill-rule="evenodd" class="s9" d="m188.2 153.7q-0.2 0-0.3 0-0.1 0-0.2 0-0.1-0.1-0.1-0.1-0.1 0-0.2-0.1-0.2-0.1-0.4-0.3-0.2-0.2-0.3-0.4-0.1-0.3-0.1-0.5-0.1-0.3-0.1-0.5 0.1-0.6 0.2-1.2 0.2-0.6 0.5-1.1 0.3-0.5 0.7-1 0.4-0.4 0.9-0.7 0.4-0.4 1-0.4 0.5 0 0.9 0.2 0.5 0.3 0.7 0.8 0.3 0.4 0.2 1 0 0.6-0.2 1.1-0.2 0.6-0.5 1.1-0.3 0.6-0.7 1-0.4 0.4-0.9 0.8-0.1 0.1-0.3 0.1-0.1 0.1-0.2 0.1-0.2 0.1-0.3 0.1-0.2 0-0.3 0zm1.1-5q-0.4 0.3-0.7 0.6-0.3 0.4-0.5 0.8-0.3 0.4-0.4 0.8-0.1 0.4-0.2 0.9 0 0.1 0 0.3 0 0.1 0.1 0.2 0 0.1 0.1 0.2 0.1 0.1 0.2 0.2 0.1 0 0.2 0 0.1 0.1 0.3 0 0.1 0 0.2 0 0.1-0.1 0.2-0.1 0.4-0.3 0.7-0.6 0.3-0.4 0.6-0.8 0.2-0.4 0.3-0.8 0.2-0.5 0.2-0.9 0-0.2 0-0.3 0-0.1-0.1-0.2 0-0.1-0.1-0.2-0.1-0.1-0.1-0.2-0.2-0.1-0.3-0.1-0.1 0-0.2 0-0.2 0-0.3 0.1-0.1 0-0.2 0.1z"/>
				<path fill-rule="evenodd" class="s9" d="m220.7 144.3q-0.2 0-0.3 0-0.1 0-0.2 0-0.1 0-0.1-0.1-0.1 0-0.2-0.1-0.2-0.1-0.4-0.3-0.2-0.2-0.3-0.4-0.1-0.3-0.1-0.5-0.1-0.3-0.1-0.5 0.1-0.6 0.2-1.2 0.2-0.5 0.5-1.1 0.3-0.5 0.7-0.9 0.4-0.4 0.9-0.8 0.4-0.3 1-0.3 0.5-0.1 0.9 0.2 0.5 0.3 0.7 0.7 0.3 0.5 0.2 1 0 0.6-0.2 1.2-0.2 0.6-0.5 1.1-0.3 0.5-0.7 1-0.4 0.4-0.9 0.7-0.1 0.1-0.3 0.2-0.1 0-0.3 0.1-0.1 0-0.2 0-0.2 0-0.3 0zm1.8-5.2q-0.1 0-0.2 0-0.1 0-0.2 0.1-0.1 0-0.1 0-0.1 0.1-0.2 0.1-0.4 0.3-0.7 0.6-0.3 0.3-0.5 0.7-0.3 0.4-0.4 0.9-0.1 0.4-0.2 0.9 0 0.1 0 0.2 0 0.2 0.1 0.3 0 0.1 0.1 0.2 0.1 0.1 0.2 0.2 0.1 0 0.2 0 0.1 0 0.3 0 0.1 0 0.2 0 0.1-0.1 0.2-0.2 0.4-0.2 0.7-0.6 0.3-0.3 0.6-0.7 0.2-0.4 0.3-0.9 0.2-0.4 0.2-0.9 0-0.1 0-0.2 0-0.1-0.1-0.2 0-0.2-0.1-0.3-0.1-0.1-0.2-0.1 0-0.1 0-0.1-0.1 0-0.1 0 0 0-0.1 0 0 0 0 0z"/>
				<path fill-rule="evenodd" class="s9" d="m236.9 130.3q-0.1 0-0.2 0-0.1-0.1-0.2-0.1-0.1 0-0.2 0-0.1-0.1-0.2-0.1-0.2-0.2-0.4-0.4-0.1-0.2-0.2-0.4-0.2-0.2-0.2-0.5-0.1-0.2 0-0.5 0-0.6 0.2-1.1 0.1-0.6 0.4-1.1 0.3-0.5 0.7-1 0.5-0.4 1-0.7 0.4-0.4 0.9-0.4 0.5 0 1 0.2 0.4 0.3 0.7 0.8 0.2 0.4 0.1 1 0 0.6-0.2 1.1-0.1 0.6-0.4 1.1-0.3 0.5-0.7 1-0.5 0.4-0.9 0.7-0.2 0.1-0.3 0.2-0.2 0-0.3 0.1-0.1 0-0.3 0-0.1 0.1-0.3 0.1zm1.2-5q-0.4 0.2-0.8 0.6-0.3 0.3-0.5 0.7-0.2 0.4-0.4 0.9-0.1 0.4-0.1 0.9-0.1 0.2 0 0.5 0.1 0.2 0.3 0.3 0.2 0.2 0.5 0.1 0.3 0 0.5-0.2 0.3-0.3 0.7-0.6 0.3-0.3 0.5-0.7 0.2-0.4 0.4-0.9 0.1-0.4 0.1-0.9 0-0.1 0-0.2 0-0.2 0-0.3-0.1-0.1-0.1-0.2-0.1-0.1-0.2-0.2-0.1 0-0.3 0-0.1 0-0.2 0-0.1 0-0.2 0-0.2 0.1-0.2 0.2z"/>
				<path fill-rule="evenodd" class="s9" d="m269.4 88q-0.1 0.1-0.2 0-0.1 0-0.2 0-0.1 0-0.2-0.1-0.1 0-0.2-0.1-0.2-0.1-0.4-0.3-0.1-0.2-0.3-0.4-0.1-0.2-0.1-0.5-0.1-0.2 0-0.5 0-0.6 0.2-1.2 0.1-0.5 0.4-1.1 0.3-0.5 0.7-0.9 0.5-0.4 1-0.7 0.2-0.2 0.4-0.3 0.2-0.1 0.5-0.1 0.3 0 0.5 0 0.3 0.1 0.5 0.2 0.2 0.1 0.4 0.3 0.1 0.2 0.3 0.5 0.1 0.2 0.1 0.4 0.1 0.3 0 0.6 0 0.5-0.2 1.1-0.1 0.6-0.4 1.1-0.3 0.5-0.7 0.9-0.4 0.5-0.9 0.8-0.2 0.1-0.3 0.1-0.2 0.1-0.3 0.2-0.1 0-0.3 0-0.2 0-0.3 0zm1.2-5q-0.4 0.3-0.8 0.6-0.3 0.4-0.5 0.8-0.2 0.4-0.4 0.8-0.1 0.5-0.1 0.9c0 0.5 0.1 0.8 0.3 0.9q0.1 0.1 0.3 0.1 0.1 0 0.2 0 0.1-0.1 0.2-0.1 0.2-0.1 0.3-0.1 0.3-0.3 0.7-0.6 0.3-0.4 0.5-0.8 0.2-0.4 0.4-0.8 0.1-0.4 0.1-0.9 0-0.1 0-0.3 0-0.1 0-0.2-0.1-0.1-0.1-0.2-0.1-0.1-0.2-0.2-0.1 0-0.3 0-0.1-0.1-0.2 0-0.1 0-0.2 0-0.2 0.1-0.2 0.1z"/>
				<path fill-rule="evenodd" class="s9" d="m253.1 97.4q-0.1 0-0.2 0-0.1 0-0.2 0-0.1 0-0.2-0.1 0 0-0.1-0.1-0.2-0.1-0.4-0.3-0.2-0.2-0.3-0.4-0.1-0.3-0.2-0.5 0-0.3 0-0.5 0-0.6 0.2-1.2 0.2-0.6 0.5-1.1 0.3-0.5 0.7-1 0.4-0.4 0.9-0.7 0.4-0.3 0.9-0.4 0.6 0 1 0.2 0.5 0.3 0.7 0.8 0.3 0.5 0.2 1 0 0.6-0.2 1.2-0.2 0.5-0.5 1.1-0.3 0.5-0.7 0.9-0.4 0.5-0.9 0.8-0.1 0.1-0.3 0.1-0.1 0.1-0.3 0.1-0.1 0.1-0.3 0.1-0.1 0-0.3 0zm1.2-5q-0.4 0.3-0.7 0.6-0.3 0.4-0.6 0.8-0.2 0.4-0.3 0.8-0.2 0.5-0.2 0.9-0.1 0.3 0 0.5 0.1 0.3 0.4 0.4 0.2 0.1 0.5 0.1 0.2-0.1 0.4-0.2 0.4-0.3 0.7-0.6 0.3-0.4 0.6-0.8 0.2-0.4 0.3-0.8 0.2-0.5 0.2-0.9 0.1-0.3 0-0.5-0.1-0.3-0.4-0.4-0.2-0.1-0.5-0.1-0.2 0.1-0.4 0.2z"/>
				<path fill-rule="evenodd" class="s9" d="m285.6 55.3q-0.1 0-0.2 0-0.1 0-0.2 0-0.1 0-0.2-0.1-0.1 0-0.1-0.1-0.3-0.1-0.4-0.3-0.2-0.2-0.3-0.4-0.1-0.3-0.2-0.5 0-0.3 0-0.5 0-0.6 0.2-1.2 0.2-0.6 0.5-1.1 0.3-0.5 0.7-0.9 0.4-0.5 0.9-0.8 0.4-0.3 0.9-0.4 0.6 0 1 0.3 0.5 0.2 0.7 0.7 0.3 0.5 0.2 1 0 0.6-0.2 1.2-0.2 0.6-0.5 1.1-0.3 0.5-0.7 0.9-0.4 0.5-0.9 0.8-0.1 0.1-0.3 0.1-0.1 0.1-0.3 0.1-0.1 0.1-0.3 0.1-0.1 0-0.3 0zm1.9-5.2q-0.1 0-0.2 0-0.1 0-0.2 0.1-0.1 0-0.1 0-0.1 0.1-0.2 0.1-0.4 0.3-0.7 0.6-0.3 0.3-0.6 0.7-0.2 0.4-0.3 0.9-0.2 0.4-0.2 0.9 0 0.1 0 0.2 0 0.2 0.1 0.3 0 0.1 0.1 0.2 0 0.1 0.1 0.2 0.2 0 0.3 0 0.1 0 0.2 0 0.2 0 0.3 0 0.1-0.1 0.2-0.2 0.4-0.2 0.7-0.6 0.3-0.3 0.6-0.7 0.2-0.4 0.3-0.9 0.2-0.4 0.2-0.9 0-0.1 0-0.2 0-0.2-0.1-0.3 0-0.1-0.1-0.2-0.1-0.1-0.2-0.2 0 0 0 0-0.1 0-0.1 0 0 0-0.1 0 0 0 0 0z"/>
				<path fill-rule="evenodd" class="s9" d="m204.4 135q-0.1 0-0.2 0-0.1 0-0.2-0.1-0.1 0-0.2 0-0.1-0.1-0.2-0.1-0.2-0.1-0.4-0.3-0.1-0.2-0.2-0.5-0.1-0.2-0.2-0.4 0-0.3 0-0.5 0-0.6 0.2-1.2 0.1-0.6 0.4-1.1 0.3-0.5 0.8-0.9 0.4-0.5 0.9-0.8 0.4-0.3 0.9-0.4 0.5 0 1 0.2 0.5 0.3 0.7 0.8 0.2 0.5 0.1 1 0 0.6-0.1 1.2-0.2 0.6-0.5 1.1-0.3 0.5-0.7 0.9-0.4 0.5-0.9 0.8-0.2 0.1-0.3 0.1-0.2 0.1-0.3 0.1-0.1 0.1-0.3 0.1-0.1 0-0.3 0zm1.8-5.3q-0.1 0.1-0.2 0.1 0 0-0.1 0-0.1 0-0.2 0.1-0.1 0-0.1 0.1-0.4 0.2-0.7 0.6-0.4 0.3-0.6 0.7-0.2 0.4-0.4 0.8-0.1 0.5-0.1 1 0 0.1 0 0.2 0 0.1 0 0.2 0.1 0.1 0.2 0.2 0 0.1 0.1 0.2 0.1 0.1 0.3 0.1 0.1 0 0.2 0 0.1 0 0.2-0.1 0.2 0 0.3-0.1 0.3-0.3 0.7-0.6 0.3-0.3 0.5-0.7 0.2-0.4 0.4-0.9 0.1-0.4 0.1-0.9 0.1-0.1 0-0.2 0-0.2 0-0.3-0.1-0.1-0.1-0.2-0.1-0.1-0.2-0.2 0 0-0.1 0 0 0 0-0.1-0.1 0-0.1 0-0.1 0-0.1 0z"/>
				<path class="s9" d="m119.1 227.6c-3.3 0-6.1-2-9.1-4.1-4.8-3.4-9.7-7-18.2-2.1l-0.5-0.9c9-5.2 14.5-1.2 19.3 2.2 4.2 3 7.8 5.6 13.2 2.5 5.1-3 6.5-12.5 8.2-23.5 2.1-14.4 4.5-30.7 16.2-37.5 10.6-6.1 14.8 1.3 19 8.4 2 3.4 4 7 6.7 8.8 3 2 6.5 1.8 10.9-0.7 9.9-5.8 13-27.7 16-48.9 3-21.5 6.1-43.7 16.5-49.6 2.8-1.7 5.4-2 7.7-1.2 5.4 2 8.4 10.8 11.3 19.2 2.8 8.3 5.7 16.8 10.7 18.6 2 0.7 4.2 0.4 6.8-1.2 9.5-5.6 11.8-21.7 14.2-38.7 2.6-18.9 5.4-38.5 18.3-46l0.5 0.8c-12.5 7.3-15.2 26.6-17.9 45.3-2.4 17.3-4.7 33.6-14.6 39.5-2.8 1.7-5.4 2.1-7.7 1.2-5.4-2-8.4-10.7-11.3-19.2-2.8-8.2-5.8-16.7-10.7-18.6-2-0.7-4.3-0.4-6.9 1.1-9.9 5.7-13 27.7-16 48.9-3 21.4-6.1 43.6-16.4 49.6-4.8 2.7-8.7 3-12 0.7-2.9-2-5-5.6-7-9.1-4-7-7.9-13.6-17.6-8-11.3 6.5-13.7 22.6-15.8 36.8-1.6 11.3-3.1 21-8.6 24.2q-0.6 0.4-1.2 0.6-0.6 0.3-1.3 0.5-0.7 0.2-1.3 0.3-0.7 0.1-1.4 0.1z"/>
				<path class="s9" d="m218.7 78.4c1.7-1 3.1-0.2 3.1 1.8q0 0.8-0.2 1.6-0.3 0.8-0.7 1.5-0.4 0.7-1 1.3-0.5 0.6-1.2 1.1c-1.8 1-3.2 0.2-3.2-1.8q0-0.9 0.3-1.7 0.2-0.7 0.6-1.5 0.4-0.7 1-1.3 0.6-0.6 1.3-1z"/>
				<path class="s5" d="m152.5 130q-0.2 0-0.3-0.1-0.1-0.1-0.2-0.3 0-0.1 0-0.3 0.1-0.1 0.3-0.2l32.3-18.7 4-11.6q0 0 0 0 0-0.1 0.1-0.1 0 0 0-0.1 0.1 0 0.1 0l16.3-9.4q0.1-0.1 0.3 0 0.2 0 0.3 0.2 0.1 0.2 0.1 0.4-0.1 0.1-0.2 0.3l-16.1 9.2-4 11.6q0 0-0.1 0.1 0 0 0 0.1 0 0-0.1 0 0 0 0 0.1l-32.5 18.7q-0.1 0-0.1 0.1 0 0-0.1 0 0 0 0 0-0.1 0-0.1 0z"/>
				<path class="s5" d="m153.4 122q0.1-0.5 0.2-1.1 0.2-0.5 0.5-1 0.2-0.4 0.6-0.8 0.4-0.4 0.9-0.7l24.1-13.9c1.2-0.7 2.1-0.2 2.1 1.1q0 0.5-0.2 1.1-0.1 0.5-0.4 0.9-0.3 0.5-0.7 0.9-0.4 0.4-0.8 0.7l-24.1 13.9c-1.2 0.6-2.2 0.1-2.2-1.1z"/>
			</g>
		</g>
	</g>
	<g id="freepik--Character--inject-2">
		<g id="freepik--character--inject-2">
			<path id="freepik--Hair--inject-2" class="s2" d="m418.5 64.1c8.6 3.8 8.1 11.6 8.1 27.2 0 15.5 0 40.2 0 40.2h-40v-67.4z"/>
			<path id="freepik--Arm--inject-2" class="s14" d="m372.8 114.5l-21.3 14.9c-1.7-2.6-10.9-15.4-12.6-18.3q-0.5-0.9-1-1.9-0.4-0.9-0.8-1.9-0.3-1-0.6-2-0.3-1-0.5-2-0.1-0.5-0.2-1-0.1-0.5-0.3-1-0.1-0.5-0.2-1-0.2-0.5-0.3-1-0.1-0.4-0.2-0.8-0.1-0.3-0.3-0.7-0.1-0.3-0.3-0.7-0.1-0.3-0.3-0.7-0.8-1.5-1.6-3-0.1 0-0.1-0.1 0-0.1-0.1-0.1 0-0.1-0.1-0.1 0-0.1-0.1-0.1-0.1-0.1-0.3-0.2-0.2 0-0.3 0-0.2 0.1-0.3 0.1-0.2 0.1-0.3 0.2-0.2 0.2-0.4 0.5-0.1 0.2-0.2 0.5-0.1 0.3-0.2 0.5 0 0.3 0 0.6 0 0.3 0 0.6 0 0.3 0.1 0.6 0 0.3 0.1 0.5 0 0.3 0.1 0.6 0.1 0.3 0.1 0.6 0.1 0.2 0.1 0.5 0 0.3 0 0.6 0 0.3-0.1 0.6-0.3 0-0.6-0.1-0.4-0.1-0.7-0.2-0.3-0.2-0.6-0.4-0.3-0.2-0.5-0.4-0.9-0.7-1.6-1.4-0.8-0.7-1.6-1.5-0.7-0.8-1.5-1.6-0.7-0.8-1.3-1.6-0.3-0.4-0.6-0.8-0.3-0.3-0.6-0.7-0.3-0.3-0.6-0.7-0.3-0.3-0.6-0.6-0.2-0.2-0.4-0.3-0.2-0.2-0.5-0.3-0.2-0.1-0.5-0.1-0.2 0-0.5 0-0.2 0-0.4 0.1-0.3 0-0.5 0.1-0.2 0.1-0.4 0.3-0.2 0.1-0.4 0.3-0.2 0.3-0.5 0.6-0.2 0.3-0.4 0.7-0.2 0.3-0.4 0.7-0.1 0.4-0.2 0.8-0.1 0.4-0.1 0.8-0.1 0.4-0.1 0.8 0 0.4 0 0.8 0 0.4 0.1 0.8 0 0.6 0 1.2 0.1 0.5 0.2 1.1 0.1 0.5 0.2 1 0.2 0.6 0.4 1.1 0.1 0.4 0.2 0.7 0.2 0.4 0.4 0.8 0.1 0.3 0.3 0.7 0.2 0.3 0.5 0.7 0.5 0.8 1.1 1.6 0.6 0.8 1.3 1.5 0.7 0.8 1.4 1.4 0.8 0.7 1.6 1.3c1.1 1 3.5 2.2 4.5 3.2q0.5 0.5 0.9 1 0.4 0.5 0.7 1 0.4 0.6 0.7 1.1 0.3 0.6 0.6 1.2c0.6 1.1 1.1 2.2 1.7 3.3 2.7 5.3 8.9 17.5 12.4 22 3.6 4.5 6.8 3.2 13.1 0.5 6.3-2.7 29.6-16 29.6-16l4.9-20.7c-2 0-6.6 0.4-18.3 8.9z"/>
			<path class="s5" d="m380.5 142.3c0.2 3.7 0.8 16.3 0.8 16.3 14.6 10.1 39.7 2.8 39.7 2.8 1.1-8.1 3.2-19.5 6.3-27.5 0 0-11.5-15.8-4.2-27.1l-13.3-0.8-12.5-0.2-6.4-0.1c-6.1 6.8-11.9 14.5-13.3 18.2-1.5 3.7-3.5 10.8 2.9 18.4z"/>
			<path class="s11" d="m380.5 142.3c0.2 3.7 0.8 16.3 0.8 16.3 14.6 10.1 39.7 2.8 39.7 2.8 1.1-8.1 3.2-19.5 6.3-27.5 0 0-11.5-15.8-4.2-27.1l-13.3-0.8-12.5-0.2-6.4-0.1c-6.1 6.8-11.9 14.5-13.3 18.2-1.5 3.7-3.5 10.8 2.9 18.4z"/>
			<path class="s4" d="m434.7 326q0.3 1.1 0.6 2.2 0.2 1.1 0.5 2.3 0.2 1.1 0.4 2.2 0.2 1.2 0.4 2.3c0.5 3.4 0.8 6 1.9 11.8 1 5.3 2.3 9.3-1.6 13.8-3.2 3.8-10.3 4.7-12.4 0.7-2.3-4.5-1.2-11.1-0.9-15.7 0.2-4.6-0.4-6.9-0.4-10.6 0-3.3 0.1-4.6 0.2-7.4 3.7-0.3 7.6-1.3 11.3-1.6z"/>
			<path class="s14" d="m394.2 297.4q-0.4 1.8-0.7 3.6-0.3 1.8-0.6 3.6-0.3 1.9-0.5 3.7-0.2 1.8-0.4 3.6c-0.5 5.4-0.8 6.6 0.3 8.4 1.4 2 2.4 3.9 2.2 5.2-0.2 1.5-1.3 2.9-2.2 4.2q-0.3 0.4-0.6 0.8-0.3 0.5-0.5 1-0.3 0.4-0.5 0.9-0.2 0.5-0.4 1-0.5 1.1-0.9 2.3-0.5 1.2-0.8 2.4-0.4 1.2-0.6 2.4-0.3 1.2-0.5 2.5-0.1 0.4-0.2 0.7-0.1 0.4-0.2 0.8-0.1 0.3-0.2 0.7-0.1 0.3-0.3 0.7c-1.5 3.1-5.3 4.6-8.9 5.2-3.5 0.6-7.3 0.9-10.8-0.1-1.4-0.5-2.7-1.1-2.8-2.8-0.2-1.7 0.9-2.5 3.1-4.3q0.4-0.3 0.8-0.6 0.4-0.4 0.7-0.7 0.4-0.3 0.8-0.7 0.3-0.4 0.7-0.7 0.2-0.3 0.5-0.6 0.2-0.3 0.4-0.6 0.2-0.3 0.4-0.6 0.2-0.3 0.3-0.6 0.7-1.3 1.3-2.6 0.6-1.2 1.2-2.5 0.6-1.3 1.1-2.6 0.5-1.3 1-2.6 0.4-1.3 0.8-2.5 0.4-1.3 0.7-2.5 0.3-1.3 0.5-2.6 0.2-1.3 0.2-2.6c0.2-4 0-13.7-0.2-21q0-0.2 0-0.4v0.4c-0.5-9.8-1-28.5-1.5-41.3-1-24 5.1-88.5 5.1-88.5l-0.4-1-0.2-2.5c0 0 2.8 4.4 16.1 4.1q3-0.1 5.9-0.4 2.9-0.2 5.9-0.6 2.9-0.4 5.8-0.9 2.9-0.5 5.8-1.1c1.7 4.8 6.2 6.7 9.3 15.7 3.5 10.4 1.5 41.3 0 74.5 2.8 13.7 4.6 20.1 4.8 27.3 0.1 9.5 0.2 16.5-0.2 25.4-0.3 7.7-0.2 13.5-0.1 17.9 0.2 6 2.3 15.8 1.5 20.4-1.3 7-9.7 9.6-10.9 1.7-0.8-4.9-1.3-15.7-2-21.1-0.7-6.2-1.6-11.3-3-18.9-1.5-7.6-10.2-37.2-12.2-51.3-1.3-9.6-3-23.8-5.3-35.5-1.3 6.6-4.8 25.3-5.5 33.5 1.8 7.8 0.8 12.8 0.3 20-0.5 8-2.7 16.8-3.4 22.7z"/>
			<path class="s2" d="m391.5 346.7l-1.3-0.2c0-3.8 0.3-7.4-0.7-9.2l1.9-4.7z"/>
			<path class="s2" d="m394.9 329.2c-0.4 2.7-2 5.4-2.1 10.5q-0.1 0.9-0.1 1.7-0.1 0.8-0.1 1.7 0 0.8 0.1 1.6 0 0.8 0.1 1.7l-1.4 0.3v-14.1z"/>
			<path class="s2" d="m364.4 349.9c0.1 0 0.1 1.5 0.8 2 0.7 0.5 2.1 2.1 9.1 1.8 7-0.3 9.5-2 11.9-4 2.5-2.1 3.2-7.6 3.6-10.2 0.8-5.1 3-7.7 5.1-10.2q0.1-0.3 0.2-0.7 0.1-0.3 0.1-0.6 0-0.4 0-0.7 0-0.3-0.1-0.7c0-0.2-4.7 0.8-7.3 7-2.7 6.1-5.8 12.1-11.5 13.8q-1.5 0.4-2.9 0.7-1.5 0.4-3 0.7-1.5 0.3-3 0.6-1.5 0.2-2.9 0.5z"/>
			<path class="s4" d="m394.6 322.8c-1-1.8-1.9-2.3-2.9-3.7q-0.4 0.3-0.7 0.7-0.4 0.4-0.7 0.9-0.3 0.4-0.5 0.9-0.2 0.5-0.4 1c-0.4 1.4-1.7 8-3.4 13.2-1.4 4-3.5 6-6.5 7.1q-0.7 0.2-1.4 0.4-0.7 0.2-1.5 0.2-0.7 0.1-1.4 0.1-0.8 0-1.5-0.1c-3.6-0.6-2.7-3.1-2.7-3.1-0.9 1.1-4.4 3.8-6.5 5.8-1.2 1.1-0.7 2.9 0.2 4 1 0.8 3.3 2.5 12.1 1.5 7.7-1 9.6-4.4 10.3-6q0.3-0.9 0.6-1.7 0.3-0.9 0.5-1.8 0.2-0.8 0.4-1.7 0.1-0.9 0.3-1.8 0.1-1 0.4-1.9 0.3-1 0.6-1.9 0.4-1 0.8-1.8 0.5-0.9 1-1.8 0.3-0.4 0.5-0.8c0.5-0.7 1.2-1.5 1.9-2.3 0.5-0.6 1-0.9 1.1-1.5q0.1-0.5 0.1-1 0-0.5 0-1-0.1-0.6-0.3-1-0.2-0.5-0.4-1z"/>
			<path class="s3" d="m435.4 282.9c-0.1-7.2-0.4-13.9-4.3-27.4 1.5-33.2 2.3-64.3-0.5-75-2.1-8.2-3.7-10.9-7.3-16.8 0 0-14 4.1-25.7 4.4-13.3 0.4-16.1-4.1-16.1-4.1l-0.4 2.3-0.1 2.1c0 0-5.7 64.2-4.5 86 0.8 12.7 0.9 34.7 1.4 45.9 3.6 2.5 11.8 3.7 16.1 1.3 1.2-7.9 3.4-17.4 4.5-25.9 1-7.1 1.3-13.2-0.5-21 1-7.9 4.1-24 5.4-30.7 1.6 12.6 3.5 23.1 4.8 32.7 2 14.2 9.2 41 11 48.5 2.8 1.9 11.9 2.6 16.1-0.7 0.3-9 0.3-12.1 0.1-21.6z"/>
			<path class="s4" d="m403.4 224.1l-3.6-24.8c0 0-8.7-3.1-13.5-7.4 0 0 2.5 5.3 10.5 9l4.5 23.7-2.8 26.7z"/>
			<path class="s4" d="m421.4 159.2c0.1 0 0.2 1.9 4 8.2q-2.8 1.3-5.7 2.4-2.9 1-5.9 1.8-3 0.8-6 1.3-3.1 0.5-6.1 0.8c-13.2 0.9-20.7-5.3-20.7-5.3 0 0 0.3-5.4 0.2-8.5 0 0 4.7 4.2 17.7 4q2.9-0.1 5.8-0.4 2.9-0.3 5.7-0.9 2.8-0.6 5.6-1.4 2.8-0.9 5.5-2z"/>
			<g id="freepik--Head--inject-2">
				<path class="s4" d="m394.9 105.6l-2.4 0.1q-1.4 1.3-2.7 2.8-1.2 1.6-2.2 3.2-1 1.7-1.8 3.5-0.8 1.9-1.3 3.8c-1.6 6.5 0.9 7.8 0.9 7.8 0 0-3.2 8.3 0.2 10.1 2.3-5 10.8-29.3 10.8-29.3z"/>
				<path class="s3" d="m410.3 105.6l6.2 0.8c0 0-1.8 8-7.8 13.4q-1.5 1.2-3 2.3-1.6 1-3.3 1.9-1.7 0.9-3.5 1.6-1.8 0.7-3.6 1.2c-1.3 0.3 0.1 4.2-2.2 6.8-2.2 2.6-7.5 3.3-7.5 3.3q0.2-1 0.4-2 0.3-1 0.6-2 0.3-1 0.7-2 0.3-0.9 0.8-1.9c3.5-8 22.2-23.4 22.2-23.4z"/>
				<path class="s2" d="m419.5 65.7c-1.6-6.4-5.4-10.5-14.6-11.8-6.2-1.3-9.4 0.3-16.3-0.8-3.2-0.6-6-0.9-8.2 0.1-2.5 1.1-4 3.7-3.9 7.1q0 0.7 0.2 1.3 0.1 0.7 0.4 1.3 0.2 0.6 0.6 1.2 0.3 0.6 0.8 1c-2.4 3.4-0.4 9.3 4.6 10.8l4.3 17.7c0 0 22.2 10 22.4 6.1 4.7-7.6 12.8-20.6 9.7-34z"/>
				<path class="s14" d="m410.3 106.4l0.1-17.4c0 0 2.2 2.3 5.6 0.1 3-2 4.5-6.6 2.6-9.1-1.4-1.7-5.9-3-7.8 0.6 0 0-5.3-0.5-11.9-5.8-6.5-5.2-8-9.6-12.1-10.3-2 1.4-4.2 5.7-4.7 17.4-0.3 8.7 3.4 13 5.3 14.7 1.5 1.3 3.6 1.5 7.1 1.2l-0.1 8.2c-4.3 7.7-4.9 13.1-4.9 20.3 7.5-7.2 12-13.2 20.8-19.9z"/>
				<path class="s2" d="m397.1 79.1q-0.1 0.3 0 0.6 0.1 0.3 0.3 0.6 0.2 0.2 0.5 0.4 0.3 0.1 0.6 0.2c0.6 0 1.3-0.3 1.6-0.9 0.3-0.5 0.2-1.2-0.2-1.7-0.4-0.6-1-0.8-1.7-0.6-0.6 0.2-1.1 0.7-1.1 1.4z"/>
				<path class="s2" d="m384.2 75.2l3.4-2.1q-0.2-0.3-0.5-0.6-0.4-0.2-0.7-0.3-0.4-0.1-0.8 0-0.4 0-0.7 0.2-0.4 0.2-0.6 0.5-0.2 0.4-0.3 0.8-0.1 0.3-0.1 0.7 0.1 0.4 0.3 0.8z"/>
				<path class="s15" d="m396.8 88.4l-4.3 1.3q0.2 0.4 0.5 0.8 0.2 0.3 0.6 0.5 0.4 0.2 0.8 0.3 0.5 0 0.9-0.1 0.4-0.2 0.8-0.5 0.3-0.2 0.5-0.6 0.2-0.4 0.3-0.9 0-0.4-0.1-0.8z"/>
				<path class="s2" d="m385.1 78.5q-0.1 0.3 0 0.7 0.1 0.3 0.3 0.5 0.2 0.3 0.5 0.4 0.2 0.2 0.5 0.2c0.7 0.1 1.3-0.2 1.7-0.8 0.3-0.6 0.2-1.3-0.2-1.8-0.4-0.5-1.1-0.7-1.7-0.6-0.6 0.2-1.1 0.8-1.2 1.4z"/>
				<path class="s15" d="m392.9 77.8l-0.6 8.5-4.5-1.7 5.2-6.8z"/>
				<path class="s15" d="m394.5 97.8c3.7-0.3 11.4-2 12.7-4.9q-0.2 0.5-0.5 1.1-0.3 0.5-0.6 0.9-0.4 0.5-0.8 0.9-0.5 0.4-0.9 0.7c-2.4 1.8-9.9 3.6-9.9 3.6z"/>
				<path class="s2" d="m410.8 79.8l-0.3 4.8q-0.6 0-1.2-0.3-0.6-0.3-1.1-0.8-0.5-0.5-0.7-1.1-0.2-0.6-0.2-1.3l0.3-4.7z"/>
			</g>
			<g id="freepik--arm--inject-2">
				<path class="s5" d="m363.6 145l36.7-1 10.9 41.3h-34.9l-12.8-40.3z"/>
				<path class="s10" d="m363.6 145l36.7-1 10.9 41.3h-34.9l-12.8-40.3z"/>
				<path class="s16" d="m394.4 169.4c-0.1 0.9 0.6 2 2.4 3.3 1.4 1 2.5 2.9 4.8 3.3 4.8 0.6 7.1-0.2 7.1-0.2l-1.5-5.7z"/>
				<path class="s16" d="m374.3 148.4c0 0-0.1-0.6-0.3-1.3-0.2-0.7 2-1.3 4.8-1.4l5.4-0.2c2.9-0.1 5.3 0.4 5.5 1.1l0.3 1.3z"/>
				<path class="s2" d="m371.8 144c-0.2-0.4 0.7-0.8 1.9-0.8h2.1c0 0-0.6-2.8 4.2-3.1 4.7-0.3 5.8 2.7 5.8 2.7h2.3c1.2 0 2.4 0.4 2.5 0.8l0.3 0.8-18.9 0.5c0 0-0.1-0.5-0.2-0.9z"/>
				<path class="s2" d="m374.4 144.7c1.7-0.1 2.4-0.1 2.7 1 0.3 1.2 0.4 2.2 0.4 2.2l8.4-0.2c0 0-0.4-1.6-0.6-2.2-0.1-0.6 0.2-1.1 1.5-1.1l0.1-0.6-13.1 0.5z"/>
				<path class="s4" d="m374.1 148.6c0 0-0.2-0.6-0.3-1.3-0.2-0.7 2-1.4 4.8-1.4l5.4-0.2c2.8-0.1 5.3 0.4 5.4 1.1l0.3 1.3z"/>
				<path class="s14" d="m405.1 162.1l0.1 0.3q-0.1 0-0.2 0.1 0 0-0.1 0 0 0-0.1 0 0 0-0.1 0.1-0.7 0.1-1.4 0.1-0.7 0.1-1.5 0.1-0.7 0.1-1.4 0.1-0.7 0-1.5 0c-1.7-0.1-3.3-0.2-5-0.4q-0.2 0-0.3 0-0.1 0-0.2 0-0.2 0-0.3 0-0.1 0-0.2 0.1-0.3 0.1-0.5 0.3-0.1 0.2-0.2 0.5-0.1 0.2-0.1 0.5 0 0.3 0.1 0.5 0.1 0.3 0.2 0.5 0.1 0.3 0.2 0.5 0.2 0.3 0.3 0.5 0.2 0.2 0.3 0.5c0.7 1.1 0.9 2.4 1.6 3.5 2.5 3.9 6.9 5.4 17.2 2.7 3-0.7 6.3-2.4 10.1-3.3 7.7-1.8 13-3.3 19.4-5.4 6.4-2.1 5.5-5.4 4.7-10.7-0.9-6.1-4.4-20.4-8.1-32.7-4-13.1-7-13.2-15-13.6-8.2 11.7 2.4 26.9 2.4 26.9l6.7 19.5c0 0-9.7 4.5-16.5 6.1q-0.4 0.1-0.8 0.2-0.4 0.1-0.8 0.2-0.4 0.1-0.8 0.1-0.4 0-0.9 0c-2.2-0.1-5.9-2.1-8.5-2z"/>
			</g>
		</g>
	</g>
	<g id="freepik--magnifying-glass--inject-2">
		<g id="freepik--Glass--inject-2">
			<path fill-rule="evenodd" class="s5" d="m304.4 371c0 7-4.6 14-13.9 19.3-18.5 10.7-48.5 10.7-67 0-9.2-5.3-13.8-12.3-13.8-19.3v-12.9c0-7 4.6-14 13.8-19.4 18.5-10.7 48.5-10.7 67.1 0 9.2 5.4 13.8 12.4 13.8 19.4zm-90.2-13c0 5.6 4.2 11.1 11.6 15.4 8.2 4.8 19.4 7.4 31.2 7.4 11.9 0 23-2.7 31.3-7.4 7.4-4.3 11.5-9.8 11.5-15.4 0-5.6-4.1-11.1-11.5-15.4-8.3-4.7-19.4-7.4-31.3-7.4-11.8 0-22.9 2.7-31.2 7.4-7.4 4.4-11.6 9.8-11.6 15.4z"/>
			<path class="s16" d="m255.5 385.4v12.9c12.6 0.2 25.4-2.4 35.1-8 9.2-5.4 13.8-12.4 13.8-19.4v-12.9q0-0.1 0-0.3 0-0.2 0-0.3 0-0.2 0-0.4 0-0.1 0-0.3c0.6 7.4-4 15-13.9 20.7-9.6 5.6-22.4 8.2-35 8z"/>
			<path fill-rule="evenodd" class="s17" d="m223.5 338.7c18.5-10.7 48.5-10.7 67 0 18.5 10.7 18.5 28 0 38.7-18.5 10.7-48.5 10.7-67 0-18.5-10.7-18.5-28 0-38.7zm2.3 34.7c8.2 4.8 19.4 7.4 31.2 7.4 11.9 0 23-2.6 31.2-7.4 7.5-4.3 11.6-9.7 11.6-15.3 0-5.7-4.1-11.1-11.6-15.4-8.2-4.8-19.3-7.4-31.2-7.4-11.8 0-22.9 2.6-31.2 7.4-7.5 4.3-11.6 9.7-11.6 15.4 0 5.5 4.1 11 11.6 15.3z"/>
			<path class="s5" d="m214.2 358.1q0 0.8 0.2 1.6 0.1 0.9 0.3 1.7 0.3 0.8 0.6 1.6 0.3 0.8 0.8 1.5c1.9-3.3 5.2-6.3 9.7-8.9 8.3-4.8 19.4-7.4 31.2-7.4 11.9 0 23 2.6 31.2 7.4 4.6 2.6 7.9 5.6 9.8 8.9q0.4-0.7 0.8-1.5 0.3-0.8 0.6-1.6 0.2-0.8 0.3-1.7 0.1-0.8 0.1-1.7c0-5.6-4.1-11-11.6-15.3-8.2-4.8-19.3-7.4-31.2-7.4-11.8 0-23 2.6-31.2 7.4-7.4 4.3-11.6 9.7-11.6 15.3z"/>
			<path class="s8" d="m225.8 348.5c8.3-4.8 19.4-7.4 31.2-7.4 11.9 0 23 2.6 31.2 7.4 6.2 3.6 10 7.9 11.3 12.5-1.2 4.5-5 8.9-11.3 12.4-8.2 4.8-19.3 7.4-31.2 7.4-11.8 0-23-2.6-31.2-7.4-6.1-3.5-10-7.9-11.2-12.4 1.2-4.6 5.1-8.9 11.2-12.5z"/>
			<path class="s4" d="m224.9 385.6q0-0.9-0.2-1.7-0.3-0.8-0.7-1.6-0.4-0.7-1-1.4-0.6-0.6-1.3-1.1-0.3-0.1-0.6-0.3-0.3-0.1-0.6-0.1-0.3 0-0.6 0-0.3 0.1-0.6 0.2l-16 9.1q-0.2 0.2-0.4 0.4-0.2 0.2-0.4 0.5-0.1 0.3-0.2 0.6 0 0.3 0 0.6 0.1 0.9 0.3 1.7 0.2 0.9 0.7 1.6 0.4 0.8 1 1.4 0.6 0.6 1.3 1.1 0.3 0.2 0.5 0.3 0.3 0.1 0.6 0.1 0.4 0.1 0.7 0 0.3 0 0.6-0.2l16-9.1q0.3-0.1 0.4-0.4 0.2-0.2 0.4-0.5 0.1-0.3 0.1-0.6 0.1-0.3 0-0.6z"/>
			<path class="s2" d="m224 387.8q0.3-0.2 0.5-0.5 0.2-0.2 0.3-0.5 0.1-0.3 0.2-0.6 0-0.3 0-0.6 0-0.3 0-0.6-0.1-0.4-0.2-0.7 0-0.3-0.1-0.6-0.1-0.3-0.3-0.6l-20.5 11.8q0.2 0.2 0.4 0.5 0.2 0.2 0.4 0.4 0.2 0.3 0.5 0.5 0.2 0.1 0.5 0.3 0.3 0.2 0.6 0.3 0.2 0.1 0.6 0.2 0.3 0 0.6-0.1 0.3 0 0.6-0.1z"/>
			<path class="s18" d="m206.9 392q0.2 0.3 0.3 0.5-0.1-0.2-0.3-0.5z"/>
			<path class="s5" d="m151.9 423.8l55-31.8q-0.2-0.4-0.5-0.9-0.4-0.4-0.7-0.8-0.4-0.3-0.8-0.7-0.4-0.3-0.8-0.6-0.3-0.2-0.7-0.4-0.4-0.1-0.8-0.1-0.4-0.1-0.8 0-0.3 0-0.7 0.2l-53 28.3z"/>
			<path class="s17" d="m151.9 423.8l55-31.8q-0.2-0.4-0.5-0.9-0.4-0.4-0.7-0.8-0.4-0.3-0.8-0.7-0.4-0.3-0.8-0.6-0.3-0.2-0.7-0.4-0.4-0.1-0.8-0.1-0.4-0.1-0.8 0-0.3 0-0.7 0.2l-53 28.3z"/>
			<path class="s5" d="m151.9 423.8l4.1 7.2 51.1-31.6q0.3-0.2 0.6-0.5 0.2-0.3 0.4-0.7 0.2-0.4 0.2-0.8 0.1-0.4 0-0.8 0-0.3 0-0.6 0-0.3-0.1-0.6 0-0.3-0.1-0.6-0.1-0.3-0.2-0.6-0.1-0.2-0.1-0.5-0.1-0.1-0.2-0.2 0-0.2-0.1-0.3-0.1-0.2-0.1-0.3-0.1-0.2-0.2-0.3-0.1-0.3-0.3-0.5z"/>
			<path class="s16" d="m151.9 423.8l4.1 7.2 51.1-31.6q0.3-0.2 0.6-0.5 0.2-0.3 0.4-0.7 0.2-0.4 0.2-0.8 0.1-0.4 0-0.8 0-0.3 0-0.6 0-0.3-0.1-0.6 0-0.3-0.1-0.6-0.1-0.3-0.2-0.6-0.1-0.2-0.1-0.5-0.1-0.1-0.2-0.2 0-0.2-0.1-0.3-0.1-0.2-0.1-0.3-0.1-0.2-0.2-0.3-0.1-0.3-0.3-0.5z"/>
			<path class="s5" d="m152 430.5q-1.2-0.8-2.2-1.9-1.1-1-1.8-2.3-0.7-1.3-1.1-2.7-0.5-1.4-0.5-2.9c0-3.6 2.5-5.1 5.7-3.3q1.2 0.9 2.2 1.9 1 1.1 1.7 2.4 0.8 1.3 1.2 2.7 0.4 1.4 0.5 2.9c0 3.6-2.6 5.1-5.7 3.2z"/>
			<g style="opacity: .3">
				<path class="s18" d="m152 430.5q-1.2-0.8-2.2-1.9-1.1-1-1.8-2.3-0.7-1.3-1.1-2.7-0.5-1.4-0.5-2.9c0-3.6 2.5-5.1 5.7-3.3q1.2 0.9 2.2 1.9 1 1.1 1.7 2.4 0.8 1.3 1.2 2.7 0.4 1.4 0.5 2.9c0 3.6-2.6 5.1-5.7 3.2z"/>
			</g>
		</g>
	</g>
</svg>