<svg version="1.2" xmlns="http://www.w3.org/2000/svg" viewBox="0 0 500 335" width="500" height="335">
	<title>Bibliophile-rafiki-svg</title>
	<style>
		.s0 { fill: #ebebeb } 
		.s1 { fill: #e6e6e6 } 
		.s2 { fill: #f0f0f0 } 
		.s3 { fill: #fafafa } 
		.s4 { fill: #ffffff } 
		.s5 { fill: #e0e0e0 } 
		.s6 { fill: #f5f5f5 } 
		.s7 { fill: #407bff } 
		.s8 { opacity: .2;fill: #000000 } 
		.s9 { opacity: .9;fill: #ffffff } 
		.s10 { fill: #263238 } 
		.s11 { opacity: .3;fill: #407bff } 
		.s12 { opacity: .3;fill: #000000 } 
		.s13 { opacity: .3;fill: #ffffff } 
		.s14 { opacity: .4;fill: #263238 } 
		.s15 { fill: #ffc3bd } 
		.s16 { opacity: .8;fill: #ffffff } 
		.s17 { fill: #ed847e } 
	</style>
	<g id="freepik--background-complete--inject-2">
		<path class="s0" d="m0 266.4h500v0.3h-500z"/>
		<path class="s0" d="m423.7 282.5h26.2v0.2h-26.2z"/>
		<path class="s0" d="m322.5 279.2h34.3v0.3h-34.3z"/>
		<path class="s0" d="m389.3 273.2h26.5v0.3h-26.5z"/>
		<path class="s0" d="m67.7 274.9h43.2v0.2h-43.2z"/>
		<path class="s0" d="m52.5 274.9h6.3v0.2h-6.3z"/>
		<path class="s0" d="m131.5 279.1h56.2v0.3h-56.2z"/>
		<path fill-rule="evenodd" class="s0" d="m237 221.8h-193.1q-1.1 0-2.2-0.4-1-0.5-1.8-1.3-0.8-0.8-1.3-1.8-0.4-1.1-0.4-2.2v-271.4q0-1.2 0.5-2.2 0.4-1 1.2-1.8 0.8-0.8 1.8-1.3 1.1-0.4 2.2-0.4h193.1q1.1 0 2.2 0.4 1 0.5 1.8 1.3 0.8 0.8 1.3 1.8 0.4 1.1 0.4 2.2v271.4q0 1.1-0.4 2.2-0.5 1-1.3 1.8-0.8 0.8-1.8 1.3-1.1 0.4-2.2 0.4zm-193.1-282.6q-1.1 0-2.1 0.4-1 0.4-1.7 1.2-0.8 0.8-1.2 1.8-0.4 1-0.4 2.1v271.4q0 1.1 0.4 2.1 0.4 1 1.2 1.7 0.7 0.8 1.7 1.2 1 0.4 2.1 0.5l193.1-0.1q1.1 0 2.1-0.4 1-0.4 1.8-1.2 0.7-0.7 1.1-1.7 0.5-1 0.5-2.1v-271.4q0-1.1-0.5-2.1-0.4-1-1.1-1.8-0.8-0.8-1.8-1.2-1-0.4-2.1-0.4z"/>
		<path fill-rule="evenodd" class="s0" d="m453.3 221.8h-193.1q-1.1 0-2.2-0.4-1-0.5-1.8-1.3-0.8-0.8-1.3-1.8-0.4-1.1-0.4-2.2v-271.4q0-1.2 0.5-2.2 0.4-1 1.2-1.8 0.8-0.8 1.8-1.3 1.1-0.4 2.2-0.4h193.1q1.1 0 2.2 0.4 1 0.5 1.8 1.3 0.8 0.8 1.3 1.8 0.4 1 0.4 2.2v271.4q0 1.1-0.4 2.2-0.5 1-1.3 1.8-0.8 0.8-1.8 1.3-1.1 0.4-2.2 0.4zm-193.1-282.6q-1.1 0-2.1 0.4-1 0.4-1.7 1.2-0.8 0.8-1.2 1.8-0.4 1-0.5 2.1v271.4q0.1 1.1 0.5 2.1 0.4 1 1.2 1.7 0.7 0.8 1.7 1.2 1 0.4 2.1 0.4h193.1q1.1 0 2.1-0.4 1-0.4 1.8-1.2 0.7-0.7 1.2-1.7 0.4-1 0.4-2.1v-271.4q0-1.1-0.4-2.1-0.5-1-1.2-1.8-0.8-0.8-1.8-1.2-1-0.4-2.1-0.4z"/>
		<path class="s1" d="m66.6-32.5h271.3v155.4h-271.3z"/>
		<path class="s2" d="m68.5-32.5h273.5v155.4h-273.5z"/>
		<path class="s3" d="m336.3-26.2v142.8l-262.1-0.1v-142.7z"/>
		<path class="s4" d="m106.3 116.6l33.2-142.8h43.5l-33.2 142.8h-43.5z"/>
		<path class="s4" d="m156.8 116.6l33.2-142.8h19.6l-33.1 142.8h-19.7z"/>
		<path class="s4" d="m234.7 116.6l33.2-142.8h33.5l-33.1 142.8h-33.6z"/>
		<path class="s1" d="m336.3-26.2v142.8h-0.7v-142.8z"/>
		<path class="s2" d="m197.1-32.5h16.3v155.4h-16.3z"/>
		<path class="s1" d="m197.1-26.2v142.8l-0.7-0.1v-142.7z"/>
		<path class="s1" d="m205-32.5h0.5v155.4h-0.5z"/>
		<g style="opacity: .7">
			<path class="s0" d="m347.5 84.4h-26.1v-125.2h26.1z"/>
			<path class="s5" d="m304.5-40.8h16.9v110.6h-16.9z"/>
			<path class="s0" d="m304.5 84.4h-26.1v-125.2h26.1z"/>
			<path class="s5" d="m261.5-40.8h16.9v110.6h-16.9z"/>
			<path class="s0" d="m261.5 84.4h-26v-125.2h26z"/>
			<path class="s5" d="m218.6-40.8h16.9v110.6h-16.9z"/>
			<path class="s0" d="m218.6 84.4h-26.1v-125.2h26.1z"/>
			<path class="s5" d="m175.6-40.8h16.9v110.6h-16.9z"/>
			<path class="s0" d="m175.6 84.4h-26.1v-125.2h26.1z"/>
			<path class="s5" d="m132.6-40.8h16.9v110.6h-16.9z"/>
			<path class="s0" d="m132.6 84.4h-26l-0.1-125.2h26.1z"/>
			<path class="s0" d="m89.7 84.4h-26.1v-125.2h26.1z"/>
			<path class="s5" d="m89.7-40.8h16.8v110.6h-16.8z"/>
		</g>
		<path class="s1" d="m399.6 168.3h33.6v98.1h-33.6z"/>
		<path class="s6" d="m424.2 266.4h9v-16.9h-18.4l9.4 16.9z"/>
		<path class="s1" d="m194.5 168.3h33.5v98.1h-33.5z"/>
		<path class="s6" d="m220.2 168.3h213v92.3h-213z"/>
		<path class="s6" d="m229.1 266.4h-8.9v-16.9h18.3l-9.4 16.9z"/>
		<path class="s1" d="m227.1 176.4h199.1v34.2h-199.1z"/>
		<path class="s1" d="m227.1 217.9h199.1v34.1h-199.1z"/>
		<path class="s2" d="m447.3 20.6h-51.3v-8.2h51.3z"/>
		<path class="s1" d="m371.6 12.4h24.4v8.2h-24.4z"/>
		<path class="s0" d="m397 20.6h24.7l-18 11.8h-6.7v-11.8z"/>
		<path class="s5" d="m394.4 20.6h24.7l-18 11.8h-6.7v-11.8z"/>
		<path class="s1" d="m431.3 12.4h-16v-35.2h16z"/>
		<path class="s2" d="m431.4-22.8h4.6v35.2h-4.6z"/>
		<path class="s1" d="m394.6-19.7h20.7l5 32.1h-20.7l-5-32.1z"/>
		<path class="s2" d="m421.3-19.7h-6l5 32.1h6l-5-32.1z"/>
		<path class="s0" d="m408.5 12.4h-23.4v-36.4h23.4z"/>
		<path class="s6" d="m408.5-24h6.8v36.4h-6.8z"/>
		<path class="s5" d="m403.1 12.4h-1v-21.9c0-1.8-0.7-3.6-2-4.9-1.3-1.3-3.1-2-4.9-2-1.8 0-3.6 0.7-4.9 2-1.3 1.3-2 3.1-2 4.9v21.9h-1v-21.9c0-2.1 0.8-4.1 2.3-5.6 1.5-1.4 3.5-2.3 5.6-2.3 2.1 0 4.1 0.9 5.6 2.3 1.4 1.5 2.3 3.5 2.3 5.6z"/>
		<path class="s2" d="m447.3 91.9h-51.3v-8.2h51.3z"/>
		<path class="s1" d="m371.6 83.7h24.4v8.2h-24.4z"/>
		<path class="s0" d="m397 91.9h24.7l-18 11.8h-6.7v-11.8z"/>
		<path class="s5" d="m394.4 91.9h24.7l-18 11.8h-6.7v-11.8z"/>
		<path class="s5" d="m433.3 83.7h-23.5v-26h23.5z"/>
		<path class="s2" d="m433.3 57.7h6v26h-6z"/>
		<path class="s5" d="m422.7 83.7h-20.1v-33.4h20.1z"/>
		<path class="s0" d="m422.7 50.3h4.1v33.4h-4.1z"/>
		<path class="s1" d="m413.7 83.7h-17.6v-30h17.6z"/>
		<path class="s2" d="m413.7 53.7h5.1v30h-5.1z"/>
		<path class="s2" d="m408.5 83.7h-23.4v-26h23.4z"/>
		<path class="s3" d="m408.5 57.7h3.4v26h-3.4z"/>
		<path class="s5" d="m403.1 83.7h-1v-21.9c0-1.8-0.7-3.6-2-4.9-1.3-1.2-3.1-2-4.9-2-1.8 0-3.6 0.8-4.9 2-1.3 1.3-2 3.1-2 4.9v21.9h-1v-21.9c0-2.1 0.8-4.1 2.3-5.6 1.5-1.4 3.5-2.3 5.6-2.3 2.1 0 4.1 0.9 5.6 2.3 1.4 1.5 2.3 3.5 2.3 5.6z"/>
		<path class="s6" d="m143.1 184.7h8.6v81.7h-8.6z"/>
		<path class="s2" d="m147.9 184.7h7.6v81.7h-7.6z"/>
		<path class="s6" d="m56.1 184.7h8.6v81.7h-8.6z"/>
		<path class="s2" d="m60.9 184.7h7.6v81.7h-7.6z"/>
		<path class="s6" d="m175.8 184.7h8.6v81.7h-8.6z"/>
		<path class="s2" d="m180.7 184.7h7.5v81.7h-7.5z"/>
		<path class="s6" d="m88.8 184.7h8.6v81.7h-8.6z"/>
		<path class="s2" d="m188.2 186.8h-132.1v-10.4h132.1z"/>
		<path class="s1" d="m93.7 186.8h-37.6v-10.4h37.6z"/>
		<path class="s2" d="m93.7 184.7h7.5v81.7h-7.5z"/>
	</g>
	<g id="freepik--Shadow--inject-2">
		<path id="freepik--path--inject-2" class="s6" d="m250 311.6c-107.2 0-193.9-5.1-193.9-11.4 0-6.2 86.7-11.3 193.9-11.3 107.2 0 193.9 5.1 193.9 11.3 0 6.3-86.7 11.4-193.9 11.4z"/>
	</g>
	<g id="freepik--Books--inject-2">
		<path class="s7" d="m387.6 300.5h-199.9v-50.1h199.9q0.8 0 1.5 0.2 0.7 0.3 1.3 0.9 0.5 0.5 0.8 1.2 0.3 0.8 0.3 1.5v42.4q0 0.8-0.3 1.5-0.3 0.7-0.8 1.3-0.6 0.5-1.3 0.8-0.7 0.3-1.5 0.3z"/>
		<path class="s8" d="m387.6 300.5h-199.9v-50.1h199.9q0.8 0 1.5 0.2 0.7 0.3 1.3 0.9 0.5 0.5 0.8 1.2 0.3 0.8 0.3 1.5v42.4q0 0.8-0.3 1.5-0.3 0.7-0.8 1.3-0.6 0.5-1.3 0.8-0.7 0.3-1.5 0.3z"/>
		<path class="s8" d="m267.3 300.5h-30.6v-50.1h30.6z"/>
		<path class="s8" d="m295.9 300.5h-15.5v-50.1h15.5z"/>
		<path class="s7" d="m121.5 250.4h66.2v50.1h-66.2q-0.8 0-1.5-0.3-0.7-0.3-1.3-0.9-0.5-0.5-0.8-1.2-0.3-0.7-0.3-1.5v-42.4q0-0.7 0.3-1.4 0.3-0.8 0.8-1.3 0.6-0.6 1.3-0.9 0.7-0.2 1.5-0.2z"/>
		<path class="s9" d="m117.6 255.7h57.9q1 0 1.9 0.4 1 0.4 1.7 1.1 0.7 0.7 1.1 1.7 0.4 0.9 0.4 1.9v29.2q0 1-0.4 1.9-0.4 1-1.1 1.7-0.7 0.7-1.7 1.1-0.9 0.4-1.9 0.4h-57.9z"/>
		<path class="s8" d="m363.5 289.8c-7.9 0-14.4-6.4-14.4-14.4 0-7.9 6.5-14.3 14.4-14.3 7.9 0 14.3 6.4 14.3 14.3 0 8-6.4 14.4-14.3 14.4z"/>
		<path class="s10" d="m402.1 250.3h-200v-36.4h200q0.8 0 1.5 0.3 0.7 0.3 1.3 0.9 0.5 0.5 0.8 1.2 0.3 0.7 0.3 1.5v28.7q0 0.7-0.3 1.4-0.3 0.7-0.9 1.3-0.5 0.5-1.2 0.8-0.7 0.3-1.5 0.3z"/>
		<path class="s8" d="m402.1 250.3h-200v-36.4h200q0.8 0 1.5 0.3 0.7 0.3 1.3 0.9 0.5 0.5 0.8 1.2 0.3 0.7 0.3 1.5v28.7q0 0.7-0.3 1.4-0.3 0.7-0.9 1.3-0.5 0.5-1.2 0.8-0.7 0.3-1.5 0.3z"/>
		<path class="s10" d="m135.9 214h66.3v36.4h-66.3q-0.7 0-1.5-0.3-0.7-0.3-1.2-0.9-0.6-0.5-0.9-1.2-0.3-0.7-0.3-1.5v-28.6q0-0.8 0.3-1.5 0.3-0.7 0.9-1.3 0.5-0.5 1.2-0.8 0.8-0.3 1.5-0.3z"/>
		<path class="s9" d="m132 219.4h58q1 0 1.9 0.3 1 0.4 1.7 1.1 0.7 0.8 1.1 1.7 0.4 0.9 0.4 1.9v15.5q0 1-0.4 1.9-0.4 1-1.1 1.7-0.7 0.7-1.6 1.1-1 0.4-2 0.4h-58z"/>
		<path class="s11" d="m383.9 241.7h-139.9c-2.3 0-4.2-1.8-4.2-4.2v-10.7c0-2.4 1.9-4.2 4.2-4.2h139.9c2.3 0 4.2 1.8 4.2 4.2v10.7c0 2.4-1.9 4.2-4.2 4.2z"/>
		<path class="s11" d="m215 250.3h-5.3v-36.3h5.3z"/>
		<path class="s11" d="m224.7 250.3h-5.3v-36.3h5.3z"/>
		<path class="s7" d="m380 214h-200v-37.6h200q0.7 0 1.5 0.3 0.7 0.3 1.2 0.8 0.6 0.6 0.9 1.3 0.2 0.7 0.2 1.5v29.8q0 0.8-0.2 1.5-0.3 0.7-0.9 1.2-0.5 0.6-1.2 0.9-0.8 0.3-1.5 0.3z"/>
		<path class="s12" d="m380 214h-200v-37.6h200q0.7 0 1.5 0.3 0.7 0.3 1.2 0.8 0.6 0.6 0.9 1.3 0.2 0.7 0.2 1.5v29.8q0 0.8-0.2 1.5-0.3 0.7-0.9 1.2-0.5 0.6-1.2 0.9-0.8 0.3-1.5 0.3z"/>
		<path class="s9" d="m298.5 214h-69.4v-37.6h69.4z"/>
		<path class="s9" d="m363.5 214h-35.2v-37.6h35.2z"/>
		<path class="s7" d="m113.8 176.4h66.2v37.6h-66.2q-0.8 0-1.5-0.3-0.7-0.3-1.2-0.8-0.6-0.6-0.9-1.3-0.3-0.7-0.3-1.5v-29.8q0-0.8 0.3-1.5 0.3-0.7 0.9-1.2 0.5-0.6 1.2-0.9 0.7-0.3 1.5-0.3z"/>
		<path class="s9" d="m109.9 181.8h57.9q1.1 0 2 0.4 0.9 0.4 1.6 1.1 0.8 0.7 1.2 1.6 0.3 1 0.3 2v16.6q0 1-0.3 1.9-0.4 1-1.2 1.7-0.7 0.7-1.6 1.1-0.9 0.4-1.9 0.4h-58z"/>
		<path class="s7" d="m394.4 176.4h-199.9v-24.9h199.9q0.8 0 1.5 0.3 0.7 0.3 1.3 0.9 0.5 0.5 0.8 1.2 0.3 0.7 0.3 1.5v17.1q0 0.8-0.3 1.5-0.3 0.7-0.8 1.3-0.6 0.5-1.3 0.8-0.7 0.3-1.5 0.3z"/>
		<path class="s13" d="m394.4 176.4h-199.9v-24.9h199.9q0.8 0 1.5 0.3 0.7 0.3 1.3 0.9 0.5 0.5 0.8 1.2 0.3 0.7 0.3 1.5v17.1q0 0.8-0.3 1.5-0.3 0.7-0.8 1.3-0.6 0.5-1.3 0.8-0.7 0.3-1.5 0.3z"/>
		<path class="s8" d="m394.4 176.4h-199.9v-24.9h199.9q0.8 0 1.5 0.3 0.7 0.3 1.3 0.9 0.5 0.5 0.8 1.2 0.3 0.7 0.3 1.5v17.1q0 0.8-0.3 1.5-0.3 0.7-0.8 1.3-0.6 0.5-1.3 0.8-0.7 0.3-1.5 0.3z"/>
		<path class="s7" d="m128.3 151.5h66.2v24.9h-66.2q-0.8 0-1.5-0.3-0.7-0.3-1.3-0.8-0.5-0.6-0.8-1.3-0.3-0.7-0.3-1.5v-17.1q0-0.8 0.3-1.5 0.3-0.7 0.8-1.2 0.6-0.6 1.3-0.9 0.7-0.3 1.5-0.3z"/>
		<path class="s13" d="m128.3 151.5h66.2v24.9h-66.2q-0.8 0-1.5-0.3-0.7-0.3-1.3-0.8-0.5-0.6-0.8-1.3-0.3-0.7-0.3-1.5v-17.1q0-0.8 0.3-1.5 0.3-0.7 0.8-1.2 0.6-0.6 1.3-0.9 0.7-0.3 1.5-0.3z"/>
		<path class="s9" d="m124.4 156.9h57.9q1 0 1.9 0.4 1 0.4 1.7 1.1 0.7 0.7 1.1 1.7 0.4 0.9 0.4 1.9v4q0 1-0.4 1.9-0.4 0.9-1.1 1.6-0.7 0.7-1.7 1.1-0.9 0.4-1.9 0.4h-57.9z"/>
		<path class="s14" d="m303 169.9h-90.6v-11.8h90.6z"/>
		<path class="s7" d="m228.9 143.3h28.6v8.2h-28.6q-0.1 0-0.2 0-0.2-0.1-0.3-0.2 0 0-0.1-0.2 0-0.1 0-0.2v-7q0-0.1 0-0.2 0.1-0.2 0.2-0.2 0-0.1 0.2-0.2 0.1 0 0.2 0z"/>
		<path class="s8" d="m228.9 143.3h28.6v8.2h-28.6q-0.1 0-0.2 0-0.2-0.1-0.3-0.2 0 0-0.1-0.2 0-0.1 0-0.2v-7q0-0.1 0-0.2 0.1-0.2 0.2-0.2 0-0.1 0.2-0.2 0.1 0 0.2 0z"/>
		<path class="s7" d="m268.4 151.5h-10.9v-8.2h10.9q0.2 0 0.3 0 0.1 0.1 0.2 0.2 0.1 0.1 0.1 0.2 0.1 0.1 0.1 0.2v7q0 0.2-0.1 0.3 0 0.1-0.1 0.2-0.1 0.1-0.3 0.1-0.1 0-0.2 0z"/>
		<path class="s9" d="m269 150.7h-9.5q-0.2-0.1-0.3-0.1-0.2-0.1-0.3-0.2-0.1-0.1-0.2-0.3 0-0.1 0-0.3v-4.8q0-0.2 0-0.3 0.1-0.2 0.2-0.3 0.1-0.1 0.3-0.2 0.1 0 0.3 0h9.5v6.5z"/>
		<path class="s10" d="m226.5 137.3h28.6v6h-28.6q-0.1 0-0.2-0.1-0.1 0-0.2-0.1-0.1-0.1-0.2-0.2 0-0.1 0-0.3v-4.7q0-0.1 0-0.2 0.1-0.1 0.2-0.2 0.1-0.1 0.2-0.2 0.1 0 0.2 0z"/>
		<path class="s8" d="m226.5 137.3h28.6v6h-28.6q-0.1 0-0.2-0.1-0.1 0-0.2-0.1-0.1-0.1-0.2-0.2 0-0.1 0-0.3v-4.7q0-0.1 0-0.2 0.1-0.1 0.2-0.2 0.1-0.1 0.2-0.2 0.1 0 0.2 0z"/>
		<path class="s10" d="m266 143.3h-10.9v-6h10.9q0.1 0 0.3 0 0.1 0.1 0.2 0.2 0.1 0.1 0.1 0.2 0 0.1 0 0.2v4.7q0.1 0.2 0 0.3 0 0.1-0.1 0.2-0.1 0.1-0.2 0.1-0.2 0.1-0.3 0.1z"/>
		<path class="s9" d="m266.7 142.4h-9.6q-0.1 0-0.3-0.1-0.1 0-0.3-0.1-0.1-0.2-0.1-0.3-0.1-0.2-0.1-0.3v-2.6q0-0.1 0.1-0.3 0-0.2 0.1-0.3 0.2-0.1 0.3-0.2 0.2 0 0.3 0h9.6v4.2z"/>
		<path class="s7" d="m230.2 131.1h28.6v6.2h-28.6q-0.2 0-0.3 0-0.1-0.1-0.2-0.2-0.1-0.1-0.1-0.2-0.1-0.1-0.1-0.2v-4.9q0-0.2 0.1-0.3 0-0.1 0.1-0.2 0.1-0.1 0.2-0.1 0.1-0.1 0.3-0.1z"/>
		<path class="s12" d="m230.2 131.1h28.6v6.2h-28.6q-0.2 0-0.3 0-0.1-0.1-0.2-0.2-0.1-0.1-0.1-0.2-0.1-0.1-0.1-0.2v-4.9q0-0.2 0.1-0.3 0-0.1 0.1-0.2 0.1-0.1 0.2-0.1 0.1-0.1 0.3-0.1z"/>
		<path class="s7" d="m269.6 137.3h-10.9v-6.2h10.9q0.2 0 0.3 0.1 0.1 0 0.2 0.1 0.1 0.1 0.1 0.2 0.1 0.1 0.1 0.3v4.8q0 0.2-0.1 0.3 0 0.1-0.1 0.2-0.1 0.1-0.2 0.1-0.1 0.1-0.3 0.1z"/>
		<path class="s9" d="m270.3 136.4h-9.5q-0.2 0-0.4-0.1-0.1 0-0.2-0.1-0.2-0.2-0.2-0.3-0.1-0.2-0.1-0.3v-2.8q0-0.1 0.1-0.3 0-0.1 0.2-0.3 0.1-0.1 0.2-0.1 0.2-0.1 0.4-0.1h9.5z"/>
		<path class="s7" d="m227.8 127h28.6v4.1h-28.6q-0.1 0-0.3 0-0.1-0.1-0.2-0.2-0.1-0.1-0.1-0.2-0.1-0.1-0.1-0.2v-2.9q0-0.1 0.1-0.2 0-0.1 0.1-0.2 0.1-0.1 0.2-0.2 0.2 0 0.3 0z"/>
		<path class="s13" d="m227.8 127h28.6v4.1h-28.6q-0.1 0-0.3 0-0.1-0.1-0.2-0.2-0.1-0.1-0.1-0.2-0.1-0.1-0.1-0.2v-2.9q0-0.1 0.1-0.2 0-0.1 0.1-0.2 0.1-0.1 0.2-0.2 0.2 0 0.3 0z"/>
		<path class="s8" d="m227.8 127h28.6v4.1h-28.6q-0.1 0-0.3 0-0.1-0.1-0.2-0.2-0.1-0.1-0.1-0.2-0.1-0.1-0.1-0.2v-2.9q0-0.1 0.1-0.2 0-0.1 0.1-0.2 0.1-0.1 0.2-0.2 0.2 0 0.3 0z"/>
		<path class="s7" d="m267.3 131.1h-10.9v-4.1h10.9q0.1 0 0.2 0.1 0.1 0 0.2 0.1 0.1 0.1 0.2 0.2 0 0.2 0 0.3v2.8q0 0.1 0 0.2-0.1 0.2-0.2 0.2-0.1 0.1-0.2 0.2-0.1 0-0.2 0z"/>
		<path class="s13" d="m267.3 131.1h-10.9v-4.1h10.9q0.1 0 0.2 0.1 0.1 0 0.2 0.1 0.1 0.1 0.2 0.2 0 0.2 0 0.3v2.8q0 0.1 0 0.2-0.1 0.2-0.2 0.2-0.1 0.1-0.2 0.2-0.1 0-0.2 0z"/>
		<path class="s9" d="m267.9 130.2h-9.5q-0.2 0-0.3 0-0.2-0.1-0.3-0.2-0.1-0.1-0.2-0.3-0.1-0.1-0.1-0.3v-0.7q0-0.1 0.1-0.3 0.1-0.1 0.2-0.3 0.1-0.1 0.3-0.1 0.1-0.1 0.3-0.1h9.5v2.3z"/>
		<path class="s10" d="m226.5 121h28.6v6h-28.6q-0.1 0-0.2 0-0.1-0.1-0.2-0.2-0.1-0.1-0.2-0.2 0-0.1 0-0.2v-4.7q0-0.2 0-0.3 0.1-0.1 0.2-0.2 0.1-0.1 0.2-0.2 0.1 0 0.2 0z"/>
		<path class="s8" d="m226.5 121h28.6v6h-28.6q-0.1 0-0.2 0-0.1-0.1-0.2-0.2-0.1-0.1-0.2-0.2 0-0.1 0-0.2v-4.7q0-0.2 0-0.3 0.1-0.1 0.2-0.2 0.1-0.1 0.2-0.2 0.1 0 0.2 0z"/>
		<path class="s10" d="m262.4 127.1h-7.3v-6h7.3q0.1 0 0.3 0 0.1 0 0.2 0.1 0.1 0.1 0.1 0.2 0 0.2 0 0.3v4.7q0.1 0.1 0 0.3 0 0.1-0.1 0.2-0.1 0.1-0.3 0.1-0.1 0.1-0.2 0.1z"/>
		<path class="s9" d="m263 126.1h-5.9q-0.1 0-0.3 0-0.1-0.1-0.3-0.2-0.1-0.1-0.1-0.3-0.1-0.1-0.1-0.3v-2.5q0-0.2 0.1-0.4 0-0.1 0.1-0.2 0.2-0.2 0.3-0.2 0.2-0.1 0.3-0.1h5.9z"/>
		<path class="s7" d="m230.2 114.8h28.6v6.2h-28.6q-0.2 0-0.3 0-0.1-0.1-0.2-0.2-0.1-0.1-0.1-0.2-0.1-0.1-0.1-0.2v-4.9q0-0.2 0.1-0.3 0-0.1 0.1-0.2 0.1-0.1 0.2-0.1 0.1 0 0.3-0.1z"/>
		<path class="s12" d="m230.2 114.8h28.6v6.2h-28.6q-0.2 0-0.3 0-0.1-0.1-0.2-0.2-0.1-0.1-0.1-0.2-0.1-0.1-0.1-0.2v-4.9q0-0.2 0.1-0.3 0-0.1 0.1-0.2 0.1-0.1 0.2-0.1 0.1 0 0.3-0.1z"/>
		<path class="s7" d="m266 121h-7.3v-6.1h7.3q0.1 0 0.3 0 0.1 0.1 0.2 0.2 0.1 0.1 0.1 0.2 0.1 0.1 0.1 0.2v4.9q0 0.1-0.1 0.2 0 0.2-0.1 0.2-0.1 0.1-0.2 0.2-0.2 0-0.3 0z"/>
		<path class="s9" d="m266.7 120.1h-5.9q-0.2 0-0.4 0-0.1-0.1-0.2-0.2-0.2-0.1-0.2-0.3-0.1-0.1-0.1-0.3v-2.7q0-0.2 0.1-0.4 0-0.1 0.2-0.2 0.1-0.1 0.2-0.2 0.2-0.1 0.4-0.1h5.9z"/>
		<path class="s7" d="m227.8 110.8h28.6v4.1h-28.6q-0.1 0-0.3-0.1-0.1 0-0.2-0.1-0.1-0.1-0.1-0.2-0.1-0.2-0.1-0.3v-2.8q0-0.1 0.1-0.2 0-0.2 0.1-0.3 0.1 0 0.2-0.1 0.2 0 0.3 0z"/>
		<path class="s13" d="m227.8 110.8h28.6v4.1h-28.6q-0.1 0-0.3-0.1-0.1 0-0.2-0.1-0.1-0.1-0.1-0.2-0.1-0.2-0.1-0.3v-2.8q0-0.1 0.1-0.2 0-0.2 0.1-0.3 0.1 0 0.2-0.1 0.2 0 0.3 0z"/>
		<path class="s8" d="m227.8 110.8h28.6v4.1h-28.6q-0.1 0-0.3-0.1-0.1 0-0.2-0.1-0.1-0.1-0.1-0.2-0.1-0.2-0.1-0.3v-2.8q0-0.1 0.1-0.2 0-0.2 0.1-0.3 0.1 0 0.2-0.1 0.2 0 0.3 0z"/>
		<path class="s7" d="m263.6 114.9h-7.2v-4.1h7.2q0.2 0 0.3 0 0.1 0 0.2 0.1 0.1 0.1 0.1 0.2 0.1 0.2 0.1 0.3v2.8q0 0.1-0.1 0.3 0 0.1-0.1 0.2-0.1 0.1-0.2 0.1-0.1 0-0.3 0.1z"/>
		<path class="s13" d="m263.6 114.9h-7.2v-4.1h7.2q0.2 0 0.3 0 0.1 0 0.2 0.1 0.1 0.1 0.1 0.2 0.1 0.2 0.1 0.3v2.8q0 0.1-0.1 0.3 0 0.1-0.1 0.2-0.1 0.1-0.2 0.1-0.1 0-0.3 0.1z"/>
		<path class="s9" d="m264.3 114h-5.9q-0.2 0-0.3-0.1-0.2-0.1-0.3-0.2-0.1-0.1-0.2-0.2-0.1-0.2-0.1-0.4v-0.6q0-0.2 0.1-0.3 0.1-0.2 0.2-0.3 0.1-0.1 0.3-0.2 0.1-0.1 0.3-0.1h5.9v2.4z"/>
	</g>
	<g id="freepik--Character--inject-2">
		<path class="s15" d="m106.8 220.5l-6.6-3.3 5.3-16.4 6.6 3.3-5.3 16.4z"/>
		<path class="s10" d="m100.7 214.6l8.1 1.7q0.1 0 0.2 0.1 0.1 0 0.2 0.1 0 0.1 0.1 0.2 0 0.1 0 0.2l-1 6.5q-0.1 0.3-0.2 0.5-0.2 0.2-0.4 0.3-0.2 0.2-0.5 0.2-0.2 0.1-0.5 0c-2.8-0.6-4.1-1.1-7.7-1.8-2.1-0.5-9.7-2-12.6-3-2.9-1-1.9-3.9-0.5-3.7 6 0.7 11.1 0 13.5-1.1q0.1-0.1 0.3-0.2 0.2 0 0.3 0 0.2 0 0.4 0 0.2 0 0.3 0z"/>
		<path class="s8" d="m112.1 204.1l-6.6-3.3-3.1 9.4 6.9 2.4 2.8-8.5z"/>
		<path class="s7" d="m179 121.4c0 0-56.6 5.5-61.3 26.1-6.8 29.6-16 57.8-16 57.8l12.6 2.2c2-8.4 16.4-38 23.2-57.9 15.3-2.3 56.3 6.4 62.4-5.3q1.2-2.2 2.1-4.5 0.8-2.3 1.5-4.8 0.6-2.4 0.9-4.8 0.4-2.5 0.4-5z"/>
		<path class="s12" d="m179 121.4c0 0-56.6 5.5-61.3 26.1-6.8 29.6-16 57.8-16 57.8l12.6 2.2c2-8.4 16.4-38 23.2-57.9 15.3-2.3 56.3 6.4 62.4-5.3q1.2-2.2 2.1-4.5 0.8-2.3 1.5-4.8 0.6-2.4 0.9-4.8 0.4-2.5 0.4-5z"/>
		<path class="s7" d="m115.1 212l-14.8-5.4 0.7-5.9 15.5 4.1-1.4 7.2z"/>
		<path fill-rule="evenodd" class="s7" d="m97.6 215.3q-0.2-0.1-0.4-0.2-0.1 0-0.3-0.2-0.1-0.1-0.2-0.2-0.1-0.1-0.1-0.2-0.1-0.2-0.1-0.3 0-0.1 0.1-0.3 0-0.1 0.1-0.2 0-0.1 0.1-0.1 0-0.1 0.1-0.2 0 0 0.1 0 0.1-0.1 0.2-0.1c0.9-0.1 2.7 1.7 2.9 1.9q0 0 0 0 0 0.1 0 0.1 0 0 0 0 0 0 0 0.1 0 0-0.1 0 0 0 0 0 0 0.1 0 0.1-0.1 0-0.1 0-0.2 0-0.5 0-0.2 0-0.5 0-0.2-0.1-0.5-0.1-0.2 0-0.5-0.1-0.2 0-0.3 0zm-0.4-1.7q-0.1 0.1-0.1 0.1-0.1 0-0.1 0 0 0 0 0.1-0.1 0-0.1 0 0 0.1 0 0.2-0.1 0.1-0.1 0.2 0 0 0.1 0.1 0 0.1 0 0.2c0.3 0.4 1.2 0.6 2.6 0.6-0.7-0.7-1.8-1.5-2.3-1.5z"/>
		<path fill-rule="evenodd" class="s7" d="m99.7 215.4c-0.6-0.6-1.4-2.3-1-3q0-0.2 0.1-0.2 0.1-0.1 0.1-0.2 0.1 0 0.3 0 0.1-0.1 0.2 0 0.1 0 0.2 0 0.1 0 0.2 0.1 0 0 0.1 0.1 0.1 0.1 0.1 0.2c0.7 0.8 0 2.9 0 3q0 0 0 0 0 0 0 0 0 0 0 0.1 0 0-0.1 0h-0.1zm-0.3-3.1c-0.2 0-0.4 0.1-0.4 0.2q0 0.3 0.1 0.6 0 0.3 0.1 0.7 0.1 0.3 0.3 0.6 0.1 0.3 0.3 0.5 0.1-0.3 0.2-0.6 0-0.3 0-0.6 0-0.3 0-0.6-0.1-0.3-0.2-0.6 0 0 0-0.1-0.1 0-0.1 0 0-0.1-0.1-0.1 0 0-0.1 0z"/>
		<path class="s15" d="m185.1 69.6c-0.3 3.7-0.9 7.2-1.5 10.8-0.5 3.6-1.3 7.2-2.2 10.7q-0.4 1.4-0.8 2.8-0.4 1.3-0.8 2.7-0.4 1.3-0.9 2.6-0.5 1.4-1.1 2.7-0.2 0.7-0.6 1.4-0.3 0.7-0.6 1.4-0.4 0.6-0.8 1.3-0.3 0.7-0.8 1.3-0.2 0.4-0.4 0.8-0.3 0.3-0.6 0.7-0.2 0.3-0.5 0.7-0.3 0.3-0.6 0.6-0.3 0.4-0.7 0.8-0.4 0.4-0.8 0.7-0.4 0.3-0.8 0.6-0.5 0.3-0.9 0.6l-0.5 0.3h-0.2q-0.8 0.3-1.6 0.5-0.9 0.1-1.7 0.2-0.9 0-1.7-0.1-0.9-0.1-1.7-0.3-0.6-0.2-1.2-0.4-0.6-0.2-1.2-0.4-0.6-0.3-1.2-0.5-0.6-0.3-1.1-0.6-0.5-0.3-1-0.6-0.5-0.3-1-0.6-0.5-0.3-1-0.6-0.4-0.4-0.9-0.7-0.9-0.7-1.7-1.4-0.2-0.2-0.5-0.4-0.2-0.2-0.4-0.4-0.2-0.2-0.4-0.4-0.2-0.2-0.4-0.4l3.2-4.5c1.1 0.3 2.4 0.8 3.6 1.2 1.2 0.3 2.4 0.7 3.6 1q0.3 0.1 0.7 0.2 0.4 0 0.8 0.1 0.4 0 0.8 0.1 0.4 0 0.8 0c0.9 0 1.5-0.2 1.4-0.3l-0.7 0.3q0.3-0.2 0.5-0.5 0.2-0.2 0.4-0.5 0.2-0.3 0.4-0.6 0.2-0.3 0.4-0.6 0.2-0.5 0.5-1 0.2-0.4 0.4-0.9 0.3-0.5 0.5-1.1 0.2-0.5 0.3-1 0.5-1.1 0.8-2.3 0.4-1.2 0.7-2.3 0.4-1.2 0.7-2.4 0.3-1.2 0.5-2.4 1.1-4.9 1.9-10c0.6-3.4 1-6.8 1.5-10z"/>
		<path class="s10" d="m175.2 64.1c-6.9 6-6.5 20.6-6.5 20.6l18.2 6.6c3.9-6 5.7-17.5 5.4-22.4-0.5-7.5-8.9-11.9-17.1-4.8z"/>
		<path class="s8" d="m192.3 69.2c-3.3-1.6-7.7-1.1-12.2 2.8-4 3.5-5.5 9.9-6.1 14.7l12.9 4.6c3.8-5.9 5.7-17.1 5.4-22.1z"/>
		<path class="s15" d="m80.7 203l-2.2-7 15.3-8.3 2.2 7-15.3 8.3z"/>
		<path class="s10" d="m79 195.3l5.5 6.2q0.1 0 0.2 0.1 0 0.1 0 0.2 0 0.1 0 0.2-0.1 0.1-0.2 0.2l-4.6 4.7q-0.2 0.2-0.4 0.3-0.2 0.1-0.5 0-0.3 0-0.5-0.1-0.2-0.1-0.4-0.3c-1.9-2.2-2.7-3.3-5.1-6-1.5-1.6-6.8-7.1-8.9-9.4-2-2.3 0.3-4.3 1.4-3.5 4.8 3.5 9.7 6.3 12.3 6.8q0.2 0 0.3 0.1 0.2 0 0.4 0.1 0.1 0.1 0.2 0.2 0.2 0.1 0.3 0.2z"/>
		<path class="s8" d="m96 194.7l-2.2-7-11.2 6 4.7 5.8 8.7-4.8z"/>
		<path class="s7" d="m191.8 123.5c0 0-38.8 5.2-46.8 15.8-13.9 18.5-58 49-58 49l4 12.9c0 0 60.1-25.3 70.7-46.5 19.7-1.5 51.6 4.9 56.6-7.2 3.4-8.1 1.7-20.3 1.7-20.3z"/>
		<path class="s8" d="m191.8 123.5c0 0-38.8 5.2-46.8 15.8-13.9 18.5-58 49-58 49l4 12.9c0 0 60.1-25.3 70.7-46.5 19.7-1.5 51.6 4.9 56.6-7.2 3.4-8.1 1.7-20.3 1.7-20.3z"/>
		<path class="s7" d="m91.8 203.1l-8.6-13.8 5.5-4.5 8.2 14.8-5.1 3.5z"/>
		<path fill-rule="evenodd" class="s7" d="m76 194q-0.1-0.2-0.2-0.4-0.1-0.1-0.1-0.3-0.1-0.2-0.1-0.4 0-0.1 0.1-0.2 0-0.1 0.1-0.2 0-0.2 0.1-0.2 0.1-0.1 0.3-0.2 0 0 0.1 0 0.1-0.1 0.2-0.1 0 0 0.1 0.1 0.1 0 0.2 0c0.8 0.5 1.2 3 1.2 3.2q0 0.1 0 0.1 0 0 0 0 0 0.1 0 0.1 0 0-0.1 0 0 0 0 0 0 0-0.1 0 0 0 0 0 0 0 0 0-0.3-0.1-0.5-0.3-0.1-0.1-0.3-0.3-0.2-0.1-0.4-0.3-0.2-0.2-0.4-0.4-0.1-0.1-0.2-0.2zm0.6-1.5q0 0 0 0-0.1 0-0.1 0-0.1 0-0.1 0 0 0-0.1 0-0.1 0-0.1 0.1-0.1 0-0.1 0.1-0.1 0.1-0.1 0.2 0 0-0.1 0.1c0 0.5 0.6 1.2 1.7 2-0.1-1-0.5-2.3-1-2.5z"/>
		<path fill-rule="evenodd" class="s7" d="m77.7 195.5q0 0 0 0 0-0.1 0-0.1 0 0 0 0c-0.2-0.8 0.2-2.7 0.9-3.1q0.1-0.1 0.2-0.1 0.1 0 0.3 0 0.1 0 0.2 0.1 0.1 0 0.1 0.1 0.1 0.1 0.2 0.2 0 0 0.1 0.1 0 0.1 0 0.2 0.1 0.1 0 0.2c0 1-1.7 2.4-1.8 2.4q0 0 0 0 0 0 0 0-0.1 0-0.1 0 0 0 0 0h-0.1q0 0 0 0zm1.5-2.8q0-0.1-0.1-0.1 0 0-0.1 0 0 0-0.1 0-0.1 0-0.1 0-0.2 0.3-0.4 0.6-0.1 0.2-0.2 0.6-0.1 0.3-0.2 0.6 0 0.3 0 0.7c0.5-0.5 1.4-1.4 1.4-2q0 0 0-0.1 0 0 0-0.1 0 0-0.1-0.1 0 0 0 0z"/>
		<path class="s15" d="m155.4 102.8l-5.9-5.6-4.1 8c0 0 7.2 3.9 9 2.1z"/>
		<path class="s15" d="m141.7 97.1l-1.1 6.6 4.8 1.4 4.1-7.9-7.8-0.1z"/>
		<path class="s10" d="m219.6 59.2c-0.7-2-2-3.9-4.1-3.9-0.5 0-3 0-3.5 0.1-2.4 0.1-5.4 0.2-8.3 0.6q-2.1 0.2-4.1 0.5-2.1 0.3-4.2 0.7-2.1 0.4-4.1 0.8-2.1 0.4-4.1 0.9c-2.5 0.7-4.9 1.5-6.8 2.2h-0.1q-0.8 0.4-1.5 0.9-0.7 0.6-1.1 1.3-0.5 0.8-0.7 1.6-0.2 0.9-0.1 1.8c1 10.5 3.5 39.9 2 55.1l41 5.4c2.5-7.8 3.5-25.7 3.5-40.3 0.1-8.8-0.7-19.7-3.8-27.7z"/>
		<path class="s8" d="m223.2 79.3l-0.8 0.1-5.2 4.5-5.3 18.5-18.5 3.3c4.5 2.2 17.5 2.7 25.2 0.6q1-0.2 1.8-0.8 0.8-0.5 1.4-1.3 0.6-0.8 1-1.7 0.3-0.9 0.4-1.9c0.2-4.6 0.2-9.3 0.2-13.7 0-2.4 0-5-0.2-7.6z"/>
		<path class="s7" d="m156.9 85.4c0 0 3.6-2 10.4-0.1q1.4 0.5 2.8 0.7 1.5 0.2 3 0.1 1.4 0 2.9-0.3 1.4-0.3 2.8-0.8l2.5 4.7-23 0.8z"/>
		<path class="s16" d="m156.9 85.4c0 0 3.6-2 10.4-0.1q1.4 0.5 2.8 0.7 1.5 0.2 3 0.1 1.4 0 2.9-0.3 1.4-0.3 2.8-0.8l2.5 4.7-23 0.8z"/>
		<path class="s7" d="m156.9 85.4c0 0-0.2-1.5-4.5-1.6-8.8-0.3-12.5-2.6-12.5-2.6l-0.4 2.3 18.8 7z"/>
		<path class="s16" d="m156.9 85.4c0 0-0.2-1.5-4.5-1.6-8.8-0.3-12.5-2.6-12.5-2.6l-0.4 2.3 18.8 7z"/>
		<path class="s7" d="m164.3 119.1l-16.3-4.6q-0.2-0.1-0.3-0.1-0.1-0.1-0.2-0.2-0.2-0.2-0.2-0.3-0.1-0.1-0.2-0.3l-8.3-30.1q-0.1-0.3 0-0.5 0-0.2 0.2-0.3 0.2-0.2 0.4-0.3 0.2 0 0.4 0.1l15.5 4.4z"/>
		<path class="s7" d="m189.6 120.5l-21.4-1.2-8.9-32.2 21.7 1.2q0.2 0 0.4 0.1 0.1 0.1 0.3 0.2 0.1 0.1 0.2 0.2 0.1 0.2 0.2 0.4l8.3 30.3q0.1 0.2 0.1 0.4 0 0.2-0.2 0.4-0.1 0.1-0.3 0.2-0.2 0.1-0.4 0z"/>
		<path class="s7" d="m164.3 119.1l3.9 0.3-8.9-32.3-3.9-0.2 8.9 32.2z"/>
		<path class="s12" d="m164.3 119.1l3.9 0.3-8.9-32.3-3.9-0.2 8.9 32.2z"/>
		<path class="s15" d="m221.6 66.5c0.2 1.5 0.4 2.7 0.5 4 0.1 1.4 0.1 2.6 0.2 3.9q0.2 3.9-0.1 7.8-0.1 2-0.3 4-0.2 2-0.6 3.9-0.4 2-0.9 3.9-0.4 2-1.1 3.9c0 0.1-0.2 0.5-0.3 0.8q0 0.1-0.1 0.2 0 0.2-0.1 0.3-0.1 0.1-0.1 0.2-0.1 0.1-0.1 0.3-0.2 0.2-0.3 0.4-0.1 0.2-0.3 0.4-0.1 0.2-0.3 0.3-0.1 0.2-0.3 0.4-0.2 0.3-0.5 0.6-0.3 0.3-0.6 0.5-0.3 0.3-0.7 0.5-0.3 0.3-0.6 0.5-0.6 0.3-1.1 0.6-0.6 0.2-1.1 0.5-0.6 0.2-1.2 0.4-0.6 0.2-1.2 0.4-1 0.3-2 0.5-1 0.2-2 0.3-1 0.2-2 0.3-1.1 0.1-2.1 0.1-1.9 0.1-3.8 0.1-1.9 0-3.9-0.1-1.9-0.1-3.8-0.3-1.9-0.2-3.8-0.5l0.3-5.6q1.8-0.1 3.5-0.3 1.8-0.2 3.5-0.5 1.8-0.2 3.5-0.5 1.8-0.3 3.5-0.7 0.8-0.1 1.6-0.3 0.8-0.2 1.5-0.4 0.8-0.2 1.6-0.5 0.7-0.2 1.5-0.5 0.3-0.1 0.5-0.3 0.3-0.1 0.6-0.2 0.2-0.2 0.5-0.3 0.2-0.2 0.5-0.4c0.2-0.2 0.3-0.3 0.3-0.3q-0.1-0.1-0.1 0 0 0.1 0 0.1-0.1 0-0.1 0 0 0 0 0 0 0 0 0c0 0.1-0.1 0.2 0 0q0.2-0.7 0.3-1.6 0.2-0.8 0.3-1.6 0.2-0.8 0.3-1.6 0.1-0.8 0.2-1.6 0.3-3.3 0.4-6.8 0-3.4-0.1-6.8-0.1-1.8-0.2-3.5l-0.2-1.7-0.1-1.6z"/>
		<path class="s10" d="m221.6 57.7c-4.8-3.7-11.5-3.6-14.3 6.2-1.8 6.4-0.8 19.2-0.8 19.2l19.4-0.4c2.2-10.2 0.7-21.3-4.3-25z"/>
		<path class="s15" d="m201.8 39.7l-4.1 4.8-5.5 6.5q0.1 0.3 0.2 0.6 0.1 0.3 0.2 0.7 0.1 0.3 0.2 0.6 0.1 0.3 0.2 0.7c1 3.4-2.1 4.1-5 5.9 0 0-4.2 5.6 6 4 10.3-1.7 11.8-7 11.8-7-4.7-3.2-4.3-10.8-4-16.8z"/>
		<path class="s7" d="m197.1 62.8q-0.4 0.1-0.8 0.2-0.4 0.1-0.7 0.2-0.4 0.1-0.8 0.2-0.4 0-0.8 0.1-0.5 0.1-1.1 0.1-0.5 0.1-1 0.1-0.5 0.1-1 0.1-0.6 0-1.1-0.1l-0.2 1.2c-0.4 0.3-0.5 1.7 1.8 3.3 2.5-0.5 6.4-2.6 5.7-5.4z"/>
		<path class="s10" d="m203.9 54.8c0 0-1.9 5.1-9 7 1 2.8-0.6 5.9-0.6 5.9 0 0 9.8-3.4 11.9-6.7 2.1-3.4 1.2-5.4 1.2-5.4q-0.4-0.2-0.8-0.3-0.5-0.2-0.9-0.3-0.4-0.1-0.9-0.2-0.4 0-0.9 0z"/>
		<path class="s10" d="m190 67.5c0 0 0.1-4.3 1.3-5.8-0.6-1.9-0.3-3 0.7-4.6q-0.8 0.1-1.5 0.4-0.8 0.3-1.4 0.8-0.7 0.4-1.3 1-0.6 0.6-1.1 1.2c-1.3 2.3-0.4 7.1 3.3 7z"/>
		<path class="s8" d="m192.2 51q0.1 0.3 0.2 0.6 0.1 0.3 0.2 0.7 0.1 0.3 0.2 0.6 0.1 0.3 0.2 0.7c2.4-0.9 5.2-4.1 5-6.6q0-0.4 0-0.7 0-0.3-0.1-0.6 0-0.3-0.1-0.6 0-0.3-0.1-0.6z"/>
		<path class="s10" d="m178.6 28.2c-1.9 4.1-0.3 13.7 8.9 9.8 9.1-3.8-5.7-16.4-8.9-9.8z"/>
		<path class="s10" d="m198.7 36.6c-0.8 1.8-0.1 5.9 3.8 4.3 4-1.7-2.5-7.1-3.8-4.3z"/>
		<path class="s10" d="m199.8 39.4c-1.3 1.5-1.7 5.7 2.6 5.1 4.2-0.5-0.5-7.5-2.6-5.1z"/>
		<path class="s15" d="m200.8 28.5c1.7 7.7 3 12.2 0.3 17.3-0.9 1.6-2.2 3.1-3.8 4-1.6 1-3.4 1.5-5.3 1.6-1.9 0-3.7-0.5-5.3-1.5-1.6-1-2.9-2.3-3.8-4-3.6-6.3-5.7-17.9 0.8-23.3 1.4-1.2 3.1-2 4.9-2.3 1.8-0.4 3.6-0.3 5.4 0.3 1.7 0.6 3.2 1.7 4.4 3 1.2 1.4 2 3.1 2.4 4.9z"/>
		<path class="s10" d="m199.4 19.5c-1.6-6.9-10.8-4.5-15.5-0.4-4.7 4.2-5.9 7.5-9.9 9.9 7.4 1 17.7-1.9 19.6-4.3q0 0.9 0.3 1.8 0.2 0.9 0.6 1.7 0.4 0.8 1 1.5 0.6 0.7 1.3 1.2 0 0.8-0.1 1.7 0 0.8 0 1.6 0 0.8 0 1.6 0.1 0.8 0.1 1.6l3.3-1.7 3.9-1.6c5.8-9.7 2.4-15.6-4.6-14.6z"/>
		<path class="s4" d="m191.1 33.8q-0.1 0-0.1 0 0 0-0.1 0 0-0.1 0-0.1-0.1-0.1-0.1-0.1 0-0.1 0-0.1 0-0.1 0.1-0.1 0 0 0-0.1 0.1 0 0.1 0l10.9-1.9q0 0 0.1 0 0 0.1 0.1 0.1 0 0 0.1 0.1 0 0 0 0.1 0 0 0 0.1 0 0-0.1 0.1 0 0 0 0-0.1 0.1-0.1 0.1l-10.9 1.8z"/>
		<path fill-rule="evenodd" class="s4" d="m189.6 40.3c-2 0-4.2-2.2-4.9-4.8q-0.1-0.5-0.2-1-0.1-0.5 0-1 0.1-0.5 0.2-1 0.2-0.5 0.5-0.9 0.2-0.2 0.4-0.4 0.2-0.2 0.5-0.3 0.2-0.2 0.5-0.2 0.3-0.1 0.6-0.1c2 0 4.2 2.2 4.9 4.8q0.2 0.4 0.2 0.9 0.1 0.6 0 1.1 0 0.5-0.2 1-0.2 0.4-0.5 0.9-0.1 0.2-0.4 0.4-0.2 0.2-0.4 0.3-0.3 0.1-0.6 0.2-0.3 0.1-0.6 0.1zm-2.5-9.1q-0.2 0-0.4 0-0.2 0.1-0.4 0.2-0.2 0.1-0.4 0.2-0.2 0.1-0.3 0.3-0.3 0.4-0.4 0.8-0.1 0.4-0.2 0.9 0 0.4 0 0.9 0.1 0.4 0.2 0.8c0.7 2.5 2.6 4.4 4.4 4.4q0.3 0 0.5 0 0.2-0.1 0.4-0.2 0.2-0.1 0.4-0.2 0.2-0.1 0.3-0.3 0.2-0.4 0.4-0.8 0.1-0.5 0.2-0.9 0-0.4 0-0.9-0.1-0.4-0.2-0.9c-0.7-2.4-2.7-4.3-4.5-4.3z"/>
		<path class="s4" d="m183.4 37q0 0 0 0 0 0 0 0 0 0-0.1 0 0 0 0 0 0 0-0.1-0.1 0 0 0-0.1 0 0 0-0.1 0 0 0-0.1 0.2-0.2 0.4-0.4 0.2-0.1 0.5-0.2 0.3-0.1 0.6-0.1 0.2-0.1 0.5 0 0.1 0 0.1 0 0.1 0.1 0.1 0.1 0 0.1 0 0.1 0 0.1 0 0.1 0 0.1 0 0.1-0.1 0.1-0.1 0.1 0 0-0.1 0 0 0-0.1 0c0 0-1-0.2-1.5 0.5q0 0 0 0 0 0.1-0.1 0.1 0 0 0 0 0 0-0.1 0z"/>
		<path class="s15" d="m205.4 34.4q-0.1 0.8-0.4 1.5-0.3 0.6-0.7 1.3-0.5 0.6-1 1.1-0.5 0.6-1.1 1c-2.2 1.5-3.9-0.3-3.8-2.9 0.1-2.3 1.3-5.9 3.7-6.3 2.4-0.5 3.9 1.9 3.3 4.3z"/>
		<path class="s10" d="m188.4 35c0.3 0.6 0.3 1.2-0.1 1.4-0.4 0.2-0.9-0.1-1.2-0.7-0.3-0.6-0.2-1.2 0.1-1.4 0.4-0.2 0.9 0.1 1.2 0.7z"/>
		<path class="s10" d="m182.1 37.6c0.3 0.6 0.2 1.2-0.2 1.4-0.4 0.2-0.9-0.2-1.2-0.8-0.2-0.5-0.1-1.2 0.3-1.3 0.3-0.2 0.8 0.1 1.1 0.7z"/>
		<path class="s10" d="m178.9 34.1q0 0 0.1-0.1 0 0 0.1 0 0-0.1 0-0.1 0 0 0.1-0.1 0.1-0.3 0.2-0.6 0.2-0.3 0.5-0.6 0.2-0.3 0.5-0.5 0.3-0.2 0.6-0.3 0.1 0 0.2-0.1 0 0 0.1-0.1 0 0 0-0.1 0-0.1 0-0.2 0 0-0.1-0.1 0 0-0.1-0.1-0.1 0-0.1 0-0.1 0-0.2 0-0.4 0.2-0.8 0.4-0.4 0.3-0.7 0.6-0.3 0.3-0.5 0.7-0.2 0.4-0.4 0.8 0 0.1 0 0.2 0 0.1 0.1 0.1 0 0.1 0 0.1 0.1 0.1 0.2 0.1 0 0 0 0 0.1 0 0.1 0 0 0 0 0 0.1 0 0.1 0z"/>
		<path fill-rule="evenodd" class="s4" d="m181.9 42.3c-1.8 0-3.8-2-4.4-4.3q-0.2-0.5-0.3-0.9 0-0.5 0-1 0.1-0.4 0.3-0.9 0.1-0.4 0.4-0.8 0.1-0.2 0.3-0.4 0.2-0.1 0.5-0.2 0.2-0.2 0.5-0.2 0.2-0.1 0.5-0.1c1.8 0 3.8 2 4.5 4.4q0.1 0.4 0.2 0.9 0 0.4 0 0.9-0.1 0.5-0.3 0.9-0.1 0.4-0.4 0.8-0.1 0.2-0.3 0.4-0.2 0.2-0.5 0.3-0.2 0.1-0.5 0.2-0.2 0-0.5 0zm-2.2-8.2q-0.3 0-0.4 0-0.2 0-0.4 0.1-0.2 0.1-0.4 0.2-0.1 0.2-0.2 0.3-0.2 0.4-0.4 0.8-0.1 0.3-0.1 0.7-0.1 0.4 0 0.8 0 0.5 0.1 0.8c0.6 2.2 2.4 4 4 4q0.2 0 0.4-0.1 0.2 0 0.4-0.1 0.2-0.1 0.4-0.2 0.1-0.1 0.2-0.3 0.2-0.3 0.4-0.7 0.1-0.4 0.1-0.8 0.1-0.4 0-0.8 0-0.4-0.1-0.8c-0.6-2.2-2.4-3.9-4-4z"/>
		<path class="s17" d="m184.2 36.7q0 0.7-0.1 1.3-0.1 0.7-0.2 1.4-0.1 0.7-0.2 1.3-0.2 0.7-0.4 1.3 0.4 0.1 0.7 0.1 0.3 0 0.7 0 0.3-0.1 0.6-0.2 0.3-0.1 0.6-0.3z"/>
		<path class="s10" d="m187.2 43.8q0.6-0.1 1.1-0.4 0.5-0.2 0.9-0.6 0.4-0.3 0.8-0.7 0.3-0.5 0.6-1 0 0 0 0 0-0.1 0-0.1 0-0.1 0-0.1-0.1 0-0.1 0 0 0-0.1 0 0 0 0 0-0.1 0-0.1 0 0 0 0 0.1-0.3 0.5-0.7 1-0.5 0.4-0.9 0.8-0.5 0.3-1.1 0.5-0.6 0.3-1.2 0.4 0 0 0 0-0.1 0-0.1 0 0 0.1 0 0.1 0 0 0 0.1 0 0 0 0 0 0.1 0 0.1 0.1 0 0.1 0 0.1 0 0.1 0 0.1 0 0.2 0 0.1 0 0.2-0.1 0 0 0.1 0 0.1 0 0.2-0.1z"/>
		<path class="s10" d="m189.4 30.3q0 0 0 0 0 0 0 0 0.1-0.1 0.1-0.1 0 0 0 0 0-0.1 0-0.1 0.1-0.1 0-0.2 0-0.1 0-0.1-0.1-0.1-0.1-0.1-0.4-0.3-0.8-0.4-0.5-0.1-0.9-0.2-0.5 0-0.9 0.1-0.4 0.1-0.8 0.3-0.1 0-0.2 0.1 0 0 0 0.1-0.1 0.1 0 0.1 0 0.1 0 0.2 0 0 0.1 0.1 0.1 0 0.1 0.1 0.1 0 0.2 0 0 0 0.1-0.1 0.3-0.1 0.7-0.2 0.3 0 0.7 0 0.3 0 0.6 0.1 0.4 0.1 0.7 0.3 0 0 0.1 0.1 0 0 0.1 0 0 0 0.1 0 0-0.1 0.1-0.1z"/>
		<path class="s15" d="m189.3 100.3l-6.3-2.6 0.2 8c0 0 6.2 2.5 7.3-0.8z"/>
		<path class="s15" d="m175.2 99.5l1.4 5.7 6.6 0.5-0.2-8-7.8 1.8z"/>
	</g>
</svg>