<svg version="1.2" xmlns="http://www.w3.org/2000/svg" viewBox="0 0 546 407" width="546" height="407">
	<title>discover-svg</title>
	<style>
		.s0 { fill: #e0e0e0 } 
		.s1 { fill: #ebebeb } 
		.s2 { fill: #263238 } 
		.s3 { fill: #455a64 } 
		.s4 { fill: #fafafa } 
		.s5 { fill: #083fe3 } 
		.s6 { fill: #ffffff } 
		.s7 { fill: #ffbe9d } 
		.s8 { opacity: .4;fill: #000000 } 
		.s9 { fill: #eb996e } 
	</style>
	<g id="freepik--background-complete--inject-2">
		<path fill-rule="evenodd" class="s0" d="m-13.8 168.3c0-6.4 3.4-10.5 8.1-10.5 4.8 0 8.2 4 8.2 10.5 0 6.6-3.4 10.6-8.2 10.6-4.8 0-8.1-4-8.1-10.6zm14.7 0c0-5.7-2.6-9.1-6.6-9.1-3.9 0-6.6 3.4-6.6 9.1 0 5.8 2.7 9.2 6.6 9.2 3.9 0 6.6-3.4 6.6-9.2z"/>
		<path class="s0" d="m44.9 158v20.8h-1.5v-19.5h-5v-1.3z"/>
		<path fill-rule="evenodd" class="s1" d="m84.2 168.3c0-6.4 3.3-10.5 8.1-10.5 4.8 0 8.1 4 8.1 10.5 0 6.6-3.3 10.6-8.1 10.6-4.8 0-8.1-4-8.1-10.6zm14.7 0c0-5.7-2.7-9.1-6.6-9.1-3.9 0-6.6 3.4-6.6 9.1 0 5.8 2.7 9.2 6.6 9.2 3.9 0 6.6-3.4 6.6-9.2z"/>
		<path fill-rule="evenodd" class="s0" d="m133.2 168.3c0-6.4 3.3-10.5 8.1-10.5 4.8 0 8.1 4 8.1 10.5 0 6.6-3.3 10.6-8.1 10.6-4.8 0-8.1-4-8.1-10.6zm14.7 0c0-5.7-2.7-9.1-6.6-9.1-3.9 0-6.6 3.4-6.6 9.1 0 5.8 2.7 9.2 6.6 9.2 3.9 0 6.6-3.4 6.6-9.2z"/>
		<path class="s0" d="m190.9 158v20.8h-1.5v-19.5h-5.1v-1.3z"/>
		<path fill-rule="evenodd" class="s1" d="m231.1 168.3c0-6.4 3.4-10.5 8.2-10.5 4.7 0 8.1 4 8.1 10.5 0 6.6-3.4 10.6-8.1 10.6-4.8 0-8.2-4-8.2-10.6zm14.8 0c0-5.7-2.7-9.1-6.6-9.1-4 0-6.7 3.4-6.7 9.1 0 5.8 2.7 9.2 6.7 9.2 3.9 0 6.6-3.4 6.6-9.2z"/>
		<path fill-rule="evenodd" class="s0" d="m280.1 168.3c0-6.4 3.4-10.5 8.1-10.5 4.8 0 8.2 4 8.2 10.5 0 6.6-3.4 10.6-8.2 10.6-4.7 0-8.1-4-8.1-10.6zm14.8 0c-0.1-5.7-2.7-9.1-6.7-9.1-3.9 0-6.6 3.4-6.6 9.1 0 5.8 2.7 9.2 6.6 9.2 4 0 6.6-3.4 6.6-9.2z"/>
		<path fill-rule="evenodd" class="s0" d="m-13.8 72.7c0-6.5 3.4-10.5 8.1-10.5 4.8 0 8.2 4 8.2 10.5 0 6.5-3.4 10.5-8.2 10.5-4.8 0-8.1-4-8.1-10.5zm14.7 0c0-5.8-2.6-9.1-6.6-9.1-3.9 0-6.6 3.3-6.6 9.1 0 5.8 2.7 9.1 6.6 9.1 3.9 0 6.6-3.3 6.6-9.1z"/>
		<path class="s0" d="m44.9 62.3v20.8h-1.5v-19.4h-5v-1.4z"/>
		<path fill-rule="evenodd" class="s1" d="m84.2 72.7c0-6.5 3.3-10.5 8.1-10.5 4.8 0 8.1 4 8.1 10.5 0 6.5-3.3 10.5-8.1 10.5-4.8 0-8.1-4-8.1-10.5zm14.7 0c0-5.8-2.7-9.1-6.6-9.1-3.9 0-6.6 3.3-6.6 9.1 0 5.8 2.7 9.1 6.6 9.1 3.9 0 6.6-3.3 6.6-9.1z"/>
		<path fill-rule="evenodd" class="s0" d="m133.2 72.7c0-6.5 3.3-10.5 8.1-10.5 4.8 0 8.1 4 8.1 10.5 0 6.5-3.3 10.5-8.1 10.5-4.8 0-8.1-4-8.1-10.5zm14.7 0c0-5.8-2.7-9.1-6.6-9.1-3.9 0-6.6 3.3-6.6 9.1 0 5.8 2.7 9.1 6.6 9.1 3.9 0 6.6-3.3 6.6-9.1z"/>
		<path class="s0" d="m190.9 62.3v20.8h-1.5v-19.4h-5.1v-1.4z"/>
		<path fill-rule="evenodd" class="s1" d="m231.1 72.7c0-6.5 3.4-10.5 8.2-10.5 4.7 0 8.1 4 8.1 10.5 0 6.5-3.4 10.5-8.1 10.5-4.8 0-8.2-4-8.2-10.5zm14.8 0c0-5.8-2.7-9.1-6.6-9.1-4 0-6.7 3.3-6.7 9.1 0 5.8 2.7 9.1 6.7 9.1 3.9 0 6.6-3.3 6.6-9.1z"/>
		<path fill-rule="evenodd" class="s0" d="m280.1 72.7c0-6.5 3.4-10.5 8.1-10.5 4.8 0 8.2 4 8.2 10.5 0 6.5-3.4 10.5-8.2 10.5-4.7 0-8.1-4-8.1-10.5zm14.8 0c-0.1-5.8-2.7-9.1-6.7-9.1-3.9 0-6.6 3.3-6.6 9.1 0 5.8 2.7 9.1 6.6 9.1 4 0 6.6-3.3 6.6-9.1z"/>
		<path fill-rule="evenodd" class="s0" d="m-13.8 119.3c0-6.5 3.4-10.6 8.1-10.6 4.8 0 8.2 4 8.2 10.6 0 6.5-3.4 10.5-8.2 10.5-4.8 0-8.1-4.1-8.1-10.5zm14.7 0c0-5.8-2.6-9.2-6.6-9.2-3.9 0-6.6 3.4-6.6 9.2 0 5.7 2.7 9.1 6.6 9.1 3.9 0 6.6-3.4 6.6-9.1z"/>
		<path fill-rule="evenodd" class="s1" d="m35.2 119.3c0-6.5 3.3-10.6 8.1-10.6 4.8 0 8.1 4 8.1 10.6 0 6.5-3.3 10.5-8.1 10.5-4.8 0-8.1-4.1-8.1-10.5zm14.7 0c0-5.8-2.7-9.2-6.6-9.2-3.9 0-6.6 3.4-6.6 9.2 0 5.7 2.7 9.1 6.6 9.1 3.9 0 6.6-3.4 6.6-9.1z"/>
		<path fill-rule="evenodd" class="s0" d="m84.2 119.3c0-6.5 3.3-10.6 8.1-10.6 4.8 0 8.1 4 8.1 10.6 0 6.5-3.3 10.5-8.1 10.5-4.8 0-8.1-4.1-8.1-10.5zm14.7 0c0-5.8-2.7-9.2-6.6-9.2-3.9 0-6.6 3.4-6.6 9.2 0 5.7 2.7 9.1 6.6 9.1 3.9 0 6.6-3.4 6.6-9.1z"/>
		<path class="s0" d="m142.9 108.9v20.7h-1.5v-19.4h-5.1v-1.3z"/>
		<path fill-rule="evenodd" class="s1" d="m181.1 120.5c0-6.5 3.4-10.5 8.2-10.5 4.7 0 8.1 4 8.1 10.5 0 6.5-3.4 10.6-8.1 10.6-4.8 0-8.2-4.1-8.2-10.6zm14.8 0c0-5.8-2.7-9.1-6.6-9.1-4 0-6.7 3.3-6.7 9.1 0 5.8 2.7 9.2 6.7 9.2 3.9 0 6.6-3.4 6.6-9.2z"/>
		<path fill-rule="evenodd" class="s0" d="m231.1 119.3c0-6.5 3.4-10.6 8.2-10.6 4.7 0 8.1 4 8.1 10.6 0 6.5-3.4 10.5-8.1 10.5-4.8 0-8.2-4.1-8.2-10.5zm14.8 0c0-5.8-2.7-9.2-6.6-9.2-4 0-6.7 3.4-6.7 9.2 0 5.7 2.7 9.1 6.7 9.1 3.9 0 6.6-3.4 6.6-9.1z"/>
		<path class="s0" d="m289.9 108.9v20.7h-1.5v-19.4h-5.1v-1.3z"/>
		<path fill-rule="evenodd" class="s0" d="m-13.8-18.7c0-6.4 3.4-10.5 8.1-10.5 4.8 0 8.2 4 8.2 10.5 0 6.6-3.4 10.6-8.2 10.6-4.8 0-8.1-4.1-8.1-10.6zm14.7 0c0-5.7-2.6-9.1-6.6-9.1-3.9 0-6.6 3.4-6.6 9.1 0 5.8 2.7 9.2 6.6 9.2 3.9 0 6.6-3.4 6.6-9.2z"/>
		<path class="s0" d="m44.9-29v20.7h-1.5v-19.4h-5v-1.3z"/>
		<path fill-rule="evenodd" class="s1" d="m84.2-18.7c0-6.4 3.3-10.5 8.1-10.5 4.8 0 8.1 4 8.1 10.5 0 6.6-3.3 10.6-8.1 10.6-4.8 0-8.1-4.1-8.1-10.6zm14.7 0c0-5.7-2.7-9.1-6.6-9.1-3.9 0-6.6 3.4-6.6 9.1 0 5.8 2.7 9.2 6.6 9.2 3.9 0 6.6-3.4 6.6-9.2z"/>
		<path fill-rule="evenodd" class="s0" d="m133.2-18.7c0-6.4 3.3-10.5 8.1-10.5 4.8 0 8.1 4 8.1 10.5 0 6.6-3.3 10.6-8.1 10.6-4.8 0-8.1-4.1-8.1-10.6zm14.7 0c0-5.7-2.7-9.1-6.6-9.1-3.9 0-6.6 3.4-6.6 9.1 0 5.8 2.7 9.2 6.6 9.2 3.9 0 6.6-3.4 6.6-9.2z"/>
		<path class="s0" d="m190.9-29v20.7h-1.5v-19.4h-5.1v-1.3z"/>
		<path fill-rule="evenodd" class="s1" d="m231.1-18.7c0-6.4 3.4-10.5 8.2-10.5 4.7 0 8.1 4 8.1 10.5 0 6.6-3.4 10.6-8.1 10.6-4.8 0-8.2-4.1-8.2-10.6zm14.8 0c0-5.7-2.7-9.1-6.6-9.1-4 0-6.7 3.4-6.7 9.1 0 5.8 2.7 9.2 6.7 9.2 3.9 0 6.6-3.4 6.6-9.2z"/>
		<path fill-rule="evenodd" class="s0" d="m280.1-18.7c0-6.4 3.4-10.5 8.1-10.5 4.8 0 8.2 4 8.2 10.5 0 6.6-3.4 10.6-8.2 10.6-4.7 0-8.1-4.1-8.1-10.6zm14.8 0c-0.1-5.7-2.7-9.1-6.7-9.1-3.9 0-6.6 3.4-6.6 9.1 0 5.8 2.7 9.2 6.6 9.2 4 0 6.6-3.4 6.6-9.2z"/>
		<path fill-rule="evenodd" class="s0" d="m-13.8 27.9c0-6.5 3.4-10.5 8.1-10.5 4.8 0 8.2 4 8.2 10.5 0 6.5-3.4 10.5-8.2 10.5-4.8 0-8.1-4-8.1-10.5zm14.7 0c0-5.8-2.6-9.1-6.6-9.1-3.9 0-6.6 3.3-6.6 9.1 0 5.8 2.7 9.1 6.6 9.1 3.9 0 6.6-3.3 6.6-9.1z"/>
		<path fill-rule="evenodd" class="s1" d="m35.2 27.9c0-6.5 3.3-10.5 8.1-10.5 4.8 0 8.1 4 8.1 10.5 0 6.5-3.3 10.5-8.1 10.5-4.8 0-8.1-4-8.1-10.5zm14.7 0c0-5.8-2.7-9.1-6.6-9.1-3.9 0-6.6 3.3-6.6 9.1 0 5.8 2.7 9.1 6.6 9.1 3.9 0 6.6-3.3 6.6-9.1z"/>
		<path fill-rule="evenodd" class="s0" d="m84.2 27.9c0-6.5 3.3-10.5 8.1-10.5 4.8 0 8.1 4 8.1 10.5 0 6.5-3.3 10.5-8.1 10.5-4.8 0-8.1-4-8.1-10.5zm14.7 0c0-5.8-2.7-9.1-6.6-9.1-3.9 0-6.6 3.3-6.6 9.1 0 5.8 2.7 9.1 6.6 9.1 3.9 0 6.6-3.3 6.6-9.1z"/>
		<path class="s0" d="m142.9 17.5v20.8h-1.5v-19.4h-5.1v-1.4z"/>
		<path fill-rule="evenodd" class="s1" d="m181.1 29.2c0-6.5 3.4-10.5 8.2-10.5 4.7 0 8.1 4 8.1 10.5 0 6.5-3.4 10.5-8.1 10.5-4.8 0-8.2-4-8.2-10.5zm14.8 0c0-5.8-2.7-9.1-6.6-9.1-4 0-6.7 3.3-6.7 9.1 0 5.8 2.7 9.1 6.7 9.1 3.9 0 6.6-3.3 6.6-9.1z"/>
		<path fill-rule="evenodd" class="s0" d="m231.1 27.9c0-6.5 3.4-10.5 8.2-10.5 4.7 0 8.1 4 8.1 10.5 0 6.5-3.4 10.5-8.1 10.5-4.8 0-8.2-4-8.2-10.5zm14.8 0c0-5.8-2.7-9.1-6.6-9.1-4 0-6.7 3.3-6.7 9.1 0 5.8 2.7 9.1 6.7 9.1 3.9 0 6.6-3.3 6.6-9.1z"/>
		<path class="s0" d="m289.9 17.5v20.8h-1.5v-19.4h-5.1v-1.4z"/>
		<path fill-rule="evenodd" class="s1" d="m329.5 168.3c0-6.4 3.3-10.5 8.1-10.5 4.8 0 8.1 4 8.1 10.5 0 6.6-3.3 10.6-8.1 10.6-4.8 0-8.1-4-8.1-10.6zm14.7 0c0-5.7-2.7-9.1-6.6-9.1-3.9 0-6.6 3.4-6.6 9.1 0 5.8 2.7 9.2 6.6 9.2 3.9 0 6.6-3.4 6.6-9.2z"/>
		<path fill-rule="evenodd" class="s0" d="m378.5 168.3c0-6.4 3.3-10.5 8.1-10.5 4.8 0 8.1 4 8.1 10.5 0 6.6-3.3 10.6-8.1 10.6-4.8 0-8.1-4-8.1-10.6zm14.7 0c0-5.7-2.7-9.1-6.6-9.1-3.9 0-6.6 3.4-6.6 9.1 0 5.8 2.7 9.2 6.6 9.2 3.9 0 6.6-3.4 6.6-9.2z"/>
		<path class="s0" d="m436.2 158v20.8h-1.6v-19.5h-5v-1.3z"/>
		<path fill-rule="evenodd" class="s1" d="m476.4 168.3c0-6.4 3.4-10.5 8.2-10.5 4.7 0 8.1 4 8.1 10.5 0 6.6-3.4 10.6-8.1 10.6-4.8 0-8.2-4-8.2-10.6zm14.8 0c0-5.7-2.7-9.1-6.6-9.1-3.9 0-6.6 3.4-6.6 9.1 0 5.8 2.7 9.2 6.6 9.2 3.9 0 6.6-3.4 6.6-9.2z"/>
		<path fill-rule="evenodd" class="s1" d="m329.5 72.7c0-6.5 3.3-10.5 8.1-10.5 4.8 0 8.1 4 8.1 10.5 0 6.5-3.3 10.5-8.1 10.5-4.8 0-8.1-4-8.1-10.5zm14.7 0c0-5.8-2.7-9.1-6.6-9.1-3.9 0-6.6 3.3-6.6 9.1 0 5.8 2.7 9.1 6.6 9.1 3.9 0 6.6-3.3 6.6-9.1z"/>
		<path fill-rule="evenodd" class="s0" d="m378.5 72.7c0-6.5 3.3-10.5 8.1-10.5 4.8 0 8.1 4 8.1 10.5 0 6.5-3.3 10.5-8.1 10.5-4.8 0-8.1-4-8.1-10.5zm14.7 0c0-5.8-2.7-9.1-6.6-9.1-3.9 0-6.6 3.3-6.6 9.1 0 5.8 2.7 9.1 6.6 9.1 3.9 0 6.6-3.3 6.6-9.1z"/>
		<path class="s0" d="m436.2 62.3v20.8h-1.6v-19.4h-5v-1.4z"/>
		<path fill-rule="evenodd" class="s1" d="m476.4 72.7c0-6.5 3.4-10.5 8.2-10.5 4.7 0 8.1 4 8.1 10.5 0 6.5-3.4 10.5-8.1 10.5-4.8 0-8.2-4-8.2-10.5zm14.8 0c0-5.8-2.7-9.1-6.6-9.1-3.9 0-6.6 3.3-6.6 9.1 0 5.8 2.7 9.1 6.6 9.1 3.9 0 6.6-3.3 6.6-9.1z"/>
		<path fill-rule="evenodd" class="s0" d="m329.5 119.3c0-6.5 3.3-10.6 8.1-10.6 4.8 0 8.1 4 8.1 10.6 0 6.5-3.3 10.5-8.1 10.5-4.8 0-8.1-4.1-8.1-10.5zm14.7 0c0-5.8-2.7-9.2-6.6-9.2-3.9 0-6.6 3.4-6.6 9.2 0 5.7 2.7 9.1 6.6 9.1 3.9 0 6.6-3.4 6.6-9.1z"/>
		<path class="s0" d="m388.2 108.9v20.7h-1.5v-19.4h-5.1v-1.3z"/>
		<path fill-rule="evenodd" class="s1" d="m426.4 120.5c0-6.5 3.4-10.5 8.1-10.5 4.8 0 8.2 4 8.2 10.5 0 6.5-3.4 10.6-8.2 10.6-4.7 0-8.1-4.1-8.1-10.6zm14.8 0c0-5.8-2.7-9.1-6.7-9.1-3.9 0-6.6 3.3-6.6 9.1 0 5.8 2.7 9.2 6.6 9.2 4 0 6.7-3.4 6.7-9.2z"/>
		<path fill-rule="evenodd" class="s0" d="m476.4 119.3c0-6.5 3.4-10.6 8.2-10.6 4.7 0 8.1 4 8.1 10.6 0 6.5-3.4 10.5-8.1 10.5-4.8 0-8.2-4.1-8.2-10.5zm14.8 0c0-5.8-2.7-9.2-6.6-9.2-3.9 0-6.6 3.4-6.6 9.2 0 5.7 2.7 9.1 6.6 9.1 3.9 0 6.6-3.4 6.6-9.1z"/>
		<path fill-rule="evenodd" class="s1" d="m329.5-18.7c0-6.4 3.3-10.5 8.1-10.5 4.8 0 8.1 4 8.1 10.5 0 6.6-3.3 10.6-8.1 10.6-4.8 0-8.1-4.1-8.1-10.6zm14.7 0c0-5.7-2.7-9.1-6.6-9.1-3.9 0-6.6 3.4-6.6 9.1 0 5.8 2.7 9.2 6.6 9.2 3.9 0 6.6-3.4 6.6-9.2z"/>
		<path fill-rule="evenodd" class="s0" d="m378.5-18.7c0-6.4 3.3-10.5 8.1-10.5 4.8 0 8.1 4 8.1 10.5 0 6.6-3.3 10.6-8.1 10.6-4.8 0-8.1-4.1-8.1-10.6zm14.7 0c0-5.7-2.7-9.1-6.6-9.1-3.9 0-6.6 3.4-6.6 9.1 0 5.8 2.7 9.2 6.6 9.2 3.9 0 6.6-3.4 6.6-9.2z"/>
		<path class="s0" d="m436.2-29v20.7h-1.6v-19.4h-5v-1.3z"/>
		<path fill-rule="evenodd" class="s1" d="m476.4-18.7c0-6.4 3.4-10.5 8.2-10.5 4.7 0 8.1 4 8.1 10.5 0 6.6-3.4 10.6-8.1 10.6-4.8 0-8.2-4.1-8.2-10.6zm14.8 0c0-5.7-2.7-9.1-6.6-9.1-3.9 0-6.6 3.4-6.6 9.1 0 5.8 2.7 9.2 6.6 9.2 3.9 0 6.6-3.4 6.6-9.2z"/>
		<path fill-rule="evenodd" class="s0" d="m329.5 27.9c0-6.5 3.3-10.5 8.1-10.5 4.8 0 8.1 4 8.1 10.5 0 6.5-3.3 10.5-8.1 10.5-4.8 0-8.1-4-8.1-10.5zm14.7 0c0-5.8-2.7-9.1-6.6-9.1-3.9 0-6.6 3.3-6.6 9.1 0 5.8 2.7 9.1 6.6 9.1 3.9 0 6.6-3.3 6.6-9.1z"/>
		<path class="s0" d="m388.2 17.5v20.8h-1.5v-19.4h-5.1v-1.4z"/>
		<path fill-rule="evenodd" class="s1" d="m426.4 29.2c0-6.5 3.4-10.5 8.1-10.5 4.8 0 8.2 4 8.2 10.5 0 6.5-3.4 10.5-8.2 10.5-4.7 0-8.1-4-8.1-10.5zm14.8 0c0-5.8-2.7-9.1-6.7-9.1-3.9 0-6.6 3.3-6.6 9.1 0 5.8 2.7 9.1 6.6 9.1 4 0 6.7-3.3 6.7-9.1z"/>
		<path fill-rule="evenodd" class="s0" d="m476.4 27.9c0-6.5 3.4-10.5 8.2-10.5 4.7 0 8.1 4 8.1 10.5 0 6.5-3.4 10.5-8.1 10.5-4.8 0-8.2-4-8.2-10.5zm14.8 0c0-5.8-2.7-9.1-6.6-9.1-3.9 0-6.6 3.3-6.6 9.1 0 5.8 2.7 9.1 6.6 9.1 3.9 0 6.6-3.3 6.6-9.1z"/>
	</g>
	<g id="freepik--Device--inject-2">
		<path class="s2" d="m51.6 51.2h372.9c8 0 14.6 6.5 14.6 14.6v236.7c0 8.1-6.6 14.6-14.6 14.6h-372.9c-8.1 0-14.6-6.5-14.6-14.6v-236.7c0-8.1 6.5-14.6 14.6-14.6z"/>
		<path class="s2" d="m20.2 297.4h435.6v5.5c0 2.3-0.5 4.6-1.4 6.8-0.9 2.2-2.2 4.1-3.8 5.8-1.7 1.6-3.6 2.9-5.8 3.8-2.2 0.9-4.5 1.4-6.8 1.4h-400c-2.3 0-4.7-0.5-6.8-1.4-2.2-0.9-4.1-2.2-5.8-3.8-1.6-1.7-3-3.6-3.8-5.8-0.9-2.2-1.4-4.5-1.4-6.8v-5.5z"/>
		<path class="s0" d="m47.8 61.8h379.3v224.5h-379.3z"/>
		<path class="s3" d="m198.4 297.4l5.4 8.6h76.1l5-8.6h-86.5z"/>
		<path class="s3" d="m58.9 69.4h357.9c1.8 0 3.3 1.5 3.3 3.3v209.6c0 1.8-1.5 3.3-3.3 3.3h-357.9c-1.8 0-3.3-1.5-3.3-3.3v-209.6c0-1.8 1.5-3.3 3.3-3.3z"/>
		<path class="s4" d="m55.6 85.2h364.5v200.4h-364.5z"/>
		<path class="s5" d="m85.5 77.7c0 1.2-0.7 2.3-1.8 2.7-1.1 0.5-2.3 0.2-3.2-0.6-0.8-0.8-1-2.1-0.6-3.2 0.5-1.1 1.5-1.8 2.7-1.8q0.6 0 1.1 0.2 0.6 0.3 1 0.7 0.4 0.4 0.6 0.9 0.2 0.6 0.2 1.1z"/>
		<path class="s5" d="m67.9 77.7c0 1.2-0.7 2.3-1.8 2.7-1.1 0.5-2.4 0.2-3.2-0.6-0.8-0.8-1.1-2.1-0.6-3.2 0.4-1.1 1.5-1.8 2.7-1.8q0.5 0 1.1 0.2 0.5 0.3 0.9 0.7 0.4 0.4 0.7 0.9 0.2 0.6 0.2 1.1z"/>
		<path class="s5" d="m76.3 77.7c0 1.2-0.7 2.3-1.8 2.7-1 0.5-2.3 0.2-3.1-0.6-0.9-0.8-1.1-2.1-0.6-3.2 0.4-1.1 1.5-1.8 2.6-1.8q0.6 0 1.2 0.2 0.5 0.3 0.9 0.7 0.4 0.4 0.6 0.9 0.3 0.6 0.2 1.1z"/>
		<path class="s2" d="m328.3 168.7l1.1-0.1c0.3 0 0.8-0.1 1.4-0.2q0.2-0.1 0.4-0.1 0.3-0.1 0.5-0.2 0.2 0 0.4-0.1 0.3-0.1 0.5-0.2 0.6-0.2 1.2-0.5 0.6-0.3 1.2-0.7 0.5-0.4 1-0.8 0.6-0.4 1-0.9 0.3-0.3 0.6-0.7 0.3-0.3 0.5-0.6 0.3-0.4 0.5-0.8 0.2-0.3 0.4-0.7 0.3-0.4 0.4-0.9 0.2-0.4 0.4-0.9 0.1-0.4 0.3-0.9 0.1-0.5 0.2-1c0.2-1.6 0.2-3.3-0.2-4.9-0.4-1.7-1.2-3.2-2.2-4.5-1-1.3-2.3-2.4-3.7-3.3-1.5-0.8-3.1-1.3-4.8-1.4-1-0.1-2-0.1-3-0.1h-9.6-14.2l-155.1 0.1q-2.1 0-4.1 0.7-1.9 0.7-3.5 2-1.7 1.4-2.7 3.2-1.1 1.8-1.5 3.8-0.2 0.7-0.2 1.3-0.1 0.7 0 1.4 0 0.7 0.1 1.4 0.1 0.6 0.2 1.3 0.5 1.9 1.7 3.6 1.1 1.7 2.7 2.9 1.6 1.2 3.5 1.9 1.9 0.6 4 0.6h5.3 41.2 69.8l47 0.1h12.8 3.3 1.1q0 0-1.1 0h-3.3l-12.8 0.1-47 0.1h-69.8-46.5q-0.7 0-1.4 0-0.7-0.1-1.4-0.2-0.7-0.2-1.3-0.4-0.7-0.2-1.3-0.5-1.3-0.6-2.4-1.4-1.1-0.9-2-2-1-1-1.6-2.3-0.6-1.2-1-2.6-0.4-1.4-0.4-2.8 0-1.4 0.2-2.8 0.3-1.4 0.9-2.7 0.6-1.3 1.5-2.5 0.9-1.1 2-2 1.1-1 2.4-1.6 1.3-0.7 2.7-1 1.4-0.3 2.9-0.3l155.1 0.1h14.2 9.6c1 0 2 0 3 0 2 0.2 4 0.9 5.7 2.1 1.7 1.1 3.1 2.7 4 4.5 1 1.7 1.5 3.8 1.5 5.8 0 2-0.5 4-1.4 5.9q-0.2 0.3-0.5 0.7-0.2 0.4-0.5 0.7-0.2 0.4-0.5 0.7-0.3 0.3-0.6 0.6-0.5 0.5-1 1-0.5 0.4-1.1 0.8-0.6 0.3-1.2 0.6-0.6 0.3-1.2 0.6-0.2 0.1-0.5 0.1-0.2 0.1-0.4 0.2-0.3 0-0.5 0.1-0.2 0.1-0.5 0.1-0.8 0.2-1.3 0.2c-0.8 0.3-1.2 0.3-1.2 0.3z"/>
		<path class="s5" d="m328.3 168.7h-23.7v-24.6h23.6c1.7 0 3.3 0.3 4.8 0.9 1.5 0.6 2.8 1.5 4 2.7 1.1 1.1 2 2.5 2.6 4 0.6 1.5 1 3.1 1 4.7 0 1.6-0.4 3.2-1 4.7-0.6 1.5-1.5 2.8-2.6 4-1.2 1.1-2.5 2-4 2.6-1.5 0.7-3.1 1-4.8 1z"/>
		<path class="s6" d="m324.1 154.1c0 0 0-0.5-0.2-1.2q-0.1-0.3-0.3-0.7-0.2-0.3-0.4-0.6-0.2-0.4-0.5-0.6-0.2-0.3-0.6-0.5c-1-0.8-2.3-1.1-3.6-0.8-1.2 0.3-2.3 1.1-2.9 2.2-0.7 1.1-0.8 2.5-0.3 3.7 0.5 1.2 1.4 2.2 2.6 2.6q0.5 0.2 1.1 0.3 0.6 0 1.1 0 0.6-0.1 1.1-0.3 0.5-0.2 1-0.6 0.3-0.2 0.5-0.5 0.3-0.2 0.5-0.6 0.2-0.3 0.4-0.6 0.2-0.4 0.3-0.7c0.2-0.7 0.2-1.1 0.2-1.1q0 0 0 0 0 0.1 0 0.1 0 0 0 0.1 0 0 0 0.1 0 0.1 0 0.2 0 0.1 0 0.2 0 0.1 0 0.2 0 0.1-0.1 0.2 0 0.4-0.2 0.8-0.2 0.4-0.4 0.7-0.2 0.4-0.5 0.7-0.2 0.3-0.6 0.5-0.4 0.4-1 0.6-0.6 0.3-1.2 0.4-0.6 0.1-1.2 0-0.6 0-1.2-0.2c-0.9-0.4-1.8-1-2.3-1.8-0.6-0.8-0.9-1.8-0.9-2.8 0-1.1 0.3-2 0.9-2.9 0.5-0.8 1.4-1.4 2.3-1.8q0.6-0.2 1.2-0.2 0.6-0.1 1.2 0 0.6 0.1 1.2 0.4 0.6 0.2 1 0.6 0.4 0.2 0.6 0.5 0.3 0.3 0.5 0.7 0.2 0.3 0.4 0.7 0.2 0.4 0.2 0.8 0.1 0.1 0.1 0.2 0 0.1 0 0.2 0 0.1 0 0.2 0 0.1 0 0.3 0 0 0 0 0 0.1 0 0.1 0 0 0 0.1 0 0 0 0.1z"/>
		<path class="s6" d="m330.4 161.9q-0.5-0.2-1-0.5-0.5-0.3-1-0.5-0.4-0.3-0.9-0.6-0.4-0.3-0.9-0.7-0.5-0.2-0.9-0.5-0.5-0.3-0.9-0.7-0.5-0.3-0.9-0.7-0.4-0.3-0.8-0.7 1 0.5 1.9 1.1 1 0.5 1.9 1.1 0.9 0.6 1.8 1.3 0.9 0.7 1.7 1.4z"/>
		<path class="s3" d="m150.5 163.3q-0.1-0.9-0.2-1.8-0.1-0.8-0.1-1.7 0-0.9 0-1.8 0-0.8 0-1.7 0-0.9 0-1.8 0-0.8 0-1.7 0-0.9 0.1-1.8 0.1-0.8 0.2-1.7 0.1 0.9 0.1 1.7 0.1 0.9 0.1 1.8 0.1 0.9 0.1 1.7 0 0.9-0.1 1.8 0.1 0.9 0.1 1.7 0 0.9-0.1 1.8 0 0.9-0.1 1.7 0 0.9-0.1 1.8z"/>
		<path class="s0" d="m120.5 211.1h59.1v57.2h-59.1z"/>
		<path class="s5" d="m125.1 263.4l16.4-29.4 13.3 18.8 8.2-10 12 20.6h-49.9z"/>
		<path class="s5" d="m160.5 228.3c0 1.7-1 3.3-2.6 3.9-1.6 0.7-3.4 0.3-4.6-0.9-1.3-1.2-1.6-3.1-1-4.6 0.7-1.6 2.3-2.7 4-2.7q0.8 0 1.6 0.4 0.8 0.3 1.4 0.9 0.6 0.6 0.9 1.4 0.3 0.7 0.3 1.6z"/>
		<path class="s3" d="m175 263.6q0 0 0-0.3 0-0.2 0-0.6 0-0.9 0-2.6c0-2.3 0-5.5-0.1-9.7 0-8.4 0-20.3-0.1-34.5l0.3 0.2h-50c0 0.1 0.6-0.5 0.3-0.3v6.5q0 3.2 0 6.4v12.3c0 8 0 15.6 0 22.5l-0.2-0.2 36.1 0.1 10.1 0.1h2.7 0.7 0.3-0.2-0.7-2.6-10.2l-36.2 0.2h-0.3v-0.3c0-7 0-14.5 0-22.5v-12.2q0-3.1 0-6.4v-6.4c-0.2 0.2 0.4-0.4 0.3-0.3h49.9 0.3v0.2c-0.1 14.4-0.1 26.3-0.1 34.7 0 4.2-0.1 7.4-0.1 9.7q0 1.6 0 2.5 0 0.4 0 0.6 0 0.1 0 0.1-0.1 0-0.1 0.1 0 0 0 0-0.1 0.1-0.1 0.1z"/>
		<path class="s5" d="m214.6 211.1h59.1v57.2h-59.1z"/>
		<path class="s0" d="m219.2 263.4l16.3-29.4 13.4 18.8 8.1-10 12.1 20.6h-49.9z"/>
		<path class="s0" d="m254.6 228.3c0 1.7-1.1 3.2-2.6 3.9-1.6 0.7-3.5 0.3-4.7-0.9-1.2-1.2-1.6-3.1-0.9-4.6 0.7-1.6 2.2-2.7 3.9-2.7q0.9 0 1.7 0.4 0.7 0.3 1.3 0.9 0.6 0.6 1 1.4 0.3 0.7 0.3 1.6z"/>
		<path class="s3" d="m269.1 263.6q0 0 0-0.3 0-0.2 0-0.6 0-0.9 0-2.6c0-2.3 0-5.5-0.1-9.7 0-8.4 0-20.3-0.1-34.5l0.3 0.2h-50l0.3-0.3v12.9q0 6.3 0 12.3c0 8 0 15.6 0 22.5l-0.2-0.2 36.1 0.1 10.1 0.1h2.7 0.7 0.3-0.2-0.7-2.7-10.1l-36.2 0.2h-0.3v-0.3c0-7 0-14.5 0-22.5q0-6 0-12.3v-12.7c-0.2 0.2 0.4-0.4 0.3-0.3h49.9 0.3v0.2c0 14.4-0.1 26.3-0.2 34.7 0 4.2 0 7.4 0 9.7q0 1.6 0 2.5 0 0.4 0 0.6 0 0.1-0.1 0.1 0 0 0 0.1 0 0-0.1 0 0 0.1 0 0.1z"/>
		<path class="s0" d="m308.6 211.1h59.1v57.2h-59.1z"/>
		<path class="s5" d="m313.2 263.4l16.4-29.4 13.3 18.8 8.2-10 12 20.6h-49.9z"/>
		<path class="s5" d="m348.6 228.3c0 1.7-1 3.3-2.6 3.9-1.6 0.7-3.4 0.3-4.6-0.9-1.3-1.2-1.6-3.1-1-4.6 0.7-1.6 2.3-2.7 4-2.7q0.8 0 1.6 0.4 0.8 0.3 1.4 0.9 0.6 0.6 0.9 1.4 0.3 0.7 0.3 1.6z"/>
		<path class="s3" d="m363.2 263.6q0 0 0-0.1 0 0 0 0 0-0.1 0-0.1 0 0 0-0.1 0-0.2 0-0.6 0-0.9 0-2.6c0-2.3 0-5.5-0.1-9.7 0-8.4-0.1-20.3-0.1-34.5l0.2 0.2h-49.9c-0.1 0.1 0.5-0.5 0.3-0.3v12.9q0 6.3 0 12.3c0 8 0 15.6 0 22.5l-0.3-0.2 36.1 0.1 10.2 0.1h2.7 0.7 0.3-0.3-0.6-2.7-10.1l-36.3 0.2h-0.3v-0.3c0-7 0-14.5 0-22.5q0-6 0-12.3v-12.7c-0.2 0.2 0.3-0.4 0.3-0.3h49.9 0.2v0.2c0 14.4-0.1 26.3-0.1 34.7 0 4.2 0 7.4 0 9.7q0 1.6 0 2.5 0 0.4 0 0.6c0 0.2-0.1 0.3-0.1 0.3z"/>
		<path class="s3" d="m200.4 115.1h74.9v6.3h-74.9z"/>
		<path class="s3" d="m435.6 297.4c0 0.2-89.2 0.3-199.3 0.3-110 0-199.3-0.1-199.3-0.3 0-0.1 89.2-0.2 199.3-0.2 110.1 0 199.3 0.1 199.3 0.2z"/>
	</g>
	<g id="freepik--Pictures--inject-2">
		<path class="s5" d="m527.6 106.5l-56.5 1.2 1.5 73.7 56.5 0.2-1.5-75.1z"/>
		<path class="s4" d="m523.9 109.2l-49.4 1 1.4 66.9 49.4 0.6-1.4-68.5z"/>
		<path class="s2" d="m515.5 121.5l-32.8-0.5 0.9 46.7 32.8-0.7-0.9-45.5z"/>
		<path class="s3" d="m483.6 167.7l32.4-24.7-33.3-22 0.9 46.7z"/>
		<path class="s3" d="m508.3 45.5l-38.8 0.8 1.1 50.5 38.8 0.2-1.1-51.5z"/>
		<path class="s4" d="m505.8 47.3l-33.9 0.7 0.9 45.9 34 0.4-1-47z"/>
		<path class="s5" d="m500 55.8l-22.5-0.4 0.7 32 22.5-0.4-0.7-31.2z"/>
		<path class="s2" d="m492.6 71c0 0 0.2-0.4 0.3-1q0.1-0.3 0.1-0.7 0-0.3-0.1-0.7 0-0.3-0.1-0.7-0.1-0.3-0.3-0.6c-0.7-1.4-2.1-2.3-3.6-2.3-1.5 0-3 0.9-3.7 2.2-0.7 1.4-0.5 3 0.4 4.3 0.9 1.2 2.4 1.9 3.9 1.6q0.4 0 0.7-0.2 0.3-0.1 0.7-0.2 0.3-0.2 0.6-0.4 0.3-0.2 0.5-0.5c0.5-0.5 0.6-0.8 0.7-0.8q-0.1 0.1-0.1 0.2-0.1 0.2-0.1 0.3-0.1 0.1-0.2 0.2-0.1 0.1-0.2 0.2-0.2 0.3-0.5 0.6-0.2 0.2-0.6 0.4-0.3 0.2-0.6 0.3-0.4 0.2-0.8 0.2-0.5 0.2-1.1 0.1-0.5 0-1.1-0.2-0.5-0.2-1-0.5-0.5-0.3-0.9-0.7c-0.6-0.6-1-1.5-1.2-2.4-0.1-1 0.1-1.9 0.5-2.7 0.4-0.9 1.1-1.6 1.9-2 0.8-0.4 1.8-0.6 2.7-0.5q0.6 0.1 1.1 0.3 0.5 0.2 1 0.6 0.4 0.3 0.8 0.7 0.3 0.5 0.6 1 0.1 0.3 0.2 0.7 0.1 0.4 0.2 0.7 0 0.4 0 0.8-0.1 0.4-0.2 0.7 0 0.2-0.1 0.3 0 0.1-0.1 0.2 0 0.2-0.1 0.3-0.1 0.1-0.2 0.2z"/>
		<path class="s2" d="m494.5 80q-0.3-0.4-0.6-0.8-0.3-0.4-0.6-0.8-0.3-0.5-0.5-0.9-0.3-0.4-0.5-0.9-0.3-0.4-0.5-0.9-0.2-0.4-0.5-0.9-0.2-0.4-0.4-0.9-0.2-0.5-0.3-1 0.3 0.4 0.6 0.8 0.3 0.5 0.6 0.9 0.3 0.4 0.5 0.9 0.3 0.4 0.5 0.8 0.3 0.5 0.5 0.9 0.2 0.5 0.5 0.9 0.2 0.5 0.4 0.9 0.2 0.5 0.3 1z"/>
	</g>
	<g id="freepik--Floor--inject-2">
		<path class="s2" d="m528.6 320.7c0 0.1-126.5 0.2-282.5 0.2-156.1 0-282.6-0.1-282.6-0.2 0-0.2 126.5-0.3 282.6-0.3 156 0 282.5 0.1 282.5 0.3z"/>
	</g>
	<g id="freepik--Character--inject-2">
		<path class="s7" d="m364.4 196.2c0 0 0.8-9.5 1.7-9.4 0.9 0.1 1.1 1.8 1 2.6-0.1 0.8 0 4 0 4z"/>
		<path class="s2" d="m445.8 188.4l-4.6 32 21 91.8-58 4.6 25-147.7c0 0 16.5-1.9 16.6 19.3z"/>
		<path class="s7" d="m374.5 349.9l-3.4 37.9h14.3l6.3-37.9h-17.2z"/>
		<path class="s7" d="m371.1 387.8c0 0-9.6 1.3-11.4 2.5l25.3-0.3 0.4-2.2z"/>
		<path class="s5" d="m359.7 390.3v1l26.1-0.3v-1.1l-26.1 0.4z"/>
		<path class="s5" d="m369 390.9c-0.1 0-0.6-0.7-1.4-1.3-0.8-0.7-1.7-0.8-1.7-1 0.1-0.1 1-0.2 2 0.6 1 0.7 1.2 1.7 1.1 1.7z"/>
		<path class="s5" d="m385.8 387.1c0 0.1-1.8 0.4-3.8 1.4-1.9 0.9-3.3 2-3.4 1.9q0.3-0.4 0.7-0.7 0.3-0.4 0.7-0.7 0.5-0.3 0.9-0.5 0.5-0.3 0.9-0.5 0.5-0.2 1-0.4 0.4-0.2 0.9-0.3 0.5-0.1 1-0.2 0.5-0.1 1.1-0.1z"/>
		<path class="s5" d="m385.2 386.4q-1.8 0.1-3.6 0-1.7 0-3.5-0.1-1.7-0.1-3.5-0.2-1.7-0.2-3.5-0.4 0.9 0 1.8 0 0.8-0.1 1.7 0 0.9 0 1.8 0 0.8 0.1 1.7 0.1 0.9 0 1.8 0.1 0.9 0 1.8 0.1 0.8 0.1 1.7 0.2 0.9 0.1 1.8 0.2z"/>
		<path class="s5" d="m386.9 381.4q-1 0.3-2 0.6-0.9 0.2-1.9 0.4-1 0.2-1.9 0.4-1 0.2-2 0.3-1 0.2-1.9 0.4-1 0.2-2 0.3-1 0.2-2 0.3-1 0.1-1.9 0.2 0.9-0.3 1.9-0.5 0.9-0.2 1.9-0.5 1-0.2 2-0.3 0.9-0.2 1.9-0.4 1-0.2 2-0.4 0.9-0.1 1.9-0.3 1-0.1 2-0.2 1-0.2 2-0.2z"/>
		<path class="s5" d="m386.6 381.6q-0.2 0-0.5 0-0.2 0-0.5-0.1-0.2 0-0.4-0.1-0.3-0.1-0.5-0.2-0.2-0.1-0.5-0.2-0.2-0.1-0.5-0.2-0.2-0.2-0.4-0.3-0.3-0.1-0.5-0.3-0.1-0.1-0.2-0.2-0.2 0-0.3-0.1-0.1-0.1-0.2-0.2-0.2-0.1-0.3-0.3 0 0-0.1-0.1-0.1-0.1-0.1-0.1-0.1-0.1-0.1-0.2-0.1-0.1-0.1-0.2 0-0.1-0.1-0.2 0-0.1 0-0.2 0-0.1 0.1-0.2 0-0.1 0.1-0.2 0-0.1 0.1-0.2 0.1-0.1 0.2-0.1 0.1-0.1 0.2-0.1 0.2 0 0.3 0 0.1 0 0.2 0 0 0.1 0.1 0.1 0.1 0 0.2 0 0.1 0.1 0.2 0.1 0.1 0.1 0.3 0.1 0.1 0.1 0.3 0.2 0.1 0.1 0.2 0.2 0.2 0 0.3 0.1 0.2 0.2 0.4 0.4 0.2 0.1 0.4 0.3 0.2 0.2 0.4 0.4 0.1 0.2 0.3 0.5 0.1 0.2 0.2 0.4 0.2 0.2 0.2 0.4 0.1 0.3 0.2 0.5 0 0.2 0 0.5c0 0-0.2-0.7-1-1.6q-0.1-0.2-0.3-0.4-0.1-0.2-0.3-0.4-0.2-0.1-0.4-0.3-0.2-0.2-0.4-0.3-0.1-0.1-0.2-0.1-0.2-0.1-0.3-0.2-0.1-0.1-0.2-0.1-0.2-0.1-0.3-0.1c-0.4-0.2-0.8-0.3-0.9 0q-0.1 0.1-0.1 0.2 0 0.1 0.1 0.2 0 0.2 0.1 0.3 0.1 0.1 0.2 0.1 0.1 0.1 0.2 0.2 0.1 0.1 0.2 0.2 0.1 0.1 0.2 0.2 0.2 0.1 0.3 0.2 0.2 0.1 0.4 0.3 0.2 0.1 0.4 0.2 0.3 0.1 0.5 0.3 0.2 0.1 0.4 0.2c1.1 0.5 1.8 0.6 1.8 0.7z"/>
		<path class="s5" d="m386.5 382q-0.1-0.2-0.2-0.4-0.1-0.3-0.2-0.5 0-0.2 0-0.5 0-0.2 0-0.5 0-0.2 0.1-0.5 0-0.2 0-0.5 0.1-0.2 0.2-0.5 0.1-0.2 0.2-0.5 0-0.1 0.1-0.3 0-0.1 0.1-0.2 0.1-0.2 0.2-0.3 0.1-0.1 0.2-0.3 0 0 0-0.1 0.1-0.1 0.2-0.1 0-0.1 0.1-0.2 0 0 0.1-0.1 0-0.1 0.1-0.1 0.1-0.1 0.2-0.2 0.1 0 0.2 0 0.1-0.1 0.2-0.1 0.1 0 0.2 0.1 0.2 0 0.2 0.1 0.1 0.1 0.2 0.1 0.1 0.1 0.1 0.2 0.1 0.1 0.1 0.2 0 0.1 0.1 0.2 0 0.1 0 0.2 0 0.1 0 0.2 0 0.1 0 0.3-0.1 0.1-0.1 0.3 0 0.2 0 0.3-0.1 0.2-0.1 0.3-0.1 0.3-0.2 0.5-0.1 0.3-0.2 0.5-0.2 0.2-0.3 0.4-0.2 0.3-0.3 0.5-0.2 0.2-0.3 0.3-0.2 0.2-0.4 0.4-0.2 0.1-0.4 0.2-0.2 0.2-0.4 0.2c0 0 0.6-0.4 1.2-1.3q0.1-0.2 0.2-0.5 0.2-0.2 0.3-0.4 0.1-0.2 0.2-0.4 0-0.3 0.1-0.5 0-0.1 0.1-0.3 0-0.1 0-0.3 0-0.1 0-0.3 0-0.1 0-0.2c0-0.4-0.1-0.8-0.3-0.8-0.3 0-0.6 0.4-0.8 0.7q-0.1 0.1-0.2 0.3 0 0.1-0.1 0.2-0.1 0.1-0.1 0.3-0.1 0.1-0.2 0.2-0.1 0.2-0.2 0.5 0 0.2-0.1 0.4-0.1 0.3-0.1 0.5-0.1 0.3-0.1 0.5c0 1.1 0.1 1.8 0.1 1.8z"/>
		<path class="s5" d="m388.4 387.9q-0.3-0.3-0.5-0.7-0.2-0.3-0.4-0.7-0.1-0.4-0.3-0.7-0.1-0.4-0.2-0.8-0.2-0.4-0.3-0.8-0.1-0.4-0.1-0.8-0.1-0.4-0.1-0.8-0.1-0.4 0-0.8 0.1 0.3 0.3 0.7 0.1 0.4 0.2 0.8 0.1 0.4 0.3 0.8 0.1 0.3 0.2 0.7 0.1 0.4 0.2 0.8 0.2 0.4 0.3 0.7 0.1 0.4 0.2 0.8 0.1 0.4 0.2 0.8z"/>
		<path class="s5" d="m390.1 386.5q-0.7-0.4-1.4-1-0.6-0.5-1.1-1.2-0.6-0.7-0.9-1.4-0.4-0.8-0.7-1.6c0.1-0.1 0.8 1.3 2 2.7 1.2 1.4 2.2 2.4 2.1 2.5z"/>
		<path class="s7" d="m427.9 353l29.3 23.3 7-10.2-26.2-28.5-10.1 15.4z"/>
		<path class="s7" d="m455.1 376.9c0 0-4.5 8.6-4.4 10.7l14.2-20.9-1.6-1.6z"/>
		<path class="s5" d="m450.7 387.6l0.8 0.6 14.7-21.5-0.9-0.7-14.6 21.6z"/>
		<path class="s5" d="m456.4 380.4c0 0.1-0.9 0-1.9 0.4-1 0.3-1.6 0.9-1.7 0.8-0.1-0.1 0.4-0.9 1.6-1.3 1.1-0.4 2.1 0 2 0.1z"/>
		<path class="s5" d="m462.9 364.4c0.1 0.1-0.6 1.7-1 3.9-0.3 2.2-0.2 3.9-0.4 4q-0.2-1-0.2-2 0-1.1 0.1-2.1 0.2-1 0.6-1.9 0.4-1 0.9-1.8z"/>
		<path class="s5" d="m462.1 363.9q-0.4 0.7-0.9 1.3-0.4 0.7-0.9 1.3-0.4 0.7-0.9 1.3-0.5 0.6-1 1.3-0.5 0.6-1 1.2-0.5 0.7-1 1.3-0.5 0.6-1 1.2-0.6 0.6-1.1 1.2 0.4-0.7 0.8-1.4 0.5-0.7 0.9-1.3 0.5-0.7 1-1.3 0.5-0.6 1-1.2 0.4-0.7 0.9-1.3 0.5-0.7 1-1.3 0.6-0.6 1.1-1.2 0.5-0.6 1.1-1.1z"/>
		<path class="s5" d="m458.9 360.3q-0.2 0.9-0.5 1.7-0.4 0.8-0.7 1.6-0.3 0.8-0.7 1.6-0.4 0.8-0.7 1.6-0.4 0.8-0.7 1.6-0.4 0.8-0.8 1.6-0.4 0.8-0.8 1.5-0.4 0.8-0.9 1.5 0.3-0.8 0.6-1.6 0.3-0.8 0.6-1.6 0.4-0.8 0.7-1.6 0.4-0.8 0.8-1.6 0.3-0.8 0.7-1.6 0.4-0.8 0.8-1.6 0.3-0.8 0.8-1.6 0.4-0.7 0.8-1.5z"/>
		<path class="s5" d="m458.9 360.6c0.1 0-0.4 0.7-1.4 1.3q-0.2 0.2-0.4 0.3-0.3 0.2-0.5 0.3-0.2 0.1-0.5 0.2-0.2 0.2-0.5 0.2-0.1 0.1-0.3 0.2-0.1 0-0.3 0.1-0.1 0-0.3 0.1-0.1 0-0.3 0-0.1 0.1-0.1 0.1-0.1 0-0.2 0-0.1 0-0.2 0-0.1 0-0.2-0.1-0.1 0-0.2-0.1-0.1 0-0.2-0.1-0.1 0-0.2-0.1 0-0.1-0.1-0.2 0-0.1 0-0.3 0-0.1 0-0.2 0-0.1 0.1-0.2 0-0.1 0.1-0.2 0.1-0.1 0.1-0.1 0.1-0.1 0.2-0.2 0 0 0.1-0.1 0.1 0 0.1-0.1 0.4-0.2 0.8-0.4 0.4-0.1 0.8-0.2 0.4-0.2 0.9-0.2 0.4-0.1 0.8-0.1 0.3 0 0.5 0.1 0.2 0 0.5 0.1 0.2 0 0.4 0.1 0.3 0.1 0.5 0.2c0 0.1-0.7-0.1-1.9-0.1q-0.4 0-0.8 0.1-0.4 0.1-0.8 0.2-0.3 0.1-0.7 0.3-0.4 0.1-0.7 0.3c-0.3 0.3-0.6 0.6-0.5 0.8q0 0.1 0.1 0.2 0.1 0 0.3 0.1 0.1 0 0.2 0 0.1 0 0.2-0.1 0.2 0 0.3 0 0.2-0.1 0.3-0.1 0.1 0 0.3-0.1 0.1 0 0.3-0.1 0.2-0.1 0.4-0.2 0.3-0.1 0.5-0.2 0.2-0.1 0.5-0.2 0.2-0.1 0.4-0.2c1-0.6 1.6-1.1 1.6-1.1z"/>
		<path class="s5" d="m459.1 360.9q-0.2 0-0.4-0.1-0.3 0-0.5-0.1-0.2-0.1-0.4-0.3-0.2-0.1-0.4-0.2-0.2-0.2-0.4-0.4-0.2-0.2-0.4-0.3-0.2-0.2-0.3-0.5-0.2-0.2-0.3-0.4-0.1-0.1-0.2-0.2-0.1-0.2-0.1-0.3-0.1-0.2-0.2-0.3 0-0.2-0.1-0.3 0-0.1 0-0.2-0.1 0-0.1-0.1 0-0.1 0-0.2 0-0.1-0.1-0.1 0-0.1 0-0.3 0-0.1 0-0.2 0-0.1 0.1-0.2 0-0.1 0.1-0.2 0-0.1 0.1-0.1 0.1-0.1 0.2-0.1 0.1-0.1 0.3-0.1 0.1 0 0.2 0 0.1 0 0.2 0.1 0.1 0 0.1 0 0.1 0.1 0.2 0.1 0.1 0.1 0.2 0.1 0.1 0.1 0.2 0.2 0.1 0.1 0.2 0.2 0.1 0.2 0.3 0.3 0.1 0.1 0.2 0.2 0.1 0.2 0.3 0.4 0.1 0.3 0.3 0.5 0.1 0.2 0.2 0.5 0.1 0.2 0.2 0.5 0 0.2 0.1 0.4 0 0.3 0.1 0.5 0 0.2-0.1 0.5 0 0.2 0 0.5-0.1-0.3-0.1-0.5-0.1-0.2-0.1-0.4-0.1-0.3-0.2-0.5 0-0.2-0.1-0.4-0.1-0.2-0.2-0.5-0.1-0.2-0.2-0.4-0.1-0.2-0.3-0.4-0.1-0.2-0.3-0.4-0.1-0.1-0.2-0.2-0.1-0.1-0.2-0.2-0.1-0.1-0.2-0.2-0.1-0.1-0.2-0.2c-0.3-0.2-0.7-0.3-0.8-0.1-0.2 0.2 0 0.7 0.1 1q0 0.2 0.1 0.3 0.1 0.1 0.1 0.2 0.1 0.2 0.1 0.3 0.1 0.1 0.2 0.2 0.1 0.2 0.2 0.4 0.2 0.2 0.4 0.4 0.1 0.2 0.3 0.4 0.2 0.2 0.3 0.3c0.9 0.8 1.6 1.1 1.5 1.1z"/>
		<path class="s5" d="m465.1 362.7q-0.4 0.1-0.8 0-0.4 0-0.9 0-0.4-0.1-0.8-0.2-0.4-0.1-0.7-0.3-0.4-0.1-0.8-0.2-0.4-0.1-0.8-0.3-0.4-0.2-0.8-0.4-0.3-0.2-0.6-0.4 0.7 0.2 1.5 0.4 0.8 0.2 1.6 0.5 0.7 0.2 1.5 0.4 0.8 0.3 1.6 0.5z"/>
		<path class="s5" d="m465 360.6q-0.4 0.2-0.8 0.3-0.4 0.2-0.8 0.3-0.4 0.1-0.8 0.1-0.5 0.1-0.9 0.1-0.4 0-0.8 0-0.5 0-0.9 0-0.4-0.1-0.8-0.2-0.4-0.1-0.8-0.3c0-0.1 1.5 0 3.3 0 1.8-0.1 3.2-0.5 3.3-0.3z"/>
		<path class="s5" d="m399.6 238.8c0 0-11.2 74.4-9.6 78 1.7 3.6 37.9 40.8 37.9 40.8l13.6-23.4c0 0-24-26.5-23.6-28 0.3-1.4 17.3-73.4 17.3-73.4z"/>
		<path class="s5" d="m402.2 330.9l9.6-21 11-23.6q-2.5 3.6-4.9 7.4-2.3 3.7-4.4 7.6-2.1 3.8-4.1 7.8-1.9 4-3.6 8-0.7 1.7-1.3 3.4-0.5 1.7-1 3.4-0.4 1.7-0.8 3.5-0.3 1.7-0.5 3.5z"/>
		<path class="s8" d="m402.2 330.9l9.6-21 11-23.6q-2.5 3.6-4.9 7.4-2.3 3.7-4.4 7.6-2.1 3.8-4.1 7.8-1.9 4-3.6 8-0.7 1.7-1.3 3.4-0.5 1.7-1 3.4-0.4 1.7-0.8 3.5-0.3 1.7-0.5 3.5z"/>
		<path class="s5" d="m395.6 266.3c0.1-0.8 9.2-21.1 9.2-21.1l-4.4-6.2-0.8-0.2z"/>
		<path class="s8" d="m395.6 266.3c0.1-0.8 9.2-21.1 9.2-21.1l-4.4-6.2-0.8-0.2z"/>
		<path class="s5" d="m441.6 231.8l0.6 2.8q0.8 3 0.9 6.1 0.2 3.1-0.3 6.2-0.4 3.1-1.4 6-1 3-2.6 5.7l-30.3 52.6q-0.8 1.4-1.5 2.9-0.7 1.4-1.3 2.9-0.6 1.5-1.1 3.1-0.4 1.5-0.8 3.1l-7.6 34c0 0-23.8 0.8-24.8 0-1.1-0.8 3-23.3 5.8-40.4 2-12.8 19.2-52.7 27.6-71.6l-5.2-6.3 9-1.5z"/>
		<path class="s2" d="m396.3 357.2q-0.2 0-0.3 0-0.1 0.1-0.2 0.1-0.2 0-0.3 0-0.1 0-0.3 0-0.9 0.1-2.6 0.3c-2.3 0.1-5.5 0.2-8.9 0.2-3.5 0-6.7-0.1-8.9-0.2-1.2-0.1-2.1-0.1-2.7-0.2q-0.1 0-0.3 0-0.1 0-0.2 0-0.1 0-0.3-0.1-0.1 0-0.2 0 0.1 0 0.2-0.1 0.2 0 0.3 0 0.1 0 0.2 0 0.2 0 0.3 0h2.7l8.9 0.1c3.4 0 6.6 0 8.8-0.1l2.7-0.1q0.2 0 0.3 0 0.1 0 0.2 0 0.2 0 0.3 0 0.1 0 0.2 0.1z"/>
		<path class="s2" d="m397.6 350.8c0 0.1-5.8 0.2-12.9 0.2-7-0.1-12.8-0.2-12.8-0.3 0-0.1 5.8-0.2 12.8-0.2 7.1 0 12.9 0.1 12.9 0.3z"/>
		<path class="s2" d="m437.4 329.4q-0.1 0.1-0.1 0.3-0.1 0.1-0.1 0.2-0.1 0.1-0.2 0.2-0.1 0.2-0.1 0.3l-1.6 2.4-5.1 8.1-5.1 8.1-1.6 2.5q-0.1 0.1-0.1 0.2-0.1 0.1-0.2 0.2-0.1 0.1-0.2 0.2-0.1 0.1-0.1 0.2 0-0.1 0-0.2 0.1-0.2 0.2-0.3 0-0.1 0.1-0.2 0-0.2 0.1-0.3c0.4-0.6 0.8-1.5 1.5-2.5 1.2-2.1 3-5 5-8.2 2-3.2 3.8-6 5.2-8 0.7-1 1.3-1.8 1.7-2.4q0.1-0.1 0.2-0.2 0-0.1 0.1-0.2 0.1-0.1 0.2-0.2 0.1-0.1 0.2-0.2z"/>
		<path class="s2" d="m426.5 355.5q-0.2-0.3-0.4-0.7-0.1-0.4-0.3-0.8-0.1-0.4-0.2-0.8-0.2-0.4-0.2-0.8-0.2-0.4-0.3-0.8-0.1-0.4-0.2-0.8-0.1-0.4-0.2-0.8 0-0.4 0-0.8 0.2 0.3 0.3 0.7 0.2 0.4 0.4 0.8 0.1 0.4 0.2 0.8 0.1 0.4 0.2 0.8 0.2 0.4 0.3 0.8 0.1 0.4 0.2 0.8 0.1 0.4 0.1 0.8 0.1 0.4 0.1 0.8z"/>
		<path class="s2" d="m428.6 355.5q-0.2-0.7-0.3-1.3-0.2-0.7-0.4-1.3-0.1-0.7-0.2-1.3-0.1-0.7-0.2-1.4-0.1-0.6-0.2-1.3-0.2-0.6-0.2-1.3-0.1-0.7-0.2-1.4 0-0.6 0-1.3 0.3 1.3 0.6 2.6 0.3 1.3 0.5 2.6 0.2 1.4 0.4 2.7 0.1 1.3 0.2 2.7z"/>
		<path class="s2" d="m431.4 351.5q-0.2-0.5-0.4-1.1-0.2-0.6-0.3-1.1-0.2-0.6-0.3-1.2-0.1-0.6-0.3-1.1-0.1-0.6-0.3-1.2-0.1-0.6-0.2-1.1-0.2-0.6-0.3-1.2-0.1-0.6-0.2-1.2 0.3 0.6 0.5 1.1 0.2 0.6 0.4 1.1 0.2 0.6 0.4 1.2 0.1 0.5 0.2 1.1 0.2 0.6 0.3 1.2 0.2 0.6 0.3 1.1 0.1 0.6 0.1 1.2 0.1 0.6 0.1 1.2z"/>
		<path class="s2" d="m433.8 346.1q-0.2-0.6-0.4-1.1-0.2-0.6-0.3-1.1-0.2-0.6-0.3-1.1-0.1-0.6-0.2-1.2-0.1-0.5-0.2-1.1-0.1-0.5-0.2-1.1-0.1-0.6-0.1-1.1-0.1-0.6-0.1-1.2 0.2 0.6 0.4 1.1 0.1 0.5 0.3 1.1 0.1 0.6 0.2 1.1 0.1 0.6 0.2 1.1 0.2 0.6 0.3 1.2 0.1 0.5 0.2 1.1 0 0.5 0.1 1.1 0 0.6 0.1 1.1z"/>
		<path class="s2" d="m436.8 341.5q-0.2-0.5-0.3-1.1-0.2-0.5-0.3-1-0.1-0.6-0.2-1.1-0.2-0.6-0.3-1.1-0.1-0.6-0.3-1.1-0.1-0.6-0.2-1.1-0.2-0.6-0.3-1.1-0.1-0.6-0.2-1.1 0.3 0.5 0.5 1 0.2 0.5 0.4 1.1 0.2 0.5 0.4 1 0.1 0.6 0.2 1.1 0.2 0.6 0.3 1.1 0.1 0.6 0.2 1.2 0 0.5 0.1 1.1 0 0.6 0 1.1z"/>
		<path class="s2" d="m439.5 337.7q-0.2-0.4-0.3-0.9-0.2-0.4-0.4-0.9-0.1-0.4-0.2-0.9-0.1-0.4-0.2-0.9-0.2-0.4-0.3-0.9-0.1-0.4-0.2-0.9 0-0.4-0.1-0.9 0-0.5-0.1-1 0.4 0.9 0.7 1.8 0.2 0.9 0.5 1.8 0.2 0.9 0.4 1.8 0.1 1 0.2 1.9z"/>
		<path class="s2" d="m383.8 350.5q-0.7 0.5-1.4 0.9-0.8 0.4-1.5 0.8-0.7 0.4-1.5 0.8-0.7 0.4-1.5 0.8-0.7 0.4-1.5 0.8-0.7 0.4-1.5 0.8-0.7 0.4-1.5 0.8-0.7 0.3-1.5 0.7 0.2-0.2 0.4-0.4 0.2-0.1 0.4-0.3 0.2-0.1 0.4-0.2 0.2-0.2 0.4-0.3c1-0.6 2.5-1.5 4.2-2.4 1.7-0.8 3.2-1.6 4.3-2.1q0.2-0.1 0.4-0.2 0.3-0.1 0.5-0.2 0.2-0.1 0.4-0.1 0.3-0.1 0.5-0.2z"/>
		<path class="s2" d="m391.2 350.6q-0.2 0.2-0.5 0.4-0.2 0.2-0.4 0.3-0.3 0.2-0.5 0.3-0.2 0.1-0.5 0.3c-1.2 0.7-2.9 1.6-4.8 2.5-1.9 0.9-3.6 1.7-4.9 2.3q-0.2 0.1-0.5 0.2-0.2 0.1-0.5 0.2-0.3 0.1-0.5 0.2-0.3 0-0.6 0.1 0.2-0.2 0.5-0.3 0.2-0.2 0.5-0.3 0.2-0.1 0.5-0.2 0.2-0.2 0.5-0.3l4.8-2.3 4.9-2.4q0.2-0.2 0.4-0.3 0.3-0.1 0.5-0.3 0.3-0.1 0.6-0.2 0.2-0.1 0.5-0.2z"/>
		<path class="s2" d="m396.8 350.6q-0.6 0.6-1.1 1.1-0.6 0.5-1.2 1-0.5 0.5-1.2 0.9-0.6 0.5-1.2 0.9-0.6 0.5-1.2 0.9-0.6 0.5-1.3 0.9-0.6 0.4-1.3 0.7-0.6 0.4-1.3 0.8 0.6-0.5 1.1-1 0.6-0.5 1.2-0.9 0.6-0.5 1.3-0.9 0.6-0.5 1.2-0.9 0.6-0.5 1.2-0.9 0.6-0.5 1.2-0.9 0.7-0.4 1.3-0.9 0.6-0.4 1.3-0.8z"/>
		<path class="s2" d="m397.4 354.2c0.1 0.1-0.9 1-2.1 1.9q-0.3 0.2-0.5 0.4-0.3 0.3-0.6 0.4-0.3 0.2-0.6 0.4-0.4 0.2-0.7 0.3 0.2-0.3 0.5-0.5 0.2-0.3 0.5-0.6 0.2-0.2 0.5-0.4 0.3-0.2 0.6-0.4 0.3-0.3 0.6-0.5 0.2-0.2 0.5-0.4 0.3-0.2 0.6-0.3 0.4-0.2 0.7-0.3z"/>
		<path class="s2" d="m377.3 350.4q-0.4 0.3-0.7 0.6-0.4 0.3-0.8 0.6-0.4 0.2-0.8 0.5-0.4 0.2-0.8 0.4-0.4 0.3-0.8 0.5-0.4 0.3-0.8 0.5-0.4 0.2-0.9 0.4-0.4 0.2-0.8 0.3 0.7-0.5 1.5-1.1 0.7-0.5 1.5-1 0.9-0.5 1.7-0.9 0.8-0.4 1.7-0.8z"/>
		<path class="s2" d="m404.1 245q-0.1 0.4-0.3 0.8-0.1 0.5-0.3 0.9-0.1 0.4-0.3 0.8-0.2 0.4-0.4 0.8c-0.8 2-1.9 4.9-3.1 8-1.2 3.2-2.3 6-3 8q-0.2 0.5-0.3 0.9-0.2 0.4-0.3 0.8-0.2 0.4-0.4 0.8-0.2 0.4-0.3 0.8 0-0.1 0-0.2 0-0.1 0-0.2 0.1-0.2 0.1-0.3 0-0.1 0.1-0.2 0.2-0.9 0.7-2.5c0.7-2.1 1.7-5 2.9-8.1 1.2-3.1 2.4-5.9 3.4-7.9q0.7-1.5 1.1-2.4 0-0.1 0.1-0.2 0-0.1 0.1-0.2 0-0.1 0.1-0.2 0.1-0.1 0.1-0.2z"/>
		<path class="s2" d="m401.6 333.3q0-0.1 0-0.2 0-0.1 0-0.1 0-0.1 0-0.2 0-0.1 0-0.1 0.1-0.7 0.2-1.7c0.1-0.7 0.3-1.6 0.5-2.7 0.2-1 0.4-2.2 0.8-3.4q0.2-1 0.5-2c0.2-0.7 0.4-1.4 0.7-2.2 0.4-1.5 1-3 1.6-4.6q0.5-1.3 1.1-2.6 0.6-1.3 1.2-2.6 0.6-1.3 1.2-2.6 0.6-1.2 1.3-2.5 1.2-2.3 2.5-4.5 1.3-2.2 2.7-4.4 1.3-2.2 2.8-4.3 1.4-2.1 2.9-4.2c1.4-2.2 2.7-3.9 3.6-5.1l1-1.4q0 0 0-0.1 0.1-0.1 0.1-0.1 0.1-0.1 0.1-0.1 0.1-0.1 0.1-0.1 0 0 0 0.1-0.1 0.1-0.1 0.1 0 0.1-0.1 0.2 0 0-0.1 0.1-0.3 0.5-0.9 1.4l-3.5 5.2c-2.8 4.3-6.8 10.4-10.6 17.4q-0.7 1.2-1.3 2.5-0.7 1.3-1.3 2.5-0.6 1.3-1.1 2.6-0.6 1.3-1.1 2.6c-0.6 1.6-1.3 3.1-1.7 4.6-0.3 0.8-0.5 1.5-0.7 2.1q-0.3 1.1-0.6 2c-0.3 1.3-0.6 2.5-0.8 3.5q-0.4 1.5-0.5 2.6c-0.2 0.7-0.3 1.2-0.3 1.7q0 0-0.1 0.1 0 0.1 0 0.2 0 0 0 0.1 0 0.1-0.1 0.2z"/>
		<path class="s6" d="m431.4 169.2l-23.5 2c0 0-7 0.1-14.7 18l-5.5 17.7 9.9 2.1v1l2 28.8 42.4-6.8c0.1-3.7-2-9-3.5-14 1.6-3.9 8.3-21.2 8.2-29.5 0-17.7-15.3-19.3-15.3-19.3"/>
		<path class="s2" d="m441.5 334.2q0 0.2 0 0.3-0.1 0.1-0.1 0.2-0.1 0.2-0.1 0.3-0.1 0.1-0.2 0.2c-0.3 0.6-0.7 1.5-1.3 2.6-1.2 2.1-2.9 5-4.8 8.2l-5 8.1-1.5 2.5q-0.1 0.1-0.1 0.3-0.1 0.1-0.2 0.2 0 0.1-0.1 0.2-0.1 0.1-0.2 0.2 0-0.1 0.1-0.3 0-0.1 0.1-0.2 0-0.1 0.1-0.3 0.1-0.1 0.1-0.2c0.3-0.6 0.8-1.5 1.4-2.5 1.2-2.2 2.9-5.1 4.8-8.3l4.9-8.2 1.5-2.4q0.1-0.1 0.2-0.3 0-0.1 0.1-0.2 0.1-0.1 0.2-0.2 0.1-0.1 0.1-0.2z"/>
		<path class="s6" d="m436 211.6q-0.4 0.1-0.8 0.3-0.4 0.1-0.8 0.3-0.4 0.1-0.9 0.1-0.4 0.1-0.8 0.1-0.4 0.1-0.9 0.2-0.4 0-0.8 0-0.4 0-0.9 0-0.4-0.1-0.8-0.2 0.4-0.1 0.8-0.2 0.4 0 0.8-0.1 0.5-0.1 0.9-0.1 0.4-0.1 0.8-0.1 0.4-0.1 0.9-0.1 0.4-0.1 0.8-0.2 0.4 0 0.9 0 0.4 0 0.8 0z"/>
		<path class="s3" d="m399.7 210.1l-0.5 31.3 12.7-71.2c-4.2-0.8-12 2.6-15 6.8-2.1 2.5-3.3 8.3-9.2 25.7l-3.6 11.9-14.7-16.1-9.9 9c0 0 17.1 27.8 24.2 29.4 9.7 2.1 16-26.7 16-26.8z"/>
		<path class="s2" d="m401.8 181.2q0 0.2-0.1 0.3 0 0.2 0 0.3 0 0.2 0 0.3 0 0.2-0.1 0.3c-0.1 0.9-0.3 2-0.5 3.3-0.4 2.8-1 6.6-1.5 10.9-0.5 4.3-0.9 8.1-1.2 10.9q-0.2 2-0.3 3.3 0 0.2 0 0.3 0 0.2 0 0.3-0.1 0.2-0.1 0.3 0 0.2-0.1 0.4 0-0.2 0-0.4 0-0.1 0-0.3 0-0.1 0-0.3 0-0.1 0-0.3c0-0.8 0.1-1.9 0.2-3.3 0.2-2.8 0.5-6.7 1-11 0.5-4.3 1.2-8.1 1.7-10.9 0.2-1.4 0.5-2.5 0.6-3.3q0.1-0.1 0.1-0.3 0-0.1 0.1-0.2 0-0.2 0.1-0.3 0-0.2 0-0.3z"/>
		<path class="s6" d="m398.5 179.8c-0.1-0.1 1.9-1 4.1-2.3 2.3-1.4 3.9-2.8 4-2.7q-0.8 0.9-1.7 1.7-1 0.8-2 1.4-1 0.6-2.1 1.1-1.1 0.5-2.3 0.8z"/>
		<path class="s6" d="m394.4 200.5q-0.2-0.5-0.4-0.9-0.1-0.5-0.3-0.9-0.1-0.5-0.3-0.9-0.1-0.5-0.2-0.9-0.2-0.5-0.4-0.9-0.1-0.5-0.3-0.9-0.1-0.5-0.2-0.9-0.1-0.5-0.3-0.9 0.5 0.8 1 1.7 0.4 0.8 0.6 1.7 0.3 0.9 0.5 1.9 0.2 0.9 0.3 1.9z"/>
		<path class="s6" d="m404.7 189.2q0.1 0.5 0.1 1 0 0.6-0.1 1.1 0 0.5-0.1 1-0.1 0.6-0.2 1.1-0.1 0.5-0.2 1-0.1 0.5-0.2 1-0.2 0.5-0.4 1-0.2 0.5-0.4 1 0-0.6 0.1-1.1 0.1-0.5 0.2-1 0.1-0.5 0.2-1 0.1-0.5 0.2-1 0.1-0.5 0.2-1 0-0.6 0.1-1.1 0.1-0.5 0.3-1 0.1-0.5 0.2-1z"/>
		<path class="s6" d="m390.4 216.5q0 0.4 0 0.9 0 0.5-0.1 0.9 0 0.5-0.1 0.9 0 0.5-0.1 1 0 0.4 0 0.9-0.1 0.4-0.1 0.9-0.1 0.5-0.2 0.9-0.1 0.5-0.1 0.9-0.2-0.9-0.2-1.8 0-1 0.1-1.9 0.1-0.9 0.3-1.8 0.2-0.9 0.5-1.8z"/>
		<path class="s6" d="m371.6 216.2q-0.4-0.4-0.7-0.9-0.4-0.5-0.7-1-0.4-0.5-0.7-1-0.3-0.5-0.5-1.1-0.3-0.5-0.6-1-0.3-0.6-0.5-1.1-0.2-0.6-0.4-1.2-0.2-0.6-0.3-1.1 0.3 0.5 0.6 1 0.3 0.5 0.6 1 0.2 0.6 0.5 1.1 0.3 0.6 0.5 1.1 0.3 0.5 0.6 1 0.3 0.6 0.6 1.1 0.3 0.5 0.5 1.1 0.3 0.5 0.5 1z"/>
		<path class="s6" d="m382.4 217q-0.3 0.3-0.6 0.5-0.4 0.3-0.7 0.5-0.3 0.2-0.7 0.4-0.4 0.2-0.8 0.3-0.3 0.2-0.7 0.4-0.4 0.1-0.8 0.2-0.4 0.2-0.8 0.2-0.4 0.1-0.8 0.2 0.4-0.3 0.7-0.4 0.4-0.2 0.7-0.4 0.4-0.2 0.8-0.3 0.4-0.2 0.7-0.3 0.4-0.2 0.7-0.4 0.4-0.2 0.8-0.3 0.3-0.2 0.7-0.3 0.4-0.2 0.8-0.3z"/>
		<path class="s3" d="m433.2 226.9l7.4 87.3 22.1-2-21-91.8 2.6-24.6-11.1 31.1z"/>
		<path class="s2" d="m440.6 314.3c-0.1-0.1-1.8-19.4-3.6-43.3-1.9-24-3.3-43.4-3.2-43.4 0.2 0 1.8 19.4 3.7 43.3 1.8 23.9 3.2 43.3 3.1 43.3z"/>
		<path class="s6" d="m438.5 228.9q0-0.4 0.1-0.7 0.1-0.4 0.2-0.8 0.1-0.3 0.3-0.7 0.1-0.3 0.3-0.7 0.1-0.3 0.3-0.7 0.1-0.3 0.3-0.7 0.2-0.3 0.4-0.6 0.2-0.4 0.4-0.7-0.2 0.8-0.4 1.5-0.2 0.7-0.5 1.4-0.3 0.7-0.7 1.4-0.3 0.7-0.7 1.3z"/>
		<path class="s6" d="m444.6 241.9c-0.1 0.1-1.3-1.2-2.8-2.6q-0.4-0.2-0.7-0.5-0.4-0.3-0.8-0.7-0.3-0.3-0.7-0.6-0.3-0.3-0.7-0.6 0.5 0.2 0.9 0.4 0.5 0.2 0.9 0.5 0.4 0.2 0.7 0.5 0.4 0.3 0.7 0.7 0.4 0.3 0.8 0.6 0.3 0.3 0.6 0.7 0.3 0.4 0.6 0.8 0.2 0.4 0.5 0.8z"/>
		<path class="s6" d="m443.2 259.4q0.2-0.4 0.3-0.7 0.2-0.4 0.4-0.8 0.1-0.4 0.3-0.7 0.2-0.4 0.4-0.8 0.1-0.4 0.3-0.8 0.2-0.3 0.3-0.7 0.2-0.4 0.4-0.8 0.1-0.4 0.3-0.7 0 0.4 0 0.8-0.1 0.4-0.2 0.8-0.1 0.5-0.3 0.9-0.1 0.4-0.3 0.7-0.2 0.4-0.4 0.8-0.2 0.4-0.4 0.7-0.2 0.4-0.5 0.7-0.3 0.3-0.6 0.6z"/>
		<path class="s6" d="m448 273.5q-0.8-0.5-1.6-1.1-0.7-0.6-1.5-1.2-0.7-0.6-1.4-1.3-0.6-0.7-1.3-1.4 0.4 0.2 0.8 0.5 0.4 0.3 0.8 0.6 0.4 0.2 0.7 0.6 0.4 0.3 0.7 0.6 0.4 0.3 0.8 0.6 0.3 0.3 0.7 0.7 0.3 0.3 0.7 0.7 0.3 0.3 0.6 0.7z"/>
		<path class="s6" d="m452 283.2q-0.1-1.1-0.2-2.1 0-1.1 0-2.2 0-1 0.1-2.1 0-1 0.2-2.1 0 0.5 0.1 1.1 0.1 0.5 0.1 1 0 0.6 0 1.1 0 0.5 0 1 0 0.6 0 1.1 0 0.5 0 1.1-0.1 0.5-0.1 1-0.1 0.5-0.2 1.1z"/>
		<path class="s6" d="m444.9 289.7q-0.1-0.4-0.2-0.8-0.1-0.4-0.1-0.8-0.1-0.5-0.2-0.9 0-0.4 0-0.8-0.1-0.4-0.2-0.9 0-0.4-0.1-0.8 0-0.4-0.1-0.9 0-0.4 0-0.8 0.2 0.4 0.3 0.8 0.2 0.4 0.3 0.8 0.1 0.4 0.2 0.8 0.1 0.5 0.1 0.9 0.1 0.4 0.1 0.9 0.1 0.4 0.1 0.8 0 0.4-0.1 0.9 0 0.4-0.1 0.8z"/>
		<path class="s6" d="m452.2 298.1q-0.8 0-1.6-0.1-0.8 0-1.5-0.1-0.8-0.2-1.6-0.3-0.8-0.2-1.5-0.5 0.4 0 0.8 0 0.4 0 0.8 0 0.4 0.1 0.8 0.1 0.4 0.1 0.7 0.2 0.4 0 0.8 0.1 0.4 0 0.8 0.1 0.4 0.1 0.8 0.2 0.4 0.1 0.7 0.3z"/>
		<path class="s6" d="m451 309.2q0.4-0.8 0.8-1.6 0.5-0.8 1-1.5 0.5-0.8 1-1.5 0.6-0.7 1.2-1.4-0.2 0.4-0.4 0.8-0.2 0.4-0.4 0.8-0.2 0.4-0.5 0.8-0.2 0.4-0.5 0.7-0.2 0.4-0.5 0.8-0.2 0.4-0.5 0.7-0.3 0.4-0.6 0.7-0.3 0.4-0.6 0.7z"/>
		<path fill-rule="evenodd" class="s2" d="m401.4 239.2q0.2 0.9 0.1 1.8-0.2 1-0.7 1.8-0.4 0.8-1.2 1.4-0.8 0.5-1.7 0.8-0.9 0.2-1.9 0.1-0.9-0.2-1.7-0.7-0.9-0.5-1.4-1.2l-37.6-51.2q-2.5 1.3-5.1 2.2-2.6 1-5.3 1.7-2.7 0.7-5.5 1.1-2.7 0.4-5.5 0.4-0.7 0.1-1.4 0.1-0.7 0-1.3 0-0.7 0-1.4-0.1-0.7 0-1.4-0.1c-23.9-1.7-43.3-19.7-46.9-43.4-3.6-23.7 9.7-46.6 32-55.4 22.3-8.7 47.6-0.8 61.1 19 13.4 19.8 11.3 46.2-5 63.7q-0.7 0.8-1.5 1.5-0.7 0.7-1.5 1.4-0.7 0.7-1.5 1.4-0.8 0.7-1.7 1.3l37.2 50.7q0.6 0.8 0.8 1.7zm-39.6-63.7c7.5-7.6 11.8-17.8 12-28.4 0.2-10.7-3.6-21-10.8-28.9-7.2-7.8-17.1-12.7-27.7-13.5q-0.6 0-1.1 0-0.6-0.1-1.2-0.1-0.5 0-1.1 0-0.5 0-1.1 0.1c-10.7 0.3-20.8 4.7-28.3 12.3-7.5 7.6-11.8 17.8-12 28.4-0.2 10.7 3.7 21 10.9 28.9 7.2 7.9 17.1 12.7 27.8 13.5q0.5 0 1.1 0 0.5 0 1.1 0.1 0.5 0 1.1 0 0.6 0 1.1-0.1c10.7-0.3 20.8-4.8 28.2-12.3z"/>
		<path class="s3" d="m385.9 209.9l-4.5 15.1c0 0 23.1 8.4 35.6 8.2 11.7-0.1 15.1-1.4 19.2-10.9 4.1-9.4 8.8-20.3 9.8-26.6 0 0 6.6-28.8-18.6-26.2l-0.7 22.5c0 0-2.8 9.2-3 9.8-1.9 5-4.3 12.2-6.7 13.1-2.3 0.9-31.1-5-31.1-5z"/>
		<path class="s2" d="m422.1 222q-0.7-0.8-1.3-1.7-0.7-0.9-1.2-1.8-0.5-0.9-1-1.9-0.5-1-0.8-2 0.3 0.5 0.6 0.9 0.3 0.4 0.6 0.9 0.3 0.4 0.5 0.9 0.3 0.5 0.5 0.9 0.3 0.5 0.6 1 0.3 0.4 0.5 0.9 0.3 0.5 0.5 0.9 0.3 0.5 0.5 1z"/>
		<path class="s2" d="m424.4 219.6q-0.4-0.2-0.9-0.5-0.4-0.2-0.8-0.5-0.4-0.3-0.8-0.6-0.4-0.3-0.8-0.6-0.4-0.3-0.8-0.6-0.4-0.4-0.8-0.7-0.4-0.3-0.7-0.7-0.4-0.3-0.7-0.7 0.4 0.2 0.9 0.5 0.4 0.2 0.8 0.5 0.4 0.3 0.8 0.6 0.4 0.3 0.8 0.6 0.4 0.3 0.8 0.6 0.4 0.4 0.8 0.7 0.4 0.3 0.7 0.7 0.4 0.3 0.7 0.7z"/>
		<path class="s2" d="m432.3 178.6q-0.3 0.9-0.6 1.8-0.3 0.9-0.6 1.7-0.4 0.9-0.7 1.8-0.4 0.9-0.8 1.7-0.3 0.9-0.7 1.8-0.3 0.8-0.7 1.7-0.4 0.9-0.8 1.7-0.5 0.8-0.9 1.7 0.3-0.9 0.6-1.8 0.3-0.9 0.6-1.8 0.3-0.9 0.7-1.7 0.4-0.9 0.7-1.8 0.4-0.9 0.7-1.7 0.4-0.9 0.8-1.8 0.4-0.8 0.8-1.7 0.4-0.8 0.9-1.6z"/>
		<path class="s2" d="m445 200q0 0.1-0.1 0.3 0 0.1 0 0.3-0.1 0.1-0.1 0.3-0.1 0.1-0.1 0.2-0.5 1.3-1 3.1c-0.9 2.6-2.2 6.1-3.8 10-1.5 3.9-3 7.4-4.2 9.8-0.6 1.3-1.1 2.3-1.4 2.9q-0.1 0.2-0.2 0.3 0 0.1-0.1 0.3-0.1 0.1-0.2 0.2-0.1 0.1-0.2 0.2 0.1-0.1 0.1-0.2 0.1-0.2 0.1-0.3 0.1-0.2 0.2-0.3 0-0.1 0.1-0.3 0.5-1.1 1.3-3c1.1-2.5 2.5-6 4.1-9.8 1.5-3.9 2.8-7.4 3.8-10 0.5-1.3 0.9-2.3 1.2-3q0.1-0.2 0.1-0.3 0.1-0.1 0.1-0.2 0.1-0.2 0.2-0.3 0-0.1 0.1-0.2z"/>
		<path class="s2" d="m407.9 214.3c0 0.1-5-0.7-11.2-1.8-6.2-1.1-11.2-2.2-11.1-2.3 0-0.1 5 0.7 11.2 1.8 6.2 1.1 11.1 2.1 11.1 2.3z"/>
		<path class="s6" d="m434.1 200.5q-0.1-1-0.2-2 0-1 0-2 0-1.1 0.1-2.1 0-1 0.2-2 0.1 0.5 0.1 1 0.1 0.5 0.1 1 0 0.5 0 1 0 0.6 0 1.1 0 0.5 0 1 0 0.5 0 1-0.1 0.5-0.2 1 0 0.5-0.1 1z"/>
		<path class="s6" d="m425.1 228.2q0.1-0.4 0.3-0.8 0.1-0.4 0.3-0.7 0.2-0.4 0.3-0.8 0.2-0.4 0.4-0.8 0.2-0.3 0.3-0.7 0.2-0.4 0.3-0.8 0.2-0.4 0.4-0.8 0.1-0.3 0.3-0.7 0 0.4 0 0.8-0.1 0.5-0.2 0.9-0.1 0.4-0.3 0.8-0.1 0.4-0.3 0.7-0.2 0.5-0.3 0.8-0.2 0.4-0.5 0.8-0.2 0.3-0.4 0.7-0.3 0.3-0.6 0.6z"/>
		<path class="s6" d="m412.9 227.4q-0.5-0.8-1-1.7-0.5-0.9-1-1.8-0.5-0.9-1-1.7-0.5-0.9-0.9-1.8 0.3 0.3 0.7 0.7 0.3 0.4 0.6 0.8 0.3 0.4 0.5 0.9 0.3 0.4 0.5 0.9 0.3 0.4 0.5 0.9 0.3 0.4 0.5 0.9 0.2 0.5 0.3 0.9 0.2 0.5 0.3 1z"/>
		<path class="s6" d="m396 219.6q-0.4 0.3-0.8 0.5-0.4 0.2-0.8 0.4-0.4 0.2-0.8 0.4-0.4 0.2-0.9 0.3-0.4 0.2-0.8 0.4-0.4 0.1-0.9 0.3-0.4 0.1-0.8 0.2-0.5 0.1-0.9 0.2 0.4-0.3 0.8-0.5 0.4-0.2 0.8-0.4 0.4-0.2 0.8-0.4 0.4-0.1 0.8-0.3 0.5-0.2 0.9-0.3 0.4-0.2 0.8-0.3 0.5-0.2 0.9-0.3 0.5-0.1 0.9-0.2z"/>
		<path class="s6" d="m443.4 184.3c-0.2 0.1-1.3-1-2.9-2.1-1.6-1.2-3-1.8-3-1.9q0.5 0.1 0.9 0.2 0.4 0.1 0.9 0.3 0.4 0.2 0.8 0.4 0.4 0.3 0.7 0.5 0.4 0.3 0.8 0.6 0.3 0.2 0.6 0.6 0.4 0.3 0.6 0.6 0.3 0.4 0.6 0.8z"/>
		<path class="s6" d="m436.1 209.2q-0.9 0.3-1.9 0.5-1 0.3-2 0.4-1 0.1-2 0.1-1 0.1-2.1 0 0.5-0.1 1-0.2 0.5-0.1 1-0.2 0.5-0.1 1-0.1 0.5-0.1 1-0.1 0.5-0.1 1-0.2 0.5 0 1-0.1 0.5 0 1-0.1 0.5 0 1 0z"/>
		<path class="s5" d="m433.8 132.1q0.5-0.9 1.3-1.7 0.8-0.7 1.7-1.1 1-0.4 2-0.4 1.1-0.1 2.1 0.2 1 0.4 1.9 0.9 0.9 0.6 1.6 1.3 0.8 0.8 1.3 1.7 0.5 0.9 0.8 1.9 0.3 1 0.5 2 0.1 1.1 0.2 2.1 0 1.1-0.1 2.1-0.2 1-0.4 2.1c-0.5 2-1 4.3 0.3 5.8 1.3 1.5 3.5 1.4 4.9 2.6 0.7 0.7 1.2 1.6 1.2 2.5 0 1-0.3 1.9-1 2.6-0.7 0.6-1.6 1-2.6 1-0.9-0.1-1.8-0.5-2.4-1.2 0 1.4 0.7 2.6 1.2 4 0.4 1.3 0.5 3-0.6 3.9q-0.3 0.2-0.7 0.3-0.3 0.2-0.7 0.2-0.4 0-0.8 0-0.4-0.1-0.7-0.2-0.4-0.2-0.7-0.4-0.4-0.2-0.7-0.4-0.3-0.3-0.6-0.5-0.3-0.3-0.6-0.6 0.2 0.6 0.3 1.1 0.1 0.6 0.1 1.2 0 0.5-0.1 1.1-0.1 0.5-0.3 1.1-0.1 0.5-0.5 1-0.3 0.4-0.7 0.8-0.5 0.4-1 0.6-0.5 0.2-1.1 0.3-0.7 0.1-1.3-0.1-0.7-0.1-1.4-0.5-0.6-0.3-1.1-0.8-0.4-0.5-0.8-1.2-0.2-0.6-0.5-1.3-0.2-0.7-0.3-1.4-0.1-0.7-0.1-1.4 0-0.7 0.1-1.4c0.2-2.9 1-5.8 1.3-8.7q0.2-1 0.2-2.1 0-1.1-0.1-2.2-0.1-1.1-0.4-2.2-0.3-1-0.8-2"/>
		<path class="s5" d="m450.7 149.1c0 0-0.1 0.1-0.3 0q-0.2 0-0.3-0.1-0.2 0-0.3-0.1-0.1-0.1-0.2-0.2-0.1-0.1-0.1-0.2-0.1-0.2-0.2-0.5 0-0.2 0.1-0.4 0-0.2 0.2-0.4 0.1-0.2 0.3-0.4 0.2-0.2 0.5-0.2 0.3-0.1 0.6-0.1 0.3 0 0.6 0.1 0.3 0.1 0.5 0.4 0.3 0.2 0.5 0.5 0.2 0.3 0.2 0.7 0.1 0.4 0.1 0.7 0 0.4-0.1 0.7 0 0.2-0.1 0.4-0.1 0.2-0.2 0.4-0.1 0.2-0.2 0.3-0.2 0.2-0.3 0.3-0.2 0.2-0.4 0.3-0.1 0.1-0.3 0.2-0.3 0.1-0.5 0.1-0.2 0.1-0.4 0.1-0.2 0-0.5 0-0.2 0-0.4-0.1-0.2 0-0.4-0.1-0.2-0.1-0.4-0.2-0.2-0.1-0.4-0.3-0.2-0.1-0.4-0.3-0.2-0.1-0.3-0.3-0.1-0.2-0.3-0.4-0.2-0.4-0.4-0.9-0.1-0.4-0.2-0.9-0.1-0.5-0.1-1 0-0.5 0.1-0.9c0.4-2.6 1.6-4.7 1.6-6.9q0-0.7-0.1-1.4-0.1-0.7-0.3-1.4-0.2-0.7-0.5-1.4-0.3-0.6-0.6-1.2-0.3-0.4-0.6-0.8-0.3-0.4-0.6-0.7-0.3-0.4-0.7-0.7-0.3-0.3-0.7-0.6c-0.8-0.6-1.2-0.8-1.2-0.8 0-0.1 0.1 0 0.3 0.1q0.2 0.1 0.3 0.1 0.1 0.1 0.2 0.1 0.1 0.1 0.3 0.2 0.1 0 0.2 0.1 0.4 0.3 0.8 0.6 0.4 0.3 0.7 0.7 0.4 0.3 0.7 0.7 0.3 0.4 0.6 0.8 0.4 0.6 0.7 1.3 0.3 0.7 0.5 1.4 0.2 0.7 0.3 1.4 0.1 0.8 0.1 1.5c0 2.3-1.2 4.5-1.5 6.9q-0.1 0.5-0.1 0.9 0 0.5 0.1 0.9 0 0.4 0.2 0.8 0.1 0.4 0.4 0.8 0.1 0.4 0.4 0.7 0.3 0.2 0.7 0.4 0.3 0.2 0.7 0.3 0.4 0.1 0.8 0.1 0.3 0 0.6-0.1 0.4-0.2 0.6-0.4 0.3-0.2 0.5-0.5 0.2-0.3 0.3-0.7 0.1-0.3 0.1-0.6 0-0.3-0.1-0.6 0-0.3-0.2-0.6-0.1-0.3-0.3-0.5-0.2-0.2-0.4-0.3-0.3-0.1-0.5-0.1-0.3 0-0.5 0-0.3 0.1-0.5 0.2-0.1 0.2-0.3 0.3-0.1 0.2-0.1 0.3-0.1 0.2-0.1 0.4 0 0.2 0.1 0.4 0.1 0.1 0.1 0.2 0.1 0.1 0.2 0.2 0.1 0.1 0.2 0.1 0.1 0.1 0.2 0.1c0.3 0.1 0.4 0.1 0.4 0.1z"/>
		<path class="s7" d="m427.6 170.1l1.3-30.6-12.1-9.1-11 5.3c0 0-0.4 13.9 0 19.9 0.4 6 6.4 6.6 6.4 6.6 0 0-0.1 3.5-0.2 7.2-0.1 1.1 0.1 2.1 0.5 3.1 0.3 1 0.9 1.9 1.7 2.7 0.7 0.7 1.6 1.3 2.6 1.7 0.9 0.5 2 0.7 3.1 0.7q1.5-0.1 2.9-0.6 1.3-0.6 2.4-1.7 1.1-1 1.7-2.4 0.6-1.3 0.7-2.8z"/>
		<path class="s2" d="m407 145.8c0 0.3 0.2 0.6 0.5 0.7 0.3 0.2 0.6 0.1 0.8-0.1 0.2-0.3 0.3-0.6 0.2-0.9-0.1-0.3-0.4-0.5-0.7-0.5q-0.2 0.1-0.3 0.1-0.2 0.1-0.3 0.2-0.1 0.1-0.1 0.2-0.1 0.2-0.1 0.3z"/>
		<path class="s2" d="m406.3 145c0.1 0.1 0.6-0.4 1.4-0.4 0.9-0.1 1.5 0.3 1.6 0.2 0-0.1-0.1-0.2-0.4-0.4q-0.2-0.2-0.5-0.3-0.4 0-0.7 0-0.3 0-0.6 0.1-0.3 0.1-0.6 0.4c-0.2 0.1-0.3 0.3-0.3 0.4z"/>
		<path class="s2" d="m415.9 145.8c0 0.3 0.2 0.6 0.5 0.7 0.3 0.2 0.6 0.1 0.8-0.1 0.2-0.3 0.3-0.6 0.2-0.9-0.1-0.3-0.4-0.5-0.7-0.5q-0.2 0.1-0.3 0.1-0.2 0.1-0.3 0.2-0.1 0.1-0.2 0.2 0 0.2 0 0.3z"/>
		<path class="s2" d="m415.4 145c0.1 0.1 0.7-0.4 1.5-0.4 0.8-0.1 1.5 0.3 1.5 0.2 0.1-0.1 0-0.2-0.3-0.4q-0.3-0.2-0.6-0.3-0.3 0-0.6 0-0.4 0-0.7 0.1-0.3 0.1-0.5 0.4c-0.3 0.1-0.3 0.3-0.3 0.4z"/>
		<path class="s6" d="m415.2 152.8q-0.5 0.2-1 0.4-0.5 0.2-1 0.4-0.5 0.1-1 0.3-0.5 0.1-1 0.2 0.2 0.3 0.5 0.6 0.3 0.2 0.7 0.3 0.4 0.1 0.8 0.1 0.3-0.1 0.7-0.2 0.3-0.1 0.6-0.3 0.3-0.2 0.5-0.5 0.2-0.3 0.2-0.7 0.1-0.3 0-0.7z"/>
		<path class="s9" d="m412.2 162.2q1.1 0 2.1-0.2 1.1-0.2 2.1-0.6 1-0.3 1.9-0.8 1-0.5 1.9-1.1c0.5-0.4-1.8 4.4-7.9 4.2z"/>
		<path class="s5" d="m446.4 156.8q-0.3 0-0.6 0-0.3-0.1-0.5-0.1-0.3-0.1-0.6-0.2-0.2-0.1-0.5-0.2-0.4-0.2-0.7-0.5-0.3-0.2-0.6-0.5-0.3-0.3-0.6-0.6-0.3-0.3-0.5-0.7-0.2-0.5-0.5-0.9-0.2-0.5-0.4-1-0.3-0.5-0.5-0.9-0.2-0.5-0.3-1c-1.2-2.8-2-5.4-2.6-7.3l-0.2-0.8c0-0.3-0.1-0.6-0.2-0.8-3.3-12.5-14.2-14.9-16.4-14.9-2.2 0-6.4-1.3-12.4 4.9q-0.3 0.4-0.6 0.7-0.3 0.4-0.6 0.8-0.3 0.4-0.6 0.8-0.2 0.4-0.4 0.8-0.5 0.7-1 1.3-0.4 0.7-0.7 1.4-0.3 0.7-0.6 1.5-0.2 0.7-0.4 1.5-0.1 0.4-0.2 0.7 0 0.4 0 0.8 0 0.4 0 0.7 0 0.4 0.1 0.8c0.1 0 0.1-1.1 0.6-2.9q0.1-0.4 0.2-0.7 0.1-0.4 0.3-0.8 0.1-0.4 0.3-0.7 0.1-0.4 0.3-0.7-0.2 0.8-0.2 1.7-0.1 0.9 0 1.8 0.1 0.9 0.3 1.7 0.2 0.9 0.5 1.7l2.2-0.6 7.6-2.6c-0.7-2.4 0.3-5.3 0.9-6.7h0.1q0.3 1.8 1.2 3.5 0.9 1.7 2.2 3 1.4 1.3 3.1 2.2 1.7 0.8 3.6 1.1l1.4 19.6c10.1-2.2 9.9-15.7 9.8-18.5 0.5 1.5 1.1 3.3 1.8 5.2q0.2 0.5 0.4 1 0.2 0.5 0.5 1 0.2 0.5 0.5 0.9 0.2 0.5 0.5 1 0.2 0.4 0.5 0.7 0.3 0.4 0.6 0.7 0.4 0.3 0.7 0.5 0.4 0.3 0.8 0.5 0.3 0.1 0.6 0.2 0.3 0.1 0.6 0.1 0.3 0.1 0.6 0.1 0.3 0 0.6-0.1 0.1 0 0.2 0 0.1 0 0.2-0.1 0.1 0 0.2-0.1 0.1 0 0.2-0.1-0.1 0-0.2 0-0.1 0-0.2 0-0.1 0-0.2 0.1-0.1 0-0.2 0z"/>
		<path class="s2" d="m412.4 152q-0.1 0-0.3-0.1-0.2 0-0.3 0-0.2 0-0.4-0.1-0.1 0-0.3 0c-0.2 0-0.4 0-0.5-0.2q0 0 0-0.1 0-0.1 0-0.2 0-0.1 0.1-0.2 0-0.1 0-0.1l0.6-1.7c0.4-1.3 0.7-2.4 1-3.2q0.1-0.1 0.1-0.3 0.1-0.2 0.1-0.3 0-0.2 0.1-0.4 0-0.1 0-0.3-0.1 0.1-0.2 0.3-0.1 0.1-0.1 0.3-0.1 0.1-0.2 0.3 0 0.1-0.1 0.3c-0.3 0.8-0.6 1.9-1 3.1l-0.5 1.7q-0.1 0.1-0.1 0.2 0 0.1-0.1 0.3 0 0.1 0 0.2 0.1 0.1 0.1 0.2 0 0 0 0.1 0.1 0 0.1 0.1 0.1 0 0.1 0 0.1 0.1 0.1 0.1 0.1 0 0.1 0 0.1 0 0.1 0 0.1 0 0.1 0 0 0 0.1 0 0.2 0 0.3 0 0.2 0 0.4 0 0.1 0 0.3 0 0.2 0 0.3 0z"/>
		<path class="s7" d="m429.6 151.7q-0.1-0.4-0.1-0.7 0-0.4 0.1-0.8 0-0.4 0.1-0.8 0.1-0.3 0.2-0.7 0.1-0.3 0.3-0.7 0.2-0.3 0.5-0.5 0.3-0.3 0.6-0.4 0.4-0.2 0.7-0.2 0.5-0.1 0.9 0.1 0.4 0.1 0.7 0.4 0.4 0.3 0.6 0.6 0.2 0.4 0.3 0.9 0 0.4 0 0.8-0.1 0.4-0.3 0.8-0.2 0.4-0.5 0.7-0.3 0.3-0.7 0.5-0.4 0.2-0.8 0.3-0.4 0.1-0.9 0.2-0.4 0-0.8-0.1-0.4-0.1-0.8-0.3"/>
		<path class="s9" d="m431.3 150.8c0 0 0.3 0.1 0.8 0q0.2-0.1 0.3-0.2 0.2-0.1 0.3-0.3 0.1-0.2 0.2-0.4 0.1-0.2 0.1-0.4 0-0.1 0-0.2 0-0.1-0.1-0.2 0-0.1 0-0.2-0.1-0.1-0.2-0.2 0 0-0.1-0.1-0.1 0-0.2 0 0-0.1-0.1-0.1-0.1 0-0.2 0c-0.5 0-0.8 0.2-0.8 0.1 0-0.1 0.2-0.3 0.7-0.4q0.2-0.1 0.3-0.1 0.1 0 0.3 0.1 0.1 0 0.2 0 0.1 0.1 0.2 0.2 0.2 0.1 0.2 0.2 0.1 0.2 0.2 0.3 0 0.2 0.1 0.3 0 0.2-0.1 0.3 0 0.2 0 0.4 0 0.1-0.1 0.2 0 0.2-0.1 0.3-0.1 0.2-0.2 0.3-0.1 0.1-0.2 0.1-0.1 0.1-0.2 0.2-0.1 0-0.2 0.1-0.2 0-0.3 0c-0.6 0.1-0.8-0.2-0.8-0.3z"/>
		<path class="s2" d="m433.1 151.7c0 0 0.5 0.3 0.5 1.1q0 0.1-0.1 0.3 0 0.2-0.1 0.3-0.1 0.2-0.2 0.3-0.1 0.2-0.2 0.3-0.2 0.1-0.4 0.3-0.1 0.1-0.3 0.1-0.3 0.1-0.5 0.1-0.2 0-0.4 0-0.2 0-0.4-0.1-0.2-0.1-0.4-0.2-0.2-0.2-0.3-0.3-0.2-0.2-0.3-0.4-0.1-0.2-0.1-0.3-0.1-0.2-0.1-0.4 0-0.1 0-0.3 0-0.2 0.1-0.4c0.2-0.7 0.7-1 0.8-0.9 0 0.1-0.4 0.4-0.5 1q-0.1 0.5 0.1 0.9 0.2 0.5 0.6 0.7 0.5 0.2 0.9 0.2 0.5 0 0.9-0.4 0.1 0 0.2-0.2 0.1-0.1 0.1-0.2 0.1-0.1 0.1-0.2 0.1-0.2 0.1-0.3 0-0.1 0-0.3 0-0.1 0-0.2 0-0.2 0-0.3-0.1-0.1-0.1-0.2z"/>
		<path class="s5" d="m429.6 147.5q-0.1 0.1-0.2 0.2-0.1 0-0.2 0.1-0.1 0.1-0.2 0.1-0.1 0.1-0.2 0.1-0.3 0.1-0.6 0.2-0.3 0.1-0.6 0.2-0.3 0-0.6 0.1-0.3 0-0.6 0-0.5 0-0.9-0.1-0.5 0-1-0.1-0.4-0.1-0.8-0.3-0.5-0.2-0.9-0.4-0.5-0.3-0.9-0.6-0.5-0.3-0.9-0.7-0.5-0.4-0.8-0.8-0.4-0.4-0.7-0.9-0.6-0.9-1-1.8-0.5-0.9-0.8-1.9-0.3-0.9-0.6-1.9-0.2-1-0.3-2.1c-0.1-1-0.2-1.8-0.2-2.4q0-0.1-0.1-0.2 0-0.1 0-0.2 0-0.1 0-0.3 0.1-0.1 0.1-0.2 0.1 0.4 0.2 0.8 0 0.4 0.1 0.8 0.1 0.5 0.2 0.9 0 0.4 0.1 0.8 0.1 1 0.4 2 0.2 0.9 0.5 1.8 0.4 1 0.8 1.9 0.5 0.9 1 1.7 0.3 0.5 0.6 0.9 0.4 0.4 0.8 0.7 0.4 0.4 0.8 0.7 0.4 0.3 0.9 0.6 0.4 0.2 0.8 0.4 0.4 0.1 0.8 0.3 0.5 0.1 0.9 0.1 0.4 0.1 0.9 0.1 0.4 0 0.8 0 0.4 0 0.8-0.1 0.4-0.1 0.8-0.2 0.4-0.1 0.8-0.3z"/>
		<path class="s2" d="m436.3 138.9c-0.1 0-0.6-1.7-1.7-3.6-1.2-1.9-2.6-3.1-2.5-3.2q0.5 0.3 0.9 0.6 0.4 0.3 0.7 0.7 0.4 0.4 0.7 0.8 0.3 0.4 0.6 0.9 0.3 0.4 0.5 0.8 0.2 0.5 0.4 1 0.2 0.5 0.3 1 0.1 0.5 0.1 1z"/>
		<path class="s7" d="m381.9 223.5h-3.5c-3.3-0.4-5-0.4-5.9-1.3-1.2-1.1 0.4-2.2 0.4-2.2 0 0-2.3-0.8-2.1-2.2 0.2-1 1.3-1.1 1.3-1.1 0 0-2-0.8-2.5-1.7-0.5-1.1 0.9-1.7 0.9-1.7-2.8-1.8-2.5-3.5-1.9-3.6 0.6-0.2 2.8 0.8 2.8 0.8 1.9 0.5 6.9 2.1 5-0.7-1.8-2.8-2.2-5.6-1.8-6.5q0.1-0.3 0.5-0.5 0.3-0.1 0.7 0 0.3 0.1 0.5 0.4 0.2 0.3 0.2 0.6 0.1 0.4 0.3 0.8 0.1 0.4 0.3 0.8 0.1 0.4 0.3 0.8 0.2 0.4 0.4 0.7 0.2 0.3 0.4 0.6 0.2 0.3 0.4 0.5 0.2 0.3 0.4 0.5 0.3 0.3 0.5 0.5 1.2 1 2.1 1.7l3.1 3z"/>
		<path class="s7" d="m359.9 188.2c0.3-0.7 0.9-1.3 1.6-0.9q0.1 0.1 0.2 0.3 0 0.1 0.1 0.2 0 0.2 0 0.4 0 0.1-0.1 0.3l-2.2 7.1 2.1-5c0.3-0.8 0.9-1.3 1.4-0.9q0.1 0.2 0.2 0.3 0 0.1 0 0.3 0.1 0.1 0 0.3 0 0.1 0 0.3l-1.9 5.9 1.5-3.7c0.4-0.8 0.7-1.1 1.2-0.9 0.4 0.2 0.4 0.8 0.3 1.2l-1.3 4.3c0.3 0.8 1.2 3.5 0.3 4.9 0 0.1 0.1 0.4 0.1 0.4l0.4 0.5-2.8 2.7c0 0-2.7-6.8-3.2-8.8q-0.1-0.5-0.1-0.9-0.1-0.5-0.1-0.9 0-0.5 0.1-0.9 0.1-0.4 0.3-0.9z"/>
	</g>
</svg>