<svg version="1.2" xmlns="http://www.w3.org/2000/svg" viewBox="0 0 500 364" width="500" height="364">
	<title>newsletter-svg</title>
	<style>
		.s0 { fill: #ffffff } 
		.s1 { fill: #a6a9e8 } 
		.s2 { fill: #b1b2f3 } 
		.s3 { fill: #56548c } 
		.s4 { fill: #7782e0 } 
		.s5 { fill: #878cf0 } 
		.s6 { fill: #d0d2f4 } 
		.s7 { fill: #ffc8af } 
		.s8 { fill: #ec827d } 
		.s9 { fill: #dd6666 } 
		.s10 { fill: #c6c4ce } 
		.s11 { fill: #dcdae5 } 
		.s12 { fill: #f2f2f4 } 
		.s13 { fill: #fbd15b } 
		.s14 { fill: #112b46 } 
		.s15 { fill: #4f61e0 } 
		.s16 { fill: #606bf1 } 
		.s17 { fill: #404077 } 
		.s18 { fill: #f7d159 } 
		.s19 { fill: #efc252 } 
	</style>
	<g id="BACKGROUND">
		<path class="s0" d="m500-54v500h-500v-500z"/>
	</g>
	<g id="OBJECTS">
		<g>
			<g>
				<path class="s1" d="m458.2 133.6q0 0 0 0-1.9-1-3.9-1.6-0.2 0-0.3-0.1-0.5-0.1-1.1-0.3-0.2 0-0.3 0-0.5-0.2-1-0.2-0.2-0.1-0.5-0.1-0.4-0.1-0.9-0.2-0.2 0-0.5 0-0.5-0.1-1-0.1-0.2 0-0.4 0-0.7-0.1-1.4-0.1c-5.4 0-10.3 1.6-14.4 4.4q-1.5 1-2.9 2.3-1.4 1.2-2.5 2.6-0.4 0.5-0.8 1-0.7 1-1.4 2.1-0.3 0.5-0.6 1-0.4 0.8-0.7 1.5-0.4 0.8-0.7 1.6-0.5 1.4-0.9 2.8-0.8 3-0.8 6.4 0 0.6 0 1.2 0 0.2 0.1 0.4 0 0.4 0 0.8 0 0.2 0.1 0.4 0 0.4 0.1 0.8 0 0.2 0 0.4 0.1 0.5 0.2 0.9 0 0.2 0.1 0.4 0.1 0.5 0.2 0.9 0 0.3 0.1 0.5 0.1 0.3 0.2 0.7 0.1 0.2 0.2 0.5 0 0.3 0.1 0.5 0.1 0.3 0.2 0.6 0.1 0.2 0.2 0.5 0.2 0.5 0.5 1 0.1 0.2 0.2 0.4 0.1 0.3 0.3 0.6 0.1 0.2 0.2 0.4 0.1 0.3 0.3 0.6 0.1 0.2 0.2 0.4 0.2 0.3 0.3 0.6 0.1 0.1 0.2 0.2 0.5 0.8 1 1.5 0 0 0 0c4.7 6.3 12.2 10.4 20.7 10.4 14.1 0 25.6-11.5 25.6-25.6 0-10.1-5.8-18.9-14.3-23z"/>
				<path class="s1" d="m382.4 125.2q0 0 0 0-2.6-1.3-5.4-2.1-0.2 0-0.3-0.1-0.8-0.2-1.5-0.4-0.3 0-0.5-0.1-0.7-0.2-1.4-0.3-0.3 0-0.6-0.1-0.6-0.1-1.3-0.2-0.3 0-0.6-0.1-0.7 0-1.4-0.1-0.2 0-0.5 0-1-0.1-2-0.1c-19.3 0-34.9 15.7-34.9 35q0 0.8 0 1.6 0 0.3 0 0.5 0.1 0.6 0.1 1.1 0.1 0.3 0.1 0.6 0 0.6 0.1 1.1 0.1 0.3 0.1 0.6 0.1 0.6 0.2 1.2 0.1 0.3 0.1 0.5 0.2 0.7 0.3 1.3 0.1 0.3 0.2 0.7 0.1 0.4 0.2 0.8 0.2 0.4 0.3 0.7 0.1 0.4 0.2 0.8 0.1 0.4 0.3 0.7 0.1 0.4 0.3 0.7 0.2 0.7 0.6 1.4 0.1 0.3 0.2 0.6 0.2 0.4 0.4 0.8 0.2 0.3 0.3 0.5 0.2 0.5 0.4 0.9 0.2 0.2 0.3 0.4 0.3 0.5 0.5 0.9 0.1 0.1 0.2 0.3c6.2 9.7 17.1 16.2 29.5 16.2 19.3 0 35-15.6 35-34.9 0-13.8-8-25.7-19.5-31.4z"/>
				<path class="s2" d="m424.4 66.4q-0.2-0.1-0.4-0.1-0.9-0.3-1.9-0.5-0.3-0.1-0.7-0.2-0.8-0.2-1.7-0.3-0.3-0.1-0.7-0.2-0.9-0.1-1.7-0.2-0.4-0.1-0.8-0.1-0.9-0.1-1.7-0.2-0.4 0-0.8 0-1.2-0.1-2.5-0.1c-8.4 0-16.4 2.3-23.1 6.4q-0.9 0.6-1.8 1.2c-3.6 2.4-6.8 5.3-9.5 8.6-6.4 7.7-10.2 17.6-10.2 28.4q0 1.1 0.1 2.1 0 0.3 0 0.7 0.1 0.7 0.1 1.4 0.1 0.4 0.1 0.8 0.1 0.6 0.2 1.3 0 0.4 0.1 0.7 0.1 0.9 0.3 1.7 0 0.2 0.1 0.5 0.2 0.9 0.4 1.7 0.1 0.4 0.2 0.8 0.1 0.6 0.3 1.2 0.1 0.4 0.3 0.9 0.1 0.4 0.3 0.9 0.2 0.5 0.3 1 0.2 0.4 0.4 0.9 0.4 0.9 0.8 1.8 0.1 0.3 0.3 0.7 0.2 0.5 0.5 1 0.2 0.4 0.3 0.7 0.3 0.5 0.6 1 0.2 0.3 0.4 0.6 0.3 0.6 0.6 1.1 0.1 0.2 0.3 0.4c7.9 12.5 21.8 20.7 37.6 20.7 24.7 0 44.7-19.9 44.7-44.6 0-20.2-13.4-37.2-31.8-42.7z"/>
				<path class="s3" d="m446.9 159l-33.4 18.1-2-55.1-2.3 66-40.5-31.4 40.3 37.2-1.7 88.7h8.4l-2.1-100.2z"/>
			</g>
			<g>
				<g>
					<g>
						<path class="s4" d="m116.3 286.5c-16.2-8.6-52.5-10.9-63.1-25.9-2.4-3.3-4.5-7-4.8-11.1-0.4-4.1 1.3-8.6 4.9-10.5 3-1.6 6.9-1.4 9.2-3.9 1.9-2 2-5.3 0.9-7.8-1.1-2.6-3.1-4.6-5.2-6.5-5.1-4.7-10.8-9.3-13.4-15.6-2.7-6.4-0.9-15.3 5.6-17.8 3.8-1.4 8.6-0.5 11.5-3.4 2.7-2.7 2.1-7.3 0.1-10.5-2-3.3-5.1-5.7-7.3-8.8-3.6-4.9-4.7-11.5-3.1-17.3 1.7-5.8 6.2-10.8 11.8-13z"/>
						<path class="s5" d="m116.3 286.5c7.4-16.8 34.3-41.1 33.4-59.4-0.2-4.1-0.9-8.3-3.2-11.8-2.2-3.4-6.3-5.9-10.4-5.1-3.2 0.5-6.2 3.1-9.5 2.7-2.8-0.4-4.9-2.9-5.6-5.6-0.8-2.7-0.4-5.6 0-8.4 1.2-6.8 2.8-13.9 0.9-20.6-1.9-6.6-8.8-12.5-15.4-10.4-3.9 1.2-7.1 4.9-11.2 4.5-3.7-0.5-6.1-4.5-6.6-8.3-0.4-3.7 0.5-7.5 0.3-11.3-0.2-6.1-3.4-11.9-8.3-15.5-4.9-3.5-11.5-4.6-17.3-2.9z"/>
						<g>
							<path class="s4" d="m70.1 161.7q-0.2 0-0.3-0.1l-15.6-8.3c-0.3-0.1-0.4-0.5-0.2-0.8 0.1-0.3 0.5-0.5 0.9-0.3l15.5 8.3c0.3 0.1 0.4 0.5 0.2 0.8-0.1 0.3-0.3 0.4-0.5 0.4z"/>
						</g>
						<g>
							<path class="s5" d="m75.6 160.7q-0.1 0-0.2 0c-0.3-0.1-0.5-0.5-0.4-0.8l6.4-16.7c0.1-0.3 0.5-0.5 0.8-0.3 0.4 0.1 0.5 0.5 0.4 0.8l-6.3 16.6c-0.1 0.3-0.4 0.4-0.7 0.4z"/>
						</g>
						<g>
							<path class="s5" d="m95.6 211.5q-0.1 0-0.3-0.1c-0.3-0.2-0.4-0.6-0.3-0.9l15.8-32.6c0.1-0.3 0.5-0.4 0.8-0.3 0.4 0.2 0.5 0.6 0.3 0.9l-15.7 32.6c-0.1 0.2-0.4 0.4-0.6 0.4z"/>
						</g>
						<g>
							<path class="s5" d="m108.5 257q-0.3 0-0.5-0.2c-0.2-0.2-0.3-0.6 0-0.9l30.5-33.8c0.2-0.2 0.6-0.2 0.9 0 0.3 0.2 0.3 0.6 0.1 0.9l-30.6 33.8q-0.2 0.2-0.4 0.2z"/>
						</g>
						<g>
							<path class="s4" d="m84.7 213.9q-0.1 0-0.2-0.1l-35.1-16.1c-0.3-0.1-0.5-0.5-0.3-0.8 0.1-0.3 0.5-0.5 0.8-0.3l35.1 16.1c0.3 0.1 0.5 0.5 0.3 0.8-0.1 0.3-0.3 0.4-0.6 0.4z"/>
						</g>
						<g>
							<path class="s4" d="m101.6 260q-0.1 0-0.2 0l-48.1-13.6c-0.3-0.1-0.5-0.4-0.4-0.8 0.1-0.3 0.5-0.5 0.8-0.4l48.1 13.6c0.3 0.1 0.5 0.4 0.4 0.8 0 0.2-0.3 0.4-0.6 0.4z"/>
						</g>
					</g>
					<g>
						<path class="s4" d="m220.9 265.9c-12.1-7.7-40.1-11.9-47.4-24.2-1.7-2.8-3-5.8-3.1-9.1 0-3.2 1.6-6.5 4.6-7.8 2.4-1.1 5.4-0.7 7.4-2.4 1.6-1.4 1.9-4 1.2-6.1-0.7-2-2.1-3.7-3.6-5.4-3.7-3.9-7.8-7.8-9.5-13-1.6-5.1 0.3-11.9 5.5-13.4 3.1-0.9 6.8 0.1 9.2-1.9 2.3-1.9 2.1-5.6 0.7-8.2-1.3-2.7-3.5-4.8-5.1-7.3-2.4-4.1-2.9-9.2-1.2-13.7 1.7-4.4 5.5-8 10-9.4z"/>
						<path class="s5" d="m220.9 265.9c6.9-12.6 29.4-29.8 29.9-44.1 0.1-3.2-0.2-6.5-1.7-9.4-1.5-2.8-4.6-5-7.8-4.7-2.6 0.3-5 2.1-7.6 1.5-2.1-0.4-3.6-2.5-4-4.7-0.4-2.1 0.1-4.4 0.6-6.5 1.3-5.2 3-10.6 2-16-1.1-5.3-6.1-10.3-11.3-9.1-3.1 0.7-5.9 3.4-9 2.8-2.9-0.6-4.5-3.9-4.6-6.9-0.1-2.9 0.9-5.8 1-8.8 0.2-4.7-1.9-9.5-5.5-12.6-3.6-3-8.7-4.3-13.3-3.4z"/>
						<g>
							<path class="s5" d="m192 164.1q-0.1 0-0.3-0.1l-11.5-7.5c-0.3-0.2-0.4-0.6-0.2-0.9 0.2-0.3 0.6-0.3 0.9-0.1l11.5 7.4c0.3 0.2 0.4 0.6 0.2 0.9-0.1 0.2-0.3 0.3-0.6 0.3z"/>
						</g>
						<g>
							<path class="s4" d="m197.6 163.1q-0.1 0-0.2 0c-0.4-0.1-0.5-0.5-0.4-0.8l4.6-11.1c0.2-0.3 0.6-0.4 0.9-0.3 0.3 0.1 0.5 0.5 0.3 0.8l-4.6 11c-0.1 0.3-0.3 0.4-0.6 0.4z"/>
						</g>
						<g>
							<path class="s5" d="m199.9 204.1q-0.1 0-0.3-0.1l-23.8-11.7c-0.3-0.1-0.4-0.5-0.3-0.8 0.2-0.3 0.6-0.5 0.9-0.3l23.8 11.7c0.3 0.1 0.5 0.5 0.3 0.8-0.1 0.3-0.3 0.4-0.6 0.4z"/>
						</g>
						<g>
							<path class="s4" d="m209.9 201.2q-0.2 0-0.4-0.1c-0.2-0.3-0.3-0.7-0.1-0.9l15.8-20.5c0.3-0.3 0.7-0.3 0.9-0.1 0.3 0.2 0.4 0.6 0.2 0.9l-15.9 20.4q-0.2 0.3-0.5 0.3z"/>
						</g>
						<g>
							<path class="s4" d="m217.4 243.6q-0.3 0-0.5-0.2c-0.2-0.2-0.2-0.6 0-0.9l25.8-26.6c0.2-0.2 0.6-0.2 0.9 0 0.2 0.3 0.2 0.7 0 0.9l-25.8 26.6q-0.2 0.2-0.4 0.2z"/>
						</g>
						<g>
							<path class="s5" d="m211.4 244.8q-0.1 0-0.2 0l-36.9-13.1c-0.4-0.2-0.6-0.5-0.4-0.9 0.1-0.3 0.5-0.5 0.8-0.4l36.9 13.2c0.3 0.1 0.5 0.5 0.4 0.8-0.1 0.3-0.4 0.4-0.6 0.4z"/>
						</g>
					</g>
					<g>
						<path class="s4" d="m411.8 284.4c8.3-5.3 27.5-8.2 32.5-16.7 1.2-1.8 2.1-3.9 2.1-6.1 0-2.2-1.1-4.6-3.1-5.4-1.6-0.7-3.7-0.5-5.1-1.7-1.1-0.9-1.3-2.7-0.8-4.1 0.5-1.5 1.5-2.6 2.5-3.7 2.5-2.7 5.3-5.4 6.5-9 1.1-3.5-0.2-8.2-3.8-9.2-2.1-0.6-4.6 0.1-6.3-1.3-1.6-1.3-1.4-3.8-0.5-5.6 0.9-1.8 2.5-3.3 3.5-5 1.7-2.8 2-6.4 0.8-9.4-1.1-3-3.7-5.5-6.8-6.5z"/>
						<path class="s5" d="m411.8 284.4c-4.7-8.7-20.2-20.5-20.5-30.3-0.1-2.2 0.1-4.5 1.2-6.4 1-1.9 3.1-3.4 5.3-3.2 1.8 0.1 3.5 1.4 5.2 1 1.5-0.3 2.5-1.8 2.8-3.2 0.3-1.5-0.1-3-0.4-4.5-0.9-3.6-2.1-7.3-1.4-11 0.7-3.6 4.1-7 7.8-6.2 2.1 0.5 4 2.3 6.1 1.9 2-0.4 3.1-2.7 3.2-4.7 0-2.1-0.6-4-0.7-6.1-0.1-3.2 1.3-6.5 3.8-8.6 2.5-2.1 5.9-3 9.1-2.4z"/>
						<g>
							<path class="s4" d="m431.6 214.7q0.2 0 0.4-0.1l7.8-5.1c0.3-0.2 0.4-0.6 0.2-0.9-0.2-0.3-0.6-0.4-0.9-0.2l-7.8 5.1c-0.3 0.2-0.4 0.6-0.2 0.9 0.1 0.2 0.3 0.3 0.5 0.3z"/>
						</g>
						<g>
							<path class="s5" d="m427.8 214.1q0.1 0 0.2-0.1c0.4-0.1 0.5-0.5 0.4-0.8l-3.2-7.6c-0.1-0.3-0.5-0.5-0.8-0.3-0.4 0.1-0.5 0.5-0.4 0.8l3.2 7.6c0.1 0.2 0.3 0.4 0.6 0.4z"/>
						</g>
						<g>
							<path class="s4" d="m426.2 242.2q0.1 0 0.3-0.1l16.3-8c0.3-0.2 0.5-0.6 0.3-0.9-0.1-0.3-0.5-0.4-0.9-0.3l-16.3 8.1c-0.3 0.1-0.4 0.5-0.3 0.8 0.1 0.2 0.4 0.4 0.6 0.4z"/>
						</g>
						<g>
							<path class="s5" d="m419.3 240.2q0.2 0 0.4-0.1c0.3-0.3 0.4-0.7 0.1-1l-10.8-14c-0.2-0.3-0.6-0.3-0.9-0.1-0.3 0.2-0.4 0.6-0.1 0.9l10.8 14c0.1 0.2 0.3 0.3 0.5 0.3z"/>
						</g>
						<g>
							<path class="s5" d="m414.2 269.3q0.3 0 0.5-0.2c0.2-0.3 0.2-0.7 0-0.9l-17.7-18.2c-0.2-0.3-0.6-0.3-0.9-0.1-0.2 0.3-0.3 0.7 0 1l17.7 18.2q0.2 0.2 0.4 0.2z"/>
						</g>
						<g>
							<path class="s4" d="m418.3 270.1q0.2 0 0.3 0l25.3-9c0.3-0.1 0.5-0.5 0.4-0.8-0.1-0.4-0.5-0.6-0.8-0.4l-25.4 9c-0.3 0.1-0.5 0.5-0.4 0.8 0.1 0.3 0.4 0.4 0.6 0.4z"/>
						</g>
					</g>
					<g>
						<path class="s4" d="m303.1 260.5c12.1-7.8 40.1-11.9 47.4-24.3 1.7-2.7 3-5.8 3.1-9 0-3.2-1.6-6.6-4.6-7.8-2.4-1.1-5.4-0.7-7.4-2.4-1.6-1.4-1.9-4-1.2-6.1 0.7-2.1 2.2-3.8 3.6-5.4 3.7-3.9 7.8-7.9 9.5-13 1.6-5.2-0.3-12-5.5-13.5-3.1-0.8-6.8 0.2-9.2-1.9-2.3-1.9-2.1-5.5-0.7-8.2 1.3-2.6 3.5-4.7 5.1-7.2 2.4-4.1 2.9-9.3 1.2-13.7-1.7-4.4-5.5-8-10-9.4z"/>
						<path class="s5" d="m303.1 260.5c-6.8-12.6-29.4-29.8-29.9-44.1-0.1-3.2 0.2-6.6 1.7-9.4 1.5-2.8 4.6-5 7.8-4.7 2.6 0.3 5 2.1 7.6 1.5 2.1-0.5 3.6-2.6 4-4.7 0.4-2.2 0-4.4-0.6-6.5-1.3-5.3-3-10.7-2-16 1.1-5.3 6.1-10.3 11.3-9.1 3.1 0.7 5.9 3.4 9 2.7 2.9-0.5 4.5-3.8 4.6-6.8 0.1-2.9-0.9-5.8-1-8.8-0.2-4.7 1.9-9.5 5.5-12.6 3.6-3 8.7-4.3 13.3-3.4z"/>
						<g>
							<path class="s5" d="m332 158.7c-0.3 0-0.5-0.1-0.6-0.3-0.2-0.3-0.1-0.7 0.2-0.9l11.5-7.5c0.3-0.2 0.7-0.1 0.9 0.2 0.2 0.3 0.1 0.7-0.2 0.9l-11.5 7.5q-0.2 0.1-0.3 0.1z"/>
						</g>
						<g>
							<path class="s4" d="m326.4 157.7c-0.3 0-0.5-0.1-0.6-0.4l-4.6-11c-0.2-0.3 0-0.7 0.3-0.8 0.3-0.2 0.7 0 0.9 0.3l4.6 11c0.1 0.4 0 0.7-0.4 0.9q-0.1 0-0.2 0z"/>
						</g>
						<g>
							<path class="s5" d="m324.1 198.7c-0.3 0-0.5-0.2-0.6-0.4-0.2-0.3 0-0.7 0.3-0.9l23.8-11.6c0.3-0.2 0.7-0.1 0.9 0.3 0.1 0.3 0 0.7-0.3 0.8l-23.8 11.7q-0.2 0.1-0.3 0.1z"/>
						</g>
						<g>
							<path class="s4" d="m314.1 195.8q-0.3 0-0.5-0.3l-15.9-20.4c-0.2-0.3-0.1-0.7 0.2-0.9 0.2-0.3 0.6-0.2 0.9 0.1l15.8 20.4c0.2 0.3 0.1 0.7-0.1 0.9q-0.2 0.2-0.4 0.2z"/>
						</g>
						<g>
							<path class="s4" d="m306.6 238.2q-0.2 0-0.4-0.2l-25.8-26.6c-0.2-0.2-0.2-0.6 0-0.9 0.3-0.2 0.7-0.2 0.9 0l25.8 26.6c0.2 0.2 0.2 0.6 0 0.9q-0.2 0.2-0.5 0.2z"/>
						</g>
						<g>
							<path class="s5" d="m312.6 239.4c-0.2 0-0.5-0.2-0.6-0.4-0.1-0.4 0.1-0.7 0.4-0.8l36.9-13.2c0.4-0.1 0.7 0.1 0.8 0.4 0.2 0.4 0 0.7-0.3 0.8l-37 13.2q-0.1 0-0.2 0z"/>
						</g>
					</g>
					<path class="s5" d="m124.2 135.2c1.5-1.6 2.9-3.4 3.8-5.4 0.5-1.3 0.9-2.8 1.1-4.1 0.2-1.6-0.2-2.2-1-3.5-1.2-2-4.2-3-6.2-1.7-1.3 0.9-1.9 2.6-2.3 4.2-0.5 1.9-3.3 15.1 1.2 13.5 0.5-0.2 1-0.6 1.4-1q1-1 2-2z"/>
					<path class="s5" d="m299.8 147.6c-1.5-1.6-3-3.4-3.8-5.4-0.6-1.3-1-2.8-1.2-4.1-0.1-1.6 0.3-2.2 1-3.5 1.3-2 4.2-3 6.2-1.7 1.4 0.9 2 2.6 2.4 4.2 0.4 1.9 3.2 15.1-1.3 13.5-0.5-0.2-0.9-0.6-1.3-1q-1-1-2-2z"/>
					<path class="s4" d="m46.7 222.8c-0.9-1.4-1.9-2.8-2.7-3.7-1.8-2.3-4.2-4.3-7.1-5.2-4.2-1.2-10.7 1.1-8.9 6.6 0.6 2 2.5 3.3 4.3 4.4 2.1 1.1 17.1 9.2 16.7 3.1-0.1-1.5-1.1-3.4-2.3-5.2z"/>
				</g>
				<path class="s2" d="m211 274.3c-8.3-1.6-14.3 4.6-14.7 5-0.4-1.2-4-13-15.7-17.2-7.4-2.6-14-0.7-16.2 0 1.5-4 0.7-8.4-2.1-11.6-2.9-3.5-7.7-4.8-12.1-3.5-5-7.8-14.2-11.8-23.3-10.2-8.9 1.6-16.1 8.4-18.2 17.2-2.7-4-7.6-6-12.2-5-4.1 0.8-7.3 4-8.6 8.1-5.6-5.9-14-8-21.7-5.6-6.9 2.2-12.1 7.7-14 14.5-5.5-4.3-12.9-6-19.8-3.8-10.3 3.3-16.8 14.2-14.6 25.3q17 0 33.9 0h14 157.9c-1.2-6.8-6.3-12-12.6-13.2z"/>
				<path class="s2" d="m448.8 268.6c-11.9-2.3-20.5 6.6-21.1 7.2-0.5-1.8-5.7-18.7-22.6-24.7-10.6-3.8-20-1.1-23.2 0 2.1-5.8 1-12.2-2.9-16.8-4.3-4.9-11.1-6.9-17.5-5-7.2-11.1-20.4-16.9-33.4-14.6-12.8 2.3-23.1 12.1-26.2 24.8-3.9-5.8-10.9-8.8-17.4-7.3-5.9 1.2-10.6 5.7-12.4 11.6-8.1-8.4-20.2-11.5-31.3-8-9.8 3.1-17.3 11.1-20.1 20.9-7.9-6.3-18.5-8.6-28.4-5.5-14.8 4.7-24.1 20.4-20.9 36.3q24.3 0 48.6 0h20.2 226.8c-1.8-9.7-9.1-17.2-18.2-18.9z"/>
				<g>
					<path class="s5" d="m137.1 266.1c4.4-1.9 9.4-2.1 14-0.8 0.6-9.9 5.1-19.1 12.8-24.9 10.4-7.8 25.2-8.4 37.7-1.7-0.7-4.6 1.6-9.2 5.7-11.4 4.2-2.3 9.5-1.7 13.1 1.7 0.7-1.8 5.5-12.2 17.1-15.8 10.5-3.3 22.4 0.2 30.3 9 5.8-4.1 13.4-4.7 19.8-1.6 6.4 3 10.7 9.3 11.1 16.4 12-5 25.5-3.6 34.6 4.1 7.1 5.9 11 15.3 10.9 25.1 8.1 3.6 13.3 12 12.9 21.3q-9.9 0-19.8 0-15 0-30.1 0-66.8 0-133.5 0-8.6 0-17.2 0-16.3 0-32.7 0c-0.4-9.4 5-18 13.3-21.4z"/>
					<path class="s4" d="m140.4 287.5q60.7 0 121.4 0c1.6-6.5-0.9-13.1-6.1-16.3-5.8-3.6-12.1-1.3-12.9-1 2.2-5.5 0.7-11.7-3.6-15.6-4.2-3.6-10.2-4.4-15.3-1.9-0.8-0.8-9.6-9.1-22.2-6.7-12.7 2.5-17.8 13.6-18.2 14.6-2.4-4-7-6.1-11.3-5.3-5.1 0.9-9 5.7-8.9 11.3-5.8-3.2-12.9-2.8-17.9 1-5.9 4.4-8.1 12.7-5 19.9z"/>
					<path class="s5" d="m204.9 284.7v-23.2c0-0.7-0.5-1.2-1.2-1.2-0.6 0-1.1 0.5-1.1 1.2v23.2c0 0.6 0.5 1.1 1.1 1.1 0.7 0 1.2-0.5 1.2-1.1z"/>
					<path class="s5" d="m207 278.3l23.9-12.1c0.6-0.2 0.8-0.9 0.6-1.5-0.3-0.6-1-0.8-1.6-0.5l-23.9 12.1c-0.6 0.3-0.8 1-0.5 1.5 0.3 0.6 1 0.8 1.5 0.5z"/>
					<path class="s5" d="m196.2 277.2l-17.7-14.4c-0.5-0.4-1.2-0.3-1.6 0.2-0.4 0.5-0.3 1.2 0.2 1.6l17.6 14.3c0.5 0.4 1.2 0.4 1.6-0.1 0.4-0.5 0.4-1.2-0.1-1.6z"/>
					<path class="s4" d="m255.2 281.4v-46.4c0-0.7-0.5-1.2-1.1-1.2-0.7 0-1.2 0.5-1.2 1.2v46.4c0 0.6 0.5 1.1 1.2 1.1 0.6 0 1.1-0.5 1.1-1.1z"/>
					<path class="s4" d="m255.5 268.5l43.9-13.7c0.6-0.1 1-0.8 0.8-1.4-0.2-0.6-0.9-0.9-1.5-0.7l-43.9 13.6c-0.6 0.2-0.9 0.8-0.7 1.4 0.2 0.6 0.8 0.9 1.4 0.8z"/>
					<path class="s4" d="m279.8 259.4l3.8-13.5c0.2-0.6-0.2-1.2-0.8-1.4-0.6-0.2-1.2 0.2-1.4 0.8l-3.9 13.5c-0.1 0.6 0.2 1.2 0.8 1.4 0.6 0.2 1.3-0.2 1.5-0.8z"/>
					<path class="s4" d="m250.8 247l-10.6-10.7c-0.4-0.5-1.2-0.5-1.6 0-0.5 0.4-0.5 1.1 0 1.6l10.5 10.7c0.5 0.5 1.2 0.5 1.6 0.1 0.5-0.5 0.5-1.2 0.1-1.7z"/>
				</g>
			</g>
			<g>
				<path class="s6" d="m430.5 306.1h-377c-2.8 0-5-2.2-5-4.9v-0.6c0-2.7 2.2-4.9 5-4.9h377c2.7 0 4.9 2.2 4.9 4.9v0.6c0 2.7-2.2 4.9-4.9 4.9z"/>
				<path class="s6" d="m412.7 313.7h-341.4c-3.3 0-6-2.7-6-6v-0.8c0-3.2 2.7-5.9 6-5.9h341.4c3.3 0 6 2.7 6 6v0.7c0 3.3-2.7 6-6 6z"/>
			</g>
			<g>
				<path class="s2" d="m405.4 297.8h-291.7c-0.8 0-1.4-0.6-1.4-1.4v-1.2c0-0.8 0.6-1.4 1.4-1.4h291.7c0.8 0 1.4 0.6 1.4 1.4v1.2c0 0.8-0.6 1.4-1.4 1.4z"/>
				<path class="s2" d="m308.8 310.8h94.9c1.8 0 3.3-1.5 3.3-3.3 0-1.9-1.5-3.3-3.3-3.3h-94.9c-1.9 0-3.3 1.4-3.3 3.3 0 1.8 1.4 3.3 3.3 3.3z"/>
				<path class="s2" d="m127.8 305h-53.2c-1.7 0-3.2-1.4-3.2-3.1 0-1.7 1.5-3.2 3.2-3.2h53.2c1.7 0 3.2 1.5 3.2 3.2 0 1.7-1.5 3.1-3.2 3.1z"/>
				<path class="s2" d="m216.1 306.9h-68.9c-2.3 0-4.1-1.8-4.1-4 0-2.3 1.8-4.1 4.1-4.1h68.9c2.3 0 4.1 1.8 4.1 4.1 0 2.2-1.8 4-4.1 4z"/>
			</g>
			<g>
				<path class="s7" d="m118.2 183.3l-1.6 4.1-17.9-5.3 2.8-5.9z"/>
				<path class="s3" d="m101.7 221.9l5.7 35.4-0.9 13h-6.3l0.5-12.8-8.8-32.1h-1.6c0 0-0.4 19-2 44.9h-6.5c0.3-12.8 0.1-27.8-1.7-38.8-1-5.6-0.5-11.8 0.1-16.6q9.9 1.8 19.8 0 1.2 3.4 1.7 7z"/>
				<path class="s7" d="m106.5 270.3l-1.8 25.4h-5.3l0.8-25.4z"/>
				<path class="s3" d="m96.3 155.9c0.2 1.3 0.1 2.6 0.7 3.7 0.7 1.2 2.1 1.9 2.4 3.2 0.6 2.3-2.7 4.3-2 6.6 0.3 1 1.3 1.6 1.9 2.4 0.7 1 0.9 2.5 0.5 3.7l-4-1.7h-4.7v-5.9c0.3 0.1 0.8 0.3 1.4 0.4 0.6 0 1.1 0 1.4-0.1 0.3-1.1 0.5-2.7 0.5-4.5 0-1.5-0.3-2.7-0.5-3.7-0.3-0.1-0.9-0.3-1.5-0.9-0.5-0.6-0.6-1.2-0.6-1.4-0.1 0.5-0.3 1.9-1.3 3.2-1.4 1.6-3.2 2-3.7 2.1 0.2 0.3 0.7 1.6 0.3 3.1-0.4 1.3-1.3 2.1-1.6 2.3 0.3 0.3 0.8 0.8 1.1 1.8 0.3 1 0.1 1.8 0.1 2.1q-0.5 0.8-1 1.5h-2.7c-0.8 0-1.6 0.5-2 1.2l-4.3 7.4-1.5 2.5q-0.8-0.4-1.4-1c-0.8-1-1.1-2.2-0.9-3.4 0.2-1.2 0.9-2.2 1-3.4 0-1.6-1.2-3.3-0.5-4.8 0.5-1.1 1.8-1.6 2.3-2.6 0.9-1.8-0.7-4 0.1-5.9 0.3-0.9 1.2-1.5 2.1-2 0.9-0.4 1.8-0.8 2.6-1.5 1.1-1 1.6-2.5 2.2-3.9 0.6-1.4 1.4-2.9 2.8-3.4 1.9-0.7 3.9 0.5 5.9 0.2 1-0.1 2-0.6 3-0.4 1.2 0.4 1.8 1.8 1.9 3.1z"/>
				<path class="s7" d="m81.8 270.3h6.5c-0.5 7.9-1.2 16.5-1.9 25.4h-5.8c0 0 0.9-11.3 1.2-25.4z"/>
				<path class="s7" d="m76.7 182.4l4.8 4.5-7.6 12.2-2.2 28.6-3 0.7-1.1-30.5 7.6-13 1.5-2.5z"/>
				<path class="s7" d="m94.4 163.7c0-1.5-0.3-2.7-0.5-3.7-0.3-0.1-0.9-0.3-1.5-0.9-0.5-0.6-0.6-1.2-0.6-1.4-0.1 0.5-0.3 1.9-1.3 3.2-1.4 1.6-3.2 2-3.7 2.1 0.2 0.3 0.7 1.6 0.3 3.1-0.4 1.3-1.2 2.1-1.6 2.3 0.3 0.3 0.8 0.8 1.1 1.8 0.3 1 0.1 1.8 0.1 2.1q-0.5 0.8-1 1.5c0.4 1.2 3.7 3.4 4.9 3.4 1.3 0 1.5-2.4 0.5-3.4v-5c1.7-0.2 2.8-0.6 2.8-0.6 0.3-1.1 0.5-2.7 0.5-4.5z"/>
				<path class="s8" d="m83 173.8h2.7c1.5 1.5 3.6 2 4.8 2 1.3 0 1-1 0.6-2h4.7l4 1.7 1.7 0.7-2.8 5.9-1-0.3c0 0 1.2 3.4 1.2 4.7 0.1 2.6-1.4 13.5-1 17.9 0.5 5.6 1.9 9.8 2.1 10.5q-9.9 1.8-19.8 0c0.1-1.5 1.6-5.3 1.8-9.4 0.4-8.4-0.5-18.6-0.5-18.6l-4.8-4.5 4.3-7.4c0.4-0.7 1.2-1.2 2-1.2z"/>
				<path class="s9" d="m81.5 186.9l2.7-3.6-2.2 14.2z"/>
				<path class="s8" d="m92 300.5l-5.6-4.8h-5.8l-0.2 3.9c0 0 7.3 2.1 9.4 2.2 1.1 0.1 1.8-0.2 2.2-0.5 0.3-0.2 0.3-0.6 0-0.8z"/>
				<path class="s8" d="m110.8 300.5l-6.1-4.8h-5.3l-0.2 3.9c0 0 7.3 2.1 9.3 2.2 1.1 0.1 1.9-0.2 2.3-0.5 0.3-0.2 0.3-0.6 0-0.8z"/>
				<path class="s7" d="m70.1 226.5c-2.2-0.2-2 3.7-1.9 5 0.3 3.3 2.9 4.2 3.8 4.1 0.8 0-0.6-4.7-0.4-4.8 0.5-0.2 0.7 2.2 1.3 2.1 0.8-0.2 0.4-3.3-0.2-4.5-0.7-1.2-1.3-1.8-2.6-1.9z"/>
			</g>
			<g>
				<g id="XMLID_37_">
					<g>
						<path class="s10" d="m373.6 170.2l26.4-19.5v145.2l-98.5-72.6 25.3-18.6 15.3-11.3z"/>
						<path class="s11" d="m400 150.7l-26.4 19.5v-12.7h-57.7v25.8h-12.7v-17.5h-84.3v-7.2h-56.6v3.7h-31.3l-15.7-11.6z"/>
						<path class="s10" d="m400 150.7h-284.7l126.4-65.2c10-5.2 21.8-5.2 31.8 0z"/>
						<path class="s11" d="m254.7 223.3h46.8l98.5 72.6h-284.7l98.6-72.6h13.7z"/>
						<path class="s12" d="m373.6 157.5v12.7l-31.5 23.2v-10.1h-26.2v-25.8z"/>
						<path class="s8" d="m315.9 183.3h26.2v10.1l-15.3 11.3v-14.4h-23.6v-7z"/>
						<path class="s13" d="m303.2 190.3h23.6v14.4l-25.3 18.6h-46.8v-33z"/>
						<path class="s5" d="m303.2 183.3v7h-48.5v33h-27.1v-46.1h-15.6v-11.4h6.9 84.3z"/>
						<g>
							<path class="s3" d="m219.9 175.3h34.1v3.2h-34.1z"/>
							<path class="s3" d="m219.9 184.9h75.4v3.3h-75.4z"/>
							<path class="s3" d="m219.9 192.7h75.4v3.2h-75.4z"/>
							<path class="s3" d="m219.9 200.5h75.4v3.2h-75.4z"/>
							<path class="s3" d="m219.9 208.3h75.4v3.2h-75.4z"/>
							<path class="s3" d="m219.9 216.1h75.4v3.2h-75.4z"/>
						</g>
						<path class="s3" d="m212 177.2h15.6v46.1h-13.7l-62.6-46.1h18.9z"/>
						<path class="s8" d="m218.9 158.6v7.2h-6.9v11.4h-41.8v-14.9h-7.9v-3.7z"/>
						<path class="s10" d="m151.3 177.2l62.6 46.1-98.6 72.6v-145.2l15.7 11.6z"/>
						<path class="s12" d="m162.3 162.3h7.9v14.9h-18.9l-20.3-14.9z"/>
						<g>
							<path class="s5" d="m209.4 195.7h-33l4.3 3.2h28.7z"/>
							<path class="s5" d="m209.4 211.2h-12l4.4 3.2h7.6z"/>
							<path class="s5" d="m209.4 203.4h-22.5l4.4 3.2h18.1z"/>
							<path class="s5" d="m167.7 189.2h15.5v-3.2h-19.9z"/>
							<path class="s5" d="m209.4 218.9h-1.4l1.4 1.1z"/>
						</g>
					</g>
				</g>
			</g>
			<path class="s8" d="m237.1 174.3h60.5v49.2h-60.5z"/>
			<g>
				<g>
					<path class="s5" d="m327.9 198.6l23.6 18.4-12.9 16.5-23.6-18.4z"/>
					<path class="s7" d="m335 224.1c-1.1-0.9-1.9-0.8-3.2-0.3-1.2 0.5-3.2 2.3-2.6 2.8 0.6 0.5 1.6-0.7 1.8-0.3 0 0.1-0.3 0.4-0.9 0.8-0.3 0.3-0.3 0.8 0 1.1l2.1 1.6q0.4-0.2 0.9-0.7c1-0.9 3.7-3.7 1.9-5z"/>
					<path class="s14" d="m322.9 307.2l6.8-3.8 4.8 0.3-0.3 3.9c0 0-7.2 1.5-9.2 1.3-1.1-0.1-1.8-0.5-2.2-0.8-0.3-0.3-0.2-0.7 0.1-0.9z"/>
					<path class="s14" d="m391.9 305l4.3-6.5 4.1-2.4 2.3 3.7c0 0-6.2 5-8.1 5.7-1 0.4-1.8 0.4-2.3 0.3-0.3-0.1-0.5-0.5-0.3-0.8z"/>
					<path class="s7" d="m376.9 219.2c2.1-0.2 2 3.7 1.9 5-0.3 3.3-2.9 4.2-3.7 4.1-0.9 0 0.5-4.7 0.2-4.8-0.4-0.2-0.6 2.2-1.2 2.1-0.8-0.1-0.4-3.3 0.2-4.5 0.6-1.2 1.2-1.8 2.6-1.9z"/>
					<g>
						<g id="XMLID_36_">
							<g>
								<path class="s3" d="m360.7 230.7l-6.4-16.9 18-3.7 1.8 10.1 6.3 36.5 19.9 39.4-4.1 2.4-24.2-38.4z"/>
								<path class="s15" d="m377.3 188.7l1.1 31.5-3.6 0.1-2.7-29.1-4.4-3.4-2.7-13.4q-0.1-0.3-0.2-0.5z"/>
								<path class="s16" d="m367.7 187.8l4.6 22.3-18 3.7-6.9-33.4q-0.2-1-0.2-2.1c0-1.9 0.6-3.8 4.6-8.6q1.7-1.1 3.7-1.6 0.8-0.1 1.6-0.1c3.6 0 6.8 2.4 7.7 5.9q0.1 0.2 0.2 0.5z"/>
								<path class="s17" d="m354.3 213.8l6.4 16.9-14.4 22.8-11.8 50.2-4.8-0.3 6.4-52.8z"/>
								<path class="s7" d="m349.8 159.9c-1.7-0.4-1.1 2.7-1.1 2.7l-0.8 0.2-0.9-2.9h-1.1l-0.9-1.8-1.3 0.4c0 0-4.2-0.4-2.7-2.1 1.5-1.7 8.4-4.9 12.3-1.3 3.9 3.6 2.4 9.2 2.4 9.2-1.9-0.5-3.6 0.3-3.6 0.3l-0.6-1.5-1.1 0.1c0 0 1.2-2.9-0.6-3.3z"/>
								<path class="s7" d="m352.1 164.6c0 0 1.7-0.8 3.6-0.3l1.4 3.7q-0.8 0-1.6 0.1-2 0.5-3.7 1.6l-0.9-2.5-2.5 1.5c0 0-6.1-4.2-4.7-10.2l1.3-0.4 0.9 1.8h1.1l0.9 2.9 0.8-0.2c0 0-0.6-3.1 1.1-2.7 1.8 0.3 0.6 3.3 0.6 3.3l1.1-0.1z"/>
							</g>
						</g>
					</g>
					<path class="s15" d="m335.5 225.7l-2.7-2.2 17.5-23.5 3.9-26.7c0.4-2.6 3-4.3 5.6-3.5 2.1 0.7 3.3 2.9 2.8 5.1l-6.6 28.5z"/>
				</g>
				<g>
					<path class="s3" d="m166.3 300.5l-6.1-4.8h-5.3l-0.2 3.9c0 0 7.2 2.1 9.3 2.2 1.1 0.1 1.8-0.2 2.3-0.5 0.3-0.2 0.3-0.6 0-0.8z"/>
					<path class="s3" d="m189.1 303.7l-6-4.8h-5.4l0.1 3.9c0 0 7 2.1 9.1 2.2 1.1 0.1 1.8-0.2 2.2-0.5 0.3-0.2 0.3-0.6 0-0.8z"/>
					<path class="s7" d="m241.4 171.8c-0.4-0.7-4.2 2.3-4.3 2.2-0.1-0.1-0.1-0.2 0-0.3v-1.6c-0.9 0.4-2.1 1.2-2.7 1.9-0.8 1-1.2 1.8-0.7 3.1 0.7 2 4.2 0.4 5.4-0.2 2.9-1.6 2.7-4.3 2.3-5.1z"/>
					<g>
						<g id="XMLID_35_">
							<g>
								<path class="s7" d="m187.3 158c0 0 0.8-3-1-2.7-1.7 0.2-0.8 3.2-0.8 3.2l-1-0.2-0.7 1.6c0 0-1.7-1-3.6-0.6 0 0-1.1-5.6 2.9-9 4.1-3.4 10.9 0.3 12.3 2 1.4 1.8-2.9 1.9-2.9 1.9l-1.2-0.5-1 1.8h-1.1l-1.1 2.8z"/>
								<path class="s14" d="m173.1 243.8c-5.2-8.4-12.9-23.4-12.9-37.9l17.7 4.9 10.3 38.2-5.1 49.9h-5.4v-48.3c0 0-2-2.6-4.6-6.8z"/>
								<path class="s7" d="m192.5 154.2c1 6.2-5.3 10-5.3 10l-2.4-1.7-1 2.2-5.3-1.7 1.7-3.7c1.9-0.4 3.6 0.6 3.6 0.6l0.7-1.5 1 0.1c0 0-0.9-3 0.8-3.2 1.8-0.3 1 2.7 1 2.7l0.8 0.3 1.1-2.8h1.1l1-1.8z"/>
								<path class="s18" d="m183.8 164.7l1.7 0.5v2.5c-0.9-0.9-2-1.5-3.2-1.8-2.6-0.7-5.2-0.4-7.5 0.6l2.5-3.8 1.2 0.3z"/>
								<path class="s18" d="m170.2 170.7q-0.8 1.2-1.2 2.8l-8.4 30.7-2.6-9.5c0 0 5.2-14.4 12.2-24z"/>
								<path class="s19" d="m160.6 204.2l8.4-30.7q0.4-1.6 1.2-2.8 0-0.1 0-0.1 0.7-0.9 1.4-1.8h0.1c0.9-1 1.9-1.7 3.1-2.3 2.3-1 4.9-1.3 7.5-0.6 1.2 0.3 2.3 0.9 3.2 1.8 1.5 1.4 2.4 3.4 2.4 5.5q0 1-0.3 1.9l-9.7 35.7-17.7-4.9z"/>
								<path class="s14" d="m160.2 205.9c0 14.5 7.7 29.5 12.9 37.9l-0.8 7-12.1 44.9h-5.3l8.4-44.7c0 0-5.7-29.7-3.1-45.1z"/>
								<path class="s3" d="m187.3 158c0 0 0.8-3-1-2.7-1.7 0.2-0.8 3.2-0.8 3.2l-1-0.2c0 0-2.4 1.6-4.3 1 0 0-1.1-5.6 3-9 4-3.4 10.8 0.3 12.2 2 1.4 1.8-2.9 1.9-2.9 1.9l-1.2-0.5-1 1.8h-1.1l-1.1 2.8z"/>
							</g>
						</g>
					</g>
					<path class="s18" d="m213.6 182.4l-27.9-14.3c-2-1-4.5-0.3-5.7 1.8-1.2 2.2-0.2 5.1 2.2 6l31.7 12.9 6.8-3.4-2.2-4.9z"/>
					<path class="s7" d="m233.8 174.9l-15.3 5.6 2.2 4.9 14.4-7.3z"/>
					<path class="s19" d="m221.2 185.7l-2.1 1.1-2.8-5.9 2.3-0.9z"/>
				</g>
				<path class="s3" d="m349.8 159.9c-1.7-0.4-1.1 2.7-1.1 2.7l-0.8 0.2-0.9-2.9h-1.1l-0.9-1.8-1.3 0.4c0 0-4.2-0.4-2.7-2.1 1.5-1.7 8.4-4.9 12.3-1.3 3.9 3.6 2.4 9.2 2.4 9.2-1.9-0.5-4.2-1.2-4.2-1.2 0 0 0.1-2.8-1.7-3.2z"/>
			</g>
			<g>
				<path class="s9" d="m243 182.2h22v3.2h-22z"/>
				<path class="s9" d="m243 191.8h48.6v3.2h-48.6z"/>
				<path class="s9" d="m243 200.1h48.6v3.2h-48.6z"/>
				<path class="s9" d="m243 208.4h48.6v3.2h-48.6z"/>
				<path class="s9" d="m243 216.7h48.6v3.2h-48.6z"/>
			</g>
			<g>
				<g>
					<path class="s11" d="m193.5 85h-113.8c-2.6 0-4.7-2.1-4.7-4.7v-0.6c0-2.5 2.1-4.6 4.7-4.6h113.8c2.5 0 4.6 2.1 4.6 4.6v0.6c0 2.6-2.1 4.7-4.6 4.7z"/>
					<path class="s11" d="m170.1 80h-78.1c-3.6 0-6.5-2.9-6.5-6.5v-0.8c0-3.6 2.9-6.6 6.5-6.6h78.1c3.6 0 6.5 3 6.5 6.6v0.8c0 3.6-2.9 6.5-6.5 6.5z"/>
					<path class="s11" d="m138 74.8h-27.1c-5.2 0-9.4-4.3-9.4-9.4v-1.2c0-5.2 4.2-9.4 9.4-9.4h27.1c5.2 0 9.5 4.2 9.5 9.4v1.2c0 5.1-4.3 9.4-9.5 9.4z"/>
				</g>
				<path class="s11" d="m365 88.9h-61.6c-1 0-1.9-0.9-1.9-2 0-1.1 0.9-1.9 1.9-1.9h61.6c1 0 1.9 0.8 1.9 1.9 0 1.1-0.9 2-1.9 2z"/>
				<path class="s11" d="m338.7 86.9h-25.3c-1.9 0-3.5-1.5-3.5-3.4 0-1.9 1.6-3.5 3.5-3.5h25.3c1.9 0 3.4 1.6 3.4 3.5 0 1.9-1.5 3.4-3.4 3.4z"/>
			</g>
		</g>
	</g>
</svg>